<svg xmlns="http://www.w3.org/2000/svg" width="2000" height="2000" viewBox="0 0 2000 2000" version="1.1">
	<path fill-opacity="0.235" d="M 699.750 409.761 L 660 410.023 660 1166.022 L 660 1922.021 704.250 1921.760 L 748.500 1921.500 749 1210 L 749.500 498.500 1004 498.500 L 1258.500 498.500 1258.742 1209 C 1258.874 1599.775, 1259.191 1920.045, 1259.445 1920.711 C 1259.797 1921.632, 1270.324 1921.933, 1303.454 1921.967 L 1347 1922.013 1347.104 1919.256 C 1347.162 1917.740, 1347.274 1577.705, 1347.354 1163.623 C 1347.458 625.585, 1347.192 410.627, 1346.421 410.331 C 1345.211 409.867, 761.839 409.353, 699.750 409.761" stroke="none" fill="black" fill-rule="evenodd"/>
	<path fill-opacity="0.031" d="M 1346.497 1166 C 1346.497 1581.525, 1346.611 1751.513, 1346.750 1543.750 C 1346.889 1335.988, 1346.889 996.013, 1346.750 788.250 C 1346.611 580.488, 1346.497 750.475, 1346.497 1166 M 664 1167 C 664 1608.777, 664.370 1921, 664.893 1921 C 665.384 1921, 666.171 1920.213, 666.641 1919.250 C 667.112 1918.287, 667.578 1581.259, 667.678 1169.686 C 667.819 592.409, 668.133 421.545, 669.053 420.436 C 670.086 419.192, 715.085 419.008, 1004.456 419.068 C 1316.751 419.132, 1338.686 419.247, 1338.966 420.818 C 1339.589 424.324, 1339.469 1912.701, 1338.845 1916.750 C 1338.214 1920.847, 1338.286 1921, 1340.845 1921 L 1343.500 1921 1343.500 1167 L 1343.500 413 1003.750 413 L 664 413 664 1167 M 1332.073 425.412 C 1331.069 426.622, 1284.195 426.835, 1003.754 426.902 C 748.583 426.964, 676.442 426.714, 675.858 425.769 C 675.446 425.103, 674.837 424.830, 674.504 425.162 C 673.709 425.958, 673.714 1911.610, 674.509 1915.479 C 675.439 1919.998, 678.212 1921.341, 679.942 1918.109 C 682.046 1914.178, 682.093 1910.578, 682.088 1753.500 C 682.086 1687.500, 682.102 1629.900, 682.123 1625.500 C 682.145 1621.100, 682.119 1586.225, 682.067 1548 C 681.972 1479.098, 681.965 1287.062, 682.055 1200.500 C 682.118 1139.897, 682.120 800.694, 682.058 790 C 682.031 785.325, 682.043 764.625, 682.085 744 C 682.127 723.375, 682.139 700.200, 682.111 692.500 C 682.084 684.800, 682.090 653.075, 682.126 622 C 682.161 590.925, 682.160 559.425, 682.124 552 C 682.088 544.575, 682.110 514.854, 682.173 485.952 C 682.257 447.331, 681.975 432.821, 681.108 431.202 L 679.930 429 1003.572 429 C 1311.462 429, 1327.172 429.085, 1326.357 430.750 C 1325.883 431.717, 1325.498 765.422, 1325.495 1176.750 L 1325.489 1921 1330.352 1921 C 1334.240 1921, 1335.100 1920.703, 1334.644 1919.516 C 1334.041 1917.942, 1333.956 1908.440, 1333.950 1841.500 C 1333.858 871.448, 1333.719 424, 1333.508 424 C 1333.363 424, 1332.718 424.635, 1332.073 425.412 M 660.158 428 C 660.158 429.375, 660.385 429.938, 660.662 429.250 C 660.940 428.563, 660.940 427.438, 660.662 426.750 C 660.385 426.063, 660.158 426.625, 660.158 428 M 660.079 434.583 C 660.127 435.748, 660.364 435.985, 660.683 435.188 C 660.972 434.466, 660.936 433.603, 660.604 433.271 C 660.272 432.939, 660.036 433.529, 660.079 434.583 M 1330.158 435 C 1330.158 436.375, 1330.385 436.938, 1330.662 436.250 C 1330.940 435.563, 1330.940 434.438, 1330.662 433.750 C 1330.385 433.063, 1330.158 433.625, 1330.158 435 M 1330.465 489.500 C 1330.465 518.100, 1330.593 529.656, 1330.749 515.180 C 1330.906 500.704, 1330.906 477.304, 1330.749 463.180 C 1330.593 449.056, 1330.465 460.900, 1330.465 489.500 M 703 453 L 706.168 457 1003.388 457 L 1300.608 457 1303.804 453.702 C 1305.562 451.889, 1307 450.089, 1307 449.702 C 1307 449.316, 1170.387 449, 1003.416 449 L 699.832 449 703 453 M 660.079 457.583 C 660.127 458.748, 660.364 458.985, 660.683 458.188 C 660.972 457.466, 660.936 456.603, 660.604 456.271 C 660.272 455.939, 660.036 456.529, 660.079 457.583 M 717.850 473.500 C 717.646 482.326, 717.636 482.400, 716.500 483.235 C 715.872 483.696, 715.944 483.975, 716.694 483.985 C 718.266 484.005, 718.348 592.831, 716.778 594.750 C 716.070 595.615, 716.101 596, 716.878 596 C 717.573 596, 718 598.115, 718 601.559 C 718 604.772, 717.603 606.873, 717.061 606.537 C 716.544 606.218, 716.190 606.866, 716.273 607.978 C 716.357 609.090, 716.892 610.007, 717.463 610.015 C 718.033 610.024, 717.825 610.467, 717 611 C 716 611.646, 715.917 611.974, 716.750 611.985 C 717.449 611.993, 718 613.235, 718 614.800 C 718 616.340, 717.438 618.206, 716.750 618.947 C 715.995 619.760, 715.953 620.040, 716.645 619.652 C 717.500 619.174, 717.781 633.716, 717.752 676.976 C 717.731 708.857, 717.441 734.772, 717.107 734.566 C 716.354 734.100, 716.544 738.960, 717.359 741 C 718.228 743.177, 717.537 763.322, 716.537 764.940 C 715.994 765.818, 716.069 766.076, 716.745 765.658 C 717.468 765.211, 717.834 770.970, 717.912 784.003 C 717.999 798.683, 717.737 803.003, 716.762 803.015 C 715.783 803.027, 715.774 803.204, 716.718 803.805 C 718.262 804.785, 718.054 849.085, 716.500 850.250 C 715.833 850.750, 715.833 851.250, 716.500 851.750 C 717.721 852.666, 717.752 855.012, 716.569 856.905 C 715.967 857.867, 716.054 858.084, 716.845 857.595 C 718.268 856.716, 718.379 860.191, 717.074 864.743 C 716.564 866.520, 716.491 868.185, 716.911 868.445 C 717.961 869.094, 717.680 899.171, 716.607 900.862 C 716.069 901.710, 716.212 902.513, 716.985 902.991 C 717.951 903.588, 717.924 903.878, 716.863 904.300 C 715.895 904.685, 715.862 904.865, 716.750 904.921 C 717.575 904.973, 718 906.721, 718 910.059 C 718 913.840, 717.684 914.928, 716.750 914.367 C 715.783 913.786, 715.762 913.943, 716.656 915.058 C 718.098 916.856, 718.214 938.707, 716.796 941.371 C 716.091 942.695, 716.122 943.043, 716.900 942.562 C 717.620 942.117, 717.976 943.026, 717.930 945.191 C 717.871 947.948, 717.716 948.166, 717 946.500 C 716.180 944.592, 716.137 944.603, 716.070 946.750 C 716.032 947.987, 716.425 949, 716.945 949 C 717.466 949, 717.694 950.913, 717.453 953.250 C 716.733 960.233, 716.674 967.664, 717.331 968.726 C 717.669 969.273, 717.649 970.018, 717.286 970.381 C 716.308 971.359, 716.204 974.992, 717.171 974.395 C 717.627 974.113, 718 974.359, 718 974.941 C 718 975.523, 717.646 976, 717.214 976 C 716.782 976, 716.429 976.900, 716.429 978 C 716.429 979.100, 716.707 980, 717.047 980 C 717.861 980, 717.570 983.764, 716.687 984.646 C 716.309 985.024, 716.007 985.821, 716.015 986.417 C 716.024 987.012, 716.467 986.825, 717 986 C 717.780 984.793, 717.972 984.951, 717.985 986.809 C 717.993 988.121, 717.561 988.847, 716.984 988.490 C 716.333 988.088, 716.123 989.413, 716.399 992.181 C 716.637 994.556, 716.906 996.500, 716.998 996.500 C 717.089 996.500, 717.363 997.850, 717.606 999.500 C 717.937 1001.750, 717.795 1002.125, 717.039 1001 C 716.426 1000.089, 716.025 999.968, 716.015 1000.691 C 716.007 1001.346, 716.394 1002.125, 716.875 1002.423 C 717.865 1003.034, 717.426 1019.501, 716.375 1021.203 C 715.945 1021.898, 716.152 1022.024, 716.930 1021.543 C 717.856 1020.971, 718.104 1021.880, 717.912 1025.139 C 717.771 1027.537, 717.267 1030.287, 716.792 1031.250 C 716.318 1032.213, 716.303 1033, 716.760 1033 C 717.217 1033, 717.689 1034.688, 717.808 1036.750 C 717.969 1039.531, 717.767 1040.112, 717.028 1039 C 716.424 1038.092, 716.025 1037.970, 716.015 1038.691 C 716.007 1039.346, 716.450 1040.160, 717 1040.500 C 717.550 1040.840, 718 1041.568, 718 1042.118 C 718 1042.668, 717.550 1042.840, 717 1042.500 C 716.450 1042.160, 716 1042.359, 716 1042.941 C 716 1043.523, 716.450 1044, 717 1044 C 718.463 1044, 718.231 1051.739, 716.750 1052.341 C 715.940 1052.669, 715.852 1053.139, 716.500 1053.674 C 717.904 1054.834, 718.302 1058, 717.044 1058 C 716.470 1058, 716 1058.702, 716 1059.559 C 716 1060.416, 716.450 1060.840, 717 1060.500 C 717.550 1060.160, 718 1060.584, 718 1061.441 C 718 1062.298, 717.550 1063, 717 1063 C 716.450 1063, 716.007 1063.787, 716.015 1064.750 C 716.028 1066.246, 716.172 1066.282, 717 1065 C 717.784 1063.787, 717.972 1063.931, 717.985 1065.750 C 717.993 1066.987, 717.460 1068, 716.800 1068 C 715.867 1068, 715.867 1068.267, 716.800 1069.200 C 717.460 1069.860, 717.993 1070.873, 717.985 1071.450 C 717.976 1072.028, 717.533 1071.825, 717 1071 C 716.277 1069.881, 716.027 1070.431, 716.015 1073.167 C 716.007 1075.183, 716.563 1077.062, 717.250 1077.341 C 718.191 1077.722, 718.129 1078.110, 717 1078.909 C 715.954 1079.648, 715.884 1079.974, 716.770 1079.985 C 717.626 1079.995, 717.851 1080.894, 717.461 1082.750 C 716.594 1086.870, 716.404 1096.133, 717.176 1096.610 C 717.548 1096.839, 717.465 1098.380, 716.991 1100.033 C 716.462 1101.875, 716.491 1102.815, 717.064 1102.460 C 717.579 1102.142, 718 1102.359, 718 1102.941 C 718 1103.523, 717.646 1104, 717.214 1104 C 716.782 1104, 716.429 1104.900, 716.429 1106 C 716.429 1107.100, 716.707 1108, 717.047 1108 C 717.911 1108, 717.581 1111.250, 716.548 1112.922 C 715.966 1113.864, 716.061 1114.080, 716.845 1113.595 C 717.624 1113.114, 718 1113.898, 718 1116 C 718 1117.715, 717.663 1118.909, 717.250 1118.654 C 716.837 1118.399, 716.578 1119.610, 716.673 1121.345 C 716.768 1123.080, 716.914 1124.500, 716.997 1124.500 C 717.910 1124.500, 717.720 1129.642, 716.764 1130.823 C 715.724 1132.108, 715.745 1132.236, 716.885 1131.550 C 718.028 1130.861, 718.135 1131.569, 717.497 1135.608 C 716.311 1143.122, 716.234 1146.027, 717.207 1146.628 C 717.697 1146.931, 717.570 1147.813, 716.926 1148.589 C 716.057 1149.636, 716.045 1150.349, 716.878 1151.354 C 718.121 1152.850, 718.041 1158.143, 716.788 1157.369 C 715.658 1156.671, 715.815 1160.786, 717.003 1163.005 C 717.673 1164.257, 717.673 1165.084, 717.003 1165.498 C 715.697 1166.305, 715.695 1173, 717 1173 C 717.550 1173, 718 1173.900, 718 1175 C 718 1176.100, 717.550 1177, 717 1177 C 715.616 1177, 715.740 1182.340, 717.158 1183.758 C 718.034 1184.634, 718.005 1185.289, 717.035 1186.458 C 716.166 1187.504, 716.116 1188, 716.878 1188 C 717.495 1188, 718 1188.675, 718 1189.500 C 718 1190.325, 717.550 1191, 717 1191 C 716.450 1191, 716.007 1191.787, 716.015 1192.750 C 716.028 1194.246, 716.172 1194.282, 717 1193 C 717.784 1191.787, 717.972 1191.931, 717.985 1193.750 C 717.993 1194.987, 717.460 1196, 716.800 1196 C 715.913 1196, 715.892 1196.292, 716.723 1197.123 C 717.523 1197.923, 717.545 1198.905, 716.798 1200.545 C 716.058 1202.168, 716.077 1203.783, 716.863 1206.037 C 717.475 1207.793, 717.683 1209.704, 717.324 1210.285 C 716.544 1211.547, 716.662 1223.644, 717.467 1224.947 C 717.778 1225.450, 717.573 1226.146, 717.011 1226.493 C 715.767 1227.262, 715.960 1236, 717.221 1236 C 717.714 1236, 717.765 1236.563, 717.334 1237.250 C 716.903 1237.938, 716.416 1239.625, 716.252 1241 C 716.018 1242.959, 716.171 1243.175, 716.961 1242 C 717.782 1240.779, 717.972 1240.930, 717.985 1242.809 C 717.993 1244.102, 717.558 1244.845, 716.996 1244.498 C 716.360 1244.105, 716.156 1245.455, 716.439 1248.189 C 716.684 1250.560, 716.944 1252.500, 717.017 1252.500 C 717.914 1252.500, 717.708 1257.657, 716.764 1258.823 C 715.724 1260.108, 715.745 1260.236, 716.885 1259.550 C 718.027 1258.861, 718.137 1259.572, 717.513 1263.608 C 716.322 1271.300, 716.076 1281.071, 717.089 1280.445 C 717.590 1280.135, 718 1280.359, 718 1280.941 C 718 1281.523, 717.550 1282, 717 1282 C 715.654 1282, 715.726 1288.619, 717.100 1291.186 C 717.899 1292.681, 717.899 1293.056, 717.100 1292.562 C 716.362 1292.105, 716 1293.381, 716 1296.441 C 716 1299.413, 716.435 1301.005, 717.250 1301.015 C 718.165 1301.027, 718.135 1301.262, 717.137 1301.894 C 715.986 1302.623, 715.986 1302.843, 717.137 1303.303 C 718.255 1303.750, 718.230 1304.039, 717 1304.909 C 715.814 1305.747, 715.787 1305.973, 716.872 1305.985 C 718.008 1305.997, 718.020 1306.272, 716.937 1307.576 C 716.163 1308.508, 716.011 1309.428, 716.564 1309.826 C 717.911 1310.796, 718.279 1314, 717.044 1314 C 716.470 1314, 716 1314.702, 716 1315.559 C 716 1316.416, 716.450 1316.840, 717 1316.500 C 717.550 1316.160, 718 1316.546, 718 1317.358 C 718 1318.169, 717.469 1319.010, 716.820 1319.227 C 716.059 1319.480, 715.931 1320.308, 716.459 1321.560 C 717.559 1324.166, 717.833 1327.015, 716.930 1326.457 C 716.529 1326.209, 716.260 1328.255, 716.332 1331.003 C 716.404 1333.751, 716.777 1336, 717.162 1336 C 717.546 1336, 717.499 1337.259, 717.058 1338.799 C 716.087 1342.183, 716.268 1351.016, 717.343 1352.750 C 717.781 1353.456, 717.649 1354, 717.041 1354 C 716.391 1354, 716.034 1355.984, 716.140 1359 C 716.238 1361.750, 716.722 1364, 717.218 1364 C 717.713 1364, 717.765 1364.563, 717.334 1365.250 C 715.947 1367.464, 715.781 1371.253, 717.109 1370.433 C 717.938 1369.920, 718.046 1370.117, 717.458 1371.068 C 716.990 1371.826, 716.530 1375.608, 716.436 1379.473 C 716.331 1383.805, 716.571 1385.733, 717.063 1384.500 C 717.705 1382.887, 717.873 1382.827, 717.930 1384.191 C 717.968 1385.121, 717.590 1386.135, 717.089 1386.445 C 716.320 1386.920, 716.298 1389.092, 717.042 1391 C 717.149 1391.275, 717.150 1391.939, 717.043 1392.475 C 716.475 1395.343, 716.526 1405.793, 717.107 1405.434 C 717.481 1405.203, 717.723 1406.135, 717.644 1407.506 C 717.565 1408.877, 717.254 1409.999, 716.954 1409.999 C 715.874 1410.001, 715.962 1417.060, 717.068 1419.127 C 717.866 1420.618, 717.875 1421.041, 717.100 1420.562 C 715.561 1419.611, 715.654 1427.254, 717.200 1428.800 C 718.133 1429.733, 718.089 1430, 717 1430 C 715.911 1430, 715.867 1430.267, 716.800 1431.200 C 717.460 1431.860, 717.955 1433.322, 717.900 1434.450 C 717.815 1436.207, 717.686 1436.143, 717 1434 C 716.269 1431.718, 716.191 1431.810, 716.100 1435.050 C 716.045 1437.003, 716.540 1439.140, 717.200 1439.800 C 718.133 1440.733, 718.133 1441.267, 717.200 1442.200 C 715.749 1443.651, 715.600 1445.365, 717 1444.500 C 718.412 1443.627, 718.245 1445.355, 716.775 1446.825 C 715.808 1447.792, 715.810 1448.466, 716.784 1450.025 C 717.469 1451.122, 717.585 1452, 717.046 1452 C 716.503 1452, 716.167 1454.643, 716.284 1458 C 716.399 1461.300, 716.800 1464, 717.177 1464 C 717.553 1464, 717.529 1465.237, 717.124 1466.750 C 716.207 1470.176, 716.363 1479.161, 717.369 1480.788 C 717.781 1481.454, 717.638 1482, 717.052 1482 C 716.364 1482, 716.064 1484.988, 716.207 1490.426 C 716.352 1495.916, 716.790 1498.637, 717.465 1498.234 C 718.072 1497.872, 718.039 1498.213, 717.387 1499.058 C 716.235 1500.550, 716.034 1517.367, 717.154 1518.487 C 717.491 1518.824, 717.447 1520.540, 717.056 1522.300 C 715.927 1527.377, 715.995 1566, 717.132 1566 C 717.674 1566, 717.766 1566.562, 717.336 1567.250 C 716.054 1569.300, 715.944 1627.153, 717.224 1626.362 C 717.941 1625.918, 718.014 1626.167, 717.437 1627.095 C 716.132 1629.196, 715.828 1641.088, 717.042 1642.550 C 717.785 1643.446, 717.773 1644.022, 717 1644.500 C 716.236 1644.972, 716.219 1645.559, 716.943 1646.431 C 717.515 1647.120, 717.762 1647.905, 717.492 1648.175 C 716.498 1649.169, 716.288 1663.541, 717.250 1664.750 C 717.817 1665.462, 717.848 1666, 717.322 1666 C 716.805 1666, 716.352 1672.380, 716.294 1680.501 C 716.225 1689.988, 716.537 1694.786, 717.194 1694.380 C 717.794 1694.009, 717.756 1694.588, 717.100 1695.814 C 715.726 1698.381, 715.656 1702.330, 717 1701.500 C 717.550 1701.160, 718 1701.359, 718 1701.941 C 718 1702.523, 717.647 1703, 717.216 1703 C 716.255 1703, 716.225 1773.558, 717.186 1774.519 C 717.564 1774.897, 717.500 1776.186, 717.044 1777.385 C 716.031 1780.049, 716.447 1914.225, 717.482 1918.676 C 717.978 1920.810, 718.677 1921.678, 719.610 1921.319 C 720.795 1920.865, 721 1813.701, 721 1195.501 L 721 470.217 723.250 469.693 C 724.487 469.406, 851.725 469.161, 1006 469.151 L 1286.500 469.131 1286.248 1195.082 L 1285.996 1921.032 1288.998 1920.803 C 1291.774 1920.592, 1292 1920.285, 1292 1916.728 C 1292 1914.419, 1291.600 1913.129, 1291 1913.500 C 1290.334 1913.912, 1290 1672.677, 1290 1190.559 L 1290 467 1004 467 L 718 467 717.850 473.500 M 726.004 1197.377 C 725.999 1774.374, 726.250 1919.949, 727.249 1920.726 C 728.644 1921.810, 748 1922.154, 748 1921.095 C 748 1920.726, 744.515 1920.293, 740.257 1920.135 C 735.998 1919.976, 732.285 1919.618, 732.007 1919.340 C 731.540 1918.873, 731.783 1207.613, 732.420 708.500 C 732.715 476.786, 732.222 493.576, 738.823 490.424 C 742.591 488.624, 761.914 487.734, 765.872 489.178 C 767.242 489.678, 768.720 489.661, 769.372 489.137 C 769.996 488.636, 780.095 488.379, 792 488.561 C 803.825 488.742, 816.875 488.866, 821 488.836 C 843.925 488.670, 850.623 488.420, 851.750 487.691 C 852.438 487.246, 853 487.274, 853 487.752 C 853 488.231, 861.438 488.585, 871.750 488.539 C 882.063 488.493, 891.815 488.793, 893.422 489.207 C 895.029 489.621, 896.829 489.576, 897.422 489.107 C 898.015 488.638, 908.175 488.398, 920 488.574 C 942.509 488.908, 952.926 488.917, 959.322 488.608 C 961.424 488.506, 963.367 488.785, 963.641 489.228 C 963.914 489.670, 964.616 489.737, 965.200 489.376 C 966.755 488.415, 1019.079 488.286, 1021.872 489.236 C 1023.176 489.680, 1024.751 489.638, 1025.372 489.143 C 1026.778 488.020, 1066.795 488.341, 1069.414 489.496 C 1070.550 489.997, 1071.097 489.966, 1070.760 489.420 C 1070.426 488.881, 1074.185 488.561, 1079.846 488.648 C 1085.156 488.730, 1090.022 488.370, 1090.661 487.850 C 1091.338 487.297, 1092.053 487.277, 1092.377 487.801 C 1092.682 488.295, 1097.335 488.625, 1102.716 488.534 C 1108.097 488.444, 1113.063 488.791, 1113.750 489.307 C 1114.438 489.823, 1115 489.852, 1115 489.372 C 1115.001 488.278, 1149.032 488.275, 1150.794 489.369 C 1151.505 489.811, 1152.630 489.744, 1153.294 489.221 C 1153.999 488.665, 1163.425 488.394, 1176 488.568 C 1187.825 488.732, 1200.875 488.828, 1205 488.781 C 1209.125 488.734, 1213.625 488.724, 1215 488.759 C 1216.375 488.795, 1218.149 488.301, 1218.942 487.662 C 1219.846 486.933, 1220.141 486.907, 1219.732 487.589 C 1219.276 488.352, 1222.382 488.634, 1230.098 488.528 C 1236.157 488.445, 1241.341 488.743, 1241.618 489.191 C 1241.895 489.639, 1242.882 489.654, 1243.811 489.225 C 1246.477 487.993, 1264.423 488.518, 1267.826 489.928 C 1271.938 491.631, 1273.603 494.434, 1274.403 501.001 C 1275.271 508.128, 1275.312 1913.910, 1274.444 1917.367 C 1273.831 1919.808, 1273.371 1920.006, 1268.142 1920.086 C 1263.525 1920.156, 1263.001 1920.323, 1265.258 1921.002 C 1267.455 1921.662, 1276.202 1921.728, 1280.249 1921.114 C 1280.660 1921.051, 1281.110 1595.650, 1281.249 1198 L 1281.500 475 1003.755 475 L 726.010 475 726.004 1197.377 M 660.079 496.583 C 660.127 497.748, 660.364 497.985, 660.683 497.188 C 660.972 496.466, 660.936 495.603, 660.604 495.271 C 660.272 494.939, 660.036 495.529, 660.079 496.583 M 756.813 497.683 C 757.534 497.972, 758.397 497.936, 758.729 497.604 C 759.061 497.272, 758.471 497.036, 757.417 497.079 C 756.252 497.127, 756.015 497.364, 756.813 497.683 M 764.280 497.736 C 766.909 497.943, 770.959 497.940, 773.280 497.731 C 775.601 497.521, 773.450 497.352, 768.500 497.355 C 763.550 497.358, 761.651 497.530, 764.280 497.736 M 784.264 497.718 C 785.784 497.947, 788.034 497.941, 789.264 497.704 C 790.494 497.467, 789.250 497.279, 786.500 497.286 C 783.750 497.294, 782.744 497.488, 784.264 497.718 M 793.750 497.706 C 794.987 497.944, 797.013 497.944, 798.250 497.706 C 799.487 497.467, 798.475 497.272, 796 497.272 C 793.525 497.272, 792.513 497.467, 793.750 497.706 M 801.813 497.683 C 802.534 497.972, 803.397 497.936, 803.729 497.604 C 804.061 497.272, 803.471 497.036, 802.417 497.079 C 801.252 497.127, 801.015 497.364, 801.813 497.683 M 819.269 497.693 C 820.242 497.947, 821.592 497.930, 822.269 497.656 C 822.946 497.382, 822.150 497.175, 820.500 497.195 C 818.850 497.215, 818.296 497.439, 819.269 497.693 M 828.250 497.735 C 830.862 497.941, 835.138 497.941, 837.750 497.735 C 840.362 497.529, 838.225 497.360, 833 497.360 C 827.775 497.360, 825.638 497.529, 828.250 497.735 M 846.776 497.733 C 849.128 497.945, 852.728 497.942, 854.776 497.727 C 856.824 497.512, 854.900 497.339, 850.500 497.343 C 846.100 497.346, 844.424 497.522, 846.776 497.733 M 864.750 497.662 C 865.438 497.940, 866.563 497.940, 867.250 497.662 C 867.938 497.385, 867.375 497.158, 866 497.158 C 864.625 497.158, 864.063 497.385, 864.750 497.662 M 881.762 497.707 C 883.006 497.946, 884.806 497.937, 885.762 497.687 C 886.718 497.437, 885.700 497.241, 883.500 497.252 C 881.300 497.263, 880.518 497.468, 881.762 497.707 M 892.280 497.736 C 894.909 497.943, 898.959 497.940, 901.280 497.731 C 903.601 497.521, 901.450 497.352, 896.500 497.355 C 891.550 497.358, 889.651 497.530, 892.280 497.736 M 912.264 497.718 C 913.784 497.947, 916.034 497.941, 917.264 497.704 C 918.494 497.467, 917.250 497.279, 914.500 497.286 C 911.750 497.294, 910.744 497.488, 912.264 497.718 M 921.750 497.706 C 922.987 497.944, 925.013 497.944, 926.250 497.706 C 927.487 497.467, 926.475 497.272, 924 497.272 C 921.525 497.272, 920.513 497.467, 921.750 497.706 M 929.813 497.683 C 930.534 497.972, 931.397 497.936, 931.729 497.604 C 932.061 497.272, 931.471 497.036, 930.417 497.079 C 929.252 497.127, 929.015 497.364, 929.813 497.683 M 947.269 497.693 C 948.242 497.947, 949.592 497.930, 950.269 497.656 C 950.946 497.382, 950.150 497.175, 948.500 497.195 C 946.850 497.215, 946.296 497.439, 947.269 497.693 M 956.250 497.735 C 958.862 497.941, 963.138 497.941, 965.750 497.735 C 968.362 497.529, 966.225 497.360, 961 497.360 C 955.775 497.360, 953.638 497.529, 956.250 497.735 M 974.776 497.733 C 977.128 497.945, 980.728 497.942, 982.776 497.727 C 984.824 497.512, 982.900 497.339, 978.500 497.343 C 974.100 497.346, 972.424 497.522, 974.776 497.733 M 987.750 497.662 C 988.438 497.940, 989.563 497.940, 990.250 497.662 C 990.938 497.385, 990.375 497.158, 989 497.158 C 987.625 497.158, 987.063 497.385, 987.750 497.662 M 992.750 497.662 C 993.438 497.940, 994.563 497.940, 995.250 497.662 C 995.938 497.385, 995.375 497.158, 994 497.158 C 992.625 497.158, 992.063 497.385, 992.750 497.662 M 1006.768 497.725 C 1008.565 497.947, 1011.265 497.943, 1012.768 497.715 C 1014.271 497.486, 1012.800 497.304, 1009.500 497.310 C 1006.200 497.315, 1004.971 497.502, 1006.768 497.725 M 1020.280 497.736 C 1022.909 497.943, 1026.959 497.940, 1029.280 497.731 C 1031.601 497.521, 1029.450 497.352, 1024.500 497.355 C 1019.550 497.358, 1017.651 497.530, 1020.280 497.736 M 1040.264 497.718 C 1041.784 497.947, 1044.034 497.941, 1045.264 497.704 C 1046.494 497.467, 1045.250 497.279, 1042.500 497.286 C 1039.750 497.294, 1038.744 497.488, 1040.264 497.718 M 1049.750 497.706 C 1050.987 497.944, 1053.013 497.944, 1054.250 497.706 C 1055.487 497.467, 1054.475 497.272, 1052 497.272 C 1049.525 497.272, 1048.513 497.467, 1049.750 497.706 M 1057.813 497.683 C 1058.534 497.972, 1059.397 497.936, 1059.729 497.604 C 1060.061 497.272, 1059.471 497.036, 1058.417 497.079 C 1057.252 497.127, 1057.015 497.364, 1057.813 497.683 M 1061.813 497.683 C 1062.534 497.972, 1063.397 497.936, 1063.729 497.604 C 1064.061 497.272, 1063.471 497.036, 1062.417 497.079 C 1061.252 497.127, 1061.015 497.364, 1061.813 497.683 M 1075.269 497.693 C 1076.242 497.947, 1077.592 497.930, 1078.269 497.656 C 1078.946 497.382, 1078.150 497.175, 1076.500 497.195 C 1074.850 497.215, 1074.296 497.439, 1075.269 497.693 M 1084.250 497.735 C 1086.862 497.941, 1091.138 497.941, 1093.750 497.735 C 1096.362 497.529, 1094.225 497.360, 1089 497.360 C 1083.775 497.360, 1081.638 497.529, 1084.250 497.735 M 1102.776 497.733 C 1105.128 497.945, 1108.728 497.942, 1110.776 497.727 C 1112.824 497.512, 1110.900 497.339, 1106.500 497.343 C 1102.100 497.346, 1100.424 497.522, 1102.776 497.733 M 1115.750 497.662 C 1116.438 497.940, 1117.563 497.940, 1118.250 497.662 C 1118.938 497.385, 1118.375 497.158, 1117 497.158 C 1115.625 497.158, 1115.063 497.385, 1115.750 497.662 M 1120.750 497.662 C 1121.438 497.940, 1122.563 497.940, 1123.250 497.662 C 1123.938 497.385, 1123.375 497.158, 1122 497.158 C 1120.625 497.158, 1120.063 497.385, 1120.750 497.662 M 1134.768 497.725 C 1136.565 497.947, 1139.265 497.943, 1140.768 497.715 C 1142.271 497.486, 1140.800 497.304, 1137.500 497.310 C 1134.200 497.315, 1132.971 497.502, 1134.768 497.725 M 1148.280 497.736 C 1150.909 497.943, 1154.959 497.940, 1157.280 497.731 C 1159.601 497.521, 1157.450 497.352, 1152.500 497.355 C 1147.550 497.358, 1145.651 497.530, 1148.280 497.736 M 1168.264 497.718 C 1169.784 497.947, 1172.034 497.941, 1173.264 497.704 C 1174.494 497.467, 1173.250 497.279, 1170.500 497.286 C 1167.750 497.294, 1166.744 497.488, 1168.264 497.718 M 1177.750 497.706 C 1178.987 497.944, 1181.013 497.944, 1182.250 497.706 C 1183.487 497.467, 1182.475 497.272, 1180 497.272 C 1177.525 497.272, 1176.513 497.467, 1177.750 497.706 M 1185.813 497.683 C 1186.534 497.972, 1187.397 497.936, 1187.729 497.604 C 1188.061 497.272, 1187.471 497.036, 1186.417 497.079 C 1185.252 497.127, 1185.015 497.364, 1185.813 497.683 M 1189.813 497.683 C 1190.534 497.972, 1191.397 497.936, 1191.729 497.604 C 1192.061 497.272, 1191.471 497.036, 1190.417 497.079 C 1189.252 497.127, 1189.015 497.364, 1189.813 497.683 M 1203.269 497.693 C 1204.242 497.947, 1205.592 497.930, 1206.269 497.656 C 1206.946 497.382, 1206.150 497.175, 1204.500 497.195 C 1202.850 497.215, 1202.296 497.439, 1203.269 497.693 M 1212.250 497.735 C 1214.862 497.941, 1219.138 497.941, 1221.750 497.735 C 1224.362 497.529, 1222.225 497.360, 1217 497.360 C 1211.775 497.360, 1209.638 497.529, 1212.250 497.735 M 1230.776 497.733 C 1233.128 497.945, 1236.728 497.942, 1238.776 497.727 C 1240.824 497.512, 1238.900 497.339, 1234.500 497.343 C 1230.100 497.346, 1228.424 497.522, 1230.776 497.733 M 1243.750 497.662 C 1244.438 497.940, 1245.563 497.940, 1246.250 497.662 C 1246.938 497.385, 1246.375 497.158, 1245 497.158 C 1243.625 497.158, 1243.063 497.385, 1243.750 497.662 M 1249.762 497.707 C 1251.006 497.946, 1252.806 497.937, 1253.762 497.687 C 1254.718 497.437, 1253.700 497.241, 1251.500 497.252 C 1249.300 497.263, 1248.518 497.468, 1249.762 497.707 M 1330.343 552.500 C 1330.346 556.900, 1330.522 558.576, 1330.733 556.224 C 1330.945 553.872, 1330.942 550.272, 1330.727 548.224 C 1330.512 546.176, 1330.339 548.100, 1330.343 552.500 M 660.158 556 C 660.158 557.375, 660.385 557.938, 660.662 557.250 C 660.940 556.563, 660.940 555.438, 660.662 554.750 C 660.385 554.063, 660.158 554.625, 660.158 556 M 660.079 562.583 C 660.127 563.748, 660.364 563.985, 660.683 563.188 C 660.972 562.466, 660.936 561.603, 660.604 561.271 C 660.272 560.939, 660.036 561.529, 660.079 562.583 M 1330.466 615 C 1330.466 644.975, 1330.594 657.237, 1330.749 642.250 C 1330.905 627.262, 1330.905 602.737, 1330.749 587.750 C 1330.594 572.762, 1330.466 585.025, 1330.466 615 M 1291.158 569 C 1291.158 570.375, 1291.385 570.938, 1291.662 570.250 C 1291.940 569.563, 1291.940 568.438, 1291.662 567.750 C 1291.385 567.063, 1291.158 567.625, 1291.158 569 M 660.079 585.583 C 660.127 586.748, 660.364 586.985, 660.683 586.188 C 660.972 585.466, 660.936 584.603, 660.604 584.271 C 660.272 583.939, 660.036 584.529, 660.079 585.583 M 660.079 624.583 C 660.127 625.748, 660.364 625.985, 660.683 625.188 C 660.972 624.466, 660.936 623.603, 660.604 623.271 C 660.272 622.939, 660.036 623.529, 660.079 624.583 M 716.079 655.583 C 716.127 656.748, 716.364 656.985, 716.683 656.188 C 716.972 655.466, 716.936 654.603, 716.604 654.271 C 716.272 653.939, 716.036 654.529, 716.079 655.583 M 1330.343 680.500 C 1330.346 684.900, 1330.522 686.576, 1330.733 684.224 C 1330.945 681.872, 1330.942 678.272, 1330.727 676.224 C 1330.512 674.176, 1330.339 676.100, 1330.343 680.500 M 660.158 684 C 660.158 685.375, 660.385 685.938, 660.662 685.250 C 660.940 684.563, 660.940 683.438, 660.662 682.750 C 660.385 682.063, 660.158 682.625, 660.158 684 M 660.079 690.583 C 660.127 691.748, 660.364 691.985, 660.683 691.188 C 660.972 690.466, 660.936 689.603, 660.604 689.271 C 660.272 688.939, 660.036 689.529, 660.079 690.583 M 716.158 691 C 716.158 692.375, 716.385 692.938, 716.662 692.250 C 716.940 691.563, 716.940 690.438, 716.662 689.750 C 716.385 689.063, 716.158 689.625, 716.158 691 M 1330.466 743 C 1330.466 772.975, 1330.594 785.237, 1330.749 770.250 C 1330.905 755.262, 1330.905 730.737, 1330.749 715.750 C 1330.594 700.762, 1330.466 713.025, 1330.466 743 M 660.079 713.583 C 660.127 714.748, 660.364 714.985, 660.683 714.188 C 660.972 713.466, 660.936 712.603, 660.604 712.271 C 660.272 711.939, 660.036 712.529, 660.079 713.583 M 660.079 752.583 C 660.127 753.748, 660.364 753.985, 660.683 753.188 C 660.972 752.466, 660.936 751.603, 660.604 751.271 C 660.272 750.939, 660.036 751.529, 660.079 752.583 M 1330.343 808.500 C 1330.346 812.900, 1330.522 814.576, 1330.733 812.224 C 1330.945 809.872, 1330.942 806.272, 1330.727 804.224 C 1330.512 802.176, 1330.339 804.100, 1330.343 808.500 M 716.079 808.583 C 716.127 809.748, 716.364 809.985, 716.683 809.188 C 716.972 808.466, 716.936 807.603, 716.604 807.271 C 716.272 806.939, 716.036 807.529, 716.079 808.583 M 660.195 812.500 C 660.215 814.150, 660.439 814.704, 660.693 813.731 C 660.947 812.758, 660.930 811.408, 660.656 810.731 C 660.382 810.054, 660.175 810.850, 660.195 812.500 M 660.079 818.583 C 660.127 819.748, 660.364 819.985, 660.683 819.188 C 660.972 818.466, 660.936 817.603, 660.604 817.271 C 660.272 816.939, 660.036 817.529, 660.079 818.583 M 716.158 819 C 716.158 820.375, 716.385 820.938, 716.662 820.250 C 716.940 819.563, 716.940 818.438, 716.662 817.750 C 716.385 817.063, 716.158 817.625, 716.158 819 M 1330.310 822.500 C 1330.315 825.800, 1330.502 827.029, 1330.725 825.232 C 1330.947 823.435, 1330.943 820.735, 1330.715 819.232 C 1330.486 817.729, 1330.304 819.200, 1330.310 822.500 M 1330.463 878 C 1330.463 904.675, 1330.592 915.587, 1330.749 902.250 C 1330.907 888.913, 1330.907 867.087, 1330.749 853.750 C 1330.592 840.413, 1330.463 851.325, 1330.463 878 M 660.079 841.583 C 660.127 842.748, 660.364 842.985, 660.683 842.188 C 660.972 841.466, 660.936 840.603, 660.604 840.271 C 660.272 839.939, 660.036 840.529, 660.079 841.583 M 660.079 880.583 C 660.127 881.748, 660.364 881.985, 660.683 881.188 C 660.972 880.466, 660.936 879.603, 660.604 879.271 C 660.272 878.939, 660.036 879.529, 660.079 880.583 M 1291.079 894.583 C 1291.127 895.748, 1291.364 895.985, 1291.683 895.188 C 1291.972 894.466, 1291.936 893.603, 1291.604 893.271 C 1291.272 892.939, 1291.036 893.529, 1291.079 894.583 M 716.079 911.583 C 716.127 912.748, 716.364 912.985, 716.683 912.188 C 716.972 911.466, 716.936 910.603, 716.604 910.271 C 716.272 909.939, 716.036 910.529, 716.079 911.583 M 1330.343 936.500 C 1330.346 940.900, 1330.522 942.576, 1330.733 940.224 C 1330.945 937.872, 1330.942 934.272, 1330.727 932.224 C 1330.512 930.176, 1330.339 932.100, 1330.343 936.500 M 716.079 936.583 C 716.127 937.748, 716.364 937.985, 716.683 937.188 C 716.972 936.466, 716.936 935.603, 716.604 935.271 C 716.272 934.939, 716.036 935.529, 716.079 936.583 M 660.195 940.500 C 660.215 942.150, 660.439 942.704, 660.693 941.731 C 660.947 940.758, 660.930 939.408, 660.656 938.731 C 660.382 938.054, 660.175 938.850, 660.195 940.500 M 660.079 946.583 C 660.127 947.748, 660.364 947.985, 660.683 947.188 C 660.972 946.466, 660.936 945.603, 660.604 945.271 C 660.272 944.939, 660.036 945.529, 660.079 946.583 M 1330.158 947 C 1330.158 948.375, 1330.385 948.938, 1330.662 948.250 C 1330.940 947.563, 1330.940 946.438, 1330.662 945.750 C 1330.385 945.063, 1330.158 945.625, 1330.158 947 M 1330.195 952.500 C 1330.215 954.150, 1330.439 954.704, 1330.693 953.731 C 1330.947 952.758, 1330.930 951.408, 1330.656 950.731 C 1330.382 950.054, 1330.175 950.850, 1330.195 952.500 M 1291.158 953 C 1291.158 954.375, 1291.385 954.938, 1291.662 954.250 C 1291.940 953.563, 1291.940 952.438, 1291.662 951.750 C 1291.385 951.063, 1291.158 951.625, 1291.158 953 M 1330.419 977 C 1330.419 987.725, 1330.566 992.112, 1330.746 986.750 C 1330.925 981.388, 1330.925 972.612, 1330.746 967.250 C 1330.566 961.888, 1330.419 966.275, 1330.419 977 M 660.079 969.583 C 660.127 970.748, 660.364 970.985, 660.683 970.188 C 660.972 969.466, 660.936 968.603, 660.604 968.271 C 660.272 967.939, 660.036 968.529, 660.079 969.583 M 1330.439 1024 C 1330.439 1039.125, 1330.578 1045.313, 1330.748 1037.750 C 1330.917 1030.188, 1330.917 1017.813, 1330.748 1010.250 C 1330.578 1002.688, 1330.439 1008.875, 1330.439 1024 M 660.079 1008.583 C 660.127 1009.748, 660.364 1009.985, 660.683 1009.188 C 660.972 1008.466, 660.936 1007.603, 660.604 1007.271 C 660.272 1006.939, 660.036 1007.529, 660.079 1008.583 M 1291.079 1022.583 C 1291.127 1023.748, 1291.364 1023.985, 1291.683 1023.188 C 1291.972 1022.466, 1291.936 1021.603, 1291.604 1021.271 C 1291.272 1020.939, 1291.036 1021.529, 1291.079 1022.583 M 1330.328 1064.500 C 1330.333 1068.350, 1330.513 1069.802, 1330.730 1067.728 C 1330.946 1065.653, 1330.943 1062.503, 1330.722 1060.728 C 1330.501 1058.952, 1330.324 1060.650, 1330.328 1064.500 M 660.158 1068 C 660.158 1069.375, 660.385 1069.938, 660.662 1069.250 C 660.940 1068.563, 660.940 1067.438, 660.662 1066.750 C 660.385 1066.063, 660.158 1066.625, 660.158 1068 M 660.079 1074.583 C 660.127 1075.748, 660.364 1075.985, 660.683 1075.188 C 660.972 1074.466, 660.936 1073.603, 660.604 1073.271 C 660.272 1072.939, 660.036 1073.529, 660.079 1074.583 M 1291.158 1081 C 1291.158 1082.375, 1291.385 1082.938, 1291.662 1082.250 C 1291.940 1081.563, 1291.940 1080.438, 1291.662 1079.750 C 1291.385 1079.063, 1291.158 1079.625, 1291.158 1081 M 1330.462 1132.500 C 1330.461 1158.350, 1330.591 1169.068, 1330.749 1156.319 C 1330.907 1143.569, 1330.907 1122.419, 1330.749 1109.319 C 1330.591 1096.218, 1330.462 1106.650, 1330.462 1132.500 M 660.079 1097.583 C 660.127 1098.748, 660.364 1098.985, 660.683 1098.188 C 660.972 1097.466, 660.936 1096.603, 660.604 1096.271 C 660.272 1095.939, 660.036 1096.529, 660.079 1097.583 M 660.079 1136.583 C 660.127 1137.748, 660.364 1137.985, 660.683 1137.188 C 660.972 1136.466, 660.936 1135.603, 660.604 1135.271 C 660.272 1134.939, 660.036 1135.529, 660.079 1136.583 M 1291.079 1150.583 C 1291.127 1151.748, 1291.364 1151.985, 1291.683 1151.188 C 1291.972 1150.466, 1291.936 1149.603, 1291.604 1149.271 C 1291.272 1148.939, 1291.036 1149.529, 1291.079 1150.583 M 1330.336 1192 C 1330.336 1196.125, 1330.513 1197.813, 1330.728 1195.750 C 1330.944 1193.688, 1330.944 1190.313, 1330.728 1188.250 C 1330.513 1186.188, 1330.336 1187.875, 1330.336 1192 M 660.158 1196 C 660.158 1197.375, 660.385 1197.938, 660.662 1197.250 C 660.940 1196.563, 660.940 1195.438, 660.662 1194.750 C 660.385 1194.063, 660.158 1194.625, 660.158 1196 M 660.079 1202.583 C 660.127 1203.748, 660.364 1203.985, 660.683 1203.188 C 660.972 1202.466, 660.936 1201.603, 660.604 1201.271 C 660.272 1200.939, 660.036 1201.529, 660.079 1202.583 M 1291.158 1209 C 1291.158 1210.375, 1291.385 1210.938, 1291.662 1210.250 C 1291.940 1209.563, 1291.940 1208.438, 1291.662 1207.750 C 1291.385 1207.063, 1291.158 1207.625, 1291.158 1209 M 1291.079 1213.583 C 1291.127 1214.748, 1291.364 1214.985, 1291.683 1214.188 C 1291.972 1213.466, 1291.936 1212.603, 1291.604 1212.271 C 1291.272 1211.939, 1291.036 1212.529, 1291.079 1213.583 M 1330.328 1220.500 C 1330.333 1224.350, 1330.513 1225.802, 1330.730 1223.728 C 1330.946 1221.653, 1330.943 1218.503, 1330.722 1216.728 C 1330.501 1214.952, 1330.324 1216.650, 1330.328 1220.500 M 660.079 1225.583 C 660.127 1226.748, 660.364 1226.985, 660.683 1226.188 C 660.972 1225.466, 660.936 1224.603, 660.604 1224.271 C 660.272 1223.939, 660.036 1224.529, 660.079 1225.583 M 1330.385 1240 C 1330.385 1246.875, 1330.545 1249.688, 1330.740 1246.250 C 1330.936 1242.813, 1330.936 1237.188, 1330.740 1233.750 C 1330.545 1230.313, 1330.385 1233.125, 1330.385 1240 M 1291.158 1251 C 1291.158 1252.375, 1291.385 1252.938, 1291.662 1252.250 C 1291.940 1251.563, 1291.940 1250.438, 1291.662 1249.750 C 1291.385 1249.063, 1291.158 1249.625, 1291.158 1251 M 1330.439 1280 C 1330.439 1295.125, 1330.578 1301.313, 1330.748 1293.750 C 1330.917 1286.188, 1330.917 1273.813, 1330.748 1266.250 C 1330.578 1258.688, 1330.439 1264.875, 1330.439 1280 M 660.079 1264.583 C 660.127 1265.748, 660.364 1265.985, 660.683 1265.188 C 660.972 1264.466, 660.936 1263.603, 660.604 1263.271 C 660.272 1262.939, 660.036 1263.529, 660.079 1264.583 M 1291.195 1277.500 C 1291.215 1279.150, 1291.439 1279.704, 1291.693 1278.731 C 1291.947 1277.758, 1291.930 1276.408, 1291.656 1275.731 C 1291.382 1275.054, 1291.175 1275.850, 1291.195 1277.500 M 1330.320 1321 C 1330.320 1324.575, 1330.502 1326.037, 1330.723 1324.250 C 1330.945 1322.463, 1330.945 1319.537, 1330.723 1317.750 C 1330.502 1315.963, 1330.320 1317.425, 1330.320 1321 M 660.158 1324 C 660.158 1325.375, 660.385 1325.938, 660.662 1325.250 C 660.940 1324.563, 660.940 1323.438, 660.662 1322.750 C 660.385 1322.063, 660.158 1322.625, 660.158 1324 M 660.079 1330.583 C 660.127 1331.748, 660.364 1331.985, 660.683 1331.188 C 660.972 1330.466, 660.936 1329.603, 660.604 1329.271 C 660.272 1328.939, 660.036 1329.529, 660.079 1330.583 M 1330.328 1348.500 C 1330.333 1352.350, 1330.513 1353.802, 1330.730 1351.728 C 1330.946 1349.653, 1330.943 1346.503, 1330.722 1344.728 C 1330.501 1342.952, 1330.324 1344.650, 1330.328 1348.500 M 660.079 1353.583 C 660.127 1354.748, 660.364 1354.985, 660.683 1354.188 C 660.972 1353.466, 660.936 1352.603, 660.604 1352.271 C 660.272 1351.939, 660.036 1352.529, 660.079 1353.583 M 1330.385 1368 C 1330.385 1374.875, 1330.545 1377.688, 1330.740 1374.250 C 1330.936 1370.813, 1330.936 1365.188, 1330.740 1361.750 C 1330.545 1358.313, 1330.385 1361.125, 1330.385 1368 M 1330.382 1392.500 C 1330.384 1399.100, 1330.546 1401.670, 1330.741 1398.211 C 1330.937 1394.752, 1330.936 1389.352, 1330.738 1386.211 C 1330.540 1383.070, 1330.380 1385.900, 1330.382 1392.500 M 660.079 1392.583 C 660.127 1393.748, 660.364 1393.985, 660.683 1393.188 C 660.972 1392.466, 660.936 1391.603, 660.604 1391.271 C 660.272 1390.939, 660.036 1391.529, 660.079 1392.583 M 1291.195 1405.500 C 1291.215 1407.150, 1291.439 1407.704, 1291.693 1406.731 C 1291.947 1405.758, 1291.930 1404.408, 1291.656 1403.731 C 1291.382 1403.054, 1291.175 1403.850, 1291.195 1405.500 M 1330.400 1419.500 C 1330.401 1427.750, 1330.556 1430.992, 1330.744 1426.704 C 1330.932 1422.417, 1330.931 1415.667, 1330.742 1411.704 C 1330.552 1407.742, 1330.399 1411.250, 1330.400 1419.500 M 1291.079 1410.583 C 1291.127 1411.748, 1291.364 1411.985, 1291.683 1411.188 C 1291.972 1410.466, 1291.936 1409.603, 1291.604 1409.271 C 1291.272 1408.939, 1291.036 1409.529, 1291.079 1410.583 M 1330.320 1449 C 1330.320 1452.575, 1330.502 1454.037, 1330.723 1452.250 C 1330.945 1450.463, 1330.945 1447.537, 1330.723 1445.750 C 1330.502 1443.963, 1330.320 1445.425, 1330.320 1449 M 660.158 1452 C 660.158 1453.375, 660.385 1453.938, 660.662 1453.250 C 660.940 1452.563, 660.940 1451.438, 660.662 1450.750 C 660.385 1450.063, 660.158 1450.625, 660.158 1452 M 660.079 1458.583 C 660.127 1459.748, 660.364 1459.985, 660.683 1459.188 C 660.972 1458.466, 660.936 1457.603, 660.604 1457.271 C 660.272 1456.939, 660.036 1457.529, 660.079 1458.583 M 1291.158 1465 C 1291.158 1466.375, 1291.385 1466.938, 1291.662 1466.250 C 1291.940 1465.563, 1291.940 1464.438, 1291.662 1463.750 C 1291.385 1463.063, 1291.158 1463.625, 1291.158 1465 M 1291.079 1469.583 C 1291.127 1470.748, 1291.364 1470.985, 1291.683 1470.188 C 1291.972 1469.466, 1291.936 1468.603, 1291.604 1468.271 C 1291.272 1467.939, 1291.036 1468.529, 1291.079 1469.583 M 1330.328 1476.500 C 1330.333 1480.350, 1330.513 1481.802, 1330.730 1479.728 C 1330.946 1477.653, 1330.943 1474.503, 1330.722 1472.728 C 1330.501 1470.952, 1330.324 1472.650, 1330.328 1476.500 M 1291.079 1474.583 C 1291.127 1475.748, 1291.364 1475.985, 1291.683 1475.188 C 1291.972 1474.466, 1291.936 1473.603, 1291.604 1473.271 C 1291.272 1472.939, 1291.036 1473.529, 1291.079 1474.583 M 660.079 1481.583 C 660.127 1482.748, 660.364 1482.985, 660.683 1482.188 C 660.972 1481.466, 660.936 1480.603, 660.604 1480.271 C 660.272 1479.939, 660.036 1480.529, 660.079 1481.583 M 1330.382 1495.500 C 1330.384 1502.100, 1330.546 1504.670, 1330.741 1501.211 C 1330.937 1497.752, 1330.936 1492.352, 1330.738 1489.211 C 1330.540 1486.070, 1330.380 1488.900, 1330.382 1495.500 M 1291.079 1502.583 C 1291.127 1503.748, 1291.364 1503.985, 1291.683 1503.188 C 1291.972 1502.466, 1291.936 1501.603, 1291.604 1501.271 C 1291.272 1500.939, 1291.036 1501.529, 1291.079 1502.583 M 1291.158 1507 C 1291.158 1508.375, 1291.385 1508.938, 1291.662 1508.250 C 1291.940 1507.563, 1291.940 1506.438, 1291.662 1505.750 C 1291.385 1505.063, 1291.158 1505.625, 1291.158 1507 M 1330.407 1526 C 1330.407 1535.075, 1330.559 1538.787, 1330.744 1534.250 C 1330.929 1529.713, 1330.929 1522.287, 1330.744 1517.750 C 1330.559 1513.213, 1330.407 1516.925, 1330.407 1526 M 660.079 1520.583 C 660.127 1521.748, 660.364 1521.985, 660.683 1521.188 C 660.972 1520.466, 660.936 1519.603, 660.604 1519.271 C 660.272 1518.939, 660.036 1519.529, 660.079 1520.583 M 1291.079 1520.583 C 1291.127 1521.748, 1291.364 1521.985, 1291.683 1521.188 C 1291.972 1520.466, 1291.936 1519.603, 1291.604 1519.271 C 1291.272 1518.939, 1291.036 1519.529, 1291.079 1520.583 M 1291.195 1533.500 C 1291.215 1535.150, 1291.439 1535.704, 1291.693 1534.731 C 1291.947 1533.758, 1291.930 1532.408, 1291.656 1531.731 C 1291.382 1531.054, 1291.175 1531.850, 1291.195 1533.500 M 1330.158 1548 C 1330.158 1549.375, 1330.385 1549.938, 1330.662 1549.250 C 1330.940 1548.563, 1330.940 1547.438, 1330.662 1546.750 C 1330.385 1546.063, 1330.158 1546.625, 1330.158 1548 M 1330.310 1556.500 C 1330.315 1559.800, 1330.502 1561.029, 1330.725 1559.232 C 1330.947 1557.435, 1330.943 1554.735, 1330.715 1553.232 C 1330.486 1551.729, 1330.304 1553.200, 1330.310 1556.500 M 1330.272 1576 C 1330.272 1578.475, 1330.467 1579.487, 1330.706 1578.250 C 1330.944 1577.013, 1330.944 1574.987, 1330.706 1573.750 C 1330.467 1572.513, 1330.272 1573.525, 1330.272 1576 M 660.195 1580.500 C 660.215 1582.150, 660.439 1582.704, 660.693 1581.731 C 660.947 1580.758, 660.930 1579.408, 660.656 1578.731 C 660.382 1578.054, 660.175 1578.850, 660.195 1580.500 M 660.079 1586.583 C 660.127 1587.748, 660.364 1587.985, 660.683 1587.188 C 660.972 1586.466, 660.936 1585.603, 660.604 1585.271 C 660.272 1584.939, 660.036 1585.529, 660.079 1586.583 M 1291.158 1593 C 1291.158 1594.375, 1291.385 1594.938, 1291.662 1594.250 C 1291.940 1593.563, 1291.940 1592.438, 1291.662 1591.750 C 1291.385 1591.063, 1291.158 1591.625, 1291.158 1593 M 1291.079 1597.583 C 1291.127 1598.748, 1291.364 1598.985, 1291.683 1598.188 C 1291.972 1597.466, 1291.936 1596.603, 1291.604 1596.271 C 1291.272 1595.939, 1291.036 1596.529, 1291.079 1597.583 M 1330.310 1605.500 C 1330.315 1608.800, 1330.502 1610.029, 1330.725 1608.232 C 1330.947 1606.435, 1330.943 1603.735, 1330.715 1602.232 C 1330.486 1600.729, 1330.304 1602.200, 1330.310 1605.500 M 1291.079 1602.583 C 1291.127 1603.748, 1291.364 1603.985, 1291.683 1603.188 C 1291.972 1602.466, 1291.936 1601.603, 1291.604 1601.271 C 1291.272 1600.939, 1291.036 1601.529, 1291.079 1602.583 M 660.079 1609.583 C 660.127 1610.748, 660.364 1610.985, 660.683 1610.188 C 660.972 1609.466, 660.936 1608.603, 660.604 1608.271 C 660.272 1607.939, 660.036 1608.529, 660.079 1609.583 M 1330.195 1614.500 C 1330.215 1616.150, 1330.439 1616.704, 1330.693 1615.731 C 1330.947 1614.758, 1330.930 1613.408, 1330.656 1612.731 C 1330.382 1612.054, 1330.175 1612.850, 1330.195 1614.500 M 1330.355 1626.500 C 1330.352 1631.450, 1330.521 1633.601, 1330.731 1631.280 C 1330.940 1628.959, 1330.943 1624.909, 1330.736 1622.280 C 1330.530 1619.651, 1330.358 1621.550, 1330.355 1626.500 M 1291.158 1630 C 1291.158 1631.375, 1291.385 1631.938, 1291.662 1631.250 C 1291.940 1630.563, 1291.940 1629.438, 1291.662 1628.750 C 1291.385 1628.063, 1291.158 1628.625, 1291.158 1630 M 1291.158 1635 C 1291.158 1636.375, 1291.385 1636.938, 1291.662 1636.250 C 1291.940 1635.563, 1291.940 1634.438, 1291.662 1633.750 C 1291.385 1633.063, 1291.158 1633.625, 1291.158 1635 M 1330.378 1649 C 1330.378 1655.325, 1330.541 1657.912, 1330.739 1654.750 C 1330.937 1651.588, 1330.937 1646.412, 1330.739 1643.250 C 1330.541 1640.088, 1330.378 1642.675, 1330.378 1649 M 660.079 1648.583 C 660.127 1649.748, 660.364 1649.985, 660.683 1649.188 C 660.972 1648.466, 660.936 1647.603, 660.604 1647.271 C 660.272 1646.939, 660.036 1647.529, 660.079 1648.583 M 1291.195 1649.500 C 1291.215 1651.150, 1291.439 1651.704, 1291.693 1650.731 C 1291.947 1649.758, 1291.930 1648.408, 1291.656 1647.731 C 1291.382 1647.054, 1291.175 1647.850, 1291.195 1649.500 M 1291.195 1661.500 C 1291.215 1663.150, 1291.439 1663.704, 1291.693 1662.731 C 1291.947 1661.758, 1291.930 1660.408, 1291.656 1659.731 C 1291.382 1659.054, 1291.175 1659.850, 1291.195 1661.500 M 1330.079 1662.583 C 1330.127 1663.748, 1330.364 1663.985, 1330.683 1663.188 C 1330.972 1662.466, 1330.936 1661.603, 1330.604 1661.271 C 1330.272 1660.939, 1330.036 1661.529, 1330.079 1662.583 M 1291.079 1666.583 C 1291.127 1667.748, 1291.364 1667.985, 1291.683 1667.188 C 1291.972 1666.466, 1291.936 1665.603, 1291.604 1665.271 C 1291.272 1664.939, 1291.036 1665.529, 1291.079 1666.583 M 1330.195 1667.500 C 1330.215 1669.150, 1330.439 1669.704, 1330.693 1668.731 C 1330.947 1667.758, 1330.930 1666.408, 1330.656 1665.731 C 1330.382 1665.054, 1330.175 1665.850, 1330.195 1667.500 M 1330.158 1683 C 1330.158 1684.375, 1330.385 1684.938, 1330.662 1684.250 C 1330.940 1683.563, 1330.940 1682.438, 1330.662 1681.750 C 1330.385 1681.063, 1330.158 1681.625, 1330.158 1683 M 1330.158 1688 C 1330.158 1689.375, 1330.385 1689.938, 1330.662 1689.250 C 1330.940 1688.563, 1330.940 1687.438, 1330.662 1686.750 C 1330.385 1686.063, 1330.158 1686.625, 1330.158 1688 M 1330.272 1704 C 1330.272 1706.475, 1330.467 1707.487, 1330.706 1706.250 C 1330.944 1705.013, 1330.944 1702.987, 1330.706 1701.750 C 1330.467 1700.513, 1330.272 1701.525, 1330.272 1704 M 660.195 1708.500 C 660.215 1710.150, 660.439 1710.704, 660.693 1709.731 C 660.947 1708.758, 660.930 1707.408, 660.656 1706.731 C 660.382 1706.054, 660.175 1706.850, 660.195 1708.500 M 660.079 1714.583 C 660.127 1715.748, 660.364 1715.985, 660.683 1715.188 C 660.972 1714.466, 660.936 1713.603, 660.604 1713.271 C 660.272 1712.939, 660.036 1713.529, 660.079 1714.583 M 1291.158 1721 C 1291.158 1722.375, 1291.385 1722.938, 1291.662 1722.250 C 1291.940 1721.563, 1291.940 1720.438, 1291.662 1719.750 C 1291.385 1719.063, 1291.158 1719.625, 1291.158 1721 M 1291.079 1725.583 C 1291.127 1726.748, 1291.364 1726.985, 1291.683 1726.188 C 1291.972 1725.466, 1291.936 1724.603, 1291.604 1724.271 C 1291.272 1723.939, 1291.036 1724.529, 1291.079 1725.583 M 1330.272 1735 C 1330.272 1737.475, 1330.467 1738.487, 1330.706 1737.250 C 1330.944 1736.013, 1330.944 1733.987, 1330.706 1732.750 C 1330.467 1731.513, 1330.272 1732.525, 1330.272 1735 M 660.079 1737.583 C 660.127 1738.748, 660.364 1738.985, 660.683 1738.188 C 660.972 1737.466, 660.936 1736.603, 660.604 1736.271 C 660.272 1735.939, 660.036 1736.529, 660.079 1737.583 M 1330.195 1742.500 C 1330.215 1744.150, 1330.439 1744.704, 1330.693 1743.731 C 1330.947 1742.758, 1330.930 1741.408, 1330.656 1740.731 C 1330.382 1740.054, 1330.175 1740.850, 1330.195 1742.500 M 1330.272 1750 C 1330.272 1752.475, 1330.467 1753.487, 1330.706 1752.250 C 1330.944 1751.013, 1330.944 1748.987, 1330.706 1747.750 C 1330.467 1746.513, 1330.272 1747.525, 1330.272 1750 M 1330.272 1759 C 1330.272 1761.475, 1330.467 1762.487, 1330.706 1761.250 C 1330.944 1760.013, 1330.944 1757.987, 1330.706 1756.750 C 1330.467 1755.513, 1330.272 1756.525, 1330.272 1759 M 1291.079 1758.583 C 1291.127 1759.748, 1291.364 1759.985, 1291.683 1759.188 C 1291.972 1758.466, 1291.936 1757.603, 1291.604 1757.271 C 1291.272 1756.939, 1291.036 1757.529, 1291.079 1758.583 M 1291.158 1763 C 1291.158 1764.375, 1291.385 1764.938, 1291.662 1764.250 C 1291.940 1763.563, 1291.940 1762.438, 1291.662 1761.750 C 1291.385 1761.063, 1291.158 1761.625, 1291.158 1763 M 1330.378 1777 C 1330.378 1783.325, 1330.541 1785.912, 1330.739 1782.750 C 1330.937 1779.588, 1330.937 1774.412, 1330.739 1771.250 C 1330.541 1768.088, 1330.378 1770.675, 1330.378 1777 M 660.079 1776.583 C 660.127 1777.748, 660.364 1777.985, 660.683 1777.188 C 660.972 1776.466, 660.936 1775.603, 660.604 1775.271 C 660.272 1774.939, 660.036 1775.529, 660.079 1776.583 M 1291.195 1789.500 C 1291.215 1791.150, 1291.439 1791.704, 1291.693 1790.731 C 1291.947 1789.758, 1291.930 1788.408, 1291.656 1787.731 C 1291.382 1787.054, 1291.175 1787.850, 1291.195 1789.500 M 1330.158 1811 C 1330.158 1812.375, 1330.385 1812.938, 1330.662 1812.250 C 1330.940 1811.563, 1330.940 1810.438, 1330.662 1809.750 C 1330.385 1809.063, 1330.158 1809.625, 1330.158 1811 M 1330.232 1832 C 1330.232 1833.925, 1330.438 1834.713, 1330.689 1833.750 C 1330.941 1832.787, 1330.941 1831.213, 1330.689 1830.250 C 1330.438 1829.287, 1330.232 1830.075, 1330.232 1832 M 660.158 1836 C 660.158 1837.375, 660.385 1837.938, 660.662 1837.250 C 660.940 1836.563, 660.940 1835.438, 660.662 1834.750 C 660.385 1834.063, 660.158 1834.625, 660.158 1836 M 660.079 1842.583 C 660.127 1843.748, 660.364 1843.985, 660.683 1843.188 C 660.972 1842.466, 660.936 1841.603, 660.604 1841.271 C 660.272 1840.939, 660.036 1841.529, 660.079 1842.583 M 1291.158 1849 C 1291.158 1850.375, 1291.385 1850.938, 1291.662 1850.250 C 1291.940 1849.563, 1291.940 1848.438, 1291.662 1847.750 C 1291.385 1847.063, 1291.158 1847.625, 1291.158 1849 M 1330.310 1861.500 C 1330.315 1864.800, 1330.502 1866.029, 1330.725 1864.232 C 1330.947 1862.435, 1330.943 1859.735, 1330.715 1858.232 C 1330.486 1856.729, 1330.304 1858.200, 1330.310 1861.500 M 660.079 1865.583 C 660.127 1866.748, 660.364 1866.985, 660.683 1866.188 C 660.972 1865.466, 660.936 1864.603, 660.604 1864.271 C 660.272 1863.939, 660.036 1864.529, 660.079 1865.583 M 1330.195 1870.500 C 1330.215 1872.150, 1330.439 1872.704, 1330.693 1871.731 C 1330.947 1870.758, 1330.930 1869.408, 1330.656 1868.731 C 1330.382 1868.054, 1330.175 1868.850, 1330.195 1870.500 M 1330.272 1878 C 1330.272 1880.475, 1330.467 1881.487, 1330.706 1880.250 C 1330.944 1879.013, 1330.944 1876.987, 1330.706 1875.750 C 1330.467 1874.513, 1330.272 1875.525, 1330.272 1878 M 1291.158 1886 C 1291.158 1887.375, 1291.385 1887.938, 1291.662 1887.250 C 1291.940 1886.563, 1291.940 1885.438, 1291.662 1884.750 C 1291.385 1884.063, 1291.158 1884.625, 1291.158 1886 M 1330.158 1888 C 1330.158 1889.375, 1330.385 1889.938, 1330.662 1889.250 C 1330.940 1888.563, 1330.940 1887.438, 1330.662 1886.750 C 1330.385 1886.063, 1330.158 1886.625, 1330.158 1888 M 1291.158 1891 C 1291.158 1892.375, 1291.385 1892.938, 1291.662 1892.250 C 1291.940 1891.563, 1291.940 1890.438, 1291.662 1889.750 C 1291.385 1889.063, 1291.158 1889.625, 1291.158 1891 M 1330.079 1895.583 C 1330.127 1896.748, 1330.364 1896.985, 1330.683 1896.188 C 1330.972 1895.466, 1330.936 1894.603, 1330.604 1894.271 C 1330.272 1893.939, 1330.036 1894.529, 1330.079 1895.583 M 1291.310 1904.500 C 1291.315 1907.800, 1291.502 1909.029, 1291.725 1907.232 C 1291.947 1905.435, 1291.943 1902.735, 1291.715 1901.232 C 1291.486 1899.729, 1291.304 1901.200, 1291.310 1904.500 M 1330.328 1905.500 C 1330.333 1909.350, 1330.513 1910.802, 1330.730 1908.728 C 1330.946 1906.653, 1330.943 1903.503, 1330.722 1901.728 C 1330.501 1899.952, 1330.324 1901.650, 1330.328 1905.500 M 660.079 1904.583 C 660.127 1905.748, 660.364 1905.985, 660.683 1905.188 C 660.972 1904.466, 660.936 1903.603, 660.604 1903.271 C 660.272 1902.939, 660.036 1903.529, 660.079 1904.583" stroke="none" fill="black" fill-rule="evenodd"/>
	<path fill-opacity="0.169" d="M 665 415.392 C 665 416.157, 666.063 417.050, 667.362 417.376 C 668.662 417.702, 820.524 417.956, 1004.835 417.941 C 1304.032 417.915, 1340.109 417.748, 1341.473 416.385 C 1342.313 415.545, 1343 414.664, 1343 414.429 C 1343 414.193, 1190.450 414, 1004 414 C 715.071 414, 665 414.206, 665 415.392 M 677.174 427.508 C 677.997 428.330, 1330 428.572, 1330 427.750 C 1330 427.337, 1183 427, 1003.333 427 C 823.667 427, 676.895 427.228, 677.174 427.508 M 718 1194.002 C 718 1678.001, 718.334 1921, 719 1921 C 719.666 1921, 720 1678.333, 720 1195 L 720 469 1003.953 469 L 1287.906 469 1287.703 1195 C 1287.540 1778.953, 1287.747 1921, 1288.762 1921 C 1289.777 1921, 1290.010 1778.689, 1289.952 1194.001 L 1289.880 467.003 1003.940 467.003 L 718 467.004 718 1194.002 M 727.877 483.248 C 728.192 489.301, 728.410 490.053, 729.195 487.796 C 730.049 485.341, 731.725 484.232, 736 483.293 C 739.046 482.623, 1266.642 482.752, 1270.500 483.423 C 1276.985 484.552, 1278.247 486.078, 1279.027 493.734 C 1279.637 499.727, 1279.732 499.100, 1279.858 488.250 L 1280 476 1003.750 475.998 L 727.500 475.995 727.877 483.248 M 732.813 1921.683 C 733.534 1921.972, 734.397 1921.936, 734.729 1921.604 C 735.061 1921.272, 734.471 1921.036, 733.417 1921.079 C 732.252 1921.127, 732.015 1921.364, 732.813 1921.683 M 744.813 1921.683 C 745.534 1921.972, 746.397 1921.936, 746.729 1921.604 C 747.061 1921.272, 746.471 1921.036, 745.417 1921.079 C 744.252 1921.127, 744.015 1921.364, 744.813 1921.683" stroke="none" fill="black" fill-rule="evenodd"/>
	<path fill-opacity="0.382" d="M 728 479.535 C 728 481.732, 728.258 481.932, 729.934 481.035 C 732.918 479.438, 1276.202 479.602, 1277.800 481.200 C 1278.733 482.133, 1279 481.800, 1279 479.700 L 1279 477 1003.500 477 L 728 477 728 479.535" stroke="none" fill="black" fill-rule="evenodd"/>
</svg>