<svg xmlns="http://www.w3.org/2000/svg" width="2000" height="2000" viewBox="0 0 2000 2000" version="1.1">
	<path fill-opacity="0.043" d="M 366.894 310.792 L 360.287 311.085 360.284 1067.542 L 360.280 1824 395.549 1824 L 430.819 1824 430.862 1105.750 C 430.885 710.712, 430.926 386.038, 430.952 384.250 L 431 381 980.500 381 L 1530 381 1530 1102.500 L 1530 1824 1565 1824 L 1600 1824 1600.009 1785.750 C 1600.151 1156.852, 1599.925 311.592, 1599.615 311.282 C 1599.152 310.819, 377.248 310.334, 366.894 310.792" stroke="none" fill="black" fill-rule="evenodd"/>
	<path fill-opacity="0.201" d="M 361 1067.491 L 361 1823.981 395.500 1823.946 L 430 1823.911 430 1102.456 L 430 381 434.750 380.939 C 469.259 380.496, 1529.269 380.936, 1529.727 381.394 C 1530.076 381.742, 1530.433 706.134, 1530.521 1102.264 C 1530.609 1498.394, 1530.753 1822.853, 1530.841 1823.284 C 1530.928 1823.716, 1546.412 1823.941, 1565.250 1823.784 L 1599.500 1823.500 1599.751 1067.250 L 1600.001 311 980.501 311 L 361 311 361 1067.491" stroke="none" fill="black" fill-rule="evenodd"/>
	<path fill-opacity="0.010" d="M 414.671 364.750 C 413.810 366.194, 414.274 1823, 415.135 1823 C 415.621 1823, 416 1503.895, 416 1095.250 L 416 367.500 980.250 367.500 L 1544.500 367.500 1544.500 1095.250 C 1544.500 1495.512, 1544.838 1823, 1545.250 1823 C 1545.662 1823, 1546 1494.725, 1546 1093.500 L 1546 364 980.559 364 C 669.566 364, 414.917 364.337, 414.671 364.750 M 420.996 437.750 L 421.492 505.500 421.996 439.500 L 422.500 373.500 438 373.457 L 453.500 373.415 439 373.733 L 424.500 374.051 424.750 1041.775 C 424.887 1409.024, 424.999 1735.037, 425 1766.250 C 425 1813.019, 425.236 1823, 426.340 1823 C 427.459 1823, 427.699 1708.658, 427.794 1130.750 C 427.856 750.013, 427.928 425.086, 427.953 408.691 C 427.981 390.895, 428.369 379.110, 428.917 379.448 C 430.116 380.190, 1530.882 380.191, 1532.082 379.450 C 1532.639 379.105, 1533 662.545, 1533 1100.941 C 1533 1742.105, 1533.168 1823, 1534.500 1823 C 1535.832 1823, 1536 1741.836, 1536 1098.524 L 1536 374.047 1518.750 373.748 L 1501.500 373.450 1520.750 373.225 C 1537.095 373.034, 1540 372.774, 1540 371.500 C 1540 370.168, 1477.139 370, 980.250 370 L 420.500 370 420.996 437.750 M 459.789 373.741 C 463.248 373.937, 468.648 373.936, 471.789 373.738 C 474.930 373.540, 472.100 373.380, 465.500 373.382 C 458.900 373.384, 456.330 373.546, 459.789 373.741 M 488.750 373.747 C 494.938 373.922, 505.063 373.922, 511.250 373.747 C 517.438 373.571, 512.375 373.428, 500 373.428 C 487.625 373.428, 482.563 373.571, 488.750 373.747 M 528.750 373.732 C 531.087 373.943, 534.913 373.943, 537.250 373.732 C 539.587 373.522, 537.675 373.349, 533 373.349 C 528.325 373.349, 526.413 373.522, 528.750 373.732 M 559.312 373.748 C 568.009 373.915, 581.959 373.915, 590.312 373.748 C 598.666 373.581, 591.550 373.444, 574.500 373.445 C 557.450 373.445, 550.616 373.582, 559.312 373.748 M 616.750 373.747 C 622.938 373.922, 633.063 373.922, 639.250 373.747 C 645.438 373.571, 640.375 373.428, 628 373.428 C 615.625 373.428, 610.563 373.571, 616.750 373.747 M 655.250 373.735 C 657.862 373.941, 662.138 373.941, 664.750 373.735 C 667.362 373.529, 665.225 373.360, 660 373.360 C 654.775 373.360, 652.638 373.529, 655.250 373.735 M 684.750 373.747 C 692.038 373.918, 703.962 373.918, 711.250 373.747 C 718.538 373.577, 712.575 373.437, 698 373.437 C 683.425 373.437, 677.462 373.577, 684.750 373.747 M 726.750 373.706 C 727.987 373.944, 730.013 373.944, 731.250 373.706 C 732.487 373.467, 731.475 373.272, 729 373.272 C 726.525 373.272, 725.513 373.467, 726.750 373.706 M 744.750 373.747 C 750.938 373.922, 761.063 373.922, 767.250 373.747 C 773.438 373.571, 768.375 373.428, 756 373.428 C 743.625 373.428, 738.563 373.571, 744.750 373.747 M 783.250 373.735 C 785.862 373.941, 790.138 373.941, 792.750 373.735 C 795.362 373.529, 793.225 373.360, 788 373.360 C 782.775 373.360, 780.638 373.529, 783.250 373.735 M 815.312 373.748 C 824.009 373.915, 837.959 373.915, 846.312 373.748 C 854.666 373.581, 847.550 373.444, 830.500 373.445 C 813.450 373.445, 806.616 373.582, 815.312 373.748 M 872.750 373.747 C 878.938 373.922, 889.063 373.922, 895.250 373.747 C 901.438 373.571, 896.375 373.428, 884 373.428 C 871.625 373.428, 866.563 373.571, 872.750 373.747 M 911.250 373.735 C 913.862 373.941, 918.138 373.941, 920.750 373.735 C 923.362 373.529, 921.225 373.360, 916 373.360 C 910.775 373.360, 908.638 373.529, 911.250 373.735 M 940.750 373.747 C 948.038 373.918, 959.962 373.918, 967.250 373.747 C 974.538 373.577, 968.575 373.437, 954 373.437 C 939.425 373.437, 933.462 373.577, 940.750 373.747 M 982.750 373.706 C 983.987 373.944, 986.013 373.944, 987.250 373.706 C 988.487 373.467, 987.475 373.272, 985 373.272 C 982.525 373.272, 981.513 373.467, 982.750 373.706 M 1000.750 373.747 C 1006.938 373.922, 1017.063 373.922, 1023.250 373.747 C 1029.438 373.571, 1024.375 373.428, 1012 373.428 C 999.625 373.428, 994.563 373.571, 1000.750 373.747 M 1041.250 373.735 C 1043.862 373.941, 1048.138 373.941, 1050.750 373.735 C 1053.362 373.529, 1051.225 373.360, 1046 373.360 C 1040.775 373.360, 1038.638 373.529, 1041.250 373.735 M 1071.312 373.748 C 1080.009 373.915, 1093.959 373.915, 1102.312 373.748 C 1110.666 373.581, 1103.550 373.444, 1086.500 373.445 C 1069.450 373.445, 1062.616 373.582, 1071.312 373.748 M 1128.250 373.746 C 1134.162 373.923, 1143.838 373.923, 1149.750 373.746 C 1155.662 373.569, 1150.825 373.425, 1139 373.425 C 1127.175 373.425, 1122.338 373.569, 1128.250 373.746 M 1167.750 373.737 C 1170.638 373.939, 1175.362 373.939, 1178.250 373.737 C 1181.138 373.535, 1178.775 373.370, 1173 373.370 C 1167.225 373.370, 1164.862 373.535, 1167.750 373.737 M 1196.750 373.747 C 1204.037 373.918, 1215.963 373.918, 1223.250 373.747 C 1230.537 373.577, 1224.575 373.437, 1210 373.437 C 1195.425 373.437, 1189.463 373.577, 1196.750 373.747 M 1238.750 373.706 C 1239.987 373.944, 1242.013 373.944, 1243.250 373.706 C 1244.487 373.467, 1243.475 373.272, 1241 373.272 C 1238.525 373.272, 1237.513 373.467, 1238.750 373.706 M 1256.750 373.747 C 1262.938 373.922, 1273.063 373.922, 1279.250 373.747 C 1285.438 373.571, 1280.375 373.428, 1268 373.428 C 1255.625 373.428, 1250.563 373.571, 1256.750 373.747 M 1295.750 373.737 C 1298.638 373.939, 1303.362 373.939, 1306.250 373.737 C 1309.138 373.535, 1306.775 373.370, 1301 373.370 C 1295.225 373.370, 1292.862 373.535, 1295.750 373.737 M 1327.312 373.748 C 1336.009 373.915, 1349.959 373.915, 1358.312 373.748 C 1366.666 373.581, 1359.550 373.444, 1342.500 373.445 C 1325.450 373.445, 1318.616 373.582, 1327.312 373.748 M 1384.250 373.746 C 1390.162 373.923, 1399.838 373.923, 1405.750 373.746 C 1411.662 373.569, 1406.825 373.425, 1395 373.425 C 1383.175 373.425, 1378.338 373.569, 1384.250 373.746 M 1423.750 373.737 C 1426.638 373.939, 1431.362 373.939, 1434.250 373.737 C 1437.138 373.535, 1434.775 373.370, 1429 373.370 C 1423.225 373.370, 1420.862 373.535, 1423.750 373.737 M 1455.312 373.748 C 1464.009 373.915, 1477.959 373.915, 1486.312 373.748 C 1494.666 373.581, 1487.550 373.444, 1470.500 373.445 C 1453.450 373.445, 1446.616 373.582, 1455.312 373.748 M 1538.742 375.750 C 1538.101 377.028, 1537.779 384.534, 1538.391 383.932 C 1538.709 383.620, 1539.152 381.482, 1539.376 379.182 C 1539.764 375.193, 1539.564 374.110, 1538.742 375.750 M 1538.113 392 C 1538.172 395.850, 1538.620 399, 1539.110 399 C 1539.599 399, 1540 395.850, 1540 392 C 1540 388.015, 1539.571 385, 1539.003 385 C 1538.426 385, 1538.051 387.944, 1538.113 392 M 1538 404 C 1538 406.200, 1538.447 408, 1538.993 408 C 1539.539 408, 1539.915 406.200, 1539.829 404 C 1539.743 401.800, 1539.296 400, 1538.836 400 C 1538.376 400, 1538 401.800, 1538 404 M 1538 421.500 C 1538 428.375, 1538.407 434, 1538.905 434 C 1539.402 434, 1539.836 428.375, 1539.868 421.500 C 1539.903 414.110, 1539.533 409, 1538.963 409 C 1538.397 409, 1538 414.151, 1538 421.500 M 1538.221 469.250 C 1538.206 488.087, 1538.523 502.375, 1538.927 501 C 1539.916 497.633, 1540.010 435, 1539.026 435 C 1538.599 435, 1538.237 450.413, 1538.221 469.250 M 421.471 569.500 C 421.471 604.700, 421.597 618.955, 421.750 601.178 C 421.903 583.400, 421.903 554.600, 421.749 537.178 C 421.596 519.755, 421.471 534.300, 421.471 569.500 M 1538.079 509.583 C 1538.127 510.748, 1538.364 510.985, 1538.683 510.188 C 1538.972 509.466, 1538.936 508.603, 1538.604 508.271 C 1538.272 507.939, 1538.036 508.529, 1538.079 509.583 M 1538.111 519.834 C 1538.171 523.775, 1538.552 527, 1538.958 527 C 1539.907 527, 1539.694 514.360, 1538.729 513.395 C 1538.329 512.995, 1538.051 515.893, 1538.111 519.834 M 1538.296 532 C 1538.209 534.200, 1538.553 536, 1539.062 536 C 1539.570 536, 1539.915 534.200, 1539.829 532 C 1539.743 529.800, 1539.398 528, 1539.063 528 C 1538.728 528, 1538.382 529.800, 1538.296 532 M 1538 549.500 C 1538 556.375, 1538.383 562, 1538.851 562 C 1539.319 562, 1539.711 556.375, 1539.722 549.500 C 1539.734 542.625, 1539.351 537, 1538.871 537 C 1538.392 537, 1538 542.625, 1538 549.500 M 1538.601 568.666 C 1539.521 572.498, 1540 572.860, 1540 569.726 C 1540 568.291, 1539.532 566.829, 1538.960 566.475 C 1538.278 566.054, 1538.154 566.808, 1538.601 568.666 M 1538.083 593.500 C 1538.028 604.922, 1538.379 614, 1538.876 614 C 1539.373 614, 1539.732 604.908, 1539.687 593.500 C 1539.642 582.225, 1539.286 573, 1538.894 573 C 1538.503 573, 1538.138 582.225, 1538.083 593.500 M 1538.103 622.947 C 1538.056 627.317, 1538.351 631.098, 1538.759 631.349 C 1539.167 631.599, 1539.573 628.023, 1539.663 623.402 C 1539.753 618.781, 1539.458 615, 1539.007 615 C 1538.557 615, 1538.150 618.576, 1538.103 622.947 M 421.461 679 C 421.461 704.025, 421.590 714.263, 421.749 701.750 C 421.908 689.238, 421.908 668.763, 421.749 656.250 C 421.590 643.738, 421.461 653.975, 421.461 679 M 1538.079 637.583 C 1538.127 638.748, 1538.364 638.985, 1538.683 638.188 C 1538.972 637.466, 1538.936 636.603, 1538.604 636.271 C 1538.272 635.939, 1538.036 636.529, 1538.079 637.583 M 1538.111 647.834 C 1538.171 651.775, 1538.552 655, 1538.958 655 C 1539.907 655, 1539.694 642.360, 1538.729 641.395 C 1538.329 640.995, 1538.051 643.893, 1538.111 647.834 M 1538.155 660 C 1538.025 662.200, 1538.363 664, 1538.907 664 C 1539.450 664, 1539.822 662.200, 1539.735 660 C 1539.647 657.800, 1539.309 656, 1538.983 656 C 1538.657 656, 1538.285 657.800, 1538.155 660 M 1538 677.500 C 1538 684.375, 1538.367 690, 1538.816 690 C 1539.265 690, 1539.648 684.375, 1539.667 677.500 C 1539.686 670.625, 1539.319 665, 1538.851 665 C 1538.383 665, 1538 670.625, 1538 677.500 M 1538.401 696.484 C 1538.764 699.889, 1539.526 700.455, 1539.771 697.502 C 1539.880 696.180, 1539.556 694.844, 1539.051 694.532 C 1538.546 694.219, 1538.253 695.098, 1538.401 696.484 M 1538.105 721.500 C 1538.048 732.959, 1538.398 742, 1538.898 742 C 1539.398 742, 1539.737 732.977, 1539.667 721.500 C 1539.598 710.225, 1539.241 701, 1538.874 701 C 1538.506 701, 1538.160 710.225, 1538.105 721.500 M 421.415 743 C 421.415 753.175, 421.564 757.337, 421.745 752.250 C 421.927 747.163, 421.927 738.837, 421.745 733.750 C 421.564 728.663, 421.415 732.825, 421.415 743 M 1538.143 748.693 C 1538.143 752.419, 1538.450 753.891, 1539.030 752.951 C 1540.122 751.185, 1540.051 743, 1538.945 743 C 1538.504 743, 1538.143 745.562, 1538.143 748.693 M 1538 757.274 C 1538 758.159, 1538.410 759.136, 1538.912 759.446 C 1539.414 759.756, 1539.727 759.345, 1539.608 758.534 C 1539.294 756.392, 1538 755.379, 1538 757.274 M 421.471 825.500 C 421.471 860.700, 421.597 874.955, 421.750 857.178 C 421.903 839.400, 421.903 810.600, 421.749 793.178 C 421.596 775.755, 421.471 790.300, 421.471 825.500 M 1538.111 775.834 C 1538.171 779.775, 1538.552 783, 1538.958 783 C 1539.907 783, 1539.694 770.360, 1538.729 769.395 C 1538.329 768.995, 1538.051 771.893, 1538.111 775.834 M 1538.155 788 C 1538.025 790.200, 1538.363 792, 1538.907 792 C 1539.450 792, 1539.822 790.200, 1539.735 788 C 1539.647 785.800, 1539.309 784, 1538.983 784 C 1538.657 784, 1538.285 785.800, 1538.155 788 M 1538 805.500 C 1538 812.375, 1538.367 818, 1538.816 818 C 1539.265 818, 1539.648 812.375, 1539.667 805.500 C 1539.686 798.625, 1539.319 793, 1538.851 793 C 1538.383 793, 1538 798.625, 1538 805.500 M 1538.401 824.484 C 1538.764 827.889, 1539.526 828.455, 1539.771 825.502 C 1539.880 824.180, 1539.556 822.844, 1539.051 822.532 C 1538.546 822.219, 1538.253 823.098, 1538.401 824.484 M 1538.108 848.944 C 1538.054 859.913, 1538.411 869.136, 1538.901 869.439 C 1539.413 869.755, 1539.739 861.272, 1539.667 849.495 C 1539.598 838.223, 1539.241 829, 1538.874 829 C 1538.506 829, 1538.162 837.975, 1538.108 848.944 M 1538.143 876.693 C 1538.143 880.419, 1538.450 881.891, 1539.030 880.951 C 1540.122 879.185, 1540.051 871, 1538.945 871 C 1538.504 871, 1538.143 873.562, 1538.143 876.693 M 1538 885.274 C 1538 886.159, 1538.410 887.136, 1538.912 887.446 C 1539.414 887.756, 1539.727 887.345, 1539.608 886.534 C 1539.294 884.392, 1538 883.379, 1538 885.274 M 421.461 935 C 421.461 960.025, 421.590 970.263, 421.749 957.750 C 421.908 945.238, 421.908 924.763, 421.749 912.250 C 421.590 899.738, 421.461 909.975, 421.461 935 M 1538.111 903.834 C 1538.171 907.775, 1538.552 911, 1538.958 911 C 1539.907 911, 1539.694 898.360, 1538.729 897.395 C 1538.329 896.995, 1538.051 899.893, 1538.111 903.834 M 1538.155 916 C 1538.025 918.200, 1538.363 920, 1538.907 920 C 1539.450 920, 1539.822 918.200, 1539.735 916 C 1539.647 913.800, 1539.309 912, 1538.983 912 C 1538.657 912, 1538.285 913.800, 1538.155 916 M 1538 925.500 C 1538 927.975, 1538.412 930, 1538.917 930 C 1539.421 930, 1539.833 927.975, 1539.833 925.500 C 1539.833 923.025, 1539.421 921, 1538.917 921 C 1538.412 921, 1538 923.025, 1538 925.500 M 1538 938.500 C 1538 942.625, 1538.404 946, 1538.897 946 C 1539.391 946, 1539.728 942.625, 1539.647 938.500 C 1539.455 928.726, 1538 928.726, 1538 938.500 M 1538.160 974.018 C 1538.038 987.810, 1538.333 998, 1538.853 998 C 1539.822 998, 1539.902 951.568, 1538.935 950.602 C 1538.624 950.291, 1538.275 960.829, 1538.160 974.018 M 421.415 999 C 421.415 1009.175, 421.564 1013.337, 421.745 1008.250 C 421.927 1003.163, 421.927 994.837, 421.745 989.750 C 421.564 984.663, 421.415 988.825, 421.415 999 M 1538.143 1004.693 C 1538.143 1008.419, 1538.450 1009.891, 1539.030 1008.951 C 1540.122 1007.185, 1540.051 999, 1538.945 999 C 1538.504 999, 1538.143 1001.562, 1538.143 1004.693 M 1538 1013.274 C 1538 1014.159, 1538.410 1015.136, 1538.912 1015.446 C 1539.414 1015.756, 1539.727 1015.345, 1539.608 1014.534 C 1539.294 1012.392, 1538 1011.379, 1538 1013.274 M 421.461 1063 C 421.461 1088.025, 421.590 1098.263, 421.749 1085.750 C 421.908 1073.237, 421.908 1052.763, 421.749 1040.250 C 421.590 1027.737, 421.461 1037.975, 421.461 1063 M 1538.111 1031.834 C 1538.171 1035.775, 1538.552 1039, 1538.958 1039 C 1539.907 1039, 1539.694 1026.360, 1538.729 1025.395 C 1538.329 1024.995, 1538.051 1027.893, 1538.111 1031.834 M 1538.296 1044 C 1538.209 1046.200, 1538.533 1048, 1539.016 1048 C 1539.499 1048, 1539.822 1046.200, 1539.735 1044 C 1539.647 1041.800, 1539.323 1040, 1539.014 1040 C 1538.706 1040, 1538.382 1041.800, 1538.296 1044 M 1538 1061.500 C 1538 1068.375, 1538.365 1074, 1538.810 1074 C 1539.256 1074, 1539.642 1068.375, 1539.667 1061.500 C 1539.693 1054.625, 1539.328 1049, 1538.857 1049 C 1538.386 1049, 1538 1054.625, 1538 1061.500 M 1538.141 1102.052 C 1538.016 1115.750, 1538.308 1126, 1538.823 1126 C 1539.851 1126, 1540.046 1079.146, 1539.021 1078.513 C 1538.657 1078.288, 1538.261 1088.881, 1538.141 1102.052 M 421.477 1191 C 421.477 1236.375, 421.600 1254.938, 421.750 1232.250 C 421.900 1209.563, 421.900 1172.438, 421.750 1149.750 C 421.600 1127.063, 421.477 1145.625, 421.477 1191 M 1538.143 1132.693 C 1538.143 1136.419, 1538.450 1137.891, 1539.030 1136.951 C 1540.122 1135.185, 1540.051 1127, 1538.945 1127 C 1538.504 1127, 1538.143 1129.562, 1538.143 1132.693 M 1538 1141.274 C 1538 1142.159, 1538.410 1143.136, 1538.912 1143.446 C 1539.414 1143.756, 1539.727 1143.345, 1539.608 1142.534 C 1539.294 1140.392, 1538 1139.379, 1538 1141.274 M 1538.111 1159.834 C 1538.171 1163.775, 1538.552 1167, 1538.958 1167 C 1539.907 1167, 1539.694 1154.360, 1538.729 1153.395 C 1538.329 1152.995, 1538.051 1155.893, 1538.111 1159.834 M 1538.296 1172 C 1538.209 1174.200, 1538.533 1176, 1539.016 1176 C 1539.499 1176, 1539.822 1174.200, 1539.735 1172 C 1539.647 1169.800, 1539.323 1168, 1539.014 1168 C 1538.706 1168, 1538.382 1169.800, 1538.296 1172 M 1538 1189.500 C 1538 1196.375, 1538.365 1202, 1538.810 1202 C 1539.256 1202, 1539.642 1196.375, 1539.667 1189.500 C 1539.693 1182.625, 1539.328 1177, 1538.857 1177 C 1538.386 1177, 1538 1182.625, 1538 1189.500 M 1538.159 1230.055 C 1538.044 1243.225, 1538.338 1254, 1538.815 1254 C 1539.829 1254, 1540.065 1207.158, 1539.054 1206.533 C 1538.678 1206.301, 1538.275 1216.886, 1538.159 1230.055 M 1538.015 1260.750 C 1538.026 1264.746, 1538.318 1266.045, 1538.974 1265.008 C 1540.146 1263.154, 1540.064 1255, 1538.873 1255 C 1538.393 1255, 1538.007 1257.588, 1538.015 1260.750 M 1538 1268.774 C 1538 1269.934, 1538.426 1271.146, 1538.948 1271.468 C 1539.474 1271.793, 1539.710 1271.091, 1539.479 1269.891 C 1538.904 1266.904, 1538 1266.221, 1538 1268.774 M 421.461 1319 C 421.461 1344.025, 421.590 1354.263, 421.749 1341.750 C 421.908 1329.237, 421.908 1308.763, 421.749 1296.250 C 421.590 1283.737, 421.461 1293.975, 421.461 1319 M 1538.079 1277.583 C 1538.127 1278.748, 1538.364 1278.985, 1538.683 1278.188 C 1538.972 1277.466, 1538.936 1276.603, 1538.604 1276.271 C 1538.272 1275.939, 1538.036 1276.529, 1538.079 1277.583 M 1538.111 1287.834 C 1538.171 1291.775, 1538.552 1295, 1538.958 1295 C 1539.907 1295, 1539.694 1282.360, 1538.729 1281.395 C 1538.329 1280.995, 1538.051 1283.893, 1538.111 1287.834 M 1538.155 1300 C 1538.025 1302.200, 1538.363 1304, 1538.907 1304 C 1539.450 1304, 1539.822 1302.200, 1539.735 1300 C 1539.647 1297.800, 1539.309 1296, 1538.983 1296 C 1538.657 1296, 1538.285 1297.800, 1538.155 1300 M 1538 1317.500 C 1538 1324.375, 1538.401 1330, 1538.892 1330 C 1539.382 1330, 1539.762 1324.375, 1539.737 1317.500 C 1539.711 1310.625, 1539.310 1305, 1538.845 1305 C 1538.380 1305, 1538 1310.625, 1538 1317.500 M 1538.141 1358.052 C 1538.016 1371.784, 1538.308 1382, 1538.825 1382 C 1539.867 1382, 1540.081 1335.168, 1539.042 1334.526 C 1538.667 1334.294, 1538.261 1344.881, 1538.141 1358.052 M 421.471 1428.500 C 421.471 1463.700, 421.597 1477.955, 421.750 1460.178 C 421.903 1442.400, 421.903 1413.600, 421.749 1396.178 C 421.596 1378.755, 421.471 1393.300, 421.471 1428.500 M 1538.015 1388.750 C 1538.026 1392.746, 1538.318 1394.045, 1538.974 1393.008 C 1540.146 1391.154, 1540.064 1383, 1538.873 1383 C 1538.393 1383, 1538.007 1385.588, 1538.015 1388.750 M 1538 1396.941 C 1538 1398.009, 1538.360 1399.104, 1538.800 1399.376 C 1539.240 1399.648, 1539.600 1398.775, 1539.600 1397.435 C 1539.600 1396.096, 1539.240 1395, 1538.800 1395 C 1538.360 1395, 1538 1395.873, 1538 1396.941 M 1538.390 1402.427 C 1538.088 1403.212, 1538.009 1404.900, 1538.214 1406.177 C 1538.488 1407.886, 1538.721 1407.509, 1539.093 1404.750 C 1539.616 1400.868, 1539.339 1399.952, 1538.390 1402.427 M 1538.111 1415.834 C 1538.171 1419.775, 1538.587 1423, 1539.035 1423 C 1540.015 1423, 1539.709 1410.376, 1538.705 1409.371 C 1538.318 1408.985, 1538.051 1411.893, 1538.111 1415.834 M 1538.296 1428 C 1538.209 1430.200, 1538.533 1432, 1539.016 1432 C 1539.499 1432, 1539.822 1430.200, 1539.735 1428 C 1539.647 1425.800, 1539.323 1424, 1539.014 1424 C 1538.706 1424, 1538.382 1425.800, 1538.296 1428 M 1538 1445.500 C 1538 1452.375, 1538.401 1458, 1538.892 1458 C 1539.382 1458, 1539.762 1452.375, 1539.737 1445.500 C 1539.711 1438.625, 1539.310 1433, 1538.845 1433 C 1538.380 1433, 1538 1438.625, 1538 1445.500 M 1538.159 1486.055 C 1538.041 1499.523, 1538.338 1510, 1538.838 1510 C 1539.865 1510, 1540.071 1463.162, 1539.047 1462.529 C 1538.674 1462.299, 1538.275 1472.886, 1538.159 1486.055 M 421.471 1556.500 C 421.471 1591.700, 421.597 1605.955, 421.750 1588.178 C 421.903 1570.400, 421.903 1541.600, 421.749 1524.178 C 421.596 1506.755, 421.471 1521.300, 421.471 1556.500 M 1538.190 1519.009 C 1538.206 1523.414, 1538.543 1527.218, 1538.938 1527.462 C 1539.334 1527.706, 1539.681 1524.102, 1539.709 1519.453 C 1539.738 1514.804, 1539.401 1511, 1538.961 1511 C 1538.521 1511, 1538.174 1514.604, 1538.190 1519.009 M 1538.390 1530.427 C 1538.088 1531.212, 1538.009 1532.900, 1538.214 1534.177 C 1538.488 1535.886, 1538.721 1535.509, 1539.093 1532.750 C 1539.616 1528.868, 1539.339 1527.952, 1538.390 1530.427 M 1538.111 1543.834 C 1538.171 1547.775, 1538.587 1551, 1539.035 1551 C 1540.015 1551, 1539.709 1538.376, 1538.705 1537.371 C 1538.318 1536.985, 1538.051 1539.893, 1538.111 1543.834 M 1538.296 1556 C 1538.209 1558.200, 1538.533 1560, 1539.016 1560 C 1539.499 1560, 1539.822 1558.200, 1539.735 1556 C 1539.647 1553.800, 1539.323 1552, 1539.014 1552 C 1538.706 1552, 1538.382 1553.800, 1538.296 1556 M 1538 1573.500 C 1538 1580.559, 1538.406 1586, 1538.932 1586 C 1539.461 1586, 1539.842 1580.595, 1539.814 1573.500 C 1539.786 1566.625, 1539.366 1561, 1538.881 1561 C 1538.397 1561, 1538 1566.625, 1538 1573.500 M 1538.709 1589.750 C 1537.831 1591.360, 1537.948 1638, 1538.830 1638 C 1539.365 1638, 1539.734 1627.757, 1539.713 1613.500 C 1539.693 1600.025, 1539.551 1589, 1539.398 1589 C 1539.244 1589, 1538.934 1589.338, 1538.709 1589.750 M 421.471 1684.500 C 421.471 1719.700, 421.597 1733.955, 421.750 1716.178 C 421.903 1698.400, 421.903 1669.600, 421.749 1652.178 C 421.596 1634.755, 421.471 1649.300, 421.471 1684.500 M 1538.190 1647.009 C 1538.229 1657.744, 1539.555 1658.099, 1539.787 1647.436 C 1539.888 1642.796, 1539.563 1639, 1539.066 1639 C 1538.568 1639, 1538.174 1642.604, 1538.190 1647.009 M 1538.345 1658.543 C 1538.019 1659.392, 1537.976 1660.310, 1538.249 1660.583 C 1538.523 1660.856, 1538.986 1660.161, 1539.279 1659.040 C 1539.903 1656.657, 1539.210 1656.289, 1538.345 1658.543 M 1538.111 1671.834 C 1538.171 1675.775, 1538.587 1679, 1539.035 1679 C 1540.015 1679, 1539.709 1666.376, 1538.705 1665.371 C 1538.318 1664.985, 1538.051 1667.893, 1538.111 1671.834 M 1538 1684 C 1538 1686.200, 1538.447 1688, 1538.993 1688 C 1539.539 1688, 1539.915 1686.200, 1539.829 1684 C 1539.743 1681.800, 1539.296 1680, 1538.836 1680 C 1538.376 1680, 1538 1681.800, 1538 1684 M 1538 1701.500 C 1538 1708.375, 1538.407 1714, 1538.905 1714 C 1539.402 1714, 1539.836 1708.375, 1539.868 1701.500 C 1539.903 1694.110, 1539.533 1689, 1538.963 1689 C 1538.397 1689, 1538 1694.151, 1538 1701.500 M 1538.690 1717.750 C 1537.803 1719.301, 1537.953 1766, 1538.845 1766 C 1539.374 1766, 1539.763 1755.658, 1539.766 1741.500 C 1539.768 1728.025, 1539.624 1717, 1539.444 1717 C 1539.265 1717, 1538.925 1717.338, 1538.690 1717.750 M 421.453 1786 C 421.453 1806.625, 421.586 1815.063, 421.749 1804.750 C 421.911 1794.438, 421.911 1777.563, 421.749 1767.250 C 421.586 1756.938, 421.453 1765.375, 421.453 1786 M 1538.162 1775.072 C 1538.307 1779.512, 1538.690 1783.309, 1539.014 1783.509 C 1539.338 1783.709, 1539.686 1780.076, 1539.787 1775.436 C 1539.902 1770.164, 1539.582 1767, 1538.935 1767 C 1538.284 1767, 1537.996 1770, 1538.162 1775.072 M 1538.345 1786.543 C 1538.019 1787.392, 1537.976 1788.310, 1538.249 1788.583 C 1538.523 1788.856, 1538.986 1788.161, 1539.279 1787.040 C 1539.903 1784.657, 1539.210 1784.289, 1538.345 1786.543 M 1538.111 1799.834 C 1538.171 1803.775, 1538.587 1807, 1539.035 1807 C 1540.015 1807, 1539.709 1794.376, 1538.705 1793.371 C 1538.318 1792.985, 1538.051 1795.893, 1538.111 1799.834 M 1538.252 1815.500 C 1538.126 1820.049, 1538.443 1823, 1539.060 1823 C 1539.673 1823, 1540.007 1820.026, 1539.902 1815.500 C 1539.806 1811.375, 1539.443 1808, 1539.095 1808 C 1538.746 1808, 1538.367 1811.375, 1538.252 1815.500" stroke="none" fill="black" fill-rule="evenodd"/>
	<path fill-opacity="0.156" d="M 416 366.001 C 418.097 367.358, 1544.664 367.353, 1545.502 365.996 C 1545.911 365.335, 1355.937 365.005, 980.309 365.015 C 614.245 365.025, 415.030 365.373, 416 366.001 M 422 371.956 C 422 372.553, 628.912 372.906, 980 372.910 C 1333.531 372.913, 1538 372.566, 1538 371.961 C 1538 371.356, 1333.527 371.007, 980 371.007 C 628.909 371.007, 422 371.359, 422 371.956 M 426.250 376.250 C 426.583 377.248, 538.133 377.555, 978.583 377.773 C 1282.137 377.923, 1531.513 377.801, 1532.750 377.504 C 1533.987 377.206, 1535 376.520, 1535 375.981 C 1535 375.341, 1342.291 375, 980.417 375 C 537.194 375, 425.917 375.251, 426.250 376.250" stroke="none" fill="black" fill-rule="evenodd"/>
</svg>