<svg xmlns="http://www.w3.org/2000/svg" width="2000" height="2000" viewBox="0 0 2000 2000" version="1.1">
	<path fill-opacity="0.051" d="M 517.679 337.823 C 516.755 338.001, 515.989 338.901, 515.975 339.823 C 515.942 341.974, 515.943 1834.087, 515.976 1843.750 L 516 1851 550.978 1851 L 585.956 1851 585.955 1129.857 C 585.954 733.228, 586.122 408.544, 586.328 408.338 C 586.603 408.063, 1210.093 407.809, 1451.250 407.986 L 1471 408 1471 1129.500 L 1471 1851 1506 1851 L 1541 1851 1541 1094.500 C 1541 678.425, 1540.662 337.961, 1540.250 337.914 C 1537.922 337.645, 519.070 337.555, 517.679 337.823" stroke="none" fill="black" fill-rule="evenodd"/>
	<path fill-opacity="0.198" d="M 516.249 1094.250 L 516.500 1850.500 550.750 1850.576 L 585 1850.652 585 1128.843 L 585 407.034 1028 407.028 C 1448.122 407.023, 1471.002 407.112, 1471.048 408.761 C 1471.074 409.718, 1471.186 734.500, 1471.298 1130.500 L 1471.500 1850.500 1506 1850.500 L 1540.500 1850.500 1540.708 1094.250 L 1540.916 338 1028.457 338 L 515.999 338 516.249 1094.250" stroke="none" fill="black" fill-rule="evenodd"/>
	<path fill-opacity="0.011" d="M 570.249 1120.750 L 570.499 1850.500 570.750 1122.250 L 571.001 394 1028.001 394 L 1485 394 1485.102 398.250 C 1485.158 400.587, 1485.271 727.925, 1485.353 1125.668 C 1485.435 1523.410, 1485.839 1849.172, 1486.251 1849.584 C 1486.663 1849.996, 1487 1521.983, 1487 1120.667 L 1487 391 1028.500 391 L 570 391 570.249 1120.750 M 576 398.500 C 576 399.831, 626.833 400, 1027.500 400 L 1479 400 1479.079 404.250 C 1479.173 409.307, 1479.660 408.306, 1480.294 401.750 L 1480.754 397 1028.377 397 C 626.931 397, 576 397.169, 576 398.500 M 580.092 1125.500 C 580.084 1587.689, 580.428 1850, 581.040 1850 C 581.568 1850, 582.008 1848.313, 582.019 1846.250 C 582.029 1844.188, 582.141 1519.511, 582.269 1124.747 L 582.500 406.993 1028.250 406.747 L 1474 406.500 1474.047 443.500 C 1474.072 463.850, 1474.125 788.657, 1474.164 1165.294 C 1474.208 1584.723, 1474.594 1849.969, 1475.161 1849.780 C 1475.727 1849.591, 1476.167 1568.241, 1476.293 1125.236 L 1476.500 401 1028.302 401 L 580.104 401 580.092 1125.500 M 1479.079 425.583 C 1479.127 426.748, 1479.364 426.985, 1479.683 426.188 C 1479.972 425.466, 1479.936 424.603, 1479.604 424.271 C 1479.272 423.939, 1479.036 424.529, 1479.079 425.583 M 1479.195 431.500 C 1479.215 433.150, 1479.439 433.704, 1479.693 432.731 C 1479.947 431.758, 1479.930 430.408, 1479.656 429.731 C 1479.382 429.054, 1479.175 429.850, 1479.195 431.500 M 1479.195 438.500 C 1479.215 440.150, 1479.439 440.704, 1479.693 439.731 C 1479.947 438.758, 1479.930 437.408, 1479.656 436.731 C 1479.382 436.054, 1479.175 436.850, 1479.195 438.500 M 1479.158 444 C 1479.158 445.375, 1479.385 445.938, 1479.662 445.250 C 1479.940 444.563, 1479.940 443.438, 1479.662 442.750 C 1479.385 442.063, 1479.158 442.625, 1479.158 444 M 1479.158 501 C 1479.158 502.375, 1479.385 502.938, 1479.662 502.250 C 1479.940 501.563, 1479.940 500.438, 1479.662 499.750 C 1479.385 499.063, 1479.158 499.625, 1479.158 501 M 1479.252 532.500 C 1479.263 534.700, 1479.468 535.482, 1479.707 534.238 C 1479.946 532.994, 1479.937 531.194, 1479.687 530.238 C 1479.437 529.282, 1479.241 530.300, 1479.252 532.500 M 1479.158 567 C 1479.158 568.375, 1479.385 568.938, 1479.662 568.250 C 1479.940 567.563, 1479.940 566.438, 1479.662 565.750 C 1479.385 565.063, 1479.158 565.625, 1479.158 567 M 1479.158 572 C 1479.158 573.375, 1479.385 573.938, 1479.662 573.250 C 1479.940 572.563, 1479.940 571.438, 1479.662 570.750 C 1479.385 570.063, 1479.158 570.625, 1479.158 572 M 1479.232 659 C 1479.232 660.925, 1479.438 661.712, 1479.689 660.750 C 1479.941 659.788, 1479.941 658.212, 1479.689 657.250 C 1479.438 656.288, 1479.232 657.075, 1479.232 659 M 1479.158 695 C 1479.158 696.375, 1479.385 696.938, 1479.662 696.250 C 1479.940 695.563, 1479.940 694.438, 1479.662 693.750 C 1479.385 693.063, 1479.158 693.625, 1479.158 695 M 1479.158 700 C 1479.158 701.375, 1479.385 701.938, 1479.662 701.250 C 1479.940 700.563, 1479.940 699.438, 1479.662 698.750 C 1479.385 698.063, 1479.158 698.625, 1479.158 700 M 1479.232 787 C 1479.232 788.925, 1479.438 789.712, 1479.689 788.750 C 1479.941 787.788, 1479.941 786.212, 1479.689 785.250 C 1479.438 784.288, 1479.232 785.075, 1479.232 787 M 1479.158 823 C 1479.158 824.375, 1479.385 824.938, 1479.662 824.250 C 1479.940 823.563, 1479.940 822.438, 1479.662 821.750 C 1479.385 821.063, 1479.158 821.625, 1479.158 823 M 1479.158 828 C 1479.158 829.375, 1479.385 829.938, 1479.662 829.250 C 1479.940 828.563, 1479.940 827.438, 1479.662 826.750 C 1479.385 826.063, 1479.158 826.625, 1479.158 828 M 1479.232 915 C 1479.232 916.925, 1479.438 917.712, 1479.689 916.750 C 1479.941 915.788, 1479.941 914.212, 1479.689 913.250 C 1479.438 912.288, 1479.232 913.075, 1479.232 915 M 1479.158 951 C 1479.158 952.375, 1479.385 952.938, 1479.662 952.250 C 1479.940 951.563, 1479.940 950.438, 1479.662 949.750 C 1479.385 949.063, 1479.158 949.625, 1479.158 951 M 1479.158 956 C 1479.158 957.375, 1479.385 957.938, 1479.662 957.250 C 1479.940 956.563, 1479.940 955.438, 1479.662 954.750 C 1479.385 954.063, 1479.158 954.625, 1479.158 956 M 1479.232 1043 C 1479.232 1044.925, 1479.438 1045.713, 1479.689 1044.750 C 1479.941 1043.787, 1479.941 1042.213, 1479.689 1041.250 C 1479.438 1040.287, 1479.232 1041.075, 1479.232 1043 M 1479.158 1079 C 1479.158 1080.375, 1479.385 1080.938, 1479.662 1080.250 C 1479.940 1079.563, 1479.940 1078.438, 1479.662 1077.750 C 1479.385 1077.063, 1479.158 1077.625, 1479.158 1079 M 1479.158 1084 C 1479.158 1085.375, 1479.385 1085.938, 1479.662 1085.250 C 1479.940 1084.563, 1479.940 1083.438, 1479.662 1082.750 C 1479.385 1082.063, 1479.158 1082.625, 1479.158 1084 M 1479.232 1171 C 1479.232 1172.925, 1479.438 1173.713, 1479.689 1172.750 C 1479.941 1171.787, 1479.941 1170.213, 1479.689 1169.250 C 1479.438 1168.287, 1479.232 1169.075, 1479.232 1171 M 1479.158 1207 C 1479.158 1208.375, 1479.385 1208.938, 1479.662 1208.250 C 1479.940 1207.563, 1479.940 1206.438, 1479.662 1205.750 C 1479.385 1205.063, 1479.158 1205.625, 1479.158 1207 M 1479.158 1212 C 1479.158 1213.375, 1479.385 1213.938, 1479.662 1213.250 C 1479.940 1212.563, 1479.940 1211.438, 1479.662 1210.750 C 1479.385 1210.063, 1479.158 1210.625, 1479.158 1212 M 1479.252 1299.500 C 1479.263 1301.700, 1479.468 1302.482, 1479.707 1301.238 C 1479.946 1299.994, 1479.937 1298.194, 1479.687 1297.238 C 1479.437 1296.282, 1479.241 1297.300, 1479.252 1299.500 M 1479.158 1335 C 1479.158 1336.375, 1479.385 1336.938, 1479.662 1336.250 C 1479.940 1335.563, 1479.940 1334.438, 1479.662 1333.750 C 1479.385 1333.063, 1479.158 1333.625, 1479.158 1335 M 1479.158 1340 C 1479.158 1341.375, 1479.385 1341.938, 1479.662 1341.250 C 1479.940 1340.563, 1479.940 1339.438, 1479.662 1338.750 C 1479.385 1338.063, 1479.158 1338.625, 1479.158 1340 M 1479.252 1427.500 C 1479.263 1429.700, 1479.468 1430.482, 1479.707 1429.238 C 1479.946 1427.994, 1479.937 1426.194, 1479.687 1425.238 C 1479.437 1424.282, 1479.241 1425.300, 1479.252 1427.500 M 1479.158 1463 C 1479.158 1464.375, 1479.385 1464.938, 1479.662 1464.250 C 1479.940 1463.563, 1479.940 1462.438, 1479.662 1461.750 C 1479.385 1461.063, 1479.158 1461.625, 1479.158 1463 M 1479.158 1468 C 1479.158 1469.375, 1479.385 1469.938, 1479.662 1469.250 C 1479.940 1468.563, 1479.940 1467.438, 1479.662 1466.750 C 1479.385 1466.063, 1479.158 1466.625, 1479.158 1468 M 1479.079 1553.583 C 1479.127 1554.748, 1479.364 1554.985, 1479.683 1554.188 C 1479.972 1553.466, 1479.936 1552.603, 1479.604 1552.271 C 1479.272 1551.939, 1479.036 1552.529, 1479.079 1553.583 M 1479.079 1557.583 C 1479.127 1558.748, 1479.364 1558.985, 1479.683 1558.188 C 1479.972 1557.466, 1479.936 1556.603, 1479.604 1556.271 C 1479.272 1555.939, 1479.036 1556.529, 1479.079 1557.583 M 1479.158 1591 C 1479.158 1592.375, 1479.385 1592.938, 1479.662 1592.250 C 1479.940 1591.563, 1479.940 1590.438, 1479.662 1589.750 C 1479.385 1589.063, 1479.158 1589.625, 1479.158 1591 M 1479.158 1596 C 1479.158 1597.375, 1479.385 1597.938, 1479.662 1597.250 C 1479.940 1596.563, 1479.940 1595.438, 1479.662 1594.750 C 1479.385 1594.063, 1479.158 1594.625, 1479.158 1596 M 1479.079 1681.583 C 1479.127 1682.748, 1479.364 1682.985, 1479.683 1682.188 C 1479.972 1681.466, 1479.936 1680.603, 1479.604 1680.271 C 1479.272 1679.939, 1479.036 1680.529, 1479.079 1681.583 M 1479.158 1719 C 1479.158 1720.375, 1479.385 1720.938, 1479.662 1720.250 C 1479.940 1719.563, 1479.940 1718.438, 1479.662 1717.750 C 1479.385 1717.063, 1479.158 1717.625, 1479.158 1719 M 1479.158 1724 C 1479.158 1725.375, 1479.385 1725.938, 1479.662 1725.250 C 1479.940 1724.563, 1479.940 1723.438, 1479.662 1722.750 C 1479.385 1722.063, 1479.158 1722.625, 1479.158 1724 M 1479.079 1809.583 C 1479.127 1810.748, 1479.364 1810.985, 1479.683 1810.188 C 1479.972 1809.466, 1479.936 1808.603, 1479.604 1808.271 C 1479.272 1807.939, 1479.036 1808.529, 1479.079 1809.583 M 1479.158 1847 C 1479.158 1848.375, 1479.385 1848.938, 1479.662 1848.250 C 1479.940 1847.563, 1479.940 1846.438, 1479.662 1845.750 C 1479.385 1845.063, 1479.158 1845.625, 1479.158 1847" stroke="none" fill="black" fill-rule="evenodd"/>
	<path fill-opacity="0.161" d="M 798.750 392.750 C 924.838 392.890, 1131.163 392.890, 1257.250 392.750 C 1383.338 392.610, 1280.175 392.496, 1028 392.496 C 775.825 392.496, 672.663 392.610, 798.750 392.750 M 579.209 398.542 C 579.912 399.245, 1470.098 399.236, 1470.801 398.533 C 1471.094 398.240, 1270.483 398, 1025 398 C 779.517 398, 578.911 398.244, 579.209 398.542 M 1476 399.059 C 1476 399.641, 1476.450 399.840, 1477 399.500 C 1477.550 399.160, 1478 398.684, 1478 398.441 C 1478 398.198, 1477.550 398, 1477 398 C 1476.450 398, 1476 398.477, 1476 399.059 M 582 403.500 C 583.103 404.829, 633.874 405, 1027.931 405 C 1417.379 405, 1472.859 404.818, 1474.559 403.532 C 1476.267 402.240, 1422.644 402.060, 1028.628 402.032 C 630.630 402.004, 580.894 402.167, 582 403.500" stroke="none" fill="black" fill-rule="evenodd"/>
</svg>