<svg xmlns="http://www.w3.org/2000/svg" width="2000" height="2000" viewBox="0 0 2000 2000" version="1.1">
	<path fill-opacity="0.173" d="M 627.971 327.750 C 627.931 332.718, 627.931 1829.552, 627.970 1833.763 L 628 1837.026 662.750 1836.763 L 697.500 1836.500 697.700 1121.500 C 697.810 728.250, 697.922 403.688, 697.950 400.250 L 698 394 972.500 394 L 1247 394 1247 1115.500 L 1247 1837 1282 1837 L 1317 1837 1317 1080.500 L 1317 324 972.500 324 L 628 324 627.971 327.750" stroke="none" fill="black" fill-rule="evenodd"/>
	<path fill-opacity="0.071" d="M 628.249 1080.260 L 628.500 1836.500 662.500 1836.530 L 696.500 1836.560 697 1115.036 L 697.500 393.512 972.250 393.506 L 1247 393.500 1247.063 397.500 C 1247.098 399.700, 1247.155 724.428, 1247.189 1119.117 L 1247.251 1836.734 1280.375 1836.766 C 1298.594 1836.784, 1314.200 1836.616, 1315.056 1836.394 C 1316.461 1836.028, 1316.611 1763.161, 1316.610 1080.001 L 1316.608 324.014 972.303 324.017 L 627.999 324.020 628.249 1080.260" stroke="none" fill="black" fill-rule="evenodd"/>
	<path fill-opacity="0.010" d="M 681.623 1102.750 C 681.695 1501.913, 681.809 1830.263, 681.877 1832.417 C 681.944 1834.571, 682.288 1836.045, 682.641 1835.692 C 682.993 1835.340, 683.312 1510.252, 683.348 1113.276 C 683.384 716.299, 683.589 389.137, 683.803 386.250 L 684.193 381 972.597 381 L 1261 381 1261 1108.500 C 1261 1592.833, 1261.334 1836, 1262 1836 C 1262.666 1836, 1263 1592.167, 1263 1106.500 L 1263 377 972.246 377 L 681.493 377 681.623 1102.750 M 687.738 1090.750 C 687.870 1480.013, 687.982 1807.013, 687.988 1817.417 C 687.995 1827.821, 688.297 1836.036, 688.661 1835.673 C 689.024 1835.309, 689.401 1509.322, 689.498 1111.256 C 689.595 713.190, 689.748 387.163, 689.837 386.750 C 689.927 386.337, 690.788 386.007, 691.750 386.015 C 692.802 386.025, 693.073 386.324, 692.430 386.765 C 691.672 387.286, 691.359 598.519, 691.355 1111.750 C 691.349 1812.279, 691.409 1836, 693.174 1836 C 694.904 1836, 695 1834.306, 695.002 1803.750 C 695.004 1786.013, 695.026 1461.919, 695.052 1083.543 C 695.085 595.210, 695.410 395.211, 696.172 394.293 C 697.045 393.241, 748.751 393, 973.122 393 L 1249 393 1249.049 448.250 C 1249.076 478.637, 1249.101 802.075, 1249.103 1167 C 1249.106 1531.925, 1249.345 1831.737, 1249.634 1833.250 C 1249.923 1834.763, 1250.799 1836, 1251.581 1836 C 1252.809 1836, 1252.968 1737.223, 1252.751 1111.167 C 1252.550 531.833, 1252.751 386.333, 1253.750 386.333 C 1254.749 386.333, 1255 531.967, 1255 1111.167 C 1255 1593.722, 1255.334 1836, 1256 1836 C 1256.666 1836, 1257 1593.167, 1257 1109.500 L 1257 383 972.250 383 L 687.500 383 687.738 1090.750 M 700.750 386.662 C 701.438 386.940, 702.563 386.940, 703.250 386.662 C 703.938 386.385, 703.375 386.158, 702 386.158 C 700.625 386.158, 700.063 386.385, 700.750 386.662 M 706.813 386.683 C 707.534 386.972, 708.397 386.936, 708.729 386.604 C 709.061 386.272, 708.471 386.036, 707.417 386.079 C 706.252 386.127, 706.015 386.364, 706.813 386.683 M 710.750 386.662 C 711.438 386.940, 712.563 386.940, 713.250 386.662 C 713.938 386.385, 713.375 386.158, 712 386.158 C 710.625 386.158, 710.063 386.385, 710.750 386.662 M 716.269 386.693 C 717.242 386.947, 718.592 386.930, 719.269 386.656 C 719.946 386.382, 719.150 386.175, 717.500 386.195 C 715.850 386.215, 715.296 386.439, 716.269 386.693 M 793.813 386.683 C 794.534 386.972, 795.397 386.936, 795.729 386.604 C 796.061 386.272, 795.471 386.036, 794.417 386.079 C 793.252 386.127, 793.015 386.364, 793.813 386.683 M 921.813 386.683 C 922.534 386.972, 923.397 386.936, 923.729 386.604 C 924.061 386.272, 923.471 386.036, 922.417 386.079 C 921.252 386.127, 921.015 386.364, 921.813 386.683 M 1049.813 386.683 C 1050.534 386.972, 1051.397 386.936, 1051.729 386.604 C 1052.061 386.272, 1051.471 386.036, 1050.417 386.079 C 1049.252 386.127, 1049.015 386.364, 1049.813 386.683 M 1177.813 386.683 C 1178.534 386.972, 1179.397 386.936, 1179.729 386.604 C 1180.061 386.272, 1179.471 386.036, 1178.417 386.079 C 1177.252 386.127, 1177.015 386.364, 1177.813 386.683 M 1222.750 386.662 C 1223.438 386.940, 1224.563 386.940, 1225.250 386.662 C 1225.938 386.385, 1225.375 386.158, 1224 386.158 C 1222.625 386.158, 1222.063 386.385, 1222.750 386.662 M 1228.269 386.693 C 1229.242 386.947, 1230.592 386.930, 1231.269 386.656 C 1231.946 386.382, 1231.150 386.175, 1229.500 386.195 C 1227.850 386.215, 1227.296 386.439, 1228.269 386.693" stroke="none" fill="black" fill-rule="evenodd"/>
	<path fill-opacity="0.154" d="M 682.500 379 C 683.357 380.386, 1260.643 380.386, 1261.500 379 C 1261.911 378.334, 1165.157 378, 972 378 C 778.843 378, 682.089 378.334, 682.500 379 M 689 384.969 C 689 386.304, 1254.690 386.311, 1255.515 384.975 C 1255.906 384.342, 1156.557 384, 972.559 384 C 790.298 384, 689 384.346, 689 384.969 M 693 388.941 C 693 389.459, 693.414 390.138, 693.920 390.451 C 694.426 390.763, 819.618 391.020, 972.123 391.021 C 1218.199 391.023, 1249.576 390.853, 1250.917 389.511 C 1252.266 388.163, 1222.292 388, 972.714 388 C 798.600 388, 693 388.355, 693 388.941" stroke="none" fill="black" fill-rule="evenodd"/>
</svg>