<svg width="22" height="22" viewBox="0 0 22 22" fill="none" xmlns="http://www.w3.org/2000/svg">
    <path d="M11.6488 6.14822C12.0067 5.79024 12.0067 5.20984 11.6488 4.85186C11.2908 4.49388 10.7104 4.49388 10.3524 4.85186L4.85239 10.3519C4.50536 10.6989 4.49322 11.2577 4.82485 11.6195L9.86651 17.1195C10.2086 17.4926 10.7885 17.5179 11.1617 17.1758C11.5348 16.8337 11.5601 16.2538 11.218 15.8806L6.76936 11.0276L11.6488 6.14822Z"
          fill="currentColor"/>
    <path opacity="0.4"
          d="M18.0648 6.14822C18.4228 5.79024 18.4228 5.20984 18.0648 4.85186C17.7069 4.49388 17.1265 4.49388 16.7685 4.85186L11.2685 10.3519C10.9215 10.6989 10.9093 11.2577 11.2409 11.6195L16.2826 17.1195C16.6247 17.4926 17.2046 17.5179 17.5777 17.1758C17.9509 16.8337 17.9762 16.2538 17.6341 15.8806L13.1855 11.0276L18.0648 6.14822Z"
          fill="currentColor"/>
</svg>
