<svg width="20" height="20" viewBox="0 0 20 20" fill="none" xmlns="http://www.w3.org/2000/svg">
    <path d="M16.6693 16.6667L15.2257 15.2232M15.2257 15.2232C15.6028 14.8462 15.8359 14.3253 15.8359 13.75C15.8359 12.5994 14.9032 11.6667 13.7526 11.6667C12.602 11.6667 11.6693 12.5994 11.6693 13.75C11.6693 14.9006 12.602 15.8334 13.7526 15.8334C14.3279 15.8334 14.8487 15.6002 15.2257 15.2232ZM13.0026 8.33337H15.3359C15.8026 8.33337 16.036 8.33337 16.2143 8.24255C16.3711 8.16265 16.4985 8.03517 16.5784 7.87837C16.6693 7.70011 16.6693 7.46675 16.6693 7.00004V4.66671C16.6693 4.2 16.6693 3.96664 16.5784 3.78838C16.4985 3.63158 16.3711 3.5041 16.2143 3.4242C16.036 3.33337 15.8026 3.33337 15.3359 3.33337H13.0026C12.5359 3.33337 12.3025 3.33337 12.1243 3.4242C11.9675 3.5041 11.84 3.63158 11.7601 3.78838C11.6693 3.96664 11.6693 4.2 11.6693 4.66671V7.00004C11.6693 7.46675 11.6693 7.70011 11.7601 7.87837C11.84 8.03517 11.9675 8.16265 12.1243 8.24255C12.3025 8.33337 12.5359 8.33337 13.0026 8.33337ZM4.66927 8.33337H7.0026C7.46931 8.33337 7.70267 8.33337 7.88093 8.24255C8.03773 8.16265 8.16521 8.03517 8.24511 7.87837C8.33594 7.70011 8.33594 7.46675 8.33594 7.00004V4.66671C8.33594 4.2 8.33594 3.96664 8.24511 3.78838C8.16521 3.63158 8.03773 3.5041 7.88093 3.4242C7.70267 3.33337 7.46931 3.33337 7.0026 3.33337H4.66927C4.20256 3.33337 3.96921 3.33337 3.79095 3.4242C3.63414 3.5041 3.50666 3.63158 3.42677 3.78838C3.33594 3.96664 3.33594 4.2 3.33594 4.66671V7.00004C3.33594 7.46675 3.33594 7.70011 3.42677 7.87837C3.50666 8.03517 3.63414 8.16265 3.79095 8.24255C3.96921 8.33337 4.20256 8.33337 4.66927 8.33337ZM4.66927 16.6667H7.0026C7.46931 16.6667 7.70267 16.6667 7.88093 16.5759C8.03773 16.496 8.16521 16.3685 8.24511 16.2117C8.33594 16.0334 8.33594 15.8001 8.33594 15.3334V13C8.33594 12.5333 8.33594 12.3 8.24511 12.1217C8.16521 11.9649 8.03773 11.8374 7.88093 11.7575C7.70267 11.6667 7.46931 11.6667 7.0026 11.6667H4.66927C4.20256 11.6667 3.96921 11.6667 3.79095 11.7575C3.63414 11.8374 3.50666 11.9649 3.42677 12.1217C3.33594 12.3 3.33594 12.5333 3.33594 13V15.3334C3.33594 15.8001 3.33594 16.0334 3.42677 16.2117C3.50666 16.3685 3.63414 16.496 3.79095 16.5759C3.96921 16.6667 4.20256 16.6667 4.66927 16.6667Z"
          stroke="currentColor" stroke-width="1.6" stroke-linecap="round" stroke-linejoin="round"/>
</svg>
