<svg xmlns="http://www.w3.org/2000/svg" width="20" height="20" viewBox="0 0 20 20" fill="none">
    <path d="M16.6667 8.33331L15.4287 14.523C15.276 15.2866 15.1997 15.6684 15.0003 15.954C14.8245 16.2058 14.5825 16.4042 14.3011 16.5272C13.982 16.6666 13.5926 16.6666 12.8139 16.6666H7.18614C6.40741 16.6666 6.01805 16.6666 5.6989 16.5272C5.41747 16.4042 5.1755 16.2058 4.9997 15.954C4.80034 15.6684 4.72398 15.2866 4.57126 14.523L3.33333 8.33331M2.5 8.33331H17.5M6.66667 10.8333V10.8416M13.3333 10.8333V10.8416M5 8.33331L7.5 3.33331M15 8.33331L12.5 3.33331"
          stroke="currentColor" stroke-width="1.6" stroke-linecap="round" stroke-linejoin="round"/>
</svg>
