<svg xmlns="http://www.w3.org/2000/svg" width="20" height="20" viewBox="0 0 20 20" fill="none">
    <path d="M2.52289 8.35164L5.57101 10.7901C5.9771 11.115 6.18014 11.2774 6.40624 11.393C6.60683 11.4954 6.82036 11.5703 7.04101 11.6156C7.28972 11.6667 7.54975 11.6667 8.06979 11.6667H11.9302C12.4503 11.6667 12.7103 11.6667 12.959 11.6156C13.1796 11.5703 13.3932 11.4954 13.5938 11.393C13.8199 11.2774 14.0229 11.115 14.429 10.7901L17.4771 8.35164M2.52289 8.35164C2.5 8.74121 2.5 9.22013 2.5 9.83333V13.5C2.5 14.9001 2.5 15.6002 2.77248 16.135C3.01217 16.6054 3.39462 16.9878 3.86502 17.2275C4.3998 17.5 5.09987 17.5 6.5 17.5H13.5C14.9001 17.5 15.6002 17.5 16.135 17.2275C16.6054 16.9878 16.9878 16.6054 17.2275 16.135C17.5 15.6002 17.5 14.9001 17.5 13.5V9.83333C17.5 9.22013 17.5 8.74121 17.4771 8.35164M2.52289 8.35164C2.55226 7.85171 2.61934 7.49893 2.77248 7.19836C3.01217 6.72795 3.39462 6.3455 3.86502 6.10582C4.3998 5.83333 5.09987 5.83333 6.5 5.83333H6.66667M17.4771 8.35164C17.4477 7.85171 17.3807 7.49893 17.2275 7.19836C16.9878 6.72795 16.6054 6.3455 16.135 6.10582C15.6002 5.83333 14.9001 5.83333 13.5 5.83333H13.3333M6.66667 5.83333V5C6.66667 3.61929 7.78595 2.5 9.16667 2.5H10.8333C12.214 2.5 13.3333 3.61929 13.3333 5V5.83333M6.66667 5.83333H13.3333"
          stroke="currentColor" stroke-width="1.6" stroke-linecap="round" stroke-linejoin="round"/>
</svg>
