<svg xmlns="http://www.w3.org/2000/svg" width="25" height="25" viewBox="0 0 25 25" fill="none">
    <path d="M3.5 9.3252H21.5M7.5 3.3252V5.3252M17.5 3.3252V5.3252M6.5 13.3252H8.5M6.5 17.3252H8.5M11.5 13.3252H13.5M11.5 17.3252H13.5M16.5 13.3252H18.5M16.5 17.3252H18.5M6.7 21.3252H18.3C19.4201 21.3252 19.9802 21.3252 20.408 21.1072C20.7843 20.9155 21.0903 20.6095 21.282 20.2332C21.5 19.8054 21.5 19.2453 21.5 18.1252V8.5252C21.5 7.40509 21.5 6.84504 21.282 6.41721C21.0903 6.04089 20.7843 5.73493 20.408 5.54318C19.9802 5.3252 19.4201 5.3252 18.3 5.3252H6.7C5.5799 5.3252 5.01984 5.3252 4.59202 5.54318C4.21569 5.73493 3.90973 6.04089 3.71799 6.41721C3.5 6.84504 3.5 7.40509 3.5 8.5252V18.1252C3.5 19.2453 3.5 19.8054 3.71799 20.2332C3.90973 20.6095 4.21569 20.9155 4.59202 21.1072C5.01984 21.3252 5.57989 21.3252 6.7 21.3252Z"
          stroke="currentColor" stroke-width="1.5" stroke-linecap="round" stroke-linejoin="round"/>
</svg>
