<svg width="20" height="20" viewBox="0 0 20 20" fill="none" xmlns="http://www.w3.org/2000/svg">
    <path d="M6.66675 14.1667H13.3334M6.66675 14.1667C6.66675 15.0871 5.92056 15.8333 5.00008 15.8333C4.07961 15.8333 3.33341 15.0871 3.33341 14.1667M6.66675 14.1667C6.66675 13.2462 5.92056 12.5 5.00008 12.5C4.07961 12.5 3.33341 13.2462 3.33341 14.1667M13.3334 14.1667C13.3334 15.0871 14.0796 15.8333 15.0001 15.8333C15.9206 15.8333 16.6667 15.0871 16.6667 14.1667M13.3334 14.1667C13.3334 13.2462 14.0796 12.5 15.0001 12.5C15.9206 12.5 16.6667 13.2462 16.6667 14.1667M8.33342 4.16666V9.16666M3.33341 9.16666L3.60968 7.50907C3.80759 6.32161 3.90655 5.72788 4.20283 5.28233C4.46401 4.88958 4.83096 4.57873 5.2613 4.38567C5.7495 4.16666 6.35142 4.16666 7.55526 4.16666H10.3593C11.142 4.16666 11.5334 4.16666 11.8886 4.27454C12.2031 4.37004 12.4956 4.52662 12.7495 4.7353C13.0363 4.97102 13.2534 5.29664 13.6875 5.94786L15.8334 9.16666M3.33341 14.1667H3.00008C2.53337 14.1667 2.30002 14.1667 2.12176 14.0758C1.96495 13.9959 1.83747 13.8685 1.75758 13.7117C1.66675 13.5334 1.66675 13.3 1.66675 12.8333V11.8333C1.66675 10.8999 1.66675 10.4332 1.8484 10.0767C2.00819 9.76308 2.26316 9.50811 2.57676 9.34832C2.93328 9.16666 3.39999 9.16666 4.33341 9.16666H14.3334C14.9528 9.16666 15.2624 9.16666 15.5215 9.2077C16.9478 9.43361 18.0665 10.5522 18.2924 11.9785C18.3334 12.2377 18.3334 12.5473 18.3334 13.1667C18.3334 13.3215 18.3334 13.3989 18.3232 13.4637C18.2667 13.8203 17.987 14.0999 17.6304 14.1564C17.5657 14.1667 17.4883 14.1667 17.3334 14.1667H16.6667"
          stroke="currentColor" stroke-width="1.5" stroke-linecap="round" stroke-linejoin="round"/>
</svg>
