<svg width="21" height="20" viewBox="0 0 21 20" fill="none" xmlns="http://www.w3.org/2000/svg">
    <path d="M3 6.66667L5.26822 8.55685C5.41798 8.68165 5.60676 8.75 5.80171 8.75H15.1983C15.3932 8.75 15.582 8.68165 15.7318 8.55685L18 6.66667M5.91667 11.6667H5.925M15.0833 11.6667H15.0917M7.30054 3.75H13.6995C14.2976 3.75 14.8498 4.07048 15.1465 4.58977L17.5608 8.81475C17.8486 9.31841 18 9.88846 18 10.4685V15.4167C18 15.8769 17.6269 16.25 17.1667 16.25H16.3333C15.8731 16.25 15.5 15.8769 15.5 15.4167V14.5833H5.5V15.4167C5.5 15.8769 5.1269 16.25 4.66667 16.25H3.83333C3.3731 16.25 3 15.8769 3 15.4167V10.4685C3 9.88846 3.15138 9.31841 3.43919 8.81475L5.85347 4.58977C6.1502 4.07048 6.70244 3.75 7.30054 3.75ZM6.33333 11.6667C6.33333 11.8968 6.14678 12.0833 5.91667 12.0833C5.68655 12.0833 5.5 11.8968 5.5 11.6667C5.5 11.4365 5.68655 11.25 5.91667 11.25C6.14678 11.25 6.33333 11.4365 6.33333 11.6667ZM15.5 11.6667C15.5 11.8968 15.3135 12.0833 15.0833 12.0833C14.8532 12.0833 14.6667 11.8968 14.6667 11.6667C14.6667 11.4365 14.8532 11.25 15.0833 11.25C15.3135 11.25 15.5 11.4365 15.5 11.6667Z"
          stroke="currentColor" stroke-width="1.5" stroke-linecap="round" stroke-linejoin="round"/>
</svg>
