<svg xmlns="http://www.w3.org/2000/svg" width="20" height="20" viewBox="0 0 20 20" fill="none">
    <path d="M2.5 12.1667C2.5 11.7 2.5 11.4666 2.59083 11.2883C2.67072 11.1315 2.79821 11.0041 2.95501 10.9242C3.13327 10.8333 3.36662 10.8333 3.83333 10.8333H4.5C4.96671 10.8333 5.20007 10.8333 5.37833 10.9242C5.53513 11.0041 5.66261 11.1315 5.74251 11.2883C5.83333 11.4666 5.83333 11.7 5.83333 12.1667V16.1667C5.83333 16.6334 5.83333 16.8667 5.74251 17.045C5.66261 17.2018 5.53513 17.3293 5.37833 17.4092C5.20007 17.5 4.96671 17.5 4.5 17.5H3.83333C3.36662 17.5 3.13327 17.5 2.95501 17.4092C2.79821 17.3293 2.67072 17.2018 2.59083 17.045C2.5 16.8667 2.5 16.6334 2.5 16.1667V12.1667Z"
          stroke="currentColor" stroke-width="1.5" stroke-linecap="round" stroke-linejoin="round"/>
    <path d="M8.33333 3.83333C8.33333 3.36662 8.33333 3.13327 8.42416 2.95501C8.50406 2.79821 8.63154 2.67072 8.78834 2.59083C8.9666 2.5 9.19996 2.5 9.66667 2.5H10.3333C10.8 2.5 11.0334 2.5 11.2117 2.59083C11.3685 2.67072 11.4959 2.79821 11.5758 2.95501C11.6667 3.13327 11.6667 3.36662 11.6667 3.83333V16.1667C11.6667 16.6334 11.6667 16.8667 11.5758 17.045C11.4959 17.2018 11.3685 17.3293 11.2117 17.4092C11.0334 17.5 10.8 17.5 10.3333 17.5H9.66667C9.19996 17.5 8.9666 17.5 8.78834 17.4092C8.63154 17.3293 8.50406 17.2018 8.42416 17.045C8.33333 16.8667 8.33333 16.6334 8.33333 16.1667V3.83333Z"
          stroke="currentColor" stroke-width="1.5" stroke-linecap="round" stroke-linejoin="round"/>
    <path d="M14.1667 8.83333C14.1667 8.36662 14.1667 8.13327 14.2575 7.95501C14.3374 7.79821 14.4649 7.67072 14.6217 7.59083C14.7999 7.5 15.0333 7.5 15.5 7.5H16.1667C16.6334 7.5 16.8667 7.5 17.045 7.59083C17.2018 7.67072 17.3293 7.79821 17.4092 7.95501C17.5 8.13327 17.5 8.36662 17.5 8.83333V16.1667C17.5 16.6334 17.5 16.8667 17.4092 17.045C17.3293 17.2018 17.2018 17.3293 17.045 17.4092C16.8667 17.5 16.6334 17.5 16.1667 17.5H15.5C15.0333 17.5 14.7999 17.5 14.6217 17.4092C14.4649 17.3293 14.3374 17.2018 14.2575 17.045C14.1667 16.8667 14.1667 16.6334 14.1667 16.1667V8.83333Z"
          stroke="currentColor" stroke-width="1.5" stroke-linecap="round" stroke-linejoin="round"/>
</svg>