<svg xmlns="http://www.w3.org/2000/svg" width="20" height="20" viewBox="0 0 20 20" fill="none">
    <path d="M11.6693 8.75C11.6693 9.90059 9.80379 10.8333 7.5026 10.8333C5.20142 10.8333 3.33594 9.90059 3.33594 8.75M11.6693 8.75C11.6693 7.59941 9.80379 6.66667 7.5026 6.66667C5.20142 6.66667 3.33594 7.59941 3.33594 8.75M11.6693 8.75V12.0833M3.33594 8.75V12.0833M16.6693 4.58333C16.6693 3.43274 14.8038 2.5 12.5026 2.5C10.8534 2.5 9.4279 2.9791 8.7526 3.67414M16.6693 4.58333C16.6693 5.35446 15.8314 6.02774 14.5859 6.38795M16.6693 4.58333V11.6667C16.6693 12.2836 15.8314 12.8222 14.5859 13.1104M16.6693 8.33333C16.6693 8.9639 15.7938 9.51269 14.5026 9.79581M11.6693 12.0833C11.6693 13.2339 9.80379 14.1667 7.5026 14.1667C5.20142 14.1667 3.33594 13.2339 3.33594 12.0833M11.6693 12.0833V15.4167C11.6693 16.5673 9.80379 17.5 7.5026 17.5C5.20142 17.5 3.33594 16.5673 3.33594 15.4167V12.0833"
          stroke="currentColor" stroke-width="1.6" stroke-linecap="round" stroke-linejoin="round"/>
</svg>
