<svg xmlns="http://www.w3.org/2000/svg" width="20" height="20" viewBox="0 0 20 20" fill="none">
    <path d="M3.33333 6.66667L5 16.6667H15L16.6667 6.66667M3.33333 6.66667L4.76354 7.81083C5.69348 8.55478 6.15845 8.92676 6.62713 8.98449C7.03775 9.03506 7.45249 8.93111 7.79071 8.69285C8.17676 8.42089 8.41132 7.87358 8.88044 6.77896L10 4.16667M3.33333 6.66667C3.79357 6.66667 4.16667 6.29357 4.16667 5.83333C4.16667 5.3731 3.79357 5 3.33333 5C2.8731 5 2.5 5.3731 2.5 5.83333C2.5 6.29357 2.8731 6.66667 3.33333 6.66667ZM16.6667 6.66667L15.2365 7.81083C14.3065 8.55479 13.8415 8.92676 13.3729 8.98449C12.9623 9.03506 12.5475 8.93111 12.2093 8.69285C11.8232 8.42089 11.5887 7.87358 11.1196 6.77896L10 4.16667M16.6667 6.66667C17.1269 6.66667 17.5 6.29357 17.5 5.83333C17.5 5.3731 17.1269 5 16.6667 5C16.2064 5 15.8333 5.3731 15.8333 5.83333C15.8333 6.29357 16.2064 6.66667 16.6667 6.66667ZM10 4.16667C10.4602 4.16667 10.8333 3.79357 10.8333 3.33333C10.8333 2.8731 10.4602 2.5 10 2.5C9.53976 2.5 9.16667 2.8731 9.16667 3.33333C9.16667 3.79357 9.53976 4.16667 10 4.16667ZM10 3.33333H10.0083M16.6667 5.83333H16.675M3.33333 5.83333H3.34167"
          stroke="currentColor" stroke-width="1.6" stroke-linecap="round" stroke-linejoin="round"/>
</svg>