<svg xmlns="http://www.w3.org/2000/svg" width="20" height="20" viewBox="0 0 20 20" fill="none">
    <path d="M10 8.52565L2.57079 5.85284M10 8.52565L17.4315 5.86168M10 8.52565V17.3992M4.27915 15.4809L9.11248 17.1868C9.44138 17.3028 9.60583 17.3609 9.7745 17.3839C9.92414 17.4044 10.0759 17.4044 10.2255 17.3839C10.3942 17.3609 10.5586 17.3028 10.8875 17.1868L15.7209 15.4809C16.3614 15.2548 16.6817 15.1418 16.9181 14.9391C17.127 14.76 17.2882 14.5321 17.3875 14.2756C17.5 13.9852 17.5 13.6455 17.5 12.9662V7.03377C17.5 6.35448 17.5 6.01483 17.3875 5.72442C17.2882 5.46792 17.127 5.23999 16.9181 5.06096C16.6817 4.85826 16.3614 4.74522 15.7209 4.51913L10.8875 2.81325C10.5586 2.69717 10.3942 2.63913 10.2255 2.61609C10.0759 2.59566 9.92414 2.59566 9.7745 2.61609C9.60583 2.63913 9.44138 2.69717 9.11248 2.81325L4.27915 4.51913C3.63858 4.74522 3.31829 4.85826 3.08187 5.06096C2.87305 5.23999 2.71178 5.46792 2.61246 5.72442C2.5 6.01483 2.5 6.35448 2.5 7.03377V12.9662C2.5 13.6455 2.5 13.9852 2.61246 14.2756C2.71178 14.5321 2.87305 14.76 3.08187 14.9391C3.31829 15.1418 3.63858 15.2548 4.27915 15.4809Z"
          stroke="currentColor" stroke-width="1.6" stroke-linecap="round" stroke-linejoin="round"/>
</svg>
