<svg xmlns="http://www.w3.org/2000/svg" width="21" height="20" viewBox="0 0 21 20" fill="none">
    <path d="M9.75749 12.1215C9.66667 12.2998 9.66667 12.5331 9.66667 12.9998V14.4998C9.66667 14.9665 9.66667 15.1999 9.75749 15.3782C9.83739 15.535 9.96487 15.6624 10.1217 15.7423C10.2999 15.8332 10.5333 15.8332 11 15.8332H12.5C12.9667 15.8332 13.2001 15.8332 13.3783 15.7423C13.5351 15.6624 13.6626 15.535 13.7425 15.3782C13.8333 15.1999 13.8333 14.9665 13.8333 14.4998V12.9998C13.8333 12.5331 13.8333 12.2998 13.7425 12.1215C13.6626 11.9647 13.5351 11.8372 13.3783 11.7573C13.2001 11.6665 12.9667 11.6665 12.5 11.6665H11C10.5333 11.6665 10.2999 11.6665 10.1217 11.7573C9.96487 11.8372 9.83739 11.9647 9.75749 12.1215ZM9.75749 12.1215L6.94883 8.06163M7.16667 6.24984H13.8333M4.33333 8.33317H5.83333C6.30004 8.33317 6.5334 8.33317 6.71166 8.24234C6.86846 8.16245 6.99594 8.03496 7.07584 7.87816C7.16667 7.6999 7.16667 7.46655 7.16667 6.99984V5.49984C7.16667 5.03313 7.16667 4.79977 7.07584 4.62151C6.99594 4.46471 6.86846 4.33723 6.71166 4.25733C6.5334 4.1665 6.30004 4.1665 5.83333 4.1665H4.33333C3.86662 4.1665 3.63327 4.1665 3.45501 4.25733C3.29821 4.33723 3.17072 4.46471 3.09083 4.62151C3 4.79977 3 5.03313 3 5.49984V6.99984C3 7.46655 3 7.6999 3.09083 7.87816C3.17072 8.03496 3.29821 8.16245 3.45501 8.24234C3.63327 8.33317 3.86662 8.33317 4.33333 8.33317ZM15.1667 8.33317H16.6667C17.1334 8.33317 17.3667 8.33317 17.545 8.24234C17.7018 8.16245 17.8293 8.03496 17.9092 7.87816C18 7.6999 18 7.46655 18 6.99984V5.49984C18 5.03313 18 4.79977 17.9092 4.62151C17.8293 4.46471 17.7018 4.33723 17.545 4.25733C17.3667 4.1665 17.1334 4.1665 16.6667 4.1665H15.1667C14.7 4.1665 14.4666 4.1665 14.2883 4.25733C14.1315 4.33723 14.0041 4.46471 13.9242 4.62151C13.8333 4.79977 13.8333 5.03313 13.8333 5.49984V6.99984C13.8333 7.46655 13.8333 7.6999 13.9242 7.87816C14.0041 8.03496 14.1315 8.16245 14.2883 8.24234C14.4666 8.33317 14.7 8.33317 15.1667 8.33317Z"
          stroke="currentColor" stroke-width="1.5" stroke-linecap="round" stroke-linejoin="round"/>
</svg>
