<svg width="20" height="20" viewBox="0 0 20 20" fill="none" xmlns="http://www.w3.org/2000/svg">
    <path d="M2.5 17.5001L11.6667 17.5V4.99107C11.6667 3.85438 11.6667 3.28603 11.4322 2.89209C11.2266 2.54667 10.9032 2.28719 10.5214 2.16144C10.086 2.01803 9.53115 2.14132 8.42152 2.38791L6.25485 2.86939C5.50975 3.03497 5.1372 3.11776 4.85911 3.3181C4.61382 3.49482 4.42121 3.73492 4.30192 4.01271C4.16667 4.32764 4.16667 4.70928 4.16667 5.47255V17.5001M11.6616 4.16676H13.1667C14.1001 4.16676 14.5668 4.16676 14.9233 4.34842C15.2369 4.50821 15.4919 4.76318 15.6517 5.07678C15.8333 5.4333 15.8333 5.90001 15.8333 6.83343V17.5001H17.5M9.16667 10.0001H9.175"
          stroke="currentColor" stroke-width="1.6" stroke-linecap="round" stroke-linejoin="round"/>
</svg>
