<svg xmlns="http://www.w3.org/2000/svg" width="20" height="20" viewBox="0 0 20 20" fill="none">
    <path d="M17.9477 4.17247H11.0601V2.58302C11.0601 2.42513 10.9902 2.27573 10.8683 2.17506C10.7475 2.0744 10.5854 2.03095 10.4328 2.06274L1.95577 3.65219C1.70463 3.69881 1.52344 3.9171 1.52344 4.17247V15.8284C1.52344 16.0827 1.70463 16.3021 1.95577 16.3487L10.4328 17.9381C10.4646 17.9445 10.4975 17.9477 10.5303 17.9477C10.6532 17.9477 10.773 17.9053 10.8683 17.8258C10.9902 17.7252 11.0601 17.5747 11.0601 17.4179V15.8284H17.9477C18.2402 15.8284 18.4775 15.5911 18.4775 15.2986V4.70228C18.4775 4.40982 18.2402 4.17247 17.9477 4.17247ZM8.80946 11.7711C9.00232 11.9904 8.98006 12.3253 8.75966 12.5181C8.659 12.6061 8.53502 12.6495 8.41104 12.6495C8.26375 12.6495 8.11752 12.5881 8.01262 12.4683L6.47192 10.7083L5.12089 12.4461C5.01598 12.5796 4.85916 12.6495 4.70233 12.6495C4.58895 12.6495 4.47451 12.6135 4.37702 12.5383C4.14603 12.3581 4.1047 12.0254 4.28378 11.7944L5.7609 9.89554L4.30391 8.2298C4.11106 8.01045 4.13331 7.67561 4.35371 7.48276C4.57306 7.2899 4.90684 7.31109 5.10181 7.53256L6.42423 9.04359L7.99355 7.02605C8.17368 6.79611 8.50641 6.75373 8.73741 6.93387C8.96841 7.11294 9.00973 7.44567 8.8296 7.67773L7.13419 9.85633L8.80946 11.7711ZM17.4179 14.7688H11.0601V13.7091H12.6496C12.942 13.7091 13.1794 13.4718 13.1794 13.1793C13.1794 12.8869 12.942 12.6495 12.6496 12.6495H11.0601V11.5899H12.6496C12.942 11.5899 13.1794 11.3525 13.1794 11.0601C13.1794 10.7676 12.942 10.5303 12.6496 10.5303H11.0601V9.47062H12.6496C12.942 9.47062 13.1794 9.23327 13.1794 8.94081C13.1794 8.64835 12.942 8.41099 12.6496 8.41099H11.0601V7.35136H12.6496C12.942 7.35136 13.1794 7.114 13.1794 6.82155C13.1794 6.52909 12.942 6.29173 12.6496 6.29173H11.0601V5.2321H17.4179V14.7688Z"
          fill="white"/>
    <path d="M15.8297 6.29175H14.7701C14.4776 6.29175 14.2402 6.52911 14.2402 6.82156C14.2402 7.11402 14.4776 7.35138 14.7701 7.35138H15.8297C16.1221 7.35138 16.3595 7.11402 16.3595 6.82156C16.3595 6.52911 16.1221 6.29175 15.8297 6.29175Z"
          fill="white"/>
    <path d="M15.8297 8.41089H14.7701C14.4776 8.41089 14.2402 8.64825 14.2402 8.9407C14.2402 9.23316 14.4776 9.47052 14.7701 9.47052H15.8297C16.1221 9.47052 16.3595 9.23316 16.3595 8.9407C16.3595 8.64825 16.1221 8.41089 15.8297 8.41089Z"
          fill="white"/>
    <path d="M15.8297 10.5303H14.7701C14.4776 10.5303 14.2402 10.7676 14.2402 11.0601C14.2402 11.3525 14.4776 11.5899 14.7701 11.5899H15.8297C16.1221 11.5899 16.3595 11.3525 16.3595 11.0601C16.3595 10.7676 16.1221 10.5303 15.8297 10.5303Z"
          fill="white"/>
    <path d="M15.8297 12.6494H14.7701C14.4776 12.6494 14.2402 12.8868 14.2402 13.1792C14.2402 13.4717 14.4776 13.709 14.7701 13.709H15.8297C16.1221 13.709 16.3595 13.4717 16.3595 13.1792C16.3595 12.8868 16.1221 12.6494 15.8297 12.6494Z"
          fill="white"/>
</svg>
