<svg xmlns="http://www.w3.org/2000/svg" width="20" height="20" viewBox="0 0 20 20" fill="none">
    <path d="M10.8346 2.5H6.83464C5.90121 2.5 5.4345 2.5 5.07798 2.68166C4.76438 2.84144 4.50941 3.09641 4.34962 3.41002C4.16797 3.76654 4.16797 4.23325 4.16797 5.16667V14.8333C4.16797 15.7668 4.16797 16.2335 4.34962 16.59C4.50941 16.9036 4.76438 17.1586 5.07798 17.3183C5.4345 17.5 5.90121 17.5 6.83464 17.5H13.168C14.1014 17.5 14.5681 17.5 14.9246 17.3183C15.2382 17.1586 15.4932 16.9036 15.653 16.59C15.8346 16.2335 15.8346 15.7668 15.8346 14.8333V7.5M10.8346 2.5L15.8346 7.5M10.8346 2.5V6.16667C10.8346 6.63338 10.8346 6.86673 10.9255 7.04499C11.0054 7.20179 11.1328 7.32928 11.2896 7.40917C11.4679 7.5 11.7013 7.5 12.168 7.5H15.8346M6.66797 5H8.33464M6.66797 7.5H8.33464M13.3346 14.1667H11.668L10.8346 12.9167L10.0013 14.1667L8.33464 11.6667L7.91797 14.1667H6.66797"
          stroke="currentColor" stroke-width="1.5" stroke-linecap="round" stroke-linejoin="round"/>
</svg>
