<svg width="14" height="18" viewBox="0 0 14 18" fill="none" xmlns="http://www.w3.org/2000/svg">
<path d="M4.5013 13.1667H9.5013M4.5013 9.83333H9.5013M4.5013 6.5H5.33464M7.83464 1.5H3.83464C2.90121 1.5 2.4345 1.5 2.07798 1.68166C1.76438 1.84144 1.50941 2.09641 1.34962 2.41002C1.16797 2.76654 1.16797 3.23325 1.16797 4.16667V13.8333C1.16797 14.7668 1.16797 15.2335 1.34962 15.59C1.50941 15.9036 1.76438 16.1586 2.07798 16.3183C2.4345 16.5 2.90121 16.5 3.83464 16.5H10.168C11.1014 16.5 11.5681 16.5 11.9246 16.3183C12.2382 16.1586 12.4932 15.9036 12.653 15.59C12.8346 15.2335 12.8346 14.7668 12.8346 13.8333V6.5M7.83464 1.5L12.8346 6.5M7.83464 1.5V5.16667C7.83464 5.63338 7.83464 5.86673 7.92546 6.04499C8.00536 6.20179 8.13284 6.32928 8.28964 6.40917C8.4679 6.5 8.70126 6.5 9.16797 6.5H12.8346" stroke="currentColor" stroke-width="1.5" stroke-linecap="round" stroke-linejoin="round"/>
</svg>
