<svg width="18" height="18" viewBox="0 0 18 18" fill="none" xmlns="http://www.w3.org/2000/svg">
    <path d="M9 3.58333C9 4.73393 8.06726 5.66667 6.91667 5.66667C5.76607 5.66667 4.83333 4.73393 4.83333 3.58333M9 3.58333C9 2.43274 8.06726 1.5 6.91667 1.5C5.76607 1.5 4.83333 2.43274 4.83333 3.58333M9 3.58333H16.5M4.83333 3.58333H1.5M14.8333 9C14.8333 10.1506 13.9006 11.0833 12.75 11.0833C11.5994 11.0833 10.6667 10.1506 10.6667 9M14.8333 9C14.8333 7.84941 13.9006 6.91667 12.75 6.91667C11.5994 6.91667 10.6667 7.84941 10.6667 9M14.8333 9H16.5M10.6667 9H1.5M7.33333 14.4167C7.33333 15.5673 6.40059 16.5 5.25 16.5C4.09941 16.5 3.16667 15.5673 3.16667 14.4167M7.33333 14.4167C7.33333 13.2661 6.40059 12.3333 5.25 12.3333C4.09941 12.3333 3.16667 13.2661 3.16667 14.4167M7.33333 14.4167H16.5M3.16667 14.4167H1.5"
          stroke="currentColor" stroke-width="1.5" stroke-linecap="round" stroke-linejoin="round"/>
</svg>
