<svg width="20" height="20" viewBox="0 0 20 20" fill="none" xmlns="http://www.w3.org/2000/svg">
    <path d="M6.66602 2.50124C6.71987 2.5012 6.7754 2.5012 6.83268 2.5012H11.2177C11.6883 2.5012 11.9237 2.5012 12.141 2.56106C12.2659 2.59547 12.3861 2.64427 12.4993 2.70632M6.66602 2.50124C5.84239 2.50188 5.41067 2.51235 5.07603 2.68286C4.76243 2.84264 4.50746 3.09761 4.34767 3.41122C4.16602 3.76774 4.16602 4.23445 4.16602 5.16787V14.8345C4.16602 15.768 4.16602 16.2347 4.34767 16.5912C4.50746 16.9048 4.76243 17.1598 5.07603 17.3195C5.43255 17.5012 5.89926 17.5012 6.83268 17.5012H13.166C14.0994 17.5012 14.5661 17.5012 14.9227 17.3195C15.2363 17.1598 15.4912 16.9048 15.651 16.5912C15.8327 16.2347 15.8327 15.768 15.8327 14.8345V7.60328C15.8327 7.25659 15.8327 7.08324 15.7987 6.91743C15.7685 6.77033 15.7185 6.62798 15.6502 6.49425C15.5732 6.34352 15.4649 6.20815 15.2483 5.93743L13.3 3.50201C13.006 3.13449 12.859 2.95072 12.6765 2.81845C12.6198 2.77732 12.5606 2.73988 12.4993 2.70632M6.66602 2.50124V5.83333H12.4993V2.70632M12.4993 12.5C12.4993 13.8807 11.3801 15 9.99935 15C8.61864 15 7.49935 13.8807 7.49935 12.5C7.49935 11.1193 8.61864 10 9.99935 10C11.3801 10 12.4993 11.1193 12.4993 12.5Z" stroke="currentColor" stroke-width="1.5" stroke-linecap="round" stroke-linejoin="round"/>
</svg>
