<svg xmlns="http://www.w3.org/2000/svg" width="21" height="20" viewBox="0 0 21 20" fill="none">
    <path d="M19.5902 18.7751C19.6381 19.1611 19.3313 19.5 18.9424 19.5H10.5533C10.5179 19.5 10.4823 19.5 10.4469 19.5H2.05751C1.66889 19.5 1.36232 19.1616 1.40961 18.7759C1.40992 18.7734 1.41023 18.7709 1.41054 18.7684C1.45773 18.3875 1.57402 18.0251 1.72844 17.6748C1.91129 17.2598 2.24478 16.9827 2.60776 16.7373C3.26884 16.2903 4.00259 15.9875 4.73424 15.6819C5.26049 15.4621 5.79011 15.2498 6.31467 15.0265C7.80198 14.357 8.00022 13.8448 8.02276 13.7644C8.0335 13.7176 8.0413 13.6696 8.04593 13.6207C8.05647 13.5092 8.06489 13.3976 8.07227 13.2857V12.9961C6.08349 13.0137 4.9627 12.493 4.39714 12.0935C4.17113 11.9338 4.18351 11.6037 4.40825 11.4423C4.94327 11.0579 5.70866 9.95197 5.634 6.77041C5.52045 1.92211 7.75542 1.12157 8.58861 0.804517C11.0147 -0.117786 12.2338 1.34909 12.2338 1.34909C15.046 1.08892 15.8221 4.16108 15.4766 7.66006C15.2422 10.0344 16.0519 11.0482 16.5966 11.4546C16.8169 11.619 16.7918 11.9528 16.5621 12.1038C15.1457 13.0345 12.9488 12.9672 12.9488 12.9672V13.5617C12.9505 13.5811 12.952 13.6007 12.9539 13.6201C12.9585 13.6687 12.9663 13.7168 12.977 13.7637C12.9998 13.8444 13.1978 14.3566 14.6851 15.0258C15.2097 15.2491 15.7393 15.4617 16.2655 15.6812C16.9974 15.9867 17.731 16.2894 18.392 16.7367C18.755 16.9823 19.0885 17.2591 19.2714 17.6741C19.4258 18.0243 19.5421 18.3868 19.5893 18.7677C19.5896 18.7702 19.5899 18.7726 19.5902 18.7751Z"
          fill="#222529"/>
</svg>
