<svg xmlns="http://www.w3.org/2000/svg" width="20" height="20" viewBox="0 0 20 20" fill="none">
    <g clip-path="url(#clip0_1244_129279)">
        <mask id="mask0_1244_129279" style="mask-type:luminance" maskUnits="userSpaceOnUse" x="0" y="0" width="20"
              height="20">
            <path d="M0 0H20V20H0V0Z" fill="white"/>
        </mask>
        <g mask="url(#mask0_1244_129279)">
            <path d="M16.4525 15.0375L13.26 14.2392L12.9883 13.1525C13.8425 12.3067 14.4275 11.145 14.6008 9.95333C15.0742 9.82 15.4408 9.41417 15.5042 8.905L15.7125 7.23833C15.7567 6.88667 15.6483 6.53083 15.415 6.26417C15.2783 6.1075 15.1058 5.98917 14.915 5.91667L14.9917 4.3475L15.3033 4.035C15.7725 3.53583 16.1617 2.68 15.3483 1.43833C14.7233 0.484167 13.6617 0 12.1917 0C11.6117 0 10.2767 0 9.03333 0.835C5.48333 0.909167 5 2.55833 5 4.16667C5 4.54083 5.09083 5.38333 5.15083 5.89167C4.93667 5.95917 4.74167 6.08417 4.59 6.25583C4.35333 6.525 4.2425 6.8825 4.2875 7.23833L4.49583 8.905C4.56417 9.44833 4.97667 9.87583 5.49833 9.9775C5.67083 11.1233 6.22583 12.2475 7.03083 13.0792L6.74083 14.24L3.54833 15.0383C1.45833 15.56 0 17.4283 0 19.5833C0 19.8133 0.186667 20 0.416667 20H19.5833C19.8133 20 20 19.8117 20 19.5817C20 17.4283 18.5417 15.56 16.4525 15.0375Z"
                  fill="#222529"/>
        </g>
    </g>
    <defs>
        <clipPath id="clip0_1244_129279">
            <rect width="20" height="20" fill="white"/>
        </clipPath>
    </defs>
</svg>
