<svg width="20" height="20" viewBox="0 0 20 20" fill="none" xmlns="http://www.w3.org/2000/svg">
    <path d="M9.16667 10.8333L6.66667 6.66667M13.3333 6.66667H13.3417M10 5H10.0083M15 10H15.0083M5 10H5.00833M11.6667 12.5C11.6667 13.4205 10.9205 14.1667 10 14.1667C9.07953 14.1667 8.33333 13.4205 8.33333 12.5C8.33333 11.5795 9.07953 10.8333 10 10.8333C10.9205 10.8333 11.6667 11.5795 11.6667 12.5ZM17.5 10C17.5 14.1421 14.1421 17.5 10 17.5C5.85786 17.5 2.5 14.1421 2.5 10C2.5 5.85786 5.85786 2.5 10 2.5C14.1421 2.5 17.5 5.85786 17.5 10Z"
          stroke="currentColor" stroke-width="1.5" stroke-linecap="round" stroke-linejoin="round"/>
</svg>
