<svg xmlns="http://www.w3.org/2000/svg" width="20" height="20" viewBox="0 0 20 20" fill="none">
    <path d="M11.6693 4.66665C11.6693 4.19994 11.6693 3.96658 11.7601 3.78832C11.84 3.63152 11.9675 3.50404 12.1243 3.42414C12.3025 3.33331 12.5359 3.33331 13.0026 3.33331H15.3359C15.8026 3.33331 16.036 3.33331 16.2143 3.42414C16.3711 3.50404 16.4985 3.63152 16.5784 3.78832C16.6693 3.96658 16.6693 4.19994 16.6693 4.66665V6.99998C16.6693 7.46669 16.6693 7.70005 16.5784 7.8783C16.4985 8.03511 16.3711 8.16259 16.2143 8.24248C16.036 8.33331 15.8026 8.33331 15.3359 8.33331H13.0026C12.5359 8.33331 12.3025 8.33331 12.1243 8.24248C11.9675 8.16259 11.84 8.03511 11.7601 7.8783C11.6693 7.70005 11.6693 7.46669 11.6693 6.99998V4.66665Z"
          stroke="currentColor" stroke-width="1.6" stroke-linecap="round" stroke-linejoin="round"/>
    <path d="M3.33594 4.66665C3.33594 4.19994 3.33594 3.96658 3.42677 3.78832C3.50666 3.63152 3.63414 3.50404 3.79095 3.42414C3.96921 3.33331 4.20256 3.33331 4.66927 3.33331H7.0026C7.46931 3.33331 7.70267 3.33331 7.88093 3.42414C8.03773 3.50404 8.16521 3.63152 8.24511 3.78832C8.33594 3.96658 8.33594 4.19994 8.33594 4.66665V6.99998C8.33594 7.46669 8.33594 7.70005 8.24511 7.8783C8.16521 8.03511 8.03773 8.16259 7.88093 8.24248C7.70267 8.33331 7.46931 8.33331 7.0026 8.33331H4.66927C4.20256 8.33331 3.96921 8.33331 3.79095 8.24248C3.63414 8.16259 3.50666 8.03511 3.42677 7.8783C3.33594 7.70005 3.33594 7.46669 3.33594 6.99998V4.66665Z"
          stroke="currentColor" stroke-width="1.6" stroke-linecap="round" stroke-linejoin="round"/>
    <path d="M3.33594 13C3.33594 12.5333 3.33594 12.2999 3.42677 12.1217C3.50666 11.9649 3.63414 11.8374 3.79095 11.7575C3.96921 11.6666 4.20256 11.6666 4.66927 11.6666H7.0026C7.46931 11.6666 7.70267 11.6666 7.88093 11.7575C8.03773 11.8374 8.16521 11.9649 8.24511 12.1217C8.33594 12.2999 8.33594 12.5333 8.33594 13V15.3333C8.33594 15.8 8.33594 16.0334 8.24511 16.2116C8.16521 16.3684 8.03773 16.4959 7.88093 16.5758C7.70267 16.6666 7.46931 16.6666 7.0026 16.6666H4.66927C4.20256 16.6666 3.96921 16.6666 3.79095 16.5758C3.63414 16.4959 3.50666 16.3684 3.42677 16.2116C3.33594 16.0334 3.33594 15.8 3.33594 15.3333V13Z"
          stroke="currentColor" stroke-width="1.6" stroke-linecap="round" stroke-linejoin="round"/>
    <path d="M11.6693 13C11.6693 12.5333 11.6693 12.2999 11.7601 12.1217C11.84 11.9649 11.9675 11.8374 12.1243 11.7575C12.3025 11.6666 12.5359 11.6666 13.0026 11.6666H15.3359C15.8026 11.6666 16.036 11.6666 16.2143 11.7575C16.3711 11.8374 16.4985 11.9649 16.5784 12.1217C16.6693 12.2999 16.6693 12.5333 16.6693 13V15.3333C16.6693 15.8 16.6693 16.0334 16.5784 16.2116C16.4985 16.3684 16.3711 16.4959 16.2143 16.5758C16.036 16.6666 15.8026 16.6666 15.3359 16.6666H13.0026C12.5359 16.6666 12.3025 16.6666 12.1243 16.5758C11.9675 16.4959 11.84 16.3684 11.7601 16.2116C11.6693 16.0334 11.6693 15.8 11.6693 15.3333V13Z"
          stroke="currentColor" stroke-width="1.6" stroke-linecap="round" stroke-linejoin="round"/>
</svg>
