<svg xmlns="http://www.w3.org/2000/svg" width="24" height="24" viewBox="0 0 24 24" fill="none">
  <path d="M22 8.00001H20M20 8.00001H19C17 6.00179 14 3.9998 12 6.00001M20 8.00001V16M12 6.00001L8.99956 9.00164C8.9202 9.08103 8.88052 9.12072 8.84859 9.15586C8.15499 9.91895 8.15528 11.0843 8.84927 11.847C8.88121 11.8821 8.92098 11.9219 9.00031 12.0012C9.07967 12.0805 9.11936 12.1202 9.15449 12.1521C9.91743 12.8454 11.0824 12.8452 11.8451 12.1517C11.8802 12.1197 11.9199 12.08 11.9992 12.0007L12.9996 11.0003M12 6.00001C10 3.9998 7 6.00186 5 8.00007H4M2 8.00007H4M4 8.00007V16M20 16V19H22M20 16H17.1716M15 13L16.5 14.5C16.5796 14.5796 16.6195 14.6195 16.6515 14.6547C17.3449 15.4176 17.3449 16.5824 16.6515 17.3453C16.6195 17.3805 16.5796 17.4204 16.5 17.5C16.4204 17.5796 16.3805 17.6195 16.3453 17.6515C15.5824 18.3449 14.4176 18.3449 13.6547 17.6515C13.6195 17.6195 13.5796 17.5796 13.5 17.5L13 17C12.4548 17.5453 12.1821 17.8179 11.888 17.9636C11.3285 18.2409 10.6715 18.2409 10.112 17.9636C9.81788 17.8179 9.54525 17.5453 9 17C8.31085 17.9189 6.89563 17.7913 6.38197 16.7639L6 16H4M4 16V19H2" stroke="currentColor" stroke-width="1.5" stroke-linecap="round" stroke-linejoin="round"/>
</svg>
