<svg xmlns="http://www.w3.org/2000/svg" width="20" height="20" viewBox="0 0 20 20" fill="none">
    <path d="M18.3333 6.66664H16.6667M16.6667 6.66664H15.8333C14.1667 5.00146 11.6667 3.33314 9.99999 4.99997M16.6667 6.66664V13.3333M9.99999 4.99997L7.49962 7.50134C7.43349 7.56749 7.40043 7.60057 7.37381 7.62985C6.79581 8.26576 6.79606 9.23689 7.37438 9.8725C7.401 9.90176 7.43414 9.93488 7.50025 10.001C7.56638 10.067 7.59946 10.1001 7.62873 10.1267C8.26451 10.7045 9.2353 10.7043 9.8709 10.1264C9.90016 10.0997 9.93323 10.0667 9.99934 10.0006L10.833 9.16691M9.99999 4.99997C8.33332 3.33314 5.83332 5.00152 4.16666 6.6667H3.33332M1.66666 6.6667H3.33332M3.33332 6.6667V13.3333M16.6667 13.3333V15.8333H18.3333M16.6667 13.3333H14.3096M12.5 10.8333L13.75 12.0833C13.8163 12.1496 13.8496 12.1829 13.8763 12.2123C14.4541 12.8479 14.4541 13.8187 13.8763 14.4544C13.8496 14.4837 13.8163 14.517 13.75 14.5833C13.6837 14.6496 13.6504 14.6829 13.621 14.7096C12.9854 15.2874 12.0146 15.2874 11.3789 14.7096C11.3496 14.6829 11.3163 14.6496 11.25 14.5833L10.8333 14.1666C10.3789 14.621 10.1518 14.8482 9.90668 14.9697C9.44039 15.2007 8.89293 15.2007 8.42663 14.9697C8.18155 14.8482 7.95437 14.621 7.49999 14.1666C6.9257 14.9324 5.74635 14.826 5.3183 13.9699L4.99999 13.3333H3.33332M3.33332 13.3333V15.8333H1.66666"
          stroke="currentColor" stroke-width="1.6" stroke-linecap="round" stroke-linejoin="round"/>
</svg>
