<svg xmlns="http://www.w3.org/2000/svg" width="20" height="20" viewBox="0 0 20 20" fill="none">
    <path d="M5.83333 11.6678H14.1667M5.83333 11.6678V9.66781C5.83333 9.2011 5.83333 8.96774 5.92416 8.78948C6.00406 8.63268 6.13154 8.50519 6.28834 8.4253C6.4666 8.33447 6.69996 8.33447 7.16667 8.33447H12.8333C13.3 8.33447 13.5334 8.33447 13.7117 8.4253C13.8685 8.50519 13.9959 8.63268 14.0758 8.78948C14.1667 8.96774 14.1667 9.20109 14.1667 9.66781V11.6678M5.83333 11.6678V15.0011V17.5011M14.1667 11.6678V15.0011V17.5011M15.2889 5.14557L11.7889 3.39556C11.1329 3.06761 10.805 2.90363 10.461 2.83909C10.1563 2.78193 9.84368 2.78193 9.53901 2.83909C9.19501 2.90363 8.86706 3.06761 8.21115 3.39556L4.71115 5.14557C3.90849 5.54689 3.50716 5.74756 3.21395 6.04693C2.95466 6.31166 2.75747 6.63073 2.63664 6.98105C2.5 7.37718 2.5 7.82588 2.5 8.72327V16.1678C2.5 16.6345 2.5 16.8679 2.59083 17.0461C2.67072 17.2029 2.79821 17.3304 2.95501 17.4103C3.13327 17.5011 3.36662 17.5011 3.83333 17.5011H16.1667C16.6334 17.5011 16.8667 17.5011 17.045 17.4103C17.2018 17.3304 17.3293 17.2029 17.4092 17.0461C17.5 16.8679 17.5 16.6345 17.5 16.1678V8.72327C17.5 7.82588 17.5 7.37718 17.3634 6.98105C17.2425 6.63073 17.0453 6.31166 16.786 6.04693C16.4928 5.74756 16.0915 5.54689 15.2889 5.14557Z"
          stroke="currentColor" stroke-width="1.6" stroke-linecap="round" stroke-linejoin="round"/>
</svg>
