<svg width="52" height="52" viewBox="0 0 52 52" fill="none" xmlns="http://www.w3.org/2000/svg">
    <path d="M30.9071 34.5316L27.1862 30.8417C25.4759 29.1457 24.6208 28.2977 23.6363 27.9796C22.7702 27.6998 21.8381 27.6998 20.972 27.9796C19.9875 28.2977 19.1324 29.1457 17.4221 30.8417L8.75784 39.5681M30.9071 34.5316L31.6468 33.7981C33.3929 32.0665 34.266 31.2007 35.2677 30.8847C36.1487 30.6068 37.0954 30.6176 37.9698 30.9157C38.964 31.2547 39.8169 32.1404 41.5228 33.9116L43.3336 35.7503M30.9071 34.5316L39.477 43.2527M39.477 43.2527C38.7193 43.3333 37.7465 43.3333 36.4003 43.3333H15.6003C13.1734 43.3333 11.96 43.3333 11.033 42.861C10.2177 42.4456 9.55475 41.7827 9.1393 40.9673C8.93963 40.5754 8.82438 40.1324 8.75784 39.5681M39.477 43.2527C40.0852 43.188 40.5548 43.0713 40.9676 42.861C41.783 42.4456 42.4459 41.7827 42.8614 40.9673C43.3337 40.0403 43.3337 38.8269 43.3337 36.4V28.1667M23.8337 8.66667H15.6003C13.1734 8.66667 11.96 8.66667 11.033 9.13897C10.2177 9.55442 9.55475 10.2173 9.1393 11.0327C8.66699 11.9597 8.66699 13.1731 8.66699 15.6V36.4C8.66699 37.8009 8.66699 38.7975 8.75784 39.5681M39.0003 19.5V13M39.0003 13V6.5M39.0003 13H45.5003M39.0003 13H32.5003"
          stroke="currentColor" stroke-width="3" stroke-linecap="round" stroke-linejoin="round"/>
</svg>
