<svg width="20" height="20" viewBox="0 0 20 20" fill="none" xmlns="http://www.w3.org/2000/svg">
    <path d="M10.0007 5.83333V10.8333M10.0007 10.8333L11.6673 9.16667M10.0007 10.8333L8.33398 9.16667M3.33398 11.6667H5.56275C5.9704 11.6667 6.17422 11.6667 6.36604 11.7127C6.5361 11.7535 6.69867 11.8209 6.84779 11.9123C7.01599 12.0153 7.16011 12.1595 7.44837 12.4477L7.55294 12.5523C7.84119 12.8405 7.98531 12.9847 8.15351 13.0877C8.30263 13.1791 8.4652 13.2465 8.63526 13.2873C8.82708 13.3333 9.0309 13.3333 9.43855 13.3333H10.5627C10.9704 13.3333 11.1742 13.3333 11.366 13.2873C11.5361 13.2465 11.6987 13.1791 11.8478 13.0877C12.016 12.9847 12.1601 12.8405 12.4484 12.5523L12.5529 12.4477C12.8412 12.1595 12.9853 12.0153 13.1535 11.9123C13.3026 11.8209 13.4652 11.7535 13.6353 11.7127C13.8271 11.6667 14.0309 11.6667 14.4386 11.6667H16.6673M6.00065 3.33333H14.0007C14.9341 3.33333 15.4008 3.33333 15.7573 3.51499C16.0709 3.67478 16.3259 3.92975 16.4857 4.24335C16.6673 4.59987 16.6673 5.06658 16.6673 6V14C16.6673 14.9334 16.6673 15.4001 16.4857 15.7567C16.3259 16.0703 16.0709 16.3252 15.7573 16.485C15.4008 16.6667 14.9341 16.6667 14.0007 16.6667H6.00065C5.06723 16.6667 4.60052 16.6667 4.244 16.485C3.9304 16.3252 3.67543 16.0703 3.51564 15.7567C3.33398 15.4001 3.33398 14.9334 3.33398 14V6C3.33398 5.06658 3.33398 4.59987 3.51564 4.24335C3.67543 3.92975 3.9304 3.67478 4.244 3.51499C4.60052 3.33333 5.06723 3.33333 6.00065 3.33333Z" stroke="currentColor" stroke-width="1.5" stroke-linecap="round" stroke-linejoin="round"/>
</svg>