<svg xmlns="http://www.w3.org/2000/svg" width="20" height="20" viewBox="0 0 20 20" fill="none">
    <path d="M6.66667 5.00054L17.5 5.00114M6.66667 10.0006L17.5 10.0012M6.66667 15.0006L17.5 15.0012M2.91667 4.99998H2.925M2.91667 9.99998H2.925M2.91667 15H2.925M3.33333 4.99998C3.33333 5.2301 3.14679 5.41665 2.91667 5.41665C2.68655 5.41665 2.5 5.2301 2.5 4.99998C2.5 4.76986 2.68655 4.58331 2.91667 4.58331C3.14679 4.58331 3.33333 4.76986 3.33333 4.99998ZM3.33333 9.99998C3.33333 10.2301 3.14679 10.4166 2.91667 10.4166C2.68655 10.4166 2.5 10.2301 2.5 9.99998C2.5 9.76986 2.68655 9.58331 2.91667 9.58331C3.14679 9.58331 3.33333 9.76986 3.33333 9.99998ZM3.33333 15C3.33333 15.2301 3.14679 15.4166 2.91667 15.4166C2.68655 15.4166 2.5 15.2301 2.5 15C2.5 14.7699 2.68655 14.5833 2.91667 14.5833C3.14679 14.5833 3.33333 14.7699 3.33333 15Z"
          stroke="currentColor" stroke-width="2" stroke-linecap="round" stroke-linejoin="round"/>
</svg>
