<svg width="16" height="18" viewBox="0 0 16 18" fill="none" xmlns="http://www.w3.org/2000/svg">
<path d="M3.83398 7.35732C4.22683 7.33333 4.71114 7.33333 5.33398 7.33333H10.6673C11.2902 7.33333 11.7745 7.33333 12.1673 7.35732M3.83398 7.35732C3.34372 7.38725 2.99589 7.45455 2.69901 7.60582C2.2286 7.8455 1.84615 8.22795 1.60647 8.69836C1.33398 9.23314 1.33398 9.9332 1.33398 11.3333V12.5C1.33398 13.9001 1.33398 14.6002 1.60647 15.135C1.84615 15.6054 2.2286 15.9878 2.69901 16.2275C3.23379 16.5 3.93385 16.5 5.33398 16.5H10.6673C12.0674 16.5 12.7675 16.5 13.3023 16.2275C13.7727 15.9878 14.1552 15.6054 14.3948 15.135C14.6673 14.6002 14.6673 13.9001 14.6673 12.5V11.3333C14.6673 9.9332 14.6673 9.23314 14.3948 8.69836C14.1552 8.22795 13.7727 7.8455 13.3023 7.60582C13.0054 7.45455 12.6576 7.38725 12.1673 7.35732M3.83398 7.35732V5.66667C3.83398 3.36548 5.69946 1.5 8.00065 1.5C10.3018 1.5 12.1673 3.36548 12.1673 5.66667V7.35732" stroke="currentColor" stroke-width="2" stroke-linecap="round" stroke-linejoin="round"/>
</svg>
