<svg xmlns="http://www.w3.org/2000/svg" width="20" height="20" viewBox="0 0 20 20" fill="none">
    <path d="M3.33333 7.91667H16.6667M3.33333 12.0833H16.6667M7.5 3.75V16.25M6 16.25H14C14.9334 16.25 15.4001 16.25 15.7567 16.0683C16.0703 15.9086 16.3252 15.6536 16.485 15.34C16.6667 14.9835 16.6667 14.5168 16.6667 13.5833V6.41667C16.6667 5.48325 16.6667 5.01654 16.485 4.66002C16.3252 4.34641 16.0703 4.09144 15.7567 3.93166C15.4001 3.75 14.9334 3.75 14 3.75H6C5.06658 3.75 4.59987 3.75 4.24335 3.93166C3.92975 4.09144 3.67478 4.34641 3.51499 4.66002C3.33333 5.01654 3.33333 5.48325 3.33333 6.41667V13.5833C3.33333 14.5168 3.33333 14.9835 3.51499 15.34C3.67478 15.6536 3.92975 15.9086 4.24335 16.0683C4.59987 16.25 5.06658 16.25 6 16.25Z"
          stroke="currentColor" stroke-width="1.6"/>
</svg>
