<svg xmlns="http://www.w3.org/2000/svg" width="24" height="24" viewBox="0 0 24 24" fill="none">
    <path d="M5.35938 12.0523C4.0069 11.5711 3.33066 11.3304 3.12918 10.9655C2.95458 10.6492 2.94642 10.2673 3.10734 9.94388C3.29303 9.57063 3.95837 9.30132 5.28905 8.76272L17.8317 3.68594C19.1422 3.15547 19.7975 2.89024 20.2115 3.02623C20.5708 3.14427 20.8526 3.42608 20.9707 3.7854C21.1067 4.19937 20.8414 4.85465 20.311 6.16521L15.2342 18.7078C14.6956 20.0385 14.4263 20.7039 14.053 20.8896C13.7296 21.0505 13.3477 21.0423 13.0314 20.8677C12.6664 20.6662 12.4258 19.99 11.9446 18.6375L10.4712 14.4967C10.3776 14.2336 10.3308 14.102 10.2543 13.9922C10.1866 13.8948 10.1021 13.8103 10.0047 13.7426C9.89485 13.6661 9.76329 13.6193 9.50016 13.5257L5.35938 12.0523Z"
          stroke="currentColor" stroke-width="2" stroke-linecap="round" stroke-linejoin="round"/>
</svg>
