<svg xmlns="http://www.w3.org/2000/svg" width="21" height="20" viewBox="0 0 21 20" fill="none">
    <path d="M9.7 13.3333C9.7 13.7752 10.0582 14.1333 10.5 14.1333C10.9418 14.1333 11.3 13.7752 11.3 13.3333H9.7ZM7.3392 11.961C7.77063 11.8657 8.04313 11.4387 7.94784 11.0073C7.85255 10.5758 7.42556 10.3033 6.99413 10.3986L7.3392 11.961ZM14.0059 10.3986C13.5744 10.3033 13.1475 10.5758 13.0522 11.0073C12.9569 11.4387 13.2294 11.8657 13.6608 11.961L14.0059 10.3986ZM13.0333 5.83333C13.0333 7.23245 11.8991 8.36667 10.5 8.36667V9.96667C12.7828 9.96667 14.6333 8.11611 14.6333 5.83333H13.0333ZM10.5 8.36667C9.10088 8.36667 7.96667 7.23245 7.96667 5.83333H6.36667C6.36667 8.11611 8.21722 9.96667 10.5 9.96667V8.36667ZM7.96667 5.83333C7.96667 4.43421 9.10088 3.3 10.5 3.3V1.7C8.21722 1.7 6.36667 3.55056 6.36667 5.83333H7.96667ZM10.5 3.3C11.8991 3.3 13.0333 4.43421 13.0333 5.83333H14.6333C14.6333 3.55056 12.7828 1.7 10.5 1.7V3.3ZM9.7 9.16667V13.3333H11.3V9.16667H9.7ZM17.2 14.1667C17.2 14.3666 17.1122 14.6173 16.8311 14.9126C16.5461 15.2121 16.0959 15.5182 15.4784 15.7926C14.2454 16.3406 12.4859 16.7 10.5 16.7V18.3C12.6562 18.3 14.6468 17.9132 16.1282 17.2547C16.8679 16.926 17.5161 16.5138 17.9901 16.0156C18.4681 15.5134 18.8 14.8872 18.8 14.1667H17.2ZM10.5 16.7C8.51407 16.7 6.75462 16.3406 5.52161 15.7926C4.9041 15.5182 4.4539 15.2121 4.1689 14.9126C3.88783 14.6173 3.8 14.3666 3.8 14.1667H2.2C2.2 14.8872 2.5319 15.5134 3.00987 16.0156C3.48392 16.5138 4.13207 16.926 4.87179 17.2547C6.35325 17.9132 8.34379 18.3 10.5 18.3V16.7ZM3.8 14.1667C3.8 13.8864 3.98341 13.4868 4.61714 13.0416C5.23664 12.6064 6.16963 12.2193 7.3392 11.961L6.99413 10.3986C5.69418 10.6858 4.54383 11.1377 3.69738 11.7324C2.86516 12.317 2.2 13.1381 2.2 14.1667H3.8ZM13.6608 11.961C14.8304 12.2193 15.7634 12.6064 16.3829 13.0416C17.0166 13.4868 17.2 13.8864 17.2 14.1667H18.8C18.8 13.1381 18.1348 12.317 17.3026 11.7324C16.4562 11.1377 15.3058 10.6858 14.0059 10.3986L13.6608 11.961Z"
          fill="currentColor"/>
</svg>
