<svg width="17" height="16" viewBox="0 0 17 16" fill="none" xmlns="http://www.w3.org/2000/svg">
    <path fill-rule="evenodd" clip-rule="evenodd" d="M3.63716 0.250001H13.3628C13.8044 0.249988 14.1804 0.249978 14.4891 0.275199C14.8134 0.301695 15.1289 0.359724 15.4305 0.513402C15.8852 0.745096 16.2549 1.1148 16.4866 1.56952C16.6403 1.87113 16.6983 2.18663 16.7248 2.51093C16.75 2.81962 16.75 3.1956 16.75 3.63715V14.3333C16.75 14.5933 16.6154 14.8347 16.3943 14.9713C16.1732 15.108 15.8971 15.1204 15.6646 15.0042L12.8943 13.619C12.6664 13.5051 12.6147 13.4811 12.5655 13.4645C12.5118 13.4464 12.4565 13.4334 12.4003 13.4255C12.3489 13.4183 12.2919 13.4167 12.0372 13.4167H3.63715C3.1956 13.4167 2.81962 13.4167 2.51093 13.3915C2.18663 13.365 1.87113 13.3069 1.56952 13.1533C1.1148 12.9216 0.745094 12.5519 0.5134 12.0971C0.359722 11.7955 0.301693 11.48 0.275197 11.1557C0.249976 10.847 0.249986 10.4711 0.249999 10.0295V3.63717C0.249986 3.19561 0.249976 2.81962 0.275197 2.51093C0.301693 2.18663 0.359722 1.87113 0.5134 1.56952C0.745094 1.1148 1.1148 0.745096 1.56952 0.513402C1.87113 0.359724 2.18663 0.301695 2.51093 0.275199C2.81962 0.249978 3.19561 0.249988 3.63716 0.250001ZM2.63308 1.77022C2.40154 1.78913 2.30542 1.82193 2.25051 1.84991C2.07803 1.9378 1.93779 2.07803 1.84991 2.25051C1.82193 2.30542 1.78913 2.40154 1.77022 2.63308C1.75058 2.87337 1.75 3.18758 1.75 3.66667V10C1.75 10.4791 1.75058 10.7933 1.77022 11.0336C1.78913 11.2651 1.82193 11.3612 1.84991 11.4162C1.93779 11.5886 2.07803 11.7289 2.25051 11.8168C2.30542 11.8447 2.40154 11.8775 2.63308 11.8965C2.87337 11.9161 3.18758 11.9167 3.66667 11.9167H12.0372C12.0498 11.9167 12.0624 11.9167 12.0748 11.9167C12.2729 11.9166 12.4403 11.9165 12.6083 11.94C12.7563 11.9607 12.9022 11.9952 13.0439 12.0428C13.2046 12.0969 13.3543 12.1718 13.5314 12.2605C13.5425 12.2661 13.5538 12.2717 13.5651 12.2774L15.25 13.1198V3.66667C15.25 3.18758 15.2494 2.87337 15.2298 2.63308C15.2109 2.40154 15.1781 2.30542 15.1501 2.25051C15.0622 2.07803 14.922 1.9378 14.7495 1.84991C14.6946 1.82193 14.5985 1.78913 14.3669 1.77022C14.1266 1.75058 13.8124 1.75 13.3333 1.75H3.66667C3.18758 1.75 2.87337 1.75058 2.63308 1.77022ZM8.47272 4.45833C8.04662 4.45833 7.68669 4.74975 7.58489 5.14528C7.48164 5.54642 7.07276 5.78791 6.67162 5.68466C6.27048 5.58142 6.02899 5.17253 6.13223 4.77139C6.40047 3.72923 7.34562 2.95833 8.47272 2.95833C9.80741 2.95833 10.8894 4.04031 10.8894 5.375C10.8894 6.11957 10.5277 6.61425 10.1394 6.98899C9.98117 7.14172 9.8009 7.29114 9.63614 7.4277C9.61183 7.44785 9.58785 7.46773 9.56433 7.48729C9.37198 7.64729 9.18579 7.80594 9.00307 7.98866C8.71017 8.28156 8.2353 8.28156 7.94241 7.98866C7.64951 7.69577 7.64951 7.2209 7.94241 6.928C8.17635 6.69406 8.40682 6.49902 8.60509 6.3341C8.63132 6.31228 8.65669 6.29122 8.68126 6.27082C8.85135 6.12964 8.98334 6.02009 9.09772 5.9097C9.33443 5.68123 9.38939 5.5509 9.38939 5.375C9.38939 4.86874 8.97898 4.45833 8.47272 4.45833ZM7.72233 9.95833C7.72233 9.54412 8.05812 9.20833 8.47233 9.20833H8.48066C8.89488 9.20833 9.23066 9.54412 9.23066 9.95833C9.23066 10.3725 8.89488 10.7083 8.48066 10.7083H8.47233C8.05812 10.7083 7.72233 10.3725 7.72233 9.95833Z" fill="currentColor"/>
</svg>
