<svg xmlns="http://www.w3.org/2000/svg" width="20" height="20" viewBox="0 0 20 20" fill="none">
    <path d="M10 17.5V12.5M10 17.5L12.0833 15.4167M10 17.5L7.91667 15.4167M15.1472 12.4997C14.8014 12.1943 14.5833 11.7476 14.5833 11.25C14.5833 10.3295 15.3295 9.58333 16.25 9.58333C16.7476 9.58333 17.1943 9.80142 17.4997 10.1472M15.1472 12.4997C15.0488 12.5 14.9444 12.5 14.8333 12.5H13.3333M15.1472 12.4997C15.8762 12.4974 16.2759 12.4784 16.59 12.3183C16.9036 12.1586 17.1586 11.9036 17.3183 11.59C17.4784 11.2759 17.4974 10.8762 17.4997 10.1472M17.4997 10.1472C17.5 10.0488 17.5 9.94437 17.5 9.83333V5.16667C17.5 5.05563 17.5 4.9512 17.4997 4.85277M17.4997 4.85277C17.1943 5.19858 16.7476 5.41667 16.25 5.41667C15.3295 5.41667 14.5833 4.67047 14.5833 3.75C14.5833 3.25238 14.8014 2.80569 15.1472 2.50031M17.4997 4.85277C17.4974 4.12377 17.4784 3.72413 17.3183 3.41002C17.1586 3.09641 16.9036 2.84145 16.59 2.68166C16.2759 2.52161 15.8762 2.50257 15.1472 2.50031M15.1472 2.50031C15.0488 2.5 14.9444 2.5 14.8333 2.5H5.16667C5.05563 2.5 4.9512 2.5 4.85277 2.50031M2.5 4.85243C2.80539 5.19844 3.25221 5.41667 3.75 5.41667C4.67047 5.41667 5.41667 4.67047 5.41667 3.75C5.41667 3.25238 5.19858 2.80569 4.85277 2.50031M2.5 4.85243C2.49969 4.95096 2.5 5.0555 2.5 5.16667V9.83333C2.5 9.94437 2.5 10.0488 2.50031 10.1472M2.5 4.85243C2.50227 4.12364 2.52163 3.72408 2.68166 3.41002C2.84145 3.09641 3.09641 2.84145 3.41002 2.68166C3.72413 2.52161 4.12377 2.50257 4.85277 2.50031M2.50031 10.1472C2.80569 9.80142 3.25238 9.58333 3.75 9.58333C4.67047 9.58333 5.41667 10.3295 5.41667 11.25C5.41667 11.7476 5.19858 12.1943 4.85277 12.4997M2.50031 10.1472C2.50257 10.8762 2.52161 11.2759 2.68166 11.59C2.84145 11.9036 3.09641 12.1586 3.41002 12.3183C3.72413 12.4784 4.12377 12.4974 4.85277 12.4997M4.85277 12.4997C4.9512 12.5 5.05563 12.5 5.16667 12.5H6.66667M8.33333 7.5C8.33333 6.57953 9.07953 5.83333 10 5.83333C10.9205 5.83333 11.6667 6.57953 11.6667 7.5C11.6667 8.42047 10.9205 9.16667 10 9.16667C9.07953 9.16667 8.33333 8.42047 8.33333 7.5Z"
          stroke="currentColor" stroke-width="1.5" stroke-linecap="round" stroke-linejoin="round"/>
</svg>
