<svg xmlns="http://www.w3.org/2000/svg" width="20" height="20" viewBox="0 0 20 20" fill="none">
    <path d="M5.83333 11.6667H10.4167M5.83333 8.33335H14.1667M8.33333 15.8334H5.16667C4.23325 15.8334 3.76654 15.8334 3.41002 15.6517C3.09641 15.4919 2.84144 15.2369 2.68166 14.9233C2.5 14.5668 2.5 14.1001 2.5 13.1667V6.83335C2.5 5.89993 2.5 5.43322 2.68166 5.0767C2.84144 4.7631 3.09641 4.50813 3.41002 4.34834C3.76654 4.16669 4.23325 4.16669 5.16667 4.16669H14.8333C15.7668 4.16669 16.2335 4.16669 16.59 4.34834C16.9036 4.50813 17.1586 4.7631 17.3183 5.0767C17.5 5.43322 17.5 5.89993 17.5 6.83335V7.08335M11.6667 16.6667L13.3541 16.3292C13.5013 16.2998 13.5748 16.2851 13.6434 16.2581C13.7043 16.2343 13.7622 16.2033 13.8159 16.1659C13.8763 16.1237 13.9294 16.0707 14.0355 15.9646L17.5 12.5C17.9602 12.0398 17.9602 11.2936 17.5 10.8334C17.0398 10.3731 16.2936 10.3731 15.8333 10.8334L12.3688 14.2979C12.2627 14.404 12.2096 14.457 12.1675 14.5175C12.1301 14.5711 12.0991 14.629 12.0752 14.6899C12.0483 14.7585 12.0336 14.8321 12.0042 14.9792L11.6667 16.6667Z"
          stroke="currentColor" stroke-width="1.5" stroke-linecap="round" stroke-linejoin="round"/>
</svg>