<svg xmlns="http://www.w3.org/2000/svg" width="24" height="24" viewBox="0 0 24 24" fill="none">
  <path d="M10.75 4C10.75 3.58579 10.4142 3.25 10 3.25C9.58579 3.25 9.25 3.58579 9.25 4H10.75ZM9.25 20C9.25 20.4142 9.58579 20.75 10 20.75C10.4142 20.75 10.75 20.4142 10.75 20H9.25ZM14.75 4C14.75 3.58579 14.4142 3.25 14 3.25C13.5858 3.25 13.25 3.58579 13.25 4H14.75ZM13.25 20C13.25 20.4142 13.5858 20.75 14 20.75C14.4142 20.75 14.75 20.4142 14.75 20H13.25ZM6.22354 11.8978L6.41766 11.1733L6.22354 11.8978ZM4.10222 9.77646L4.82667 9.58234L4.10222 9.77646ZM19.8978 9.77646L19.1733 9.58234L19.8978 9.77646ZM17.7765 11.8978L17.5823 11.1733L17.7765 11.8978ZM17.7765 4.10222L17.5823 4.82667L17.7765 4.10222ZM19.8978 6.22354L19.1733 6.41766L19.8978 6.22354ZM6.22354 4.10222L6.41766 4.82667L6.22354 4.10222ZM4.10222 6.22354L4.82667 6.41766L4.10222 6.22354ZM4.10222 13.7765L3.37778 13.9706L4.10222 13.7765ZM6.22354 15.8978L6.02943 16.6222L6.22354 15.8978ZM19.8978 13.7765L20.6222 13.9706L20.6222 13.9706L19.8978 13.7765ZM17.7765 15.8978L17.5823 15.1733L17.7765 15.8978ZM6.22354 19.8978L6.02943 20.6222L6.02943 20.6222L6.22354 19.8978ZM4.10222 17.7765L4.82667 17.5823H4.82667L4.10222 17.7765ZM17.7765 19.8978L17.9706 20.6222L17.7765 19.8978ZM19.8978 17.7765L20.6222 17.9706L19.8978 17.7765ZM7 7.25C6.58579 7.25 6.25 7.58579 6.25 8C6.25 8.41421 6.58579 8.75 7 8.75V7.25ZM7.01 8.75C7.42421 8.75 7.76 8.41421 7.76 8C7.76 7.58579 7.42421 7.25 7.01 7.25V8.75ZM17 7.25C16.5858 7.25 16.25 7.58579 16.25 8C16.25 8.41421 16.5858 8.75 17 8.75V7.25ZM17.01 8.75C17.4242 8.75 17.76 8.41421 17.76 8C17.76 7.58579 17.4242 7.25 17.01 7.25V8.75ZM10 4H9.25V20H10H10.75V4H10ZM14 4H13.25V20H14H14.75V4H14ZM8 4V4.75H16V4V3.25H8V4ZM16 12V11.25H8V12V12.75H16V12ZM8 12V11.25C7.02174 11.25 6.67974 11.2436 6.41766 11.1733L6.22354 11.8978L6.02943 12.6222C6.53034 12.7564 7.11831 12.75 8 12.75V12ZM4 8H3.25C3.25 8.88169 3.24356 9.46966 3.37778 9.97057L4.10222 9.77646L4.82667 9.58234C4.75644 9.32026 4.75 8.97826 4.75 8H4ZM6.22354 11.8978L6.41766 11.1733C5.6412 10.9653 5.03472 10.3588 4.82667 9.58234L4.10222 9.77646L3.37778 9.97057C3.72453 11.2647 4.73533 12.2755 6.02943 12.6222L6.22354 11.8978ZM20 8H19.25C19.25 8.97826 19.2436 9.32026 19.1733 9.58234L19.8978 9.77646L20.6222 9.97057C20.7564 9.46966 20.75 8.88169 20.75 8H20ZM16 12V12.75C16.8817 12.75 17.4697 12.7564 17.9706 12.6222L17.7765 11.8978L17.5823 11.1733C17.3203 11.2436 16.9783 11.25 16 11.25V12ZM19.8978 9.77646L19.1733 9.58234C18.9653 10.3588 18.3588 10.9653 17.5823 11.1733L17.7765 11.8978L17.9706 12.6222C19.2647 12.2755 20.2755 11.2647 20.6222 9.97057L19.8978 9.77646ZM16 4V4.75C16.9783 4.75 17.3203 4.75644 17.5823 4.82667L17.7765 4.10222L17.9706 3.37778C17.4697 3.24356 16.8817 3.25 16 3.25V4ZM20 8H20.75C20.75 7.11831 20.7564 6.53034 20.6222 6.02943L19.8978 6.22354L19.1733 6.41766C19.2436 6.67974 19.25 7.02174 19.25 8H20ZM17.7765 4.10222L17.5823 4.82667C18.3588 5.03472 18.9653 5.6412 19.1733 6.41766L19.8978 6.22354L20.6222 6.02943C20.2755 4.73533 19.2647 3.72453 17.9706 3.37778L17.7765 4.10222ZM8 4V3.25C7.11831 3.25 6.53034 3.24356 6.02943 3.37778L6.22354 4.10222L6.41766 4.82667C6.67974 4.75644 7.02174 4.75 8 4.75V4ZM4 8H4.75C4.75 7.02174 4.75644 6.67974 4.82667 6.41766L4.10222 6.22354L3.37778 6.02943C3.24356 6.53034 3.25 7.11831 3.25 8H4ZM6.22354 4.10222L6.02943 3.37778C4.73533 3.72453 3.72453 4.73533 3.37778 6.02943L4.10222 6.22354L4.82667 6.41766C5.03472 5.6412 5.6412 5.03472 6.41766 4.82667L6.22354 4.10222ZM10 16V15.25H8V16V16.75H10V16ZM16 16V15.25H14V16V16.75H16V16ZM4 12H3.25C3.25 12.8817 3.24356 13.4697 3.37778 13.9706L4.10222 13.7765L4.82667 13.5823C4.75644 13.3203 4.75 12.9783 4.75 12H4ZM8 16V15.25C7.02174 15.25 6.67974 15.2436 6.41766 15.1733L6.22354 15.8978L6.02943 16.6222C6.53034 16.7564 7.11831 16.75 8 16.75V16ZM4.10222 13.7765L3.37778 13.9706C3.72453 15.2647 4.73533 16.2755 6.02943 16.6222L6.22354 15.8978L6.41766 15.1733C5.6412 14.9653 5.03472 14.3588 4.82667 13.5823L4.10222 13.7765ZM20 12H19.25C19.25 12.9783 19.2436 13.3203 19.1733 13.5823L19.8978 13.7765L20.6222 13.9706C20.7564 13.4697 20.75 12.8817 20.75 12H20ZM16 16V16.75C16.8817 16.75 17.4697 16.7564 17.9706 16.6222L17.7765 15.8978L17.5823 15.1733C17.3203 15.2436 16.9783 15.25 16 15.25V16ZM19.8978 13.7765L19.1733 13.5823C18.9653 14.3588 18.3588 14.9653 17.5823 15.1733L17.7765 15.8978L17.9706 16.6222C19.2647 16.2755 20.2755 15.2647 20.6222 13.9706L19.8978 13.7765ZM16 20V19.25H8V20V20.75H16V20ZM20 16H20.75V8H20H19.25V16H20ZM4 16H4.75V8H4H3.25V16H4ZM8 20V19.25C7.02174 19.25 6.67974 19.2436 6.41766 19.1733L6.22354 19.8978L6.02943 20.6222C6.53034 20.7564 7.11831 20.75 8 20.75V20ZM4 16H3.25C3.25 16.8817 3.24356 17.4697 3.37778 17.9706L4.10222 17.7765L4.82667 17.5823C4.75644 17.3203 4.75 16.9783 4.75 16H4ZM6.22354 19.8978L6.41766 19.1733C5.6412 18.9653 5.03472 18.3588 4.82667 17.5823L4.10222 17.7765L3.37778 17.9706C3.72453 19.2647 4.73533 20.2755 6.02943 20.6222L6.22354 19.8978ZM16 20V20.75C16.8817 20.75 17.4697 20.7564 17.9706 20.6222L17.7765 19.8978L17.5823 19.1733C17.3203 19.2436 16.9783 19.25 16 19.25V20ZM20 16H19.25C19.25 16.9783 19.2436 17.3203 19.1733 17.5823L19.8978 17.7765L20.6222 17.9706C20.7564 17.4697 20.75 16.8817 20.75 16H20ZM17.7765 19.8978L17.9706 20.6222C19.2647 20.2755 20.2755 19.2647 20.6222 17.9706L19.8978 17.7765L19.1733 17.5823C18.9653 18.3588 18.3588 18.9653 17.5823 19.1733L17.7765 19.8978ZM7 8V8.75H7.01V8V7.25H7V8ZM17 8V8.75H17.01V8V7.25H17V8Z" fill="currentColor"/>
</svg>
