<svg xmlns="http://www.w3.org/2000/svg" width="20" height="20" viewBox="0 0 20 20" fill="none">
    <path d="M4.85277 5.00031C5.19858 5.30569 5.41667 5.75238 5.41667 6.25C5.41667 7.17047 4.67047 7.91667 3.75 7.91667C3.25238 7.91667 2.80569 7.69858 2.50031 7.35277M4.85277 5.00031C4.9512 5 5.05563 5 5.16667 5H14.8333C14.9444 5 15.0488 5 15.1472 5.00031M4.85277 5.00031C4.12377 5.00257 3.72413 5.02161 3.41002 5.18166C3.09641 5.34144 2.84144 5.59641 2.68166 5.91002C2.52161 6.22413 2.50257 6.62377 2.50031 7.35277M2.50031 7.35277C2.5 7.4512 2.5 7.55563 2.5 7.66667V12.3333C2.5 12.4444 2.5 12.5488 2.50031 12.6472M2.50031 12.6472C2.80569 12.3014 3.25238 12.0833 3.75 12.0833C4.67047 12.0833 5.41667 12.8295 5.41667 13.75C5.41667 14.2476 5.19858 14.6943 4.85277 14.9997M2.50031 12.6472C2.50257 13.3762 2.52161 13.7759 2.68166 14.09C2.84144 14.4036 3.09641 14.6586 3.41002 14.8183C3.72413 14.9784 4.12377 14.9974 4.85277 14.9997M4.85277 14.9997C4.9512 15 5.05563 15 5.16667 15H14.8333C14.9444 15 15.0488 15 15.1472 14.9997M17.5 12.6476C17.1946 12.3016 16.7478 12.0833 16.25 12.0833C15.3295 12.0833 14.5833 12.8295 14.5833 13.75C14.5833 14.2476 14.8014 14.6943 15.1472 14.9997M17.5 12.6476C17.5003 12.549 17.5 12.4445 17.5 12.3333V7.66667C17.5 7.55563 17.5 7.4512 17.4997 7.35277M17.5 12.6476C17.4977 13.3764 17.4784 13.7759 17.3183 14.09C17.1586 14.4036 16.9036 14.6586 16.59 14.8183C16.2759 14.9784 15.8762 14.9974 15.1472 14.9997M17.4997 7.35277C17.1943 7.69858 16.7476 7.91667 16.25 7.91667C15.3295 7.91667 14.5833 7.17047 14.5833 6.25C14.5833 5.75238 14.8014 5.30569 15.1472 5.00031M17.4997 7.35277C17.4974 6.62377 17.4784 6.22413 17.3183 5.91002C17.1586 5.59641 16.9036 5.34144 16.59 5.18166C16.2759 5.02161 15.8762 5.00257 15.1472 5.00031M11.6667 10C11.6667 10.9205 10.9205 11.6667 10 11.6667C9.07953 11.6667 8.33333 10.9205 8.33333 10C8.33333 9.07953 9.07953 8.33333 10 8.33333C10.9205 8.33333 11.6667 9.07953 11.6667 10Z"
          stroke="currentColor" stroke-width="1.5" stroke-linecap="round" stroke-linejoin="round"/>
</svg>
