<svg xmlns="http://www.w3.org/2000/svg" width="20" height="20" viewBox="0 0 20 20" fill="none">
    <path d="M4.85277 6.66695C5.19858 6.97234 5.41667 7.41902 5.41667 7.91665C5.41667 8.83712 4.67047 9.58331 3.75 9.58331C3.25238 9.58331 2.80569 9.36523 2.50031 9.01942M4.85277 6.66695C4.9512 6.66665 5.05563 6.66665 5.16667 6.66665H14.8333C14.9444 6.66665 15.0488 6.66665 15.1472 6.66695M4.85277 6.66695C4.12377 6.66922 3.72413 6.68826 3.41002 6.8483C3.09641 7.00809 2.84144 7.26306 2.68166 7.57666C2.52161 7.89077 2.50257 8.29042 2.50031 9.01942M2.50031 9.01942C2.5 9.11785 2.5 9.22228 2.5 9.33331V14C2.5 14.111 2.5 14.2154 2.50031 14.3139M2.50031 14.3139C2.80569 13.9681 3.25238 13.75 3.75 13.75C4.67047 13.75 5.41667 14.4962 5.41667 15.4166C5.41667 15.9143 5.19858 16.361 4.85277 16.6663M2.50031 14.3139C2.50257 15.0429 2.52161 15.4425 2.68166 15.7566C2.84144 16.0702 3.09641 16.3252 3.41002 16.485C3.72413 16.645 4.12377 16.6641 4.85277 16.6663M4.85277 16.6663C4.9512 16.6666 5.05563 16.6666 5.16667 16.6666H14.8333C14.9444 16.6666 15.0488 16.6666 15.1472 16.6663M17.5 14.3142C17.1946 13.9682 16.7478 13.75 16.25 13.75C15.3295 13.75 14.5833 14.4962 14.5833 15.4166C14.5833 15.9143 14.8014 16.361 15.1472 16.6663M17.5 14.3142C17.5003 14.2157 17.5 14.1111 17.5 14V9.33331C17.5 9.22228 17.5 9.11785 17.4997 9.01942M17.5 14.3142C17.4977 15.043 17.4784 15.4426 17.3183 15.7566C17.1586 16.0702 16.9036 16.3252 16.59 16.485C16.2759 16.645 15.8762 16.6641 15.1472 16.6663M17.4997 9.01942C17.1943 9.36523 16.7476 9.58331 16.25 9.58331C15.3295 9.58331 14.5833 8.83712 14.5833 7.91665C14.5833 7.41902 14.8014 6.97234 15.1472 6.66695M17.4997 9.01942C17.4974 8.29042 17.4784 7.89077 17.3183 7.57666C17.1586 7.26306 16.9036 7.00809 16.59 6.8483C16.2759 6.68826 15.8762 6.66922 15.1472 6.66695M6.66667 6.66665V5.99998C6.66667 5.06656 6.66667 4.59985 6.84832 4.24333C7.00811 3.92973 7.26308 3.67476 7.57668 3.51497C7.9332 3.33331 8.39991 3.33331 9.33333 3.33331H10.6667C11.6001 3.33331 12.0668 3.33331 12.4233 3.51497C12.7369 3.67476 12.9919 3.92973 13.1517 4.24333C13.3333 4.59985 13.3333 5.06656 13.3333 5.99998V6.66665M11.6667 11.6666C11.6667 12.5871 10.9205 13.3333 10 13.3333C9.07953 13.3333 8.33333 12.5871 8.33333 11.6666C8.33333 10.7462 9.07953 9.99998 10 9.99998C10.9205 9.99998 11.6667 10.7462 11.6667 11.6666Z"
          stroke="currentColor" stroke-width="1.5" stroke-linecap="round" stroke-linejoin="round"/>
</svg>
