<svg xmlns="http://www.w3.org/2000/svg" width="21" height="20" viewBox="0 0 21 20" fill="none">
    <path d="M3 17.5H18M3 15H18M5.35277 2.50031C5.69858 2.80569 5.91667 3.25238 5.91667 3.75C5.91667 4.67047 5.17047 5.41667 4.25 5.41667C3.75238 5.41667 3.30569 5.19858 3.00031 4.85277M5.35277 2.50031C5.4512 2.5 5.55563 2.5 5.66667 2.5H15.3333C15.4444 2.5 15.5488 2.5 15.6472 2.50031M5.35277 2.50031C4.62377 2.50257 4.22413 2.52161 3.91002 2.68166C3.59641 2.84144 3.34144 3.09641 3.18166 3.41002C3.02161 3.72413 3.00257 4.12377 3.00031 4.85277M3.00031 4.85277C3 4.9512 3 5.05563 3 5.16667V9.83333C3 9.94437 3 10.0488 3.00031 10.1472M3.00031 10.1472C3.30569 9.80142 3.75238 9.58333 4.25 9.58333C5.17047 9.58333 5.91667 10.3295 5.91667 11.25C5.91667 11.7476 5.69858 12.1943 5.35277 12.4997M3.00031 10.1472C3.00257 10.8762 3.02161 11.2759 3.18166 11.59C3.34144 11.9036 3.59641 12.1586 3.91002 12.3183C4.22413 12.4784 4.62377 12.4974 5.35277 12.4997M5.35277 12.4997C5.4512 12.5 5.55563 12.5 5.66667 12.5H15.3333C15.4444 12.5 15.5488 12.5 15.6472 12.4997M18 10.1476C17.6946 9.80156 17.2478 9.58333 16.75 9.58333C15.8295 9.58333 15.0833 10.3295 15.0833 11.25C15.0833 11.7476 15.3014 12.1943 15.6472 12.4997M18 10.1476C18.0003 10.049 18 9.9445 18 9.83333V5.16667C18 5.05563 18 4.9512 17.9997 4.85277M18 10.1476C17.9977 10.8764 17.9784 11.2759 17.8183 11.59C17.6586 11.9036 17.4036 12.1586 17.09 12.3183C16.7759 12.4784 16.3762 12.4974 15.6472 12.4997M17.9997 4.85277C17.6943 5.19858 17.2476 5.41667 16.75 5.41667C15.8295 5.41667 15.0833 4.67047 15.0833 3.75C15.0833 3.25238 15.3014 2.80569 15.6472 2.50031M17.9997 4.85277C17.9974 4.12377 17.9784 3.72413 17.8183 3.41002C17.6586 3.09641 17.4036 2.84144 17.09 2.68166C16.7759 2.52161 16.3762 2.50257 15.6472 2.50031M12.1667 7.5C12.1667 8.42047 11.4205 9.16667 10.5 9.16667C9.57953 9.16667 8.83333 8.42047 8.83333 7.5C8.83333 6.57953 9.57953 5.83333 10.5 5.83333C11.4205 5.83333 12.1667 6.57953 12.1667 7.5Z"
          stroke="currentColor" stroke-width="1.5" stroke-linecap="round" stroke-linejoin="round"/>
</svg>
