<svg width="18" height="18" viewBox="0 0 18 18" fill="none" xmlns="http://www.w3.org/2000/svg">
<path d="M4 13.5832C4.34819 13.3216 4.781 13.1667 5.25 13.1667C6.40059 13.1667 7.33333 14.0994 7.33333 15.25C7.33333 15.719 7.17836 16.1518 6.91682 16.5M14 13.5832C13.6518 13.3216 13.219 13.1667 12.75 13.1667C11.5994 13.1667 10.6667 14.0994 10.6667 15.25C10.6667 15.719 10.8216 16.1518 11.0832 16.5M14 7.33329C14.8236 7.33265 15.2553 7.32219 15.59 7.15168C15.9036 6.99189 16.1586 6.73692 16.3183 6.42332C16.5 6.0668 16.5 5.60009 16.5 4.66667V4.16667C16.5 3.23325 16.5 2.76654 16.3183 2.41002C16.1586 2.09641 15.9036 1.84144 15.59 1.68166C15.2335 1.5 14.7668 1.5 13.8333 1.5H4.16667C3.23325 1.5 2.76654 1.5 2.41002 1.68166C2.09641 1.84144 1.84144 2.09641 1.68166 2.41002C1.5 2.76654 1.5 3.23325 1.5 4.16667V4.66667C1.5 5.60009 1.5 6.0668 1.68166 6.42332C1.84144 6.73692 2.09641 6.99189 2.41002 7.15168C2.74466 7.32219 3.17639 7.33265 4.00004 7.33329M14 7.33329C14 7.38716 14 7.4427 14 7.5V13.8333C14 14.7668 14 15.2335 13.8183 15.59C13.6586 15.9036 13.4036 16.1586 13.09 16.3183C12.7335 16.5 12.2668 16.5 11.3333 16.5H6.66667C5.73325 16.5 5.26654 16.5 4.91002 16.3183C4.59641 16.1586 4.34144 15.9036 4.18166 15.59C4 15.2335 4 14.7668 4 13.8333V7.5C4 7.4427 4 7.38716 4.00004 7.33329M14 7.33329C13.9993 6.50969 13.9888 6.07798 13.8183 5.74335C13.6586 5.42975 13.4036 5.17478 13.09 5.01499C12.7335 4.83333 12.2668 4.83333 11.3333 4.83333H6.66667C5.73325 4.83333 5.26654 4.83333 4.91002 5.01499C4.59641 5.17478 4.34144 5.42975 4.18166 5.74335C4.01115 6.07798 4.00068 6.50969 4.00004 7.33329M10.6667 9C10.6667 9.92047 9.92047 10.6667 9 10.6667C8.07953 10.6667 7.33333 9.92047 7.33333 9C7.33333 8.07953 8.07953 7.33333 9 7.33333C9.92047 7.33333 10.6667 8.07953 10.6667 9Z" stroke="currentColor" stroke-width="1.5" stroke-linecap="round" stroke-linejoin="round"/>
</svg>
