<svg xmlns="http://www.w3.org/2000/svg" width="20" height="20" viewBox="0 0 20 20" fill="none">
    <path d="M5.83333 17.5H14.1667M5.16667 14.1667H14.8333C15.7668 14.1667 16.2335 14.1667 16.59 13.985C16.9036 13.8252 17.1586 13.5703 17.3183 13.2567C17.5 12.9001 17.5 12.4334 17.5 11.5V5.16667C17.5 4.23325 17.5 3.76654 17.3183 3.41002C17.1586 3.09641 16.9036 2.84144 16.59 2.68166C16.2335 2.5 15.7668 2.5 14.8333 2.5H5.16667C4.23325 2.5 3.76654 2.5 3.41002 2.68166C3.09641 2.84144 2.84144 3.09641 2.68166 3.41002C2.5 3.76654 2.5 4.23325 2.5 5.16667V11.5C2.5 12.4334 2.5 12.9001 2.68166 13.2567C2.84144 13.5703 3.09641 13.8252 3.41002 13.985C3.76654 14.1667 4.23325 14.1667 5.16667 14.1667Z"
          stroke="currentColor" stroke-width="1.6" stroke-linecap="round" stroke-linejoin="round"/>
</svg>
