<svg xmlns="http://www.w3.org/2000/svg" width="20" height="20" viewBox="0 0 20 20" fill="none">
    <path d="M9.16671 3.33333H6.00004C5.06662 3.33333 4.59991 3.33333 4.24339 3.51498C3.92979 3.67477 3.67482 3.92974 3.51503 4.24334C3.33337 4.59986 3.33337 5.06657 3.33337 5.99999V14C3.33337 14.9334 3.33337 15.4001 3.51503 15.7566C3.67482 16.0702 3.92979 16.3252 4.24339 16.485C4.59991 16.6667 5.06662 16.6667 6.00004 16.6667H14C14.9335 16.6667 15.4002 16.6667 15.7567 16.485C16.0703 16.3252 16.3253 16.0702 16.4851 15.7566C16.6667 15.4001 16.6667 14.9334 16.6667 14V10.4167M12.9167 4.58333L15.2737 6.94035M8.96899 8.53104L14.5092 2.99084C15.1601 2.33997 16.2153 2.33997 16.8662 2.99084C17.5171 3.64171 17.5171 4.69699 16.8662 5.34786L11.1479 11.0662C10.5132 11.7009 10.1959 12.0182 9.83437 12.2706C9.51352 12.4946 9.16748 12.6802 8.80336 12.8235C8.39313 12.985 7.95319 13.0738 7.07331 13.2513L6.66671 13.3333L6.70625 13.0565C6.84618 12.077 6.91614 11.5873 7.07528 11.1301C7.2165 10.7244 7.40941 10.3385 7.64926 9.98213C7.91955 9.58048 8.26937 9.23067 8.96899 8.53104Z"
          stroke="currentColor" stroke-width="1.5" stroke-linecap="round" stroke-linejoin="round"/>
</svg>
