<svg width="18" height="16" viewBox="0 0 18 16" fill="none" xmlns="http://www.w3.org/2000/svg">
    <path d="M9.83333 14.6667V13C9.83333 10.6989 7.96785 8.83337 5.66667 8.83337C3.36548 8.83337 1.5 10.6989 1.5 13V14.6667H9.83333ZM9.83333 14.6667H16.5V13.8334C16.5 11.3788 14.6345 9.66671 12.3333 9.66671C11.1556 9.66671 10.0919 10.1879 9.33411 11.026M8.16667 3.83337C8.16667 5.21409 7.04738 6.33337 5.66667 6.33337C4.28595 6.33337 3.16667 5.21409 3.16667 3.83337C3.16667 2.45266 4.28595 1.33337 5.66667 1.33337C7.04738 1.33337 8.16667 2.45266 8.16667 3.83337ZM14 5.50004C14 6.42052 13.2538 7.16671 12.3333 7.16671C11.4129 7.16671 10.6667 6.42052 10.6667 5.50004C10.6667 4.57957 11.4129 3.83337 12.3333 3.83337C13.2538 3.83337 14 4.57957 14 5.50004Z"
          stroke="currentColor" stroke-width="1.6" stroke-linecap="round" stroke-linejoin="round"/>
</svg>
