<svg xmlns="http://www.w3.org/2000/svg" width="20" height="20" viewBox="0 0 20 20" fill="none">
    <path d="M5.83333 3.33337V16.6667M5.83333 16.6667L2.5 13.3334M5.83333 16.6667L9.16667 13.3334M13 16.6667H16.1667C16.6334 16.6667 16.8667 16.6667 17.045 16.5759C17.2018 16.496 17.3293 16.3685 17.4092 16.2117C17.5 16.0334 17.5 15.8001 17.5 15.3334V12.1667C17.5 11.7 17.5 11.4666 17.4092 11.2884C17.3293 11.1316 17.2018 11.0041 17.045 10.9242C16.8667 10.8334 16.6334 10.8334 16.1667 10.8334H13C12.5333 10.8334 12.2999 10.8334 12.1217 10.9242C11.9649 11.0041 11.8374 11.1316 11.7575 11.2884C11.6667 11.4666 11.6667 11.7 11.6667 12.1667V15.3334C11.6667 15.8001 11.6667 16.0334 11.7575 16.2117C11.8374 16.3685 11.9649 16.496 12.1217 16.5759C12.2999 16.6667 12.5333 16.6667 13 16.6667ZM13 7.50004H14.5C14.9667 7.50004 15.2001 7.50004 15.3783 7.40921C15.5351 7.32932 15.6626 7.20183 15.7425 7.04503C15.8333 6.86677 15.8333 6.63342 15.8333 6.16671V4.66671C15.8333 4.2 15.8333 3.96664 15.7425 3.78838C15.6626 3.63158 15.5351 3.5041 15.3783 3.4242C15.2001 3.33337 14.9667 3.33337 14.5 3.33337H13C12.5333 3.33337 12.2999 3.33337 12.1217 3.4242C11.9649 3.5041 11.8374 3.63158 11.7575 3.78838C11.6667 3.96664 11.6667 4.2 11.6667 4.66671V6.16671C11.6667 6.63342 11.6667 6.86677 11.7575 7.04503C11.8374 7.20183 11.9649 7.32932 12.1217 7.40921C12.2999 7.50004 12.5333 7.50004 13 7.50004Z"
          stroke="currentColor" stroke-width="1.6" stroke-linecap="round" stroke-linejoin="round"/>
</svg>
