<svg width="113" height="113" viewBox="0 0 113 113" fill="none" xmlns="http://www.w3.org/2000/svg">
    <path d="M94.4047 43.1779V73.3558C94.4047 79.6255 89.3054 84.7248 82.9521 84.7248H29.9527C23.683 84.7248 18.5837 79.7091 18.5001 73.4394C18.5001 73.3558 18.5001 73.3558 18.5001 73.2722V43.1779C18.5001 43.0943 18.5001 43.0943 18.5001 43.0107C18.5001 42.8435 18.5001 42.6763 18.5837 42.5091C18.6673 42.2584 18.7509 42.0912 18.8345 41.8404L33.0457 14.6719C33.5473 13.5852 34.634 13 35.8044 13H77.0168C78.1872 13 79.1903 13.5852 79.7755 14.6719L93.9867 41.8404C94.0703 42.0076 94.1539 42.2584 94.2375 42.5091C94.4047 42.6763 94.4047 42.9271 94.4047 43.1779Z"
          fill="currentColor"/>
    <g filter="url(#filter0_d_24_47)">
        <path d="M74.4286 50.3672H38.7334C37.563 50.3672 36.6435 49.364 36.6435 48.2773V19.7713C36.6435 18.6009 37.6466 17.6814 38.7334 17.6814H74.4286C75.5989 17.6814 76.5185 18.6845 76.5185 19.7713V48.2773C76.4349 49.4476 75.5989 50.3672 74.4286 50.3672Z"
              fill="#F5F8FF"/>
    </g>
    <g filter="url(#filter1_d_24_47)">
        <path d="M78.5219 58.476H34.7179C33.464 58.476 32.3773 57.3892 32.3773 56.2189V28.1309C32.3773 26.8769 33.464 25.8738 34.7179 25.8738H78.5219C79.7758 25.8738 80.8625 26.9605 80.8625 28.1309V56.1353C80.7789 57.4728 79.7758 58.476 78.5219 58.476Z"
              fill="#F5F8FF"/>
    </g>
    <g filter="url(#filter2_d_24_47)">
        <path d="M82.9527 66.3338H30.2876C28.8665 66.3338 27.7798 65.1634 27.7798 63.9095V36.2395C27.7798 34.8183 28.9501 33.8152 30.2876 33.8152H82.9527C84.3738 33.8152 85.4606 34.9855 85.4606 36.2395V63.8259C85.377 65.247 84.3738 66.3338 82.9527 66.3338Z"
              fill="#F5F8FF"/>
    </g>
    <path d="M67.1543 44.7663H47.3423C46.8407 44.7663 46.3391 44.3483 46.3391 43.7632C46.3391 43.2616 46.7571 42.76 47.3423 42.76H67.1543C67.6559 42.76 68.1575 43.178 68.1575 43.7632C68.1575 44.3483 67.7395 44.7663 67.1543 44.7663Z"
          fill="currentColor"/>
    <path d="M60.9508 51H36.0804C35.7488 51 35.5001 50.5714 35.5001 50C35.5001 49.4286 35.7488 49 36.0804 49H60.8679C61.1995 49 61.4482 49.4286 61.4482 50C61.614 50.2857 61.3653 51 60.9508 51Z"
          fill="currentColor"/>
    <path d="M77.9366 51H65.0954C64.7552 51 64.5001 50.5714 64.5001 50C64.5001 49.4286 64.7552 49 65.0954 49H77.8516C78.1917 49 78.4468 49.4286 78.4468 50C78.6169 50.2857 78.3618 51 77.9366 51Z"
          fill="currentColor"/>
    <g filter="url(#filter3_d_24_47)">
        <path d="M90.0418 44.691V73.3023C90.0418 77.3717 86.7863 80.6272 82.6429 80.6272H30.2593C26.19 80.6272 22.8605 77.3717 22.8605 73.3023V44.543C22.8605 44.3951 22.8605 44.2471 22.9345 44.0991H37.296C39.8116 44.0991 41.8832 46.0968 41.8832 48.6864C41.8832 49.9442 42.4011 51.128 43.215 51.9419C44.1029 52.8297 45.1387 53.2736 46.4705 53.2736H67.3417C69.8573 53.2736 71.929 51.276 71.929 48.6864C71.929 47.4286 72.4469 46.2448 73.2608 45.4309C74.1486 44.543 75.1845 44.0991 76.4423 44.0991H89.8938C90.0417 44.2471 90.0418 44.4691 90.0418 44.691Z"
              fill="white"/>
    </g>
    <g filter="url(#filter4_d_24_47)">
        <path d="M94.4047 43.178V76.449C94.4047 81.0467 90.7265 84.7249 86.0451 84.7249H26.8597C22.2619 84.7249 18.5001 81.0467 18.5001 76.449V43.0108C18.5001 42.8437 18.5001 42.6765 18.5837 42.5093H37.6434C40.4857 42.5093 42.8264 44.7664 42.8264 47.6922C42.8264 49.1133 43.4115 50.4508 44.3311 51.3704C45.3342 52.3735 46.5046 52.8751 48.0093 52.8751H64.9791C67.8214 52.8751 70.162 50.618 70.162 47.6922C70.162 46.2711 70.7472 44.9335 71.6667 44.014C72.6699 43.0108 73.8402 42.5093 75.2613 42.5093H94.2375C94.4047 42.6765 94.4047 42.9273 94.4047 43.178Z"
              fill="url(#paint4_linear_24_47)"/>
    </g>
    <path d="M72.4272 81.4646C72.0928 82.8857 71.5912 84.3904 71.0061 85.6443C69.4178 88.7374 66.9099 91.1616 63.8169 92.7499C60.6403 94.3383 56.8785 95.007 53.1167 94.1711C44.172 92.2484 38.4875 83.6381 40.3266 74.777C42.1657 65.9159 50.776 60.1478 59.6371 62.0705C62.8137 62.7392 65.5724 64.3275 67.913 66.501C71.9256 70.43 73.5139 76.0309 72.4272 81.4646Z"
          fill="currentColor"/>
    <path d="M58.5008 72V74.2667C58.5008 74.64 58.5008 74.8267 58.5734 74.9693C58.6373 75.0948 58.7393 75.1968 58.8648 75.2607C59.0074 75.3333 59.1941 75.3333 59.5674 75.3333H61.8341M55.1674 75.3333H52.5008C51.7644 75.3333 51.1674 75.9303 51.1674 76.6667V82.6667C51.1674 83.403 51.7644 84 52.5008 84H56.5008C57.2371 84 57.8341 83.403 57.8341 82.6667V80.6667M59.1674 72H57.3008C56.554 72 56.1806 72 55.8954 72.1453C55.6445 72.2732 55.4406 72.4771 55.3127 72.728C55.1674 73.0132 55.1674 73.3866 55.1674 74.1333V78.5333C55.1674 79.2801 55.1674 79.6534 55.3127 79.9387C55.4406 80.1895 55.6445 80.3935 55.8954 80.5213C56.1806 80.6667 56.554 80.6667 57.3008 80.6667H59.7008C60.4475 80.6667 60.8209 80.6667 61.1061 80.5213C61.357 80.3935 61.5609 80.1895 61.6888 79.9387C61.8341 79.6534 61.8341 79.2801 61.8341 78.5333V74.6667L59.1674 72Z"
          stroke="white" stroke-width="1.2" stroke-linejoin="round"/>
    <defs>
        <filter id="filter0_d_24_47" x="18.2525" y="0.126381" width="76.6569" height="69.4677"
                filterUnits="userSpaceOnUse" color-interpolation-filters="sRGB">
            <feFlood flood-opacity="0" result="BackgroundImageFix"/>
            <feColorMatrix in="SourceAlpha" type="matrix" values="0 0 0 0 0 0 0 0 0 0 0 0 0 0 0 0 0 0 127 0"
                           result="hardAlpha"/>
            <feOffset dy="0.835953"/>
            <feGaussianBlur stdDeviation="9.19548"/>
            <feColorMatrix type="matrix" values="0 0 0 0 0.397708 0 0 0 0 0.47749 0 0 0 0 0.575 0 0 0 0.18 0"/>
            <feBlend mode="normal" in2="BackgroundImageFix" result="effect1_dropShadow_24_47"/>
            <feBlend mode="normal" in="SourceGraphic" in2="effect1_dropShadow_24_47" result="shape"/>
        </filter>
        <filter id="filter1_d_24_47" x="13.9863" y="8.31876" width="85.2672" height="69.3842"
                filterUnits="userSpaceOnUse" color-interpolation-filters="sRGB">
            <feFlood flood-opacity="0" result="BackgroundImageFix"/>
            <feColorMatrix in="SourceAlpha" type="matrix" values="0 0 0 0 0 0 0 0 0 0 0 0 0 0 0 0 0 0 127 0"
                           result="hardAlpha"/>
            <feOffset dy="0.835953"/>
            <feGaussianBlur stdDeviation="9.19548"/>
            <feColorMatrix type="matrix" values="0 0 0 0 0.397708 0 0 0 0 0.47749 0 0 0 0 0.575 0 0 0 0.18 0"/>
            <feBlend mode="normal" in2="BackgroundImageFix" result="effect1_dropShadow_24_47"/>
            <feBlend mode="normal" in="SourceGraphic" in2="effect1_dropShadow_24_47" result="shape"/>
        </filter>
        <filter id="filter2_d_24_47" x="9.38882" y="16.2602" width="94.4627" height="69.3005"
                filterUnits="userSpaceOnUse" color-interpolation-filters="sRGB">
            <feFlood flood-opacity="0" result="BackgroundImageFix"/>
            <feColorMatrix in="SourceAlpha" type="matrix" values="0 0 0 0 0 0 0 0 0 0 0 0 0 0 0 0 0 0 127 0"
                           result="hardAlpha"/>
            <feOffset dy="0.835953"/>
            <feGaussianBlur stdDeviation="9.19548"/>
            <feColorMatrix type="matrix" values="0 0 0 0 0.397708 0 0 0 0 0.47749 0 0 0 0 0.575 0 0 0 0.18 0"/>
            <feBlend mode="normal" in2="BackgroundImageFix" result="effect1_dropShadow_24_47"/>
            <feBlend mode="normal" in="SourceGraphic" in2="effect1_dropShadow_24_47" result="shape"/>
        </filter>
        <filter id="filter3_d_24_47" x="11.9931" y="30.7239" width="88.916" height="58.2629"
                filterUnits="userSpaceOnUse" color-interpolation-filters="sRGB">
            <feFlood flood-opacity="0" result="BackgroundImageFix"/>
            <feColorMatrix in="SourceAlpha" type="matrix" values="0 0 0 0 0 0 0 0 0 0 0 0 0 0 0 0 0 0 127 0"
                           result="hardAlpha"/>
            <feOffset dy="-2.50786"/>
            <feGaussianBlur stdDeviation="5.4337"/>
            <feColorMatrix type="matrix" values="0 0 0 0 0.397708 0 0 0 0 0.47749 0 0 0 0 0.575 0 0 0 0.27 0"/>
            <feBlend mode="normal" in2="BackgroundImageFix" result="effect1_dropShadow_24_47"/>
            <feBlend mode="normal" in="SourceGraphic" in2="effect1_dropShadow_24_47" result="shape"/>
        </filter>
        <filter id="filter4_d_24_47" x="0.109154" y="33.3138" width="112.686" height="78.9975"
                filterUnits="userSpaceOnUse" color-interpolation-filters="sRGB">
            <feFlood flood-opacity="0" result="BackgroundImageFix"/>
            <feColorMatrix in="SourceAlpha" type="matrix" values="0 0 0 0 0 0 0 0 0 0 0 0 0 0 0 0 0 0 127 0"
                           result="hardAlpha"/>
            <feOffset dy="9.19548"/>
            <feGaussianBlur stdDeviation="9.19548"/>
            <feColorMatrix type="matrix" values="0 0 0 0 0.397708 0 0 0 0 0.47749 0 0 0 0 0.575 0 0 0 0.27 0"/>
            <feBlend mode="normal" in2="BackgroundImageFix" result="effect1_dropShadow_24_47"/>
            <feBlend mode="normal" in="SourceGraphic" in2="effect1_dropShadow_24_47" result="shape"/>
        </filter>
        <linearGradient id="paint0_linear_24_47" x1="56.4524" y1="-25.9473" x2="56.4524" y2="114.417"
                        gradientUnits="userSpaceOnUse">
            <stop stop-color="#CF8CFF"/>
            <stop offset="1" stop-color="#7D02FF"/>
        </linearGradient>
        <linearGradient id="paint1_linear_24_47" x1="57.2483" y1="41.6706" x2="57.2483" y2="45.5969"
                        gradientUnits="userSpaceOnUse">
            <stop stop-color="#CF8CFF"/>
            <stop offset="1" stop-color="#7D02FF"/>
        </linearGradient>
        <linearGradient id="paint2_linear_24_47" x1="48.5001" y1="47.914" x2="48.5001" y2="51.828"
                        gradientUnits="userSpaceOnUse">
            <stop stop-color="#CF8CFF"/>
            <stop offset="1" stop-color="#7D02FF"/>
        </linearGradient>
        <linearGradient id="paint3_linear_24_47" x1="71.5001" y1="47.914" x2="71.5001" y2="51.828"
                        gradientUnits="userSpaceOnUse">
            <stop stop-color="#CF8CFF"/>
            <stop offset="1" stop-color="#7D02FF"/>
        </linearGradient>
        <linearGradient id="paint4_linear_24_47" x1="56.4277" y1="41.5328" x2="56.4277" y2="85.18"
                        gradientUnits="userSpaceOnUse">
            <stop stop-color="#FDFEFF"/>
            <stop offset="0.9964" stop-color="#ECF0F5"/>
        </linearGradient>
        <linearGradient id="paint5_linear_24_47" x1="56.3708" y1="43.872" x2="56.3708" y2="108.125"
                        gradientUnits="userSpaceOnUse">
            <stop stop-color="#CF8CFF"/>
            <stop offset="1" stop-color="#7D02FF"/>
        </linearGradient>
    </defs>
</svg>
