<svg width="20" height="20" viewBox="0 0 20 20" fill="none" xmlns="http://www.w3.org/2000/svg">
    <path d="M2.5 5.49996C2.5 5.03325 2.5 4.79989 2.59083 4.62163C2.67072 4.46483 2.79821 4.33735 2.95501 4.25745C3.13327 4.16663 3.36662 4.16663 3.83333 4.16663H8.66667C9.13338 4.16663 9.36673 4.16663 9.54499 4.25745C9.70179 4.33735 9.82928 4.46483 9.90917 4.62163C10 4.79989 10 5.03325 10 5.49996V6.99996C10 7.46667 10 7.70002 9.90917 7.87828C9.82928 8.03509 9.70179 8.16257 9.54499 8.24246C9.36673 8.33329 9.13338 8.33329 8.66667 8.33329H3.83333C3.36662 8.33329 3.13327 8.33329 2.95501 8.24246C2.79821 8.16257 2.67072 8.03509 2.59083 7.87828C2.5 7.70002 2.5 7.46667 2.5 6.99996V5.49996Z" stroke="currentColor" stroke-width="1.5" stroke-linecap="round" stroke-linejoin="round"/>
    <path d="M4.16667 13C4.16667 12.5332 4.16667 12.2999 4.25749 12.1216C4.33739 11.9648 4.46487 11.8373 4.62167 11.7575C4.79993 11.6666 5.03329 11.6666 5.5 11.6666H8.66667C9.13338 11.6666 9.36673 11.6666 9.54499 11.7575C9.70179 11.8373 9.82928 11.9648 9.90917 12.1216C10 12.2999 10 12.5332 10 13V14.5C10 14.9667 10 15.2 9.90917 15.3783C9.82928 15.5351 9.70179 15.6626 9.54499 15.7425C9.36673 15.8333 9.13338 15.8333 8.66667 15.8333H5.5C5.03329 15.8333 4.79993 15.8333 4.62167 15.7425C4.46487 15.6626 4.33739 15.5351 4.25749 15.3783C4.16667 15.2 4.16667 14.9667 4.16667 14.5V13Z" stroke="currentColor" stroke-width="1.5" stroke-linecap="round" stroke-linejoin="round"/>
    <path d="M13.3333 5.49996C13.3333 5.03325 13.3333 4.79989 13.4242 4.62163C13.5041 4.46483 13.6315 4.33735 13.7883 4.25745C13.9666 4.16663 14.2 4.16663 14.6667 4.16663H16.1667C16.6334 4.16663 16.8667 4.16663 17.045 4.25745C17.2018 4.33735 17.3293 4.46483 17.4092 4.62163C17.5 4.79989 17.5 5.03325 17.5 5.49996V12C17.5 12.4667 17.5 12.7 17.4092 12.8783C17.3293 13.0351 17.2018 13.1626 17.045 13.2425C16.8667 13.3333 16.6334 13.3333 16.1667 13.3333H14.6667C14.2 13.3333 13.9666 13.3333 13.7883 13.2425C13.6315 13.1626 13.5041 13.0351 13.4242 12.8783C13.3333 12.7 13.3333 12.4667 13.3333 12V5.49996Z" stroke="currentColor" stroke-width="1.5" stroke-linecap="round" stroke-linejoin="round"/>
</svg>
