<svg width="20" height="20" viewBox="0 0 20 20" fill="none" xmlns="http://www.w3.org/2000/svg">
    <path d="M7.29408 3.54621L8.30358 2.09548C8.49053 1.82682 8.79711 1.66666 9.12441 1.66666H10.4549C10.7809 1.66666 11.0865 1.82564 11.2737 2.09265L12.2721 3.51692M7.29408 3.54621C7.00504 3.95858 6.52458 4.16065 6.01463 4.12462M7.29408 3.54621C7.00363 3.95759 6.52458 4.16232 6.01463 4.12462M6.01463 4.12462L4.22554 4.0123C3.90469 3.99216 3.59373 4.12749 3.38981 4.37602L2.55135 5.39791C2.33515 5.6614 2.26804 6.01687 2.3733 6.34105L2.89169 7.93753M2.89169 7.93753C2.96579 8.1778 2.97527 8.43522 2.92224 8.67833M2.89169 7.93753C2.96684 8.17737 2.97598 8.43427 2.92189 8.68082M2.92224 8.67833C2.86851 8.91856 2.75331 9.1454 2.58227 9.32909M2.92224 8.67833L2.92189 8.68082M2.58227 9.32909L1.40481 10.5955C1.17641 10.8411 1.08638 11.1849 1.16506 11.511L1.45861 12.7274C1.53703 13.0524 1.77268 13.3167 2.08658 13.4318L3.70438 14.0247C3.9418 14.1166 4.1469 14.2659 4.30214 14.454M2.58227 9.32909C2.75436 9.14691 2.86851 8.9208 2.92189 8.68082M4.30214 14.454C4.45632 14.6427 4.56133 14.8704 4.60207 15.117M4.30214 14.454C4.45772 14.6427 4.56309 14.8698 4.60207 15.117M4.30214 14.454L4.29968 14.4513C4.28949 14.439 4.27861 14.4261 4.26807 14.4141M4.60207 15.117L4.8776 16.8094C4.93086 17.1366 5.14281 17.4161 5.44349 17.5557L6.64274 18.1125C6.9338 18.2477 7.27204 18.2349 7.5521 18.0782L9.0726 17.2276M9.0726 17.2276C9.29351 17.1035 9.54006 17.0412 9.7866 17.0409M9.0726 17.2276C9.16005 17.1778 9.25171 17.1381 9.34584 17.1083C9.48878 17.063 9.63769 17.0406 9.7866 17.0409M9.7866 17.0409C9.91479 17.0412 10.043 17.0582 10.168 17.0917C10.2843 17.1228 10.3974 17.1682 10.5045 17.2276M9.7866 17.0409C10.0342 17.0406 10.2822 17.1028 10.5045 17.2276M10.5045 17.2276L12.0994 18.091C12.3807 18.2432 12.7178 18.2518 13.0065 18.1139L14.2002 17.5438C14.4998 17.4007 14.7088 17.1182 14.7581 16.7899L15.0045 15.1483M15.0045 15.1483C15.0435 14.9004 15.1471 14.671 15.3009 14.4807M15.0045 15.1483C15.0421 14.8998 15.1464 14.6707 15.3009 14.4807M15.3009 14.4807C15.4537 14.2923 15.6563 14.1422 15.8924 14.0494M15.3009 14.4807C15.4533 14.2916 15.6553 14.1411 15.8924 14.0494M15.8924 14.0494L17.5295 13.4078C17.8374 13.2871 18.0658 13.0219 18.1395 12.6995L18.4217 11.4639C18.4951 11.1423 18.4053 10.8051 18.1814 10.5628L16.9952 9.27829M16.9952 9.27829C16.821 9.09396 16.6994 8.87378 16.6404 8.63977M16.9952 9.27829C16.9133 9.1922 16.8431 9.09809 16.7858 8.9983C16.7205 8.88499 16.6717 8.76437 16.6404 8.63977M16.6404 8.63977C16.5825 8.40743 16.586 8.16123 16.6594 7.92293L17.1714 6.28166C17.2718 5.95986 17.2033 5.60913 16.9893 5.34875L16.1742 4.35746C15.968 4.10657 15.6527 3.97149 15.3287 3.99522L13.5621 4.12462M13.5621 4.12462C13.3085 4.14253 13.0592 4.09422 12.8372 3.99031M13.5621 4.12462C13.3082 4.14356 13.0592 4.09487 12.8372 3.99031M12.8372 3.99031C12.6138 3.88507 12.4179 3.72324 12.2721 3.51692M12.8372 3.99031C12.6135 3.88546 12.4172 3.72406 12.2721 3.51692M2.92189 8.68082L2.92259 8.67717M12.6107 10.0088C12.6107 11.563 11.3224 12.8228 9.73357 12.8228C8.14471 12.8228 6.85647 11.563 6.85647 10.0088C6.85647 8.45471 8.14471 7.19488 9.73357 7.19488C11.3224 7.19488 12.6107 8.45471 12.6107 10.0088Z"
          stroke="currentColor" stroke-width="2"/>
</svg>
