<svg xmlns="http://www.w3.org/2000/svg" width="20" height="20" viewBox="0 0 20 20" fill="none">
    <path d="M12.5 10C12.5 11.3807 11.3807 12.5 10 12.5C8.61929 12.5 7.5 11.3807 7.5 10C7.5 8.61929 8.61929 7.5 10 7.5C11.3807 7.5 12.5 8.61929 12.5 10Z"
          stroke="currentColor" stroke-width="1.6" stroke-linecap="round" stroke-linejoin="round"/>
    <path d="M10.7538 2.55004C10.5823 2.5 10.3882 2.5 10 2.5C9.61177 2.5 9.41765 2.5 9.24616 2.55004C8.99514 2.62328 8.77342 2.7734 8.61219 2.97926C8.50204 3.1199 8.42995 3.30013 8.28576 3.6606C8.07849 4.17876 7.50328 4.44559 6.97381 4.26917L6.49816 4.11067C6.16075 3.9982 5.99204 3.94197 5.82663 3.93233C5.58366 3.91818 5.34184 3.97526 5.13084 4.09659C4.98721 4.17918 4.86146 4.30492 4.60997 4.55641C4.34268 4.8237 4.20903 4.95735 4.12413 5.10991C3.99939 5.33404 3.94663 5.59111 3.97299 5.84626C3.99093 6.01992 4.06113 6.19541 4.20152 6.54638C4.42137 7.09603 4.20986 7.72399 3.70227 8.02861L3.47101 8.16739C3.11693 8.37984 2.93988 8.48607 2.81129 8.63232C2.69748 8.76174 2.61167 8.9133 2.55925 9.07747C2.5 9.26299 2.5 9.47151 2.5 9.88855C2.5 10.3824 2.5 10.6293 2.57885 10.8406C2.64852 11.0274 2.76185 11.1948 2.90936 11.3288C3.07631 11.4805 3.30329 11.5713 3.75722 11.7529C4.22111 11.9384 4.45997 12.4534 4.30197 12.9274L4.12268 13.4653C3.99849 13.8379 3.9364 14.0241 3.93075 14.2072C3.92396 14.4272 3.97541 14.6452 4.07989 14.839C4.16679 15.0001 4.30565 15.139 4.58333 15.4167C4.86103 15.6944 4.99987 15.8332 5.16104 15.9201C5.35483 16.0246 5.57278 16.076 5.79283 16.0693C5.97585 16.0636 6.16214 16.0015 6.5347 15.8773L6.97385 15.7309C7.50328 15.5545 8.0785 15.8213 8.28576 16.3394C8.42995 16.6999 8.50204 16.8801 8.61219 17.0207C8.77342 17.2266 8.99514 17.3767 9.24616 17.45C9.41765 17.5 9.61177 17.5 10 17.5C10.3882 17.5 10.5823 17.5 10.7538 17.45C11.0049 17.3767 11.2266 17.2266 11.3878 17.0207C11.498 16.8801 11.5701 16.6999 11.7142 16.3394C11.9215 15.8213 12.4967 15.5545 13.0261 15.731L13.465 15.8774C13.8375 16.0016 14.0238 16.0637 14.2068 16.0693C14.4269 16.0761 14.6448 16.0247 14.8386 15.9202C14.9998 15.8333 15.1386 15.6944 15.4163 15.4167C15.694 15.139 15.8329 15.0002 15.9198 14.839C16.0242 14.6452 16.0757 14.4273 16.0689 14.2072C16.0633 14.0242 16.0012 13.8379 15.877 13.4654L15.6978 12.9278C15.5397 12.4537 15.7787 11.9385 16.2428 11.7529C16.6967 11.5713 16.9237 11.4805 17.0906 11.3288C17.2382 11.1948 17.3515 11.0274 17.4211 10.8406C17.5 10.6293 17.5 10.3824 17.5 9.88855C17.5 9.47151 17.5 9.26299 17.4408 9.07747C17.3883 8.9133 17.3025 8.76174 17.1887 8.63232C17.0601 8.48607 16.8831 8.37984 16.529 8.16739L16.2974 8.02846C15.7898 7.7239 15.5783 7.09595 15.7981 6.54632C15.9385 6.19536 16.0087 6.01985 16.0267 5.84619C16.053 5.59105 16.0003 5.33397 15.8755 5.10984C15.7906 4.95729 15.657 4.82364 15.3897 4.55635C15.1382 4.30487 15.0124 4.17911 14.8688 4.09652C14.6578 3.9752 14.416 3.91811 14.173 3.93227C14.0076 3.94191 13.8389 3.99814 13.5015 4.11061L13.0262 4.26906C12.4967 4.44554 11.9215 4.17875 11.7142 3.6606C11.5701 3.30013 11.498 3.1199 11.3878 2.97926C11.2266 2.7734 11.0049 2.62328 10.7538 2.55004Z"
          stroke="currentColor" stroke-width="1.6" stroke-linecap="round" stroke-linejoin="round"/>
</svg>
