<svg xmlns="http://www.w3.org/2000/svg" width="16" height="16" viewBox="0 0 16 16" fill="none">
    <path d="M6.00033 8L7.33366 9.33333L10.0003 6.66667M13.3337 8C13.3337 10.9741 9.69369 13.1292 8.42794 13.7887C8.29104 13.86 8.22258 13.8956 8.12763 13.9141C8.05366 13.9285 7.94699 13.9285 7.87302 13.9141C7.77807 13.8956 7.70961 13.86 7.57271 13.7887C6.30696 13.1292 2.66699 10.9741 2.66699 8V5.4784C2.66699 4.94539 2.66699 4.67889 2.75417 4.4498C2.83118 4.24743 2.95631 4.06685 3.11876 3.92369C3.30266 3.76163 3.55219 3.66805 4.05126 3.4809L7.62579 2.14045C7.76439 2.08848 7.83369 2.06249 7.90498 2.05219C7.96822 2.04305 8.03243 2.04305 8.09567 2.05219C8.16696 2.06249 8.23626 2.08848 8.37486 2.14045L11.9494 3.4809C12.4485 3.66805 12.698 3.76163 12.8819 3.92369C13.0443 4.06685 13.1695 4.24743 13.2465 4.4498C13.3337 4.67889 13.3337 4.94539 13.3337 5.4784V8Z" stroke="currentColor" stroke-opacity="1" stroke-width="1.5" stroke-linecap="round" stroke-linejoin="round"/>
</svg>
