<svg xmlns="http://www.w3.org/2000/svg" width="20" height="20" viewBox="0 0 20 20" fill="none">
    <path d="M17.5 16.6666L17.1422 17.3822C17.3902 17.5062 17.6847 17.4929 17.9206 17.3472C18.1564 17.2014 18.3 16.9439 18.3 16.6666H17.5ZM14.0043 15.0161L14.1152 14.2238L14.0043 15.0161ZM14.7297 15.2815L14.372 15.997L14.7297 15.2815ZM14.3047 15.087L14.0496 15.8452L14.3047 15.087ZM2.68166 14.09L3.39446 13.7268L2.68166 14.09ZM3.41002 14.8183L3.77321 14.1055L3.41002 14.8183ZM16.59 3.51497L16.2268 4.22777L16.59 3.51497ZM17.3183 4.24333L16.6055 4.60652L17.3183 4.24333ZM3.41002 3.51497L3.77321 4.22777L3.41002 3.51497ZM2.68166 4.24333L3.39446 4.60652L2.68166 4.24333ZM9.40705 9.22596C9.09463 9.53838 9.09463 10.0449 9.40705 10.3573C9.71947 10.6698 10.226 10.6698 10.5384 10.3573L9.40705 9.22596ZM7.58381 7.09224C7.47368 7.52012 7.73127 7.95627 8.15915 8.0664C8.58704 8.17653 9.02318 7.91894 9.13331 7.49105L7.58381 7.09224ZM9.97233 11.4916C9.5305 11.4916 9.17233 11.8498 9.17233 12.2916C9.17233 12.7335 9.5305 13.0916 9.97233 13.0916V11.4916ZM9.98066 13.0916C10.4225 13.0916 10.7807 12.7335 10.7807 12.2916C10.7807 11.8498 10.4225 11.4916 9.98066 11.4916V13.0916ZM5.16667 4.13331H14.8333V2.53331H5.16667V4.13331ZM3.3 12.3333V5.99998H1.7V12.3333H3.3ZM13.5372 14.2H5.16667V15.8H13.5372V14.2ZM17.8578 15.9511L15.0875 14.566L14.372 15.997L17.1422 17.3822L17.8578 15.9511ZM13.5372 15.8C13.7933 15.8 13.8462 15.8017 13.8934 15.8083L14.1152 14.2238C13.9324 14.1982 13.7506 14.2 13.5372 14.2V15.8ZM15.0875 14.566C14.8966 14.4705 14.7347 14.3876 14.5598 14.3288L14.0496 15.8452C14.0947 15.8604 14.1429 15.8825 14.372 15.997L15.0875 14.566ZM13.8934 15.8083C13.9465 15.8158 13.9988 15.8281 14.0496 15.8452L14.5598 14.3288C14.4152 14.2801 14.2663 14.245 14.1152 14.2238L13.8934 15.8083ZM1.7 12.3333C1.7 12.7868 1.69938 13.1751 1.72536 13.4931C1.75211 13.8205 1.81098 14.1433 1.96885 14.4532L3.39446 13.7268C3.37067 13.6801 3.33872 13.5913 3.32005 13.3628C3.30062 13.125 3.3 12.8132 3.3 12.3333H1.7ZM5.16667 14.2C4.68676 14.2 4.37494 14.1994 4.13715 14.1799C3.9087 14.1613 3.81989 14.1293 3.77321 14.1055L3.04682 15.5311C3.35666 15.689 3.67946 15.7479 4.00686 15.7746C4.32491 15.8006 4.71316 15.8 5.16667 15.8V14.2ZM1.96885 14.4532C2.20534 14.9173 2.58269 15.2946 3.04682 15.5311L3.77321 14.1055C3.61013 14.0224 3.47755 13.8898 3.39446 13.7268L1.96885 14.4532ZM14.8333 4.13331C15.3132 4.13331 15.6251 4.13394 15.8629 4.15336C16.0913 4.17203 16.1801 4.20399 16.2268 4.22777L16.9532 2.80216C16.6433 2.6443 16.3205 2.58543 15.9931 2.55868C15.6751 2.53269 15.2868 2.53331 14.8333 2.53331V4.13331ZM18.3 5.99998C18.3 5.54647 18.3006 5.15822 18.2746 4.84017C18.2479 4.51278 18.189 4.18997 18.0311 3.88014L16.6055 4.60652C16.6293 4.65321 16.6613 4.74201 16.6799 4.97046C16.6994 5.20825 16.7 5.52007 16.7 5.99998H18.3ZM16.2268 4.22777C16.3899 4.31086 16.5224 4.44345 16.6055 4.60652L18.0311 3.88014C17.7947 3.416 17.4173 3.03865 16.9532 2.80216L16.2268 4.22777ZM5.16667 2.53331C4.71316 2.53331 4.32491 2.53269 4.00686 2.55868C3.67946 2.58543 3.35666 2.6443 3.04682 2.80216L3.77321 4.22777C3.81989 4.20399 3.9087 4.17203 4.13715 4.15336C4.37494 4.13394 4.68676 4.13331 5.16667 4.13331V2.53331ZM3.3 5.99998C3.3 5.52007 3.30062 5.20825 3.32005 4.97046C3.33872 4.74201 3.37067 4.65321 3.39446 4.60652L1.96885 3.88014C1.81098 4.18997 1.75211 4.51278 1.72536 4.84017C1.69938 5.15822 1.7 5.54647 1.7 5.99998H3.3ZM3.04682 2.80216C2.58269 3.03865 2.20534 3.416 1.96885 3.88014L3.39446 4.60652C3.47755 4.44345 3.61013 4.31086 3.77321 4.22777L3.04682 2.80216ZM10.8394 7.70831C10.8394 7.86526 10.7947 7.98344 10.563 8.20703C10.4338 8.33175 10.2817 8.45547 10.0731 8.62897C9.87465 8.79406 9.64271 8.99031 9.40705 9.22596L10.5384 10.3573C10.7194 10.1763 10.9042 10.0189 11.0963 9.85904C11.2784 9.70761 11.4909 9.53518 11.6741 9.35828C12.0675 8.97866 12.4394 8.47184 12.4394 7.70831H10.8394ZM9.97272 6.84165C10.4514 6.84165 10.8394 7.22967 10.8394 7.70831H12.4394C12.4394 6.34601 11.335 5.24165 9.97272 5.24165V6.84165ZM9.13331 7.49105C9.22956 7.11708 9.56998 6.84165 9.97272 6.84165V5.24165C8.82226 5.24165 7.85759 6.02852 7.58381 7.09224L9.13331 7.49105ZM9.97233 13.0916H9.98066V11.4916H9.97233V13.0916ZM16.7 5.99998V16.6666H18.3V5.99998H16.7Z"
          fill="currentColor"/>
</svg>
