<svg xmlns="http://www.w3.org/2000/svg" width="20" height="20" viewBox="0 0 20 20" fill="none">
    <path d="M6.66536 6.66683H10.832M6.66536 10.0002H13.332M6.66536 13.3335H9.16536M5.9987 3.3335H13.9987C14.9321 3.3335 15.3988 3.3335 15.7553 3.51515C16.069 3.67494 16.3239 3.92991 16.4837 4.24351C16.6654 4.60003 16.6654 5.06674 16.6654 6.00016V14.0002C16.6654 14.9336 16.6654 15.4003 16.4837 15.7568C16.3239 16.0704 16.069 16.3254 15.7553 16.4852C15.3988 16.6668 14.9321 16.6668 13.9987 16.6668H5.9987C5.06528 16.6668 4.59857 16.6668 4.24205 16.4852C3.92844 16.3254 3.67348 16.0704 3.51369 15.7568C3.33203 15.4003 3.33203 14.9336 3.33203 14.0002V6.00016C3.33203 5.06674 3.33203 4.60003 3.51369 4.24351C3.67348 3.92991 3.92844 3.67494 4.24205 3.51515C4.59857 3.3335 5.06528 3.3335 5.9987 3.3335Z"
          stroke="currentColor" stroke-width="1.5" stroke-linecap="round" stroke-linejoin="round"/>
</svg>
