<svg width="24" height="24" viewBox="0 0 24 24" fill="none" xmlns="http://www.w3.org/2000/svg">
    <path d="M20.9844 12.53C21.0942 10.6693 20.6236 8.82035 19.6375 7.23856C18.6514 5.65678 17.1986 4.42018 15.4795 3.69954C13.7605 2.9789 11.8601 2.80978 10.0409 3.21554C8.2216 3.62129 6.57319 4.5819 5.32329 5.9647C4.07339 7.3475 3.28367 9.08426 3.06319 10.9351C2.84271 12.786 3.20235 14.6597 4.09244 16.2974C4.98253 17.9351 6.35915 19.2561 8.0322 20.0779C9.70524 20.8996 11.5922 21.1817 13.4324 20.885M12.0004 7V12L15.0004 15M19.0004 16L17.0004 19H21.0004L19.0004 22" stroke="currentColor" stroke-width="1.5" stroke-linecap="round" stroke-linejoin="round"/>
</svg>
