<svg width="20" height="20" viewBox="0 0 20 20" fill="none" xmlns="http://www.w3.org/2000/svg">
    <path d="M3.33325 7.91667H16.6666M3.33325 12.0833H16.6666M7.49992 3.75V16.25M5.99992 16.25H13.9999C14.9333 16.25 15.4001 16.25 15.7566 16.0683C16.0702 15.9086 16.3251 15.6536 16.4849 15.34C16.6666 14.9835 16.6666 14.5168 16.6666 13.5833V6.41667C16.6666 5.48325 16.6666 5.01654 16.4849 4.66002C16.3251 4.34641 16.0702 4.09144 15.7566 3.93166C15.4001 3.75 14.9333 3.75 13.9999 3.75H5.99992C5.0665 3.75 4.59979 3.75 4.24327 3.93166C3.92966 4.09144 3.6747 4.34641 3.51491 4.66002C3.33325 5.01654 3.33325 5.48325 3.33325 6.41667V13.5833C3.33325 14.5168 3.33325 14.9835 3.51491 15.34C3.6747 15.6536 3.92966 15.9086 4.24327 16.0683C4.59979 16.25 5.0665 16.25 5.99992 16.25Z" stroke="currentColor" stroke-width="1.6"/>
</svg>
