<svg xmlns="http://www.w3.org/2000/svg" width="20" height="20" viewBox="0 0 20 20" fill="none">
    <path d="M9.16667 15C9.16667 15.7766 9.16667 16.1649 9.29353 16.4711C9.46269 16.8795 9.78715 17.204 10.1955 17.3731C10.5018 17.5 10.8901 17.5 11.6667 17.5H15C15.7766 17.5 16.1649 17.5 16.4711 17.3731C16.8795 17.204 17.204 16.8795 17.3731 16.4711C17.5 16.1649 17.5 15.7766 17.5 15C17.5 14.2234 17.5 13.8351 17.3731 13.5289C17.204 13.1205 16.8795 12.796 16.4711 12.6269C16.1649 12.5 15.7766 12.5 15 12.5H11.6667C10.8901 12.5 10.5018 12.5 10.1955 12.6269C9.78715 12.796 9.46269 13.1205 9.29353 13.5289C9.16667 13.8351 9.16667 14.2234 9.16667 15ZM9.16667 15H7.66667C6.73325 15 6.26654 15 5.91002 14.8183C5.59641 14.6586 5.34144 14.4036 5.18166 14.09C5 13.7335 5 13.2668 5 12.3333V7.5M5 7.5H15C15.7766 7.5 16.1649 7.5 16.4711 7.37313C16.8795 7.20398 17.204 6.87952 17.3731 6.47114C17.5 6.16485 17.5 5.77657 17.5 5C17.5 4.22343 17.5 3.83515 17.3731 3.52886C17.204 3.12048 16.8795 2.79602 16.4711 2.62687C16.1649 2.5 15.7766 2.5 15 2.5H5C4.22343 2.5 3.83515 2.5 3.52886 2.62687C3.12048 2.79602 2.79602 3.12048 2.62687 3.52886C2.5 3.83515 2.5 4.22343 2.5 5C2.5 5.77657 2.5 6.16485 2.62687 6.47114C2.79602 6.87952 3.12048 7.20398 3.52886 7.37313C3.83515 7.5 4.22343 7.5 5 7.5Z"
          stroke="currentColor" stroke-width="1.6" stroke-linecap="round" stroke-linejoin="round"/>
</svg>
