<svg xmlns="http://www.w3.org/2000/svg" width="56" height="56" viewBox="0 0 56 56" fill="none">
    <path fill-rule="evenodd" clip-rule="evenodd"
          d="M25.1038 11.4765L8.84726 39.7105C8.55361 40.2204 8.39898 40.7988 8.39893 41.3876C8.39887 41.9764 8.55339 42.5548 8.84695 43.0647C9.1405 43.5747 9.56275 43.9981 10.0712 44.2925C10.5797 44.5869 11.1565 44.7418 11.7437 44.7418H44.2542C44.8413 44.7418 45.4181 44.5869 45.9266 44.2925C46.4351 43.9981 46.8573 43.5747 47.1509 43.0647C47.4445 42.5548 47.599 41.9764 47.5989 41.3876C47.5989 40.7988 47.4442 40.2204 47.1506 39.7105L30.8958 11.4765C30.6023 10.9667 30.1801 10.5434 29.6718 10.2491C29.1634 9.95475 28.5868 9.7998 27.9998 9.7998C27.4128 9.7998 26.8362 9.95475 26.3278 10.2491C25.8194 10.5434 25.3973 10.9667 25.1038 11.4765ZM28.2124 20.1845H27.7883C26.7443 20.1845 25.8979 21.0332 25.8979 22.0802V31.1412C25.8979 32.1882 26.7443 33.0369 27.7883 33.0369H28.2124C29.2564 33.0369 30.1028 32.1882 30.1028 31.1412V22.0802C30.1028 21.0332 29.2564 20.1845 28.2124 20.1845ZM30.1027 38.115C30.1027 39.2793 29.1614 40.2233 28.0003 40.2233C26.8391 40.2233 25.8979 39.2793 25.8979 38.115C25.8979 36.9506 26.8391 36.0066 28.0003 36.0066C29.1614 36.0066 30.1027 36.9506 30.1027 38.115Z"
          fill="currentColor"/>
</svg>
