<svg xmlns="http://www.w3.org/2000/svg" width="20" height="20" viewBox="0 0 20 20" fill="none">
    <path d="M15.0026 5L14.3352 15.0107C14.2768 15.8875 14.2475 16.3259 14.0582 16.6583C13.8914 16.951 13.64 17.1863 13.3369 17.3332C12.9926 17.5 12.5532 17.5 11.6745 17.5H8.33075C7.452 17.5 7.01262 17.5 6.66835 17.3332C6.36525 17.1863 6.11376 16.951 5.94704 16.6583C5.75767 16.3259 5.72844 15.8875 5.66999 15.0107L5.0026 5M3.33594 5H16.6693M13.3359 5L13.1104 4.32339C12.8918 3.66771 12.7826 3.33987 12.5799 3.09748C12.4009 2.88345 12.171 2.71777 11.9113 2.61565C11.6173 2.5 11.2717 2.5 10.5806 2.5H9.42463C8.73348 2.5 8.3879 2.5 8.09386 2.61565C7.8342 2.71777 7.60434 2.88345 7.42534 3.09748C7.22265 3.33987 7.11337 3.66771 6.89481 4.32339L6.66927 5M11.6693 8.33333V14.1667M8.33594 8.33333V14.1667"
          stroke="currentColor" stroke-width="1.2" stroke-linecap="round" stroke-linejoin="round"/>
</svg>
