<svg xmlns="http://www.w3.org/2000/svg" width="20" height="20" viewBox="0 0 20 20" fill="none">
    <path d="M15.4193 15C15.4193 15.9205 14.6731 16.6667 13.7526 16.6667C12.8321 16.6667 12.0859 15.9205 12.0859 15M15.4193 15C15.4193 14.0795 14.6731 13.3333 13.7526 13.3333C12.8321 13.3333 12.0859 14.0795 12.0859 15M15.4193 15H17.9193M12.0859 15H11.2526M7.08594 15C7.08594 15.9205 6.33975 16.6667 5.41927 16.6667C4.4988 16.6667 3.7526 15.9205 3.7526 15M7.08594 15C7.08594 14.0795 6.33975 13.3333 5.41927 13.3333C4.4988 13.3333 3.7526 14.0795 3.7526 15M7.08594 15H11.2526M3.7526 15C2.83213 15 2.08594 14.2538 2.08594 13.3333V6C2.08594 5.06658 2.08594 4.59987 2.26759 4.24335C2.42738 3.92974 2.68235 3.67478 2.99595 3.51499C3.35247 3.33333 3.81918 3.33333 4.7526 3.33333H8.58594C9.51936 3.33333 9.98607 3.33333 10.3426 3.51499C10.6562 3.67478 10.9112 3.92974 11.0709 4.24335C11.2526 4.59987 11.2526 5.06658 11.2526 6V15M11.2526 15V6.66667H14.5859L17.0859 10M17.0859 10V15M17.0859 10H11.2526"
          stroke="currentColor" stroke-width="1.6" stroke-linecap="round" stroke-linejoin="round"/>
</svg>
