<svg xmlns="http://www.w3.org/2000/svg" width="20" height="20" viewBox="0 0 20 20" fill="none">
    <path d="M10.8333 11.6674L5.83333 11.6667M10.8333 11.6674L8.75 9.58334M10.8333 11.6674L8.75 13.75M17.5 10V9.33334C17.5 8.39992 17.5 7.93321 17.3183 7.57669C17.1586 7.26309 16.9036 7.00812 16.59 6.84833C16.2335 6.66668 15.7668 6.66668 14.8333 6.66668H2.5M17.5 10V13.3333M17.5 10H15.8333C14.9129 10 14.1667 10.7462 14.1667 11.6667C14.1667 12.5872 14.9129 13.3333 15.8333 13.3333H17.5M17.5 13.3333V14C17.5 14.9334 17.5 15.4001 17.3183 15.7567C17.1586 16.0703 16.9036 16.3252 16.59 16.485C16.2335 16.6667 15.7668 16.6667 14.8333 16.6667H5.16667C4.23325 16.6667 3.76654 16.6667 3.41002 16.485C3.09641 16.3252 2.84144 16.0703 2.68166 15.7567C2.5 15.4001 2.5 14.9334 2.5 14V6.66668M15 6.66668V6.00001C15 5.06659 15 4.59988 14.8183 4.24336C14.6586 3.92976 14.4036 3.67479 14.09 3.515C13.7335 3.33334 13.2668 3.33334 12.3333 3.33334H5.16667C4.23325 3.33334 3.76654 3.33334 3.41002 3.515C3.09641 3.67479 2.84144 3.92976 2.68166 4.24336C2.5 4.59988 2.5 5.06659 2.5 6.00001V6.66668"
          stroke="currentColor" stroke-width="1.5" stroke-linecap="round" stroke-linejoin="round"/>
</svg>
