<svg xmlns="http://www.w3.org/2000/svg" width="20" height="20" viewBox="0 0 20 20" fill="none">
    <path d="M15 6.66665V5.99998C15 5.06656 15 4.59985 14.8183 4.24333C14.6586 3.92973 14.4036 3.67476 14.09 3.51497C13.7335 3.33331 13.2668 3.33331 12.3333 3.33331H5.16667C4.23325 3.33331 3.76654 3.33331 3.41002 3.51497C3.09641 3.67476 2.84144 3.92973 2.68166 4.24333C2.5 4.59985 2.5 5.06656 2.5 5.99998V6.66665M17.5 9.99998H15.8333C14.9129 9.99998 14.1667 10.7462 14.1667 11.6666C14.1667 12.5871 14.9129 13.3333 15.8333 13.3333H17.5M2.5 6.66665V14C2.5 14.9334 2.5 15.4001 2.68166 15.7566C2.84144 16.0702 3.09641 16.3252 3.41002 16.485C3.76654 16.6666 4.23325 16.6666 5.16667 16.6666H14.8333C15.7668 16.6666 16.2335 16.6666 16.59 16.485C16.9036 16.3252 17.1586 16.0702 17.3183 15.7566C17.5 15.4001 17.5 14.9334 17.5 14V9.33331C17.5 8.39989 17.5 7.93318 17.3183 7.57666C17.1586 7.26306 16.9036 7.00809 16.59 6.8483C16.2335 6.66665 15.7668 6.66665 14.8333 6.66665H2.5Z"
          stroke="currentColor" stroke-width="1.6" stroke-linecap="round" stroke-linejoin="round"/>
</svg>
