<svg xmlns="http://www.w3.org/2000/svg" width="56" height="56" viewBox="0 0 56 56" fill="none">
    <path fill-rule="evenodd" clip-rule="evenodd"
          d="M25.1033 11.4765L8.84677 39.7105C8.55312 40.2204 8.39849 40.7988 8.39844 41.3876C8.39838 41.9764 8.5529 42.5548 8.84646 43.0647C9.14001 43.5747 9.56226 43.9981 10.0708 44.2925C10.5792 44.5869 11.1561 44.7418 11.7432 44.7418H44.2537C44.8408 44.7418 45.4176 44.5869 45.9261 44.2925C46.4346 43.9981 46.8569 43.5747 47.1504 43.0647C47.444 42.5548 47.5985 41.9764 47.5984 41.3876C47.5984 40.7988 47.4438 40.2204 47.1501 39.7105L30.8953 11.4765C30.6018 10.9667 30.1797 10.5434 29.6713 10.2491C29.163 9.95475 28.5863 9.7998 27.9993 9.7998C27.4123 9.7998 26.8357 9.95475 26.3273 10.2491C25.819 10.5434 25.3968 10.9667 25.1033 11.4765ZM28.2119 20.1845H27.7878C26.7438 20.1845 25.8975 21.0332 25.8975 22.0802V31.1412C25.8975 32.1882 26.7438 33.0369 27.7878 33.0369H28.2119C29.2559 33.0369 30.1023 32.1882 30.1023 31.1412V22.0802C30.1023 21.0332 29.2559 20.1845 28.2119 20.1845ZM30.1022 38.115C30.1022 39.2793 29.1609 40.2233 27.9998 40.2233C26.8386 40.2233 25.8974 39.2793 25.8974 38.115C25.8974 36.9506 26.8386 36.0066 27.9998 36.0066C29.1609 36.0066 30.1022 36.9506 30.1022 38.115Z"
          fill="currentColor"/>
</svg>
