<svg width="20" height="20" viewBox="0 0 20 20" fill="none" xmlns="http://www.w3.org/2000/svg">
    <path d="M10 6.66667L10.8333 5M5.9165 5.83425C5.86196 6.10322 5.83333 6.3816 5.83333 6.66667C5.83333 8.96785 7.69881 10.8333 10 10.8333C12.3012 10.8333 14.1667 8.96785 14.1667 6.66667C14.1667 6.3816 14.138 6.10322 14.0835 5.83425M5.9165 5.83425C6.3022 3.93192 7.98388 2.5 10 2.5C12.0161 2.5 13.6978 3.93192 14.0835 5.83425M5.9165 5.83425C4.89398 5.83944 4.31975 5.87412 3.86502 6.10582C3.39462 6.3455 3.01217 6.72795 2.77248 7.19836C2.5 7.73314 2.5 8.4332 2.5 9.83333V13.5C2.5 14.9001 2.5 15.6002 2.77248 16.135C3.01217 16.6054 3.39462 16.9878 3.86502 17.2275C4.3998 17.5 5.09987 17.5 6.5 17.5H13.5C14.9001 17.5 15.6002 17.5 16.135 17.2275C16.6054 16.9878 16.9878 16.6054 17.2275 16.135C17.5 15.6002 17.5 14.9001 17.5 13.5V9.83333C17.5 8.4332 17.5 7.73314 17.2275 7.19836C16.9878 6.72795 16.6054 6.3455 16.135 6.10582C15.6802 5.87412 15.106 5.83944 14.0835 5.83425"
          stroke="currentColor" stroke-width="1.5" stroke-linecap="round" stroke-linejoin="round"/>
</svg>