<svg width="928" height="528" viewBox="0 0 928 528" fill="none" xmlns="http://www.w3.org/2000/svg">
    <path d="M349.645 300.028H288V281.806L341.116 200H372.326V280.061H389.579V300.028H372.326V329.3H349.645V300.028ZM310.293 280.061H349.645V220.355L310.293 280.061Z"
          fill="#29b7cd"/>
    <path d="M599.977 300.028H538.332V281.806L591.448 200H622.658V280.061H639.911V300.028H622.658V329.3H599.977V300.028ZM560.625 280.061H599.977V220.355L560.625 280.061Z"
          fill="#29b7cd"/>
    <path d="M413.578 263.906C413.578 252.711 415.402 242.208 419.05 232.396C422.698 222.459 428.295 214.409 435.842 208.245C443.389 202.082 452.761 199 463.955 199C475.15 199 484.522 202.082 492.069 208.245C499.616 214.409 505.213 222.459 508.861 232.396C512.509 242.208 514.333 252.711 514.333 263.906C514.333 275.101 512.509 285.667 508.861 295.604C505.213 305.415 499.616 313.465 492.069 319.755C484.522 325.918 475.15 329 463.955 329C452.761 329 443.389 325.918 435.842 319.755C428.295 313.465 422.698 305.415 419.05 295.604C415.402 285.667 413.578 275.101 413.578 263.906ZM491.88 263.906C491.88 250.698 489.616 239.881 485.088 231.453C480.685 222.899 473.641 218.623 463.955 218.623C454.27 218.623 447.163 222.899 442.635 231.453C438.232 239.881 436.031 250.698 436.031 263.906C436.031 277.113 438.295 287.994 442.823 296.547C447.352 305.101 454.396 309.377 463.955 309.377C473.515 309.377 480.559 305.101 485.088 296.547C489.616 287.994 491.88 277.113 491.88 263.906Z"
          fill="#1d7488"/>
<defs>
<linearGradient id="paint0_linear_7432_60933" x1="464.5" y1="0" x2="464.5" y2="528" gradientUnits="userSpaceOnUse">
    <stop stop-color="#29b7cd"/>
    <stop offset="0.995252" stop-color="#29b7cd" stop-opacity="0.1"/>
</linearGradient>
</defs>
</svg>
