<svg width="928" height="529" viewBox="0 0 928 529" fill="none" xmlns="http://www.w3.org/2000/svg">
<path opacity="0.4" d="M28.6865 1.88379C292.178 263.458 447.213 323.427 481.414 336.083L481.895 335.22C466.362 323.102 442.132 303.977 419.922 285.985C398.394 268.547 378.794 252.198 370.834 244.317L370.101 243.581C360.873 234.191 351.58 215.326 344.597 188.48C337.619 161.655 332.963 126.922 332.963 85.8594C332.963 81.4524 333.205 77.8852 333.812 75.1396C334.421 72.3882 335.38 70.5348 336.751 69.4648C338.107 68.4071 339.961 68.0432 342.536 68.4854C345.119 68.929 348.367 70.1746 352.429 72.2588C360.549 76.4259 371.784 83.8691 387.225 94.6357C400.741 104.06 417.424 115.992 438.045 130.484L447.126 136.852C496.856 171.643 544.257 198.529 582.724 217.508C621.179 236.481 650.737 247.567 664.776 250.742L665.167 249.841C632.542 227.708 612.419 211.944 599.661 194.241C587.319 177.114 581.844 158.131 578.692 129.688L578.395 126.906C576.842 111.9 576.262 100.464 576.504 91.8506C576.746 83.2256 577.812 77.4793 579.516 73.8193C580.364 71.9963 581.363 70.7078 582.482 69.835C583.598 68.9646 584.857 68.4886 586.256 68.3252C589.061 67.9977 592.425 68.9245 596.266 70.4814C701.475 168.092 763.559 215.539 899.156 315.902C840.077 308.211 776.591 291.844 752.018 284.551L751.253 284.324L751.382 285.111C754.488 304.074 758.836 333.781 761.786 361.274C763.261 375.021 764.386 388.209 764.832 399.219C765.265 409.904 765.055 418.483 763.929 423.537L763.817 424.015C763.097 426.948 760.898 428.872 757.244 429.896C753.569 430.925 748.488 431.02 742.175 430.307C729.558 428.88 712.22 424.25 691.834 417.73C651.049 404.687 598.297 384.158 546.99 366.755L546.329 366.53V367.229C546.329 367.881 546.524 369.068 546.848 370.666C547.175 372.284 547.647 374.374 548.224 376.862C549.378 381.843 550.953 388.432 552.651 396.086C556.048 411.392 559.926 430.932 561.865 450.267C563.805 469.614 563.797 488.699 559.457 503.125C557.289 510.332 554.048 516.345 549.46 520.65C544.88 524.948 538.927 527.573 531.27 527.963C523.609 528.352 512.089 525.668 497.641 520.532C483.211 515.403 465.923 507.854 446.757 498.571C408.426 480.006 362.614 454.525 317.184 427.656C227.731 374.751 139.812 316.502 113.411 295.12L112.201 294.13C87.4123 273.634 74.2593 253.154 66.5234 233.474C59.2638 215.005 56.7698 197.239 53.9219 180.736L53.3467 177.453C48.4285 149.927 34.9853 49.9054 28.6865 1.88379Z" stroke="url(#paint0_linear_31_304)"/>
    <path d="M350.659 341.42C340.97 341.42 332.332 339.637 324.745 336.072C317.204 332.507 311.217 327.594 306.784 321.333C302.351 315.072 300.043 307.896 299.86 299.807H328.653C328.973 305.246 331.258 309.656 335.508 313.038C339.759 316.42 344.809 318.111 350.659 318.111C355.32 318.111 359.434 317.083 362.998 315.026C366.609 312.924 369.42 310.022 371.431 306.32C373.487 302.572 374.516 298.276 374.516 293.431C374.516 288.496 373.464 284.154 371.362 280.406C369.305 276.659 366.449 273.734 362.793 271.631C359.137 269.529 354.955 268.455 350.247 268.409C346.134 268.409 342.135 269.255 338.25 270.946C334.411 272.637 331.418 274.945 329.27 277.87L302.876 273.139L309.526 199.101H395.356V223.369H334L330.367 258.537H331.189C333.657 255.064 337.382 252.185 342.364 249.9C347.345 247.614 352.921 246.472 359.091 246.472C367.546 246.472 375.087 248.46 381.714 252.436C388.341 256.412 393.574 261.874 397.413 268.821C401.252 275.722 403.148 283.674 403.103 292.677C403.148 302.138 400.955 310.547 396.521 317.905C392.134 325.218 385.987 330.976 378.08 335.181C370.219 339.34 361.079 341.42 350.659 341.42ZM611.765 342.585C599.974 342.539 589.828 339.637 581.327 333.879C572.872 328.12 566.359 319.779 561.789 308.856C557.264 297.933 555.025 284.794 555.07 269.437C555.07 254.127 557.333 241.079 561.857 230.293C566.428 219.507 572.94 211.303 581.395 205.682C589.896 200.015 600.019 197.181 611.765 197.181C623.511 197.181 633.611 200.015 642.066 205.682C650.567 211.349 657.102 219.576 661.672 230.362C666.243 241.102 668.505 254.127 668.459 269.437C668.459 284.839 666.174 298.002 661.604 308.925C657.079 319.848 650.589 328.189 642.134 333.947C633.679 339.706 623.556 342.585 611.765 342.585ZM611.765 317.974C619.809 317.974 626.23 313.929 631.029 305.84C635.827 297.75 638.204 285.616 638.158 269.437C638.158 258.789 637.061 249.922 634.868 242.838C632.72 235.754 629.658 230.43 625.681 226.865C621.751 223.3 617.112 221.518 611.765 221.518C603.767 221.518 597.368 225.517 592.57 233.515C587.771 241.513 585.349 253.487 585.303 269.437C585.303 280.223 586.377 289.227 588.525 296.448C590.719 303.623 593.804 309.016 597.78 312.627C601.756 316.192 606.418 317.974 611.765 317.974Z"
          fill="#29b7cd"/>
    <path d="M478.855 342.585C467.064 342.539 456.918 339.637 448.417 333.879C439.962 328.12 433.449 319.779 428.879 308.856C424.355 297.933 422.115 284.794 422.161 269.437C422.161 254.127 424.423 241.079 428.948 230.293C433.518 219.507 440.031 211.303 448.486 205.682C456.986 200.015 467.11 197.181 478.855 197.181C490.601 197.181 500.701 200.015 509.156 205.682C517.657 211.349 524.192 219.576 528.763 230.362C533.333 241.102 535.595 254.127 535.55 269.437C535.55 284.839 533.264 298.002 528.694 308.925C524.17 319.848 517.68 328.189 509.225 333.947C500.77 339.706 490.647 342.585 478.855 342.585ZM478.855 317.974C486.899 317.974 493.32 313.929 498.119 305.84C502.918 297.75 505.294 285.616 505.249 269.437C505.249 258.789 504.152 249.922 501.958 242.838C499.81 235.754 496.748 230.43 492.772 226.865C488.841 223.3 484.202 221.518 478.855 221.518C470.857 221.518 464.459 225.517 459.66 233.515C454.861 241.513 452.439 253.487 452.393 269.437C452.393 280.223 453.467 289.227 455.615 296.448C457.809 303.623 460.894 309.016 464.87 312.627C468.846 316.192 473.508 317.974 478.855 317.974Z"
          fill="#1d7488"/>
</svg>
