<svg xmlns="http://www.w3.org/2000/svg" width="2000" height="2000" viewBox="0 0 2000 2000" version="1.1">
	<path fill-opacity="0.263" d="M 484.750 265.761 L 442 266.021 442 270.328 L 442 274.635 447.474 276.360 C 450.485 277.310, 454.275 279.202, 455.897 280.567 C 459.928 283.959, 464 292.454, 464 297.473 C 464 300.594, 464.693 302.313, 466.944 304.777 C 468.563 306.550, 470.525 308, 471.304 308 C 472.247 308, 472.915 309.590, 473.300 312.750 C 474.472 322.376, 477.112 328.080, 483.583 334.966 C 491.192 343.064, 493 346.516, 493 352.950 C 493 356.398, 493.408 358, 494.286 358 C 495.587 358, 495.987 359.854, 495.955 365.750 L 495.937 369 1008.544 369 L 1521.151 369 1520.932 366.250 C 1520.811 364.738, 1521.042 362.734, 1521.445 361.798 C 1521.848 360.862, 1521.886 359.624, 1521.530 359.048 C 1521.173 358.472, 1521.584 358, 1522.441 358 C 1523.624 358, 1524 356.906, 1524 353.468 C 1524 346.932, 1526.036 342.948, 1533.360 335.149 C 1538.728 329.433, 1540.201 327.088, 1541.922 321.517 C 1543.065 317.817, 1544 313.262, 1544 311.395 C 1544 308.851, 1544.431 308, 1545.720 308 C 1548.896 308, 1552.697 302.228, 1553.287 296.506 C 1554.300 286.694, 1560.261 279.281, 1569.474 276.377 L 1575 274.635 1575 270.317 L 1575 266 1563.750 265.996 C 1557.563 265.993, 1321.875 265.881, 1040 265.746 C 758.125 265.611, 508.262 265.617, 484.750 265.761" stroke="none" fill="black" fill-rule="evenodd"/>
	<path fill-opacity="0.053" d="M 448.241 276.423 C 450.298 277.157, 453.120 278.504, 454.511 279.415 C 457.175 281.161, 462.566 288.055, 463.453 290.851 C 463.915 292.308, 465.813 292.466, 479.738 292.205 C 499.417 291.838, 497.446 291.838, 504.346 292.197 C 507.561 292.363, 510.401 292.161, 510.656 291.747 C 510.912 291.333, 511.882 291.369, 512.811 291.828 C 514.023 292.425, 607.889 292.523, 625 291.944 C 625.825 291.916, 629.131 292.030, 632.346 292.197 C 635.561 292.363, 638.404 292.155, 638.665 291.734 C 638.925 291.312, 639.670 291.303, 640.319 291.712 C 641.774 292.630, 741.987 292.788, 741.421 291.872 C 741.197 291.510, 742.646 291.582, 744.640 292.032 C 746.695 292.495, 749.328 292.446, 750.717 291.918 C 752.065 291.405, 753.644 291.280, 754.226 291.640 C 755.680 292.538, 766.060 292.713, 766.594 291.847 C 766.832 291.462, 768.258 291.475, 769.763 291.875 C 771.733 292.398, 864.853 292.478, 881 291.970 C 881.825 291.944, 885.124 292.064, 888.331 292.235 C 891.538 292.407, 894.378 292.198, 894.642 291.771 C 894.905 291.344, 895.882 291.367, 896.811 291.823 C 898.022 292.417, 983.926 292.519, 1009 291.957 C 1009.825 291.938, 1013.124 292.064, 1016.331 292.235 C 1019.538 292.407, 1022.378 292.198, 1022.642 291.771 C 1022.905 291.344, 1023.882 291.370, 1024.811 291.829 C 1026.003 292.418, 1116.668 292.554, 1137.500 291.997 C 1138.050 291.983, 1141.124 292.101, 1144.331 292.259 C 1147.538 292.418, 1150.378 292.198, 1150.642 291.771 C 1150.905 291.344, 1151.882 291.368, 1152.811 291.824 C 1154.002 292.410, 1250.507 292.567, 1265.500 292.008 C 1266.050 291.988, 1269.124 292.101, 1272.331 292.259 C 1275.538 292.418, 1278.356 292.232, 1278.594 291.847 C 1278.832 291.462, 1280.258 291.484, 1281.763 291.894 C 1283.739 292.434, 1363.816 292.474, 1393 291.950 C 1393.825 291.935, 1397.124 292.064, 1400.331 292.235 C 1403.538 292.407, 1406.378 292.198, 1406.642 291.771 C 1406.905 291.344, 1407.882 291.372, 1408.811 291.833 C 1410.023 292.435, 1504.198 292.529, 1521 291.945 C 1521.825 291.917, 1525.131 292.030, 1528.346 292.197 C 1531.561 292.363, 1534.379 292.196, 1534.609 291.824 C 1534.839 291.452, 1536.258 291.471, 1537.763 291.866 C 1539.924 292.434, 1547.862 292.548, 1552.168 292.074 C 1552.536 292.033, 1553.846 290.313, 1555.080 288.250 C 1558.650 282.283, 1561.155 279.898, 1566.500 277.377 L 1571.500 275.020 1008 275.054 C 536.802 275.082, 445.113 275.306, 448.241 276.423 M 465.518 302.028 C 465.876 302.609, 477.055 303.094, 493.309 303.233 L 520.500 303.466 493.610 303.750 C 466.867 304.032, 466.730 304.044, 468.515 306.017 C 469.502 307.107, 470.867 308, 471.548 308 C 472.229 308, 473.043 308.671, 473.358 309.490 C 473.864 310.808, 535.859 310.980, 1008.965 310.975 C 1481.371 310.969, 1544 310.795, 1544 309.484 C 1544 308.668, 1544.605 308, 1545.345 308 C 1546.085 308, 1547.500 307.105, 1548.489 306.012 C 1550.281 304.032, 1550.139 304.023, 1512.394 303.750 L 1474.500 303.475 1513.250 303.238 C 1537.119 303.091, 1552 302.632, 1552 302.042 C 1552 301.433, 1354.255 301.079, 1008.459 301.070 C 656.928 301.062, 465.129 301.400, 465.518 302.028 M 527.206 303.741 C 530.895 303.932, 537.195 303.934, 541.206 303.743 C 545.218 303.553, 542.200 303.396, 534.500 303.395 C 526.800 303.393, 523.518 303.549, 527.206 303.741 M 573.820 303.749 C 587.745 303.906, 610.245 303.906, 623.820 303.749 C 637.394 303.592, 626 303.464, 598.500 303.464 C 571 303.464, 559.894 303.592, 573.820 303.749 M 655.206 303.741 C 658.895 303.932, 665.195 303.934, 669.206 303.743 C 673.218 303.553, 670.200 303.396, 662.500 303.395 C 654.800 303.393, 651.518 303.549, 655.206 303.741 M 684.296 303.744 C 688.583 303.932, 695.333 303.931, 699.296 303.742 C 703.258 303.552, 699.750 303.399, 691.500 303.400 C 683.250 303.401, 680.008 303.556, 684.296 303.744 M 723.685 303.748 C 733.138 303.912, 748.888 303.913, 758.685 303.749 C 768.483 303.585, 760.750 303.451, 741.500 303.450 C 722.250 303.450, 714.233 303.584, 723.685 303.748 M 783.206 303.741 C 786.895 303.932, 793.195 303.934, 797.206 303.743 C 801.218 303.553, 798.200 303.396, 790.500 303.395 C 782.800 303.393, 779.518 303.549, 783.206 303.741 M 812.296 303.744 C 816.583 303.932, 823.333 303.931, 827.296 303.742 C 831.258 303.552, 827.750 303.399, 819.500 303.400 C 811.250 303.401, 808.008 303.556, 812.296 303.744 M 851.685 303.748 C 861.138 303.912, 876.888 303.913, 886.685 303.749 C 896.483 303.585, 888.750 303.451, 869.500 303.450 C 850.250 303.450, 842.233 303.584, 851.685 303.748 M 911.206 303.741 C 914.895 303.932, 921.195 303.934, 925.206 303.743 C 929.218 303.553, 926.200 303.396, 918.500 303.395 C 910.800 303.393, 907.518 303.549, 911.206 303.741 M 940.296 303.744 C 944.583 303.932, 951.333 303.931, 955.296 303.742 C 959.258 303.552, 955.750 303.399, 947.500 303.400 C 939.250 303.401, 936.008 303.556, 940.296 303.744 M 986.681 303.749 C 999.980 303.906, 1022.030 303.907, 1035.681 303.749 C 1049.331 303.592, 1038.450 303.463, 1011.500 303.463 C 984.550 303.463, 973.381 303.592, 986.681 303.749 M 1068.296 303.744 C 1072.583 303.932, 1079.333 303.931, 1083.296 303.742 C 1087.258 303.552, 1083.750 303.399, 1075.500 303.400 C 1067.250 303.401, 1064.008 303.556, 1068.296 303.744 M 1114.681 303.749 C 1127.980 303.906, 1150.030 303.907, 1163.681 303.749 C 1177.331 303.592, 1166.450 303.463, 1139.500 303.463 C 1112.550 303.463, 1101.381 303.592, 1114.681 303.749 M 1220.822 303.750 C 1238.600 303.903, 1267.400 303.903, 1284.822 303.749 C 1302.245 303.596, 1287.700 303.471, 1252.500 303.471 C 1217.300 303.471, 1203.045 303.597, 1220.822 303.750 M 1341.820 303.749 C 1355.745 303.906, 1378.245 303.906, 1391.820 303.749 C 1405.394 303.592, 1394 303.464, 1366.500 303.464 C 1339 303.464, 1327.894 303.592, 1341.820 303.749 M 1423.206 303.741 C 1426.895 303.932, 1433.195 303.934, 1437.206 303.743 C 1441.218 303.553, 1438.200 303.396, 1430.500 303.395 C 1422.800 303.393, 1419.518 303.549, 1423.206 303.741 M 1452.296 303.744 C 1456.583 303.932, 1463.333 303.931, 1467.296 303.742 C 1471.258 303.552, 1467.750 303.399, 1459.500 303.400 C 1451.250 303.401, 1448.008 303.556, 1452.296 303.744 M 485.629 325.704 C 485.517 325.817, 483.754 326.021, 481.712 326.159 C 479.671 326.296, 478 326.808, 478 327.297 C 478 328.525, 481.183 332.457, 487.766 339.362 L 493.355 345.224 1008.855 345.229 C 1511.015 345.235, 1524.390 345.186, 1525.682 343.367 C 1526.411 342.340, 1529.433 339.025, 1532.396 336 C 1535.360 332.975, 1538.088 329.488, 1538.460 328.250 C 1539.129 326.019, 1539.045 325.999, 1528.317 325.879 C 1522.368 325.813, 1513.450 325.810, 1508.500 325.872 C 1503.550 325.935, 1486.225 325.961, 1470 325.930 C 1418.541 325.833, 1369.518 325.848, 1369 325.962 C 1368.725 326.022, 1355.900 326.026, 1340.500 325.970 C 1300.939 325.828, 1242.687 325.819, 1241.500 325.956 C 1240.950 326.019, 1227.900 326.026, 1212.500 325.970 C 1172.939 325.828, 1114.687 325.819, 1113.500 325.956 C 1112.950 326.019, 1099.900 326.026, 1084.500 325.970 C 1044.939 325.828, 986.687 325.819, 985.500 325.956 C 984.950 326.019, 971.900 326.026, 956.500 325.971 C 915.416 325.825, 858.652 325.814, 857.500 325.951 C 856.950 326.017, 843.900 326.026, 828.500 325.970 C 788.939 325.828, 730.687 325.819, 729.500 325.956 C 728.950 326.019, 715.900 326.026, 700.500 325.970 C 660.939 325.828, 602.687 325.819, 601.500 325.956 C 600.364 326.087, 558.680 325.955, 515.167 325.683 C 499.033 325.582, 485.741 325.592, 485.629 325.704 M 496.500 358 C 496.088 358.666, 666.990 359, 1008.441 359 C 1349.480 359, 1521 358.665, 1521 358 C 1521 356.612, 497.358 356.612, 496.500 358 M 549.304 361.750 C 584.535 361.925, 602.896 362.360, 602.495 363.009 C 602.158 363.554, 602.359 364, 602.941 364 C 603.523 364, 604 363.550, 604 363 C 604 362.336, 687.850 362.033, 853.750 362.100 C 991.112 362.155, 1102.375 362.560, 1101 363 C 1099.057 363.622, 1099.615 363.793, 1103.500 363.764 C 1106.844 363.740, 1107.672 363.524, 1106 363.114 C 1104.625 362.776, 1197.550 362.273, 1312.500 361.996 C 1427.621 361.719, 1291.069 361.491, 1008.500 361.488 C 726.350 361.485, 519.712 361.603, 549.304 361.750 M 500.768 363.725 C 502.565 363.947, 505.265 363.943, 506.768 363.715 C 508.271 363.486, 506.800 363.304, 503.500 363.310 C 500.200 363.315, 498.971 363.502, 500.768 363.725 M 515.750 363.662 C 516.438 363.940, 517.563 363.940, 518.250 363.662 C 518.938 363.385, 518.375 363.158, 517 363.158 C 515.625 363.158, 515.063 363.385, 515.750 363.662 M 531.750 363.732 C 534.087 363.943, 537.913 363.943, 540.250 363.732 C 542.587 363.522, 540.675 363.349, 536 363.349 C 531.325 363.349, 529.413 363.522, 531.750 363.732 M 550.250 363.716 C 551.763 363.945, 554.237 363.945, 555.750 363.716 C 557.263 363.487, 556.025 363.300, 553 363.300 C 549.975 363.300, 548.737 363.487, 550.250 363.716 M 588.250 363.716 C 589.763 363.945, 592.237 363.945, 593.750 363.716 C 595.263 363.487, 594.025 363.300, 591 363.300 C 587.975 363.300, 586.737 363.487, 588.250 363.716 M 620.813 363.683 C 621.534 363.972, 622.397 363.936, 622.729 363.604 C 623.061 363.272, 622.471 363.036, 621.417 363.079 C 620.252 363.127, 620.015 363.364, 620.813 363.683 M 626.750 363.662 C 627.438 363.940, 628.563 363.940, 629.250 363.662 C 629.938 363.385, 629.375 363.158, 628 363.158 C 626.625 363.158, 626.063 363.385, 626.750 363.662 M 632.750 363.662 C 633.438 363.940, 634.563 363.940, 635.250 363.662 C 635.938 363.385, 635.375 363.158, 634 363.158 C 632.625 363.158, 632.063 363.385, 632.750 363.662 M 638.750 363.662 C 639.438 363.940, 640.563 363.940, 641.250 363.662 C 641.938 363.385, 641.375 363.158, 640 363.158 C 638.625 363.158, 638.063 363.385, 638.750 363.662 M 643.750 363.662 C 644.438 363.940, 645.563 363.940, 646.250 363.662 C 646.938 363.385, 646.375 363.158, 645 363.158 C 643.625 363.158, 643.063 363.385, 643.750 363.662 M 660.776 363.733 C 663.128 363.945, 666.728 363.942, 668.776 363.727 C 670.824 363.512, 668.900 363.339, 664.500 363.343 C 660.100 363.346, 658.424 363.522, 660.776 363.733 M 674.762 363.707 C 676.006 363.946, 677.806 363.937, 678.762 363.687 C 679.718 363.437, 678.700 363.241, 676.500 363.252 C 674.300 363.263, 673.518 363.468, 674.762 363.707 M 682.269 363.693 C 683.242 363.947, 684.592 363.930, 685.269 363.656 C 685.946 363.382, 685.150 363.175, 683.500 363.195 C 681.850 363.215, 681.296 363.439, 682.269 363.693 M 719.250 363.689 C 720.212 363.941, 721.788 363.941, 722.750 363.689 C 723.712 363.438, 722.925 363.232, 721 363.232 C 719.075 363.232, 718.288 363.438, 719.250 363.689 M 748.813 363.683 C 749.534 363.972, 750.397 363.936, 750.729 363.604 C 751.061 363.272, 750.471 363.036, 749.417 363.079 C 748.252 363.127, 748.015 363.364, 748.813 363.683 M 754.750 363.662 C 755.438 363.940, 756.563 363.940, 757.250 363.662 C 757.938 363.385, 757.375 363.158, 756 363.158 C 754.625 363.158, 754.063 363.385, 754.750 363.662 M 760.250 363.689 C 761.212 363.941, 762.788 363.941, 763.750 363.689 C 764.712 363.438, 763.925 363.232, 762 363.232 C 760.075 363.232, 759.288 363.438, 760.250 363.689 M 771.750 363.662 C 772.438 363.940, 773.563 363.940, 774.250 363.662 C 774.938 363.385, 774.375 363.158, 773 363.158 C 771.625 363.158, 771.063 363.385, 771.750 363.662 M 784.813 363.683 C 785.534 363.972, 786.397 363.936, 786.729 363.604 C 787.061 363.272, 786.471 363.036, 785.417 363.079 C 784.252 363.127, 784.015 363.364, 784.813 363.683 M 790.813 363.683 C 791.534 363.972, 792.397 363.936, 792.729 363.604 C 793.061 363.272, 792.471 363.036, 791.417 363.079 C 790.252 363.127, 790.015 363.364, 790.813 363.683 M 797.813 363.683 C 798.534 363.972, 799.397 363.936, 799.729 363.604 C 800.061 363.272, 799.471 363.036, 798.417 363.079 C 797.252 363.127, 797.015 363.364, 797.813 363.683 M 803.728 363.722 C 805.503 363.943, 808.653 363.946, 810.728 363.730 C 812.802 363.513, 811.350 363.333, 807.500 363.328 C 803.650 363.324, 801.952 363.501, 803.728 363.722 M 829.813 363.683 C 830.534 363.972, 831.397 363.936, 831.729 363.604 C 832.061 363.272, 831.471 363.036, 830.417 363.079 C 829.252 363.127, 829.015 363.364, 829.813 363.683 M 843.768 363.725 C 845.565 363.947, 848.265 363.943, 849.768 363.715 C 851.271 363.486, 849.800 363.304, 846.500 363.310 C 843.200 363.315, 841.971 363.502, 843.768 363.725 M 866.750 363.662 C 867.438 363.940, 868.563 363.940, 869.250 363.662 C 869.938 363.385, 869.375 363.158, 868 363.158 C 866.625 363.158, 866.063 363.385, 866.750 363.662 M 876.813 363.683 C 877.534 363.972, 878.397 363.936, 878.729 363.604 C 879.061 363.272, 878.471 363.036, 877.417 363.079 C 876.252 363.127, 876.015 363.364, 876.813 363.683 M 882.750 363.662 C 883.438 363.940, 884.563 363.940, 885.250 363.662 C 885.938 363.385, 885.375 363.158, 884 363.158 C 882.625 363.158, 882.063 363.385, 882.750 363.662 M 888.269 363.693 C 889.242 363.947, 890.592 363.930, 891.269 363.656 C 891.946 363.382, 891.150 363.175, 889.500 363.195 C 887.850 363.215, 887.296 363.439, 888.269 363.693 M 894.750 363.662 C 895.438 363.940, 896.563 363.940, 897.250 363.662 C 897.938 363.385, 897.375 363.158, 896 363.158 C 894.625 363.158, 894.063 363.385, 894.750 363.662 M 899.750 363.662 C 900.438 363.940, 901.563 363.940, 902.250 363.662 C 902.938 363.385, 902.375 363.158, 901 363.158 C 899.625 363.158, 899.063 363.385, 899.750 363.662 M 920.296 363.744 C 924.583 363.932, 931.333 363.931, 935.296 363.742 C 939.258 363.552, 935.750 363.399, 927.500 363.400 C 919.250 363.401, 916.008 363.556, 920.296 363.744 M 962.750 363.662 C 963.438 363.940, 964.563 363.940, 965.250 363.662 C 965.938 363.385, 965.375 363.158, 964 363.158 C 962.625 363.158, 962.063 363.385, 962.750 363.662 M 972.776 363.733 C 975.128 363.945, 978.728 363.942, 980.776 363.727 C 982.824 363.512, 980.900 363.339, 976.500 363.343 C 972.100 363.346, 970.424 363.522, 972.776 363.733 M 994.750 363.662 C 995.438 363.940, 996.563 363.940, 997.250 363.662 C 997.938 363.385, 997.375 363.158, 996 363.158 C 994.625 363.158, 994.063 363.385, 994.750 363.662 M 1004.813 363.683 C 1005.534 363.972, 1006.397 363.936, 1006.729 363.604 C 1007.061 363.272, 1006.471 363.036, 1005.417 363.079 C 1004.252 363.127, 1004.015 363.364, 1004.813 363.683 M 1010.269 363.693 C 1011.242 363.947, 1012.592 363.930, 1013.269 363.656 C 1013.946 363.382, 1013.150 363.175, 1011.500 363.195 C 1009.850 363.215, 1009.296 363.439, 1010.269 363.693 M 1016.750 363.662 C 1017.438 363.940, 1018.563 363.940, 1019.250 363.662 C 1019.938 363.385, 1019.375 363.158, 1018 363.158 C 1016.625 363.158, 1016.063 363.385, 1016.750 363.662 M 1024.264 363.718 C 1025.784 363.947, 1028.034 363.941, 1029.264 363.704 C 1030.494 363.467, 1029.250 363.279, 1026.500 363.286 C 1023.750 363.294, 1022.744 363.488, 1024.264 363.718 M 1043.750 363.732 C 1046.088 363.943, 1049.912 363.943, 1052.250 363.732 C 1054.588 363.522, 1052.675 363.349, 1048 363.349 C 1043.325 363.349, 1041.412 363.522, 1043.750 363.732 M 1058.762 363.707 C 1060.006 363.946, 1061.806 363.937, 1062.762 363.687 C 1063.718 363.437, 1062.700 363.241, 1060.500 363.252 C 1058.300 363.263, 1057.518 363.468, 1058.762 363.707 M 1066.269 363.693 C 1067.242 363.947, 1068.592 363.930, 1069.269 363.656 C 1069.946 363.382, 1069.150 363.175, 1067.500 363.195 C 1065.850 363.215, 1065.296 363.439, 1066.269 363.693 M 1071.813 363.683 C 1072.534 363.972, 1073.397 363.936, 1073.729 363.604 C 1074.061 363.272, 1073.471 363.036, 1072.417 363.079 C 1071.252 363.127, 1071.015 363.364, 1071.813 363.683 M 1090.813 363.683 C 1091.534 363.972, 1092.397 363.936, 1092.729 363.604 C 1093.061 363.272, 1092.471 363.036, 1091.417 363.079 C 1090.252 363.127, 1090.015 363.364, 1090.813 363.683 M 1122.750 363.662 C 1123.438 363.940, 1124.563 363.940, 1125.250 363.662 C 1125.938 363.385, 1125.375 363.158, 1124 363.158 C 1122.625 363.158, 1122.063 363.385, 1122.750 363.662 M 1150.750 363.662 C 1151.438 363.940, 1152.563 363.940, 1153.250 363.662 C 1153.938 363.385, 1153.375 363.158, 1152 363.158 C 1150.625 363.158, 1150.063 363.385, 1150.750 363.662 M 1155.750 363.662 C 1156.438 363.940, 1157.563 363.940, 1158.250 363.662 C 1158.938 363.385, 1158.375 363.158, 1157 363.158 C 1155.625 363.158, 1155.063 363.385, 1155.750 363.662 M 1160.750 363.662 C 1161.438 363.940, 1162.563 363.940, 1163.250 363.662 C 1163.938 363.385, 1163.375 363.158, 1162 363.158 C 1160.625 363.158, 1160.063 363.385, 1160.750 363.662 M 1169.250 363.716 C 1170.763 363.945, 1173.237 363.945, 1174.750 363.716 C 1176.263 363.487, 1175.025 363.300, 1172 363.300 C 1168.975 363.300, 1167.737 363.487, 1169.250 363.716 M 1181.813 363.683 C 1182.534 363.972, 1183.397 363.936, 1183.729 363.604 C 1184.061 363.272, 1183.471 363.036, 1182.417 363.079 C 1181.252 363.127, 1181.015 363.364, 1181.813 363.683 M 1190.250 363.716 C 1191.763 363.945, 1194.237 363.945, 1195.750 363.716 C 1197.263 363.487, 1196.025 363.300, 1193 363.300 C 1189.975 363.300, 1188.737 363.487, 1190.250 363.716 M 1231.250 363.689 C 1232.213 363.941, 1233.787 363.941, 1234.750 363.689 C 1235.713 363.438, 1234.925 363.232, 1233 363.232 C 1231.075 363.232, 1230.287 363.438, 1231.250 363.689 M 1266.750 363.662 C 1267.438 363.940, 1268.563 363.940, 1269.250 363.662 C 1269.938 363.385, 1269.375 363.158, 1268 363.158 C 1266.625 363.158, 1266.063 363.385, 1266.750 363.662 M 1273.813 363.683 C 1274.534 363.972, 1275.397 363.936, 1275.729 363.604 C 1276.061 363.272, 1275.471 363.036, 1274.417 363.079 C 1273.252 363.127, 1273.015 363.364, 1273.813 363.683 M 1283.750 363.662 C 1284.438 363.940, 1285.563 363.940, 1286.250 363.662 C 1286.938 363.385, 1286.375 363.158, 1285 363.158 C 1283.625 363.158, 1283.063 363.385, 1283.750 363.662 M 1291.813 363.683 C 1292.534 363.972, 1293.397 363.936, 1293.729 363.604 C 1294.061 363.272, 1293.471 363.036, 1292.417 363.079 C 1291.252 363.127, 1291.015 363.364, 1291.813 363.683 M 1299.750 363.732 C 1302.088 363.943, 1305.912 363.943, 1308.250 363.732 C 1310.588 363.522, 1308.675 363.349, 1304 363.349 C 1299.325 363.349, 1297.412 363.522, 1299.750 363.732 M 1316.750 363.723 C 1318.537 363.945, 1321.463 363.945, 1323.250 363.723 C 1325.037 363.502, 1323.575 363.320, 1320 363.320 C 1316.425 363.320, 1314.963 363.502, 1316.750 363.723 M 1345.269 363.693 C 1346.242 363.947, 1347.592 363.930, 1348.269 363.656 C 1348.946 363.382, 1348.150 363.175, 1346.500 363.195 C 1344.850 363.215, 1344.296 363.439, 1345.269 363.693 M 1356.264 363.718 C 1357.784 363.947, 1360.034 363.941, 1361.264 363.704 C 1362.494 363.467, 1361.250 363.279, 1358.500 363.286 C 1355.750 363.294, 1354.744 363.488, 1356.264 363.718 M 1379.813 363.683 C 1380.534 363.972, 1381.397 363.936, 1381.729 363.604 C 1382.061 363.272, 1381.471 363.036, 1380.417 363.079 C 1379.252 363.127, 1379.015 363.364, 1379.813 363.683 M 1388.750 363.723 C 1390.537 363.945, 1393.463 363.945, 1395.250 363.723 C 1397.037 363.502, 1395.575 363.320, 1392 363.320 C 1388.425 363.320, 1386.963 363.502, 1388.750 363.723 M 1400.269 363.693 C 1401.242 363.947, 1402.592 363.930, 1403.269 363.656 C 1403.946 363.382, 1403.150 363.175, 1401.500 363.195 C 1399.850 363.215, 1399.296 363.439, 1400.269 363.693 M 1406.750 363.662 C 1407.438 363.940, 1408.563 363.940, 1409.250 363.662 C 1409.938 363.385, 1409.375 363.158, 1408 363.158 C 1406.625 363.158, 1406.063 363.385, 1406.750 363.662 M 1426.264 363.718 C 1427.784 363.947, 1430.034 363.941, 1431.264 363.704 C 1432.494 363.467, 1431.250 363.279, 1428.500 363.286 C 1425.750 363.294, 1424.744 363.488, 1426.264 363.718 M 1435.250 363.689 C 1436.213 363.941, 1437.787 363.941, 1438.750 363.689 C 1439.713 363.438, 1438.925 363.232, 1437 363.232 C 1435.075 363.232, 1434.287 363.438, 1435.250 363.689 M 1446.250 363.716 C 1447.763 363.945, 1450.237 363.945, 1451.750 363.716 C 1453.263 363.487, 1452.025 363.300, 1449 363.300 C 1445.975 363.300, 1444.737 363.487, 1446.250 363.716 M 1473.269 363.693 C 1474.242 363.947, 1475.592 363.930, 1476.269 363.656 C 1476.946 363.382, 1476.150 363.175, 1474.500 363.195 C 1472.850 363.215, 1472.296 363.439, 1473.269 363.693 M 1483.768 363.725 C 1485.565 363.947, 1488.265 363.943, 1489.768 363.715 C 1491.271 363.486, 1489.800 363.304, 1486.500 363.310 C 1483.200 363.315, 1481.971 363.502, 1483.768 363.725 M 1507.813 363.683 C 1508.534 363.972, 1509.397 363.936, 1509.729 363.604 C 1510.061 363.272, 1509.471 363.036, 1508.417 363.079 C 1507.252 363.127, 1507.015 363.364, 1507.813 363.683 M 1516.813 363.683 C 1517.534 363.972, 1518.397 363.936, 1518.729 363.604 C 1519.061 363.272, 1518.471 363.036, 1517.417 363.079 C 1516.252 363.127, 1516.015 363.364, 1516.813 363.683" stroke="none" fill="black" fill-rule="evenodd"/>
	<path fill-opacity="0.180" d="M 449.495 276.603 C 451.693 277.407, 455.323 279.863, 457.562 282.061 L 461.634 286.057 1008.398 286.048 L 1555.163 286.039 1560.004 281.686 C 1562.667 279.292, 1566.342 276.855, 1568.173 276.269 C 1570.534 275.513, 1408.128 275.195, 1008.500 275.173 C 513.405 275.145, 445.982 275.317, 449.495 276.603 M 737.332 302.750 C 886.840 302.889, 1131.190 302.889, 1280.332 302.750 C 1429.474 302.610, 1307.150 302.496, 1008.500 302.496 C 709.850 302.496, 587.824 302.610, 737.332 302.750 M 509 305.017 C 486.725 305.301, 711.500 305.572, 1008.500 305.617 C 1305.500 305.663, 1547.375 305.532, 1546 305.326 C 1542.052 304.736, 554.121 304.441, 509 305.017 M 473.445 308.910 C 474.208 310.146, 1542.783 310.161, 1543.546 308.925 C 1543.896 308.359, 1336.324 308, 1008.500 308 C 686.839 308, 473.107 308.364, 473.445 308.910 M 485.030 335.504 L 489.534 340.007 1008.397 340.002 L 1527.261 339.996 1531.030 336.748 C 1533.103 334.962, 1535.056 332.938, 1535.368 332.250 C 1535.823 331.251, 1430.033 331, 1008.232 331 L 480.526 331 485.030 335.504 M 500.269 358.693 C 501.242 358.947, 502.592 358.930, 503.269 358.656 C 503.946 358.382, 503.150 358.175, 501.500 358.195 C 499.850 358.215, 499.296 358.439, 500.269 358.693 M 505.813 358.683 C 506.534 358.972, 507.397 358.936, 507.729 358.604 C 508.061 358.272, 507.471 358.036, 506.417 358.079 C 505.252 358.127, 505.015 358.364, 505.813 358.683 M 520.813 358.683 C 521.534 358.972, 522.397 358.936, 522.729 358.604 C 523.061 358.272, 522.471 358.036, 521.417 358.079 C 520.252 358.127, 520.015 358.364, 520.813 358.683 M 526.750 358.706 C 527.987 358.944, 530.013 358.944, 531.250 358.706 C 532.487 358.467, 531.475 358.272, 529 358.272 C 526.525 358.272, 525.513 358.467, 526.750 358.706 M 534.813 358.683 C 535.534 358.972, 536.397 358.936, 536.729 358.604 C 537.061 358.272, 536.471 358.036, 535.417 358.079 C 534.252 358.127, 534.015 358.364, 534.813 358.683 M 548.813 358.683 C 549.534 358.972, 550.397 358.936, 550.729 358.604 C 551.061 358.272, 550.471 358.036, 549.417 358.079 C 548.252 358.127, 548.015 358.364, 548.813 358.683 M 564.269 358.693 C 565.242 358.947, 566.592 358.930, 567.269 358.656 C 567.946 358.382, 567.150 358.175, 565.500 358.195 C 563.850 358.215, 563.296 358.439, 564.269 358.693 M 605.750 358.662 C 606.438 358.940, 607.563 358.940, 608.250 358.662 C 608.938 358.385, 608.375 358.158, 607 358.158 C 605.625 358.158, 605.063 358.385, 605.750 358.662 M 612.269 358.693 C 613.242 358.947, 614.592 358.930, 615.269 358.656 C 615.946 358.382, 615.150 358.175, 613.500 358.195 C 611.850 358.215, 611.296 358.439, 612.269 358.693 M 629.750 358.706 C 630.987 358.944, 633.013 358.944, 634.250 358.706 C 635.487 358.467, 634.475 358.272, 632 358.272 C 629.525 358.272, 628.513 358.467, 629.750 358.706 M 648.813 358.683 C 649.534 358.972, 650.397 358.936, 650.729 358.604 C 651.061 358.272, 650.471 358.036, 649.417 358.079 C 648.252 358.127, 648.015 358.364, 648.813 358.683 M 654.750 358.706 C 655.987 358.944, 658.013 358.944, 659.250 358.706 C 660.487 358.467, 659.475 358.272, 657 358.272 C 654.525 358.272, 653.513 358.467, 654.750 358.706 M 662.813 358.683 C 663.534 358.972, 664.397 358.936, 664.729 358.604 C 665.061 358.272, 664.471 358.036, 663.417 358.079 C 662.252 358.127, 662.015 358.364, 662.813 358.683 M 669.813 358.683 C 670.534 358.972, 671.397 358.936, 671.729 358.604 C 672.061 358.272, 671.471 358.036, 670.417 358.079 C 669.252 358.127, 669.015 358.364, 669.813 358.683 M 758.264 358.718 C 759.784 358.947, 762.034 358.941, 763.264 358.704 C 764.494 358.467, 763.250 358.279, 760.500 358.286 C 757.750 358.294, 756.744 358.488, 758.264 358.718 M 783.762 358.707 C 785.006 358.946, 786.806 358.937, 787.762 358.687 C 788.718 358.437, 787.700 358.241, 785.500 358.252 C 783.300 358.263, 782.518 358.468, 783.762 358.707 M 790.750 358.662 C 791.438 358.940, 792.563 358.940, 793.250 358.662 C 793.938 358.385, 793.375 358.158, 792 358.158 C 790.625 358.158, 790.063 358.385, 790.750 358.662 M 799.269 358.693 C 800.242 358.947, 801.592 358.930, 802.269 358.656 C 802.946 358.382, 802.150 358.175, 800.500 358.195 C 798.850 358.215, 798.296 358.439, 799.269 358.693 M 804.813 358.683 C 805.534 358.972, 806.397 358.936, 806.729 358.604 C 807.061 358.272, 806.471 358.036, 805.417 358.079 C 804.252 358.127, 804.015 358.364, 804.813 358.683 M 861.750 358.662 C 862.438 358.940, 863.563 358.940, 864.250 358.662 C 864.938 358.385, 864.375 358.158, 863 358.158 C 861.625 358.158, 861.063 358.385, 861.750 358.662 M 886.750 358.732 C 889.087 358.943, 892.913 358.943, 895.250 358.732 C 897.587 358.522, 895.675 358.349, 891 358.349 C 886.325 358.349, 884.413 358.522, 886.750 358.732 M 904.813 358.683 C 905.534 358.972, 906.397 358.936, 906.729 358.604 C 907.061 358.272, 906.471 358.036, 905.417 358.079 C 904.252 358.127, 904.015 358.364, 904.813 358.683 M 911.768 358.725 C 913.565 358.947, 916.265 358.943, 917.768 358.715 C 919.271 358.486, 917.800 358.304, 914.500 358.310 C 911.200 358.315, 909.971 358.502, 911.768 358.725 M 932.813 358.683 C 933.534 358.972, 934.397 358.936, 934.729 358.604 C 935.061 358.272, 934.471 358.036, 933.417 358.079 C 932.252 358.127, 932.015 358.364, 932.813 358.683 M 989.750 358.662 C 990.438 358.940, 991.563 358.940, 992.250 358.662 C 992.938 358.385, 992.375 358.158, 991 358.158 C 989.625 358.158, 989.063 358.385, 989.750 358.662 M 1014.750 358.706 C 1015.987 358.944, 1018.013 358.944, 1019.250 358.706 C 1020.487 358.467, 1019.475 358.272, 1017 358.272 C 1014.525 358.272, 1013.513 358.467, 1014.750 358.706 M 1022.750 358.662 C 1023.438 358.940, 1024.563 358.940, 1025.250 358.662 C 1025.938 358.385, 1025.375 358.158, 1024 358.158 C 1022.625 358.158, 1022.063 358.385, 1022.750 358.662 M 1032.813 358.683 C 1033.534 358.972, 1034.397 358.936, 1034.729 358.604 C 1035.061 358.272, 1034.471 358.036, 1033.417 358.079 C 1032.252 358.127, 1032.015 358.364, 1032.813 358.683 M 1038.750 358.706 C 1039.987 358.944, 1042.013 358.944, 1043.250 358.706 C 1044.487 358.467, 1043.475 358.272, 1041 358.272 C 1038.525 358.272, 1037.513 358.467, 1038.750 358.706 M 1046.813 358.683 C 1047.534 358.972, 1048.397 358.936, 1048.729 358.604 C 1049.061 358.272, 1048.471 358.036, 1047.417 358.079 C 1046.252 358.127, 1046.015 358.364, 1046.813 358.683 M 1053.813 358.683 C 1054.534 358.972, 1055.397 358.936, 1055.729 358.604 C 1056.061 358.272, 1055.471 358.036, 1054.417 358.079 C 1053.252 358.127, 1053.015 358.364, 1053.813 358.683 M 1117.750 358.662 C 1118.438 358.940, 1119.563 358.940, 1120.250 358.662 C 1120.938 358.385, 1120.375 358.158, 1119 358.158 C 1117.625 358.158, 1117.063 358.385, 1117.750 358.662 M 1123.750 358.662 C 1124.438 358.940, 1125.563 358.940, 1126.250 358.662 C 1126.938 358.385, 1126.375 358.158, 1125 358.158 C 1123.625 358.158, 1123.063 358.385, 1123.750 358.662 M 1141.813 358.683 C 1142.534 358.972, 1143.397 358.936, 1143.729 358.604 C 1144.061 358.272, 1143.471 358.036, 1142.417 358.079 C 1141.252 358.127, 1141.015 358.364, 1141.813 358.683 M 1145.813 358.683 C 1146.534 358.972, 1147.397 358.936, 1147.729 358.604 C 1148.061 358.272, 1147.471 358.036, 1146.417 358.079 C 1145.252 358.127, 1145.015 358.364, 1145.813 358.683 M 1160.813 358.683 C 1161.534 358.972, 1162.397 358.936, 1162.729 358.604 C 1163.061 358.272, 1162.471 358.036, 1161.417 358.079 C 1160.252 358.127, 1160.015 358.364, 1160.813 358.683 M 1167.750 358.723 C 1169.537 358.945, 1172.463 358.945, 1174.250 358.723 C 1176.037 358.502, 1174.575 358.320, 1171 358.320 C 1167.425 358.320, 1165.963 358.502, 1167.750 358.723 M 1212.813 358.683 C 1213.534 358.972, 1214.397 358.936, 1214.729 358.604 C 1215.061 358.272, 1214.471 358.036, 1213.417 358.079 C 1212.252 358.127, 1212.015 358.364, 1212.813 358.683 M 1245.750 358.662 C 1246.438 358.940, 1247.563 358.940, 1248.250 358.662 C 1248.938 358.385, 1248.375 358.158, 1247 358.158 C 1245.625 358.158, 1245.063 358.385, 1245.750 358.662 M 1268.269 358.693 C 1269.242 358.947, 1270.592 358.930, 1271.269 358.656 C 1271.946 358.382, 1271.150 358.175, 1269.500 358.195 C 1267.850 358.215, 1267.296 358.439, 1268.269 358.693 M 1273.813 358.683 C 1274.534 358.972, 1275.397 358.936, 1275.729 358.604 C 1276.061 358.272, 1275.471 358.036, 1274.417 358.079 C 1273.252 358.127, 1273.015 358.364, 1273.813 358.683 M 1278.750 358.662 C 1279.438 358.940, 1280.563 358.940, 1281.250 358.662 C 1281.938 358.385, 1281.375 358.158, 1280 358.158 C 1278.625 358.158, 1278.063 358.385, 1278.750 358.662 M 1288.813 358.683 C 1289.534 358.972, 1290.397 358.936, 1290.729 358.604 C 1291.061 358.272, 1290.471 358.036, 1289.417 358.079 C 1288.252 358.127, 1288.015 358.364, 1288.813 358.683 M 1295.762 358.707 C 1297.006 358.946, 1298.806 358.937, 1299.762 358.687 C 1300.718 358.437, 1299.700 358.241, 1297.500 358.252 C 1295.300 358.263, 1294.518 358.468, 1295.762 358.707 M 1302.813 358.683 C 1303.534 358.972, 1304.397 358.936, 1304.729 358.604 C 1305.061 358.272, 1304.471 358.036, 1303.417 358.079 C 1302.252 358.127, 1302.015 358.364, 1302.813 358.683 M 1332.269 358.693 C 1333.242 358.947, 1334.592 358.930, 1335.269 358.656 C 1335.946 358.382, 1335.150 358.175, 1333.500 358.195 C 1331.850 358.215, 1331.296 358.439, 1332.269 358.693 M 1373.750 358.662 C 1374.438 358.940, 1375.563 358.940, 1376.250 358.662 C 1376.938 358.385, 1376.375 358.158, 1375 358.158 C 1373.625 358.158, 1373.063 358.385, 1373.750 358.662 M 1397.750 358.706 C 1398.987 358.944, 1401.013 358.944, 1402.250 358.706 C 1403.487 358.467, 1402.475 358.272, 1400 358.272 C 1397.525 358.272, 1396.513 358.467, 1397.750 358.706 M 1406.750 358.662 C 1407.438 358.940, 1408.563 358.940, 1409.250 358.662 C 1409.938 358.385, 1409.375 358.158, 1408 358.158 C 1406.625 358.158, 1406.063 358.385, 1406.750 358.662 M 1416.813 358.683 C 1417.534 358.972, 1418.397 358.936, 1418.729 358.604 C 1419.061 358.272, 1418.471 358.036, 1417.417 358.079 C 1416.252 358.127, 1416.015 358.364, 1416.813 358.683 M 1424.768 358.725 C 1426.565 358.947, 1429.265 358.943, 1430.768 358.715 C 1432.271 358.486, 1430.800 358.304, 1427.500 358.310 C 1424.200 358.315, 1422.971 358.502, 1424.768 358.725 M 1438.250 358.689 C 1439.213 358.941, 1440.787 358.941, 1441.750 358.689 C 1442.713 358.438, 1441.925 358.232, 1440 358.232 C 1438.075 358.232, 1437.287 358.438, 1438.250 358.689 M 1451.269 358.693 C 1452.242 358.947, 1453.592 358.930, 1454.269 358.656 C 1454.946 358.382, 1454.150 358.175, 1452.500 358.195 C 1450.850 358.215, 1450.296 358.439, 1451.269 358.693 M 1464.768 358.725 C 1466.565 358.947, 1469.265 358.943, 1470.768 358.715 C 1472.271 358.486, 1470.800 358.304, 1467.500 358.310 C 1464.200 358.315, 1462.971 358.502, 1464.768 358.725 M 1501.750 358.662 C 1502.438 358.940, 1503.563 358.940, 1504.250 358.662 C 1504.938 358.385, 1504.375 358.158, 1503 358.158 C 1501.625 358.158, 1501.063 358.385, 1501.750 358.662" stroke="none" fill="black" fill-rule="evenodd"/>
	<path fill-opacity="0.226" d="M 448 275.383 C 448 275.593, 450.366 276.923, 453.258 278.338 L 458.516 280.910 1009.008 280.903 L 1559.500 280.895 1563.500 278.562 C 1565.700 277.278, 1568.400 276.004, 1569.500 275.730 C 1570.600 275.456, 1318.713 275.180, 1009.750 275.116 C 700.788 275.052, 448 275.172, 448 275.383 M 477.269 308.693 C 478.242 308.947, 479.592 308.930, 480.269 308.656 C 480.946 308.382, 480.150 308.175, 478.500 308.195 C 476.850 308.215, 476.296 308.439, 477.269 308.693 M 485.813 308.683 C 486.534 308.972, 487.397 308.936, 487.729 308.604 C 488.061 308.272, 487.471 308.036, 486.417 308.079 C 485.252 308.127, 485.015 308.364, 485.813 308.683 M 497.250 308.689 C 498.212 308.941, 499.788 308.941, 500.750 308.689 C 501.712 308.438, 500.925 308.232, 499 308.232 C 497.075 308.232, 496.288 308.438, 497.250 308.689 M 516.813 308.683 C 517.534 308.972, 518.397 308.936, 518.729 308.604 C 519.061 308.272, 518.471 308.036, 517.417 308.079 C 516.252 308.127, 516.015 308.364, 516.813 308.683 M 523.776 308.733 C 526.128 308.945, 529.728 308.942, 531.776 308.727 C 533.824 308.512, 531.900 308.339, 527.500 308.343 C 523.100 308.346, 521.424 308.522, 523.776 308.733 M 546.750 308.723 C 548.538 308.945, 551.462 308.945, 553.250 308.723 C 555.038 308.502, 553.575 308.320, 550 308.320 C 546.425 308.320, 544.962 308.502, 546.750 308.723 M 563.776 308.733 C 566.128 308.945, 569.728 308.942, 571.776 308.727 C 573.824 308.512, 571.900 308.339, 567.500 308.343 C 563.100 308.346, 561.424 308.522, 563.776 308.733 M 590.250 308.728 C 592.313 308.944, 595.688 308.944, 597.750 308.728 C 599.813 308.513, 598.125 308.336, 594 308.336 C 589.875 308.336, 588.188 308.513, 590.250 308.728 M 603.762 308.707 C 605.006 308.946, 606.806 308.937, 607.762 308.687 C 608.718 308.437, 607.700 308.241, 605.500 308.252 C 603.300 308.263, 602.518 308.468, 603.762 308.707 M 626.768 308.725 C 628.565 308.947, 631.265 308.943, 632.768 308.715 C 634.271 308.486, 632.800 308.304, 629.500 308.310 C 626.200 308.315, 624.971 308.502, 626.768 308.725 M 644.813 308.683 C 645.534 308.972, 646.397 308.936, 646.729 308.604 C 647.061 308.272, 646.471 308.036, 645.417 308.079 C 644.252 308.127, 644.015 308.364, 644.813 308.683 M 651.776 308.733 C 654.128 308.945, 657.728 308.942, 659.776 308.727 C 661.824 308.512, 659.900 308.339, 655.500 308.343 C 651.100 308.346, 649.424 308.522, 651.776 308.733 M 672.813 308.683 C 673.534 308.972, 674.397 308.936, 674.729 308.604 C 675.061 308.272, 674.471 308.036, 673.417 308.079 C 672.252 308.127, 672.015 308.364, 672.813 308.683 M 677.250 308.689 C 678.212 308.941, 679.788 308.941, 680.750 308.689 C 681.712 308.438, 680.925 308.232, 679 308.232 C 677.075 308.232, 676.288 308.438, 677.250 308.689 M 691.776 308.733 C 694.128 308.945, 697.728 308.942, 699.776 308.727 C 701.824 308.512, 699.900 308.339, 695.500 308.343 C 691.100 308.346, 689.424 308.522, 691.776 308.733 M 717.768 308.725 C 719.565 308.947, 722.265 308.943, 723.768 308.715 C 725.271 308.486, 723.800 308.304, 720.500 308.310 C 717.200 308.315, 715.971 308.502, 717.768 308.725 M 733.269 308.693 C 734.242 308.947, 735.592 308.930, 736.269 308.656 C 736.946 308.382, 736.150 308.175, 734.500 308.195 C 732.850 308.215, 732.296 308.439, 733.269 308.693 M 754.269 308.693 C 755.242 308.947, 756.592 308.930, 757.269 308.656 C 757.946 308.382, 757.150 308.175, 755.500 308.195 C 753.850 308.215, 753.296 308.439, 754.269 308.693 M 759.813 308.683 C 760.534 308.972, 761.397 308.936, 761.729 308.604 C 762.061 308.272, 761.471 308.036, 760.417 308.079 C 759.252 308.127, 759.015 308.364, 759.813 308.683 M 772.813 308.683 C 773.534 308.972, 774.397 308.936, 774.729 308.604 C 775.061 308.272, 774.471 308.036, 773.417 308.079 C 772.252 308.127, 772.015 308.364, 772.813 308.683 M 779.776 308.733 C 782.128 308.945, 785.728 308.942, 787.776 308.727 C 789.824 308.512, 787.900 308.339, 783.500 308.343 C 779.100 308.346, 777.424 308.522, 779.776 308.733 M 802.250 308.716 C 803.763 308.945, 806.237 308.945, 807.750 308.716 C 809.263 308.487, 808.025 308.300, 805 308.300 C 801.975 308.300, 800.737 308.487, 802.250 308.716 M 819.776 308.733 C 822.128 308.945, 825.728 308.942, 827.776 308.727 C 829.824 308.512, 827.900 308.339, 823.500 308.343 C 819.100 308.346, 817.424 308.522, 819.776 308.733 M 846.250 308.728 C 848.313 308.944, 851.688 308.944, 853.750 308.728 C 855.813 308.513, 854.125 308.336, 850 308.336 C 845.875 308.336, 844.188 308.513, 846.250 308.728 M 859.762 308.707 C 861.006 308.946, 862.806 308.937, 863.762 308.687 C 864.718 308.437, 863.700 308.241, 861.500 308.252 C 859.300 308.263, 858.518 308.468, 859.762 308.707 M 869.813 308.683 C 870.534 308.972, 871.397 308.936, 871.729 308.604 C 872.061 308.272, 871.471 308.036, 870.417 308.079 C 869.252 308.127, 869.015 308.364, 869.813 308.683 M 881.250 308.689 C 882.212 308.941, 883.788 308.941, 884.750 308.689 C 885.712 308.438, 884.925 308.232, 883 308.232 C 881.075 308.232, 880.288 308.438, 881.250 308.689 M 887.813 308.683 C 888.534 308.972, 889.397 308.936, 889.729 308.604 C 890.061 308.272, 889.471 308.036, 888.417 308.079 C 887.252 308.127, 887.015 308.364, 887.813 308.683 M 900.813 308.683 C 901.534 308.972, 902.397 308.936, 902.729 308.604 C 903.061 308.272, 902.471 308.036, 901.417 308.079 C 900.252 308.127, 900.015 308.364, 900.813 308.683 M 907.776 308.733 C 910.128 308.945, 913.728 308.942, 915.776 308.727 C 917.824 308.512, 915.900 308.339, 911.500 308.343 C 907.100 308.346, 905.424 308.522, 907.776 308.733 M 930.250 308.716 C 931.763 308.945, 934.237 308.945, 935.750 308.716 C 937.263 308.487, 936.025 308.300, 933 308.300 C 929.975 308.300, 928.737 308.487, 930.250 308.716 M 947.250 308.728 C 949.313 308.944, 952.688 308.944, 954.750 308.728 C 956.813 308.513, 955.125 308.336, 951 308.336 C 946.875 308.336, 945.188 308.513, 947.250 308.728 M 974.250 308.728 C 976.313 308.944, 979.688 308.944, 981.750 308.728 C 983.813 308.513, 982.125 308.336, 978 308.336 C 973.875 308.336, 972.188 308.513, 974.250 308.728 M 987.762 308.707 C 989.006 308.946, 990.806 308.937, 991.762 308.687 C 992.718 308.437, 991.700 308.241, 989.500 308.252 C 987.300 308.263, 986.518 308.468, 987.762 308.707 M 1009.250 308.689 C 1010.212 308.941, 1011.788 308.941, 1012.750 308.689 C 1013.712 308.438, 1012.925 308.232, 1011 308.232 C 1009.075 308.232, 1008.288 308.438, 1009.250 308.689 M 1015.813 308.683 C 1016.534 308.972, 1017.397 308.936, 1017.729 308.604 C 1018.061 308.272, 1017.471 308.036, 1016.417 308.079 C 1015.252 308.127, 1015.015 308.364, 1015.813 308.683 M 1028.813 308.683 C 1029.534 308.972, 1030.397 308.936, 1030.729 308.604 C 1031.061 308.272, 1030.471 308.036, 1029.417 308.079 C 1028.252 308.127, 1028.015 308.364, 1028.813 308.683 M 1035.776 308.733 C 1038.128 308.945, 1041.728 308.942, 1043.776 308.727 C 1045.824 308.512, 1043.900 308.339, 1039.500 308.343 C 1035.100 308.346, 1033.424 308.522, 1035.776 308.733 M 1061.264 308.718 C 1062.784 308.947, 1065.034 308.941, 1066.264 308.704 C 1067.494 308.467, 1066.250 308.279, 1063.500 308.286 C 1060.750 308.294, 1059.744 308.488, 1061.264 308.718 M 1073.250 308.735 C 1075.862 308.941, 1080.138 308.941, 1082.750 308.735 C 1085.362 308.529, 1083.225 308.360, 1078 308.360 C 1072.775 308.360, 1070.638 308.529, 1073.250 308.735 M 1102.250 308.728 C 1104.313 308.944, 1107.688 308.944, 1109.750 308.728 C 1111.813 308.513, 1110.125 308.336, 1106 308.336 C 1101.875 308.336, 1100.188 308.513, 1102.250 308.728 M 1115.762 308.707 C 1117.006 308.946, 1118.806 308.937, 1119.762 308.687 C 1120.718 308.437, 1119.700 308.241, 1117.500 308.252 C 1115.300 308.263, 1114.518 308.468, 1115.762 308.707 M 1125.813 308.683 C 1126.534 308.972, 1127.397 308.936, 1127.729 308.604 C 1128.061 308.272, 1127.471 308.036, 1126.417 308.079 C 1125.252 308.127, 1125.015 308.364, 1125.813 308.683 M 1137.250 308.689 C 1138.213 308.941, 1139.787 308.941, 1140.750 308.689 C 1141.713 308.438, 1140.925 308.232, 1139 308.232 C 1137.075 308.232, 1136.287 308.438, 1137.250 308.689 M 1143.813 308.683 C 1144.534 308.972, 1145.397 308.936, 1145.729 308.604 C 1146.061 308.272, 1145.471 308.036, 1144.417 308.079 C 1143.252 308.127, 1143.015 308.364, 1143.813 308.683 M 1156.813 308.683 C 1157.534 308.972, 1158.397 308.936, 1158.729 308.604 C 1159.061 308.272, 1158.471 308.036, 1157.417 308.079 C 1156.252 308.127, 1156.015 308.364, 1156.813 308.683 M 1163.776 308.733 C 1166.128 308.945, 1169.728 308.942, 1171.776 308.727 C 1173.824 308.512, 1171.900 308.339, 1167.500 308.343 C 1163.100 308.346, 1161.424 308.522, 1163.776 308.733 M 1188.269 308.693 C 1189.242 308.947, 1190.592 308.930, 1191.269 308.656 C 1191.946 308.382, 1191.150 308.175, 1189.500 308.195 C 1187.850 308.215, 1187.296 308.439, 1188.269 308.693 M 1203.728 308.722 C 1205.503 308.943, 1208.653 308.946, 1210.728 308.730 C 1212.802 308.513, 1211.350 308.333, 1207.500 308.328 C 1203.650 308.324, 1201.952 308.501, 1203.728 308.722 M 1229.768 308.725 C 1231.565 308.947, 1234.265 308.943, 1235.768 308.715 C 1237.271 308.486, 1235.800 308.304, 1232.500 308.310 C 1229.200 308.315, 1227.971 308.502, 1229.768 308.725 M 1243.762 308.707 C 1245.006 308.946, 1246.806 308.937, 1247.762 308.687 C 1248.718 308.437, 1247.700 308.241, 1245.500 308.252 C 1243.300 308.263, 1242.518 308.468, 1243.762 308.707 M 1253.813 308.683 C 1254.534 308.972, 1255.397 308.936, 1255.729 308.604 C 1256.061 308.272, 1255.471 308.036, 1254.417 308.079 C 1253.252 308.127, 1253.015 308.364, 1253.813 308.683 M 1266.269 308.693 C 1267.242 308.947, 1268.592 308.930, 1269.269 308.656 C 1269.946 308.382, 1269.150 308.175, 1267.500 308.195 C 1265.850 308.215, 1265.296 308.439, 1266.269 308.693 M 1271.813 308.683 C 1272.534 308.972, 1273.397 308.936, 1273.729 308.604 C 1274.061 308.272, 1273.471 308.036, 1272.417 308.079 C 1271.252 308.127, 1271.015 308.364, 1271.813 308.683 M 1284.813 308.683 C 1285.534 308.972, 1286.397 308.936, 1286.729 308.604 C 1287.061 308.272, 1286.471 308.036, 1285.417 308.079 C 1284.252 308.127, 1284.015 308.364, 1284.813 308.683 M 1291.776 308.733 C 1294.128 308.945, 1297.728 308.942, 1299.776 308.727 C 1301.824 308.512, 1299.900 308.339, 1295.500 308.343 C 1291.100 308.346, 1289.424 308.522, 1291.776 308.733 M 1313.750 308.706 C 1314.987 308.944, 1317.013 308.944, 1318.250 308.706 C 1319.487 308.467, 1318.475 308.272, 1316 308.272 C 1313.525 308.272, 1312.513 308.467, 1313.750 308.706 M 1331.776 308.733 C 1334.128 308.945, 1337.728 308.942, 1339.776 308.727 C 1341.824 308.512, 1339.900 308.339, 1335.500 308.343 C 1331.100 308.346, 1329.424 308.522, 1331.776 308.733 M 1357.250 308.716 C 1358.763 308.945, 1361.237 308.945, 1362.750 308.716 C 1364.263 308.487, 1363.025 308.300, 1360 308.300 C 1356.975 308.300, 1355.737 308.487, 1357.250 308.716 M 1371.762 308.707 C 1373.006 308.946, 1374.806 308.937, 1375.762 308.687 C 1376.718 308.437, 1375.700 308.241, 1373.500 308.252 C 1371.300 308.263, 1370.518 308.468, 1371.762 308.707 M 1394.269 308.693 C 1395.242 308.947, 1396.592 308.930, 1397.269 308.656 C 1397.946 308.382, 1397.150 308.175, 1395.500 308.195 C 1393.850 308.215, 1393.296 308.439, 1394.269 308.693 M 1399.813 308.683 C 1400.534 308.972, 1401.397 308.936, 1401.729 308.604 C 1402.061 308.272, 1401.471 308.036, 1400.417 308.079 C 1399.252 308.127, 1399.015 308.364, 1399.813 308.683 M 1412.813 308.683 C 1413.534 308.972, 1414.397 308.936, 1414.729 308.604 C 1415.061 308.272, 1414.471 308.036, 1413.417 308.079 C 1412.252 308.127, 1412.015 308.364, 1412.813 308.683 M 1419.776 308.733 C 1422.128 308.945, 1425.728 308.942, 1427.776 308.727 C 1429.824 308.512, 1427.900 308.339, 1423.500 308.343 C 1419.100 308.346, 1417.424 308.522, 1419.776 308.733 M 1444.750 308.662 C 1445.438 308.940, 1446.563 308.940, 1447.250 308.662 C 1447.938 308.385, 1447.375 308.158, 1446 308.158 C 1444.625 308.158, 1444.063 308.385, 1444.750 308.662 M 1459.776 308.733 C 1462.128 308.945, 1465.728 308.942, 1467.776 308.727 C 1469.824 308.512, 1467.900 308.339, 1463.500 308.343 C 1459.100 308.346, 1457.424 308.522, 1459.776 308.733 M 1486.250 308.728 C 1488.313 308.944, 1491.688 308.944, 1493.750 308.728 C 1495.813 308.513, 1494.125 308.336, 1490 308.336 C 1485.875 308.336, 1484.188 308.513, 1486.250 308.728 M 1499.762 308.707 C 1501.006 308.946, 1502.806 308.937, 1503.762 308.687 C 1504.718 308.437, 1503.700 308.241, 1501.500 308.252 C 1499.300 308.263, 1498.518 308.468, 1499.762 308.707 M 1509.813 308.683 C 1510.534 308.972, 1511.397 308.936, 1511.729 308.604 C 1512.061 308.272, 1511.471 308.036, 1510.417 308.079 C 1509.252 308.127, 1509.015 308.364, 1509.813 308.683 M 1520.813 308.683 C 1521.534 308.972, 1522.397 308.936, 1522.729 308.604 C 1523.061 308.272, 1522.471 308.036, 1521.417 308.079 C 1520.252 308.127, 1520.015 308.364, 1520.813 308.683 M 1540.813 308.683 C 1541.534 308.972, 1542.397 308.936, 1542.729 308.604 C 1543.061 308.272, 1542.471 308.036, 1541.417 308.079 C 1540.252 308.127, 1540.015 308.364, 1540.813 308.683" stroke="none" fill="black" fill-rule="evenodd"/>
</svg>