<svg xmlns="http://www.w3.org/2000/svg" width="2000" height="2000" viewBox="0 0 2000 2000" version="1.1">
	<path fill-opacity="0.271" d="M 574 226 C 574 230.811, 574.106 231, 576.804 231 C 579.726 231, 587.254 235.287, 590.212 238.635 C 592.576 241.311, 594.962 247.302, 595.658 252.308 C 596.260 256.640, 600.630 263.941, 602.643 263.979 C 603.932 264.003, 605 266.267, 605 268.976 C 605 269.974, 605.924 273.780, 607.053 277.436 C 608.751 282.933, 610.157 285.157, 615.180 290.291 C 622.146 297.412, 624.947 302.689, 624.978 308.750 C 624.994 311.811, 625.411 313, 626.469 313 C 627.342 313, 627.711 313.589, 627.380 314.452 C 627.074 315.251, 627.184 316.488, 627.625 317.202 C 628.066 317.915, 628.296 319.737, 628.138 321.249 L 627.849 324 975 324 L 1322.151 324 1321.932 321.250 C 1321.811 319.738, 1322.042 317.734, 1322.445 316.798 C 1322.848 315.862, 1322.886 314.624, 1322.530 314.048 C 1322.173 313.472, 1322.521 313, 1323.301 313 C 1324.282 313, 1324.892 311.337, 1325.276 307.613 C 1325.981 300.788, 1327.607 297.684, 1334.017 290.927 C 1340.222 284.387, 1343.946 276.928, 1344.712 269.503 C 1345.140 265.359, 1345.678 263.995, 1346.890 263.979 C 1348.937 263.952, 1354 256.869, 1354 254.033 C 1354 243.327, 1364.415 231, 1373.460 231 C 1375.841 231, 1376 230.688, 1376 226 L 1376 221 975 221 L 574 221 574 226" stroke="none" fill="black" fill-rule="evenodd"/>
	<path fill-opacity="0.042" d="M 581.500 232.353 C 586.624 234.744, 593.410 241.317, 594.958 245.389 L 595.826 247.673 974.163 247.700 C 1209.813 247.718, 1353.192 247.372, 1354.336 246.783 C 1355.345 246.263, 1355.910 245.577, 1355.590 245.257 C 1354.864 244.531, 1359.614 238.175, 1362.883 235.500 C 1364.227 234.400, 1367.391 232.731, 1369.913 231.792 C 1374.252 230.175, 1352.944 230.081, 975.500 230.051 L 576.500 230.020 581.500 232.353 M 598.128 258.718 C 601.767 263.274, 602.535 264, 603.722 264 C 604.425 264, 605 264.450, 605 265 C 605 265.665, 729 266, 975 266 C 1303.222 266, 1345 265.831, 1345 264.500 C 1345 263.675, 1345.694 263, 1346.542 263 C 1348.627 263, 1352.919 259.026, 1350.939 258.930 C 1350.059 258.887, 1350.277 258.525, 1351.500 258 C 1352.620 257.519, 1187.074 257.110, 975.128 257.070 C 617.563 257.004, 596.831 257.094, 598.128 258.718 M 664.750 258.662 C 665.438 258.940, 666.563 258.940, 667.250 258.662 C 667.938 258.385, 667.375 258.158, 666 258.158 C 664.625 258.158, 664.063 258.385, 664.750 258.662 M 711.762 258.707 C 713.006 258.946, 714.806 258.937, 715.762 258.687 C 716.718 258.437, 715.700 258.241, 713.500 258.252 C 711.300 258.263, 710.518 258.468, 711.762 258.707 M 793.269 258.693 C 794.242 258.947, 795.592 258.930, 796.269 258.656 C 796.946 258.382, 796.150 258.175, 794.500 258.195 C 792.850 258.215, 792.296 258.439, 793.269 258.693 M 839.762 258.707 C 841.006 258.946, 842.806 258.937, 843.762 258.687 C 844.718 258.437, 843.700 258.241, 841.500 258.252 C 839.300 258.263, 838.518 258.468, 839.762 258.707 M 859.813 258.683 C 860.534 258.972, 861.397 258.936, 861.729 258.604 C 862.061 258.272, 861.471 258.036, 860.417 258.079 C 859.252 258.127, 859.015 258.364, 859.813 258.683 M 920.750 258.662 C 921.438 258.940, 922.563 258.940, 923.250 258.662 C 923.938 258.385, 923.375 258.158, 922 258.158 C 920.625 258.158, 920.063 258.385, 920.750 258.662 M 967.762 258.707 C 969.006 258.946, 970.806 258.937, 971.762 258.687 C 972.718 258.437, 971.700 258.241, 969.500 258.252 C 967.300 258.263, 966.518 258.468, 967.762 258.707 M 1049.269 258.693 C 1050.242 258.947, 1051.592 258.930, 1052.269 258.656 C 1052.946 258.382, 1052.150 258.175, 1050.500 258.195 C 1048.850 258.215, 1048.296 258.439, 1049.269 258.693 M 1095.762 258.707 C 1097.006 258.946, 1098.806 258.937, 1099.762 258.687 C 1100.718 258.437, 1099.700 258.241, 1097.500 258.252 C 1095.300 258.263, 1094.518 258.468, 1095.762 258.707 M 1174.750 258.706 C 1175.987 258.944, 1178.013 258.944, 1179.250 258.706 C 1180.487 258.467, 1179.475 258.272, 1177 258.272 C 1174.525 258.272, 1173.513 258.467, 1174.750 258.706 M 1223.762 258.707 C 1225.006 258.946, 1226.806 258.937, 1227.762 258.687 C 1228.718 258.437, 1227.700 258.241, 1225.500 258.252 C 1223.300 258.263, 1222.518 258.468, 1223.762 258.707 M 1303.762 258.707 C 1305.006 258.946, 1306.806 258.937, 1307.762 258.687 C 1308.718 258.437, 1307.700 258.241, 1305.500 258.252 C 1303.300 258.263, 1302.518 258.468, 1303.762 258.707 M 621.009 280.791 C 615.789 280.951, 611.130 281.470, 610.656 281.944 C 609.443 283.157, 610.560 284.811, 618.264 293.211 L 625.027 300.586 974.988 300.543 L 1324.949 300.500 1332.475 292.225 C 1336.614 287.673, 1340 283.550, 1340 283.063 C 1340 282.575, 1338.313 281.928, 1336.250 281.624 C 1333.033 281.152, 1284.323 280.767, 1269.500 281.098 C 1249.705 281.539, 1152.047 281.147, 1151.199 280.623 C 1150.615 280.262, 1149.851 280.432, 1149.500 281 C 1149.149 281.568, 1148.405 281.750, 1147.846 281.405 C 1147.287 281.059, 1141.581 280.874, 1135.165 280.992 C 1128.749 281.110, 1099.875 281.149, 1071 281.079 C 1042.125 281.008, 1017.375 280.951, 1016 280.951 C 949.019 280.962, 890.802 280.962, 888.500 280.951 C 886.850 280.944, 858.050 280.945, 824.500 280.953 C 790.950 280.962, 761.925 280.968, 760 280.966 C 758.075 280.965, 729.275 280.987, 696 281.016 C 662.725 281.045, 634.375 280.941, 633 280.784 C 631.625 280.628, 626.229 280.631, 621.009 280.791 M 628.181 313.514 C 628.854 314.187, 1321.145 314.189, 1321.818 313.515 C 1322.101 313.232, 1166.033 313, 975 313 C 783.967 313, 627.898 313.231, 628.181 313.514 M 801.250 316.750 C 896.812 316.891, 1053.187 316.891, 1148.750 316.750 C 1244.312 316.609, 1166.125 316.494, 975 316.494 C 783.875 316.494, 705.687 316.609, 801.250 316.750 M 802.250 318.750 C 897.263 318.891, 1052.738 318.891, 1147.750 318.750 C 1242.763 318.609, 1165.025 318.494, 975 318.494 C 784.975 318.494, 707.238 318.609, 802.250 318.750" stroke="none" fill="black" fill-rule="evenodd"/>
	<path fill-opacity="0.191" d="M 581 231.666 C 582.925 232.492, 586.606 234.931, 589.179 237.084 L 593.859 241 975.179 240.999 L 1356.500 240.997 1361 237 C 1363.475 234.802, 1367.300 232.363, 1369.500 231.580 C 1372.971 230.346, 1320.850 230.158, 975.500 230.161 C 620.507 230.163, 577.878 230.326, 581 231.666 M 786.250 257.750 C 890.062 257.890, 1059.937 257.890, 1163.750 257.750 C 1267.562 257.610, 1182.625 257.495, 975 257.495 C 767.375 257.495, 682.437 257.610, 786.250 257.750 M 787.250 260.750 C 890.513 260.890, 1059.488 260.890, 1162.750 260.750 C 1266.013 260.610, 1181.525 260.495, 975 260.495 C 768.475 260.495, 683.988 260.610, 787.250 260.750 M 604.500 264 C 604.910 264.664, 729.510 265, 975.059 265 C 1221.020 265, 1345 264.665, 1345 264 C 1345 263.335, 1220.814 263, 974.441 263 C 727.656 263, 604.088 263.334, 604.500 264 M 613.017 287 C 613.026 287.275, 614.745 289.186, 616.837 291.247 L 620.641 294.994 975.010 295.003 L 1329.379 295.011 1332.276 292.256 C 1333.869 290.740, 1335.539 288.825, 1335.987 288 C 1336.711 286.668, 1296.287 286.500, 974.901 286.500 C 775.856 286.500, 613.008 286.725, 613.017 287 M 646.250 313.749 C 656.563 313.911, 673.438 313.911, 683.750 313.749 C 694.063 313.586, 685.625 313.453, 665 313.453 C 644.375 313.453, 635.938 313.586, 646.250 313.749 M 857.831 313.750 C 943.263 313.891, 1082.763 313.891, 1167.831 313.750 C 1252.899 313.609, 1183 313.494, 1012.500 313.494 C 842 313.494, 772.399 313.609, 857.831 313.750" stroke="none" fill="black" fill-rule="evenodd"/>
	<path fill-opacity="0.243" d="M 581 231.065 C 581 231.375, 582.615 232.400, 584.590 233.341 C 587.959 234.948, 611.923 235.052, 974.952 235.039 C 1317.456 235.026, 1362.056 234.852, 1364.613 233.518 C 1366.201 232.690, 1368.063 232.010, 1368.750 232.006 C 1369.438 232.003, 1370 231.662, 1370 231.250 C 1370 230.838, 1192.475 230.500, 975.500 230.500 C 758.525 230.500, 581 230.754, 581 231.065" stroke="none" fill="black" fill-rule="evenodd"/>
</svg>