<svg xmlns="http://www.w3.org/2000/svg" width="2000" height="2000" viewBox="0 0 2000 2000" version="1.1">
	<path fill-opacity="0.231" d="M 596 128.481 C 596 132.542, 596.257 133.024, 598.750 133.623 C 609.183 136.130, 616.427 144.363, 617.706 155.167 C 618.099 158.481, 619.115 161.100, 620.653 162.759 C 621.944 164.152, 623 165.624, 623 166.029 C 623 166.435, 623.900 167.002, 625 167.290 C 626.422 167.662, 627 168.654, 627 170.725 C 627 174.808, 629.859 183.988, 632.122 187.169 C 633.166 188.637, 636.096 191.973, 638.633 194.583 C 644.167 200.278, 646.948 205.999, 646.978 211.750 C 646.993 214.725, 647.422 216, 648.406 216 C 649.292 216, 649.630 216.698, 649.319 217.887 C 649.048 218.925, 649.316 220.077, 649.916 220.448 C 650.685 220.923, 650.697 221.697, 649.956 223.081 C 649.380 224.159, 649.180 225.482, 649.513 226.021 C 649.906 226.657, 774.183 227, 1004.134 227 L 1358.151 227 1357.932 224.250 C 1357.811 222.738, 1358.042 220.734, 1358.445 219.798 C 1358.848 218.862, 1358.915 217.671, 1358.594 217.153 C 1358.274 216.634, 1358.684 215.952, 1359.506 215.636 C 1360.525 215.245, 1361 213.632, 1361 210.562 C 1361 204.948, 1363.493 200.377, 1370.872 192.464 C 1376.768 186.141, 1379.468 180.411, 1380.633 171.750 C 1380.984 169.137, 1381.733 167, 1382.298 167 C 1382.862 167, 1384.825 165.313, 1386.661 163.250 C 1389.247 160.344, 1390.004 158.600, 1390.021 155.500 C 1390.073 146.401, 1396.908 137.716, 1406.613 134.417 L 1412 132.586 1412 128.293 L 1412 124 1004 124 L 596 124 596 128.481" stroke="none" fill="black" fill-rule="evenodd"/>
	<path fill-opacity="0.082" d="M 600.963 134.174 C 604.839 135.286, 609.845 138.522, 611.772 141.160 C 612.472 142.118, 613.650 143.507, 614.390 144.247 C 615.131 144.988, 616.051 146.585, 616.435 147.797 C 617.281 150.461, 612.071 150.246, 673 150.125 C 699.125 150.073, 725.225 150.067, 731 150.113 C 736.775 150.159, 765.575 150.165, 795 150.128 C 824.425 150.090, 853.225 150.091, 859 150.128 C 864.775 150.166, 893.575 150.164, 923 150.123 C 952.425 150.082, 981.225 150.077, 987 150.113 C 992.775 150.149, 1021.575 150.149, 1051 150.115 C 1080.425 150.080, 1109.225 150.082, 1115 150.118 C 1141.967 150.288, 1188.227 150.189, 1194.757 149.948 C 1198.748 149.800, 1202.230 149.897, 1202.496 150.163 C 1202.761 150.428, 1209.621 150.486, 1217.739 150.291 C 1225.858 150.097, 1237.225 149.989, 1243 150.052 C 1248.775 150.115, 1269.475 150.144, 1289 150.117 C 1308.525 150.091, 1326.300 150.091, 1328.500 150.118 C 1336.757 150.220, 1345.018 150.207, 1362.630 150.066 C 1372.602 149.986, 1381.152 149.991, 1381.630 150.078 C 1382.109 150.166, 1384.178 150.184, 1386.230 150.118 C 1389.506 150.014, 1390.200 149.529, 1391.936 146.126 C 1394.253 141.583, 1398.898 137.421, 1404.500 134.867 C 1408.378 133.099, 1396.176 133.046, 1003 133.112 C 732.606 133.158, 598.654 133.511, 600.963 134.174 M 619 160.250 C 619 160.662, 792.325 161, 1004.167 161 C 1216.008 161, 1389.107 160.774, 1388.831 160.497 C 1388.012 159.678, 619 159.431, 619 160.250 M 622.232 164 C 622.919 165.100, 624.273 166, 625.241 166 C 626.208 166, 627 166.637, 627 167.416 C 627 169.567, 1378.273 169.584, 1380.424 167.433 C 1381.212 166.645, 1382.456 166, 1383.188 166 C 1383.920 166, 1385.081 165.100, 1385.768 164 C 1387.016 162.001, 1386.767 162, 1004 162 C 621.233 162, 620.984 162.001, 622.232 164 M 631.486 183.848 C 630.563 184.770, 632.930 188.130, 639.168 194.753 C 642.926 198.742, 646 202.426, 646 202.939 C 646 203.516, 783.035 203.867, 1004.055 203.858 L 1362.109 203.843 1362.961 201.602 C 1363.430 200.370, 1366.020 197.143, 1368.719 194.431 C 1374.703 188.416, 1377.614 184.058, 1375.773 183.871 C 1372.693 183.559, 631.797 183.536, 631.486 183.848 M 691.500 216.016 C 668.400 216.301, 808.988 216.638, 1003.917 216.766 C 1198.846 216.895, 1358.093 216.760, 1357.800 216.467 C 1357.097 215.763, 745.693 215.350, 691.500 216.016 M 826.750 219.750 C 924.238 219.891, 1083.763 219.891, 1181.250 219.750 C 1278.738 219.609, 1198.975 219.494, 1004 219.494 C 809.025 219.494, 729.263 219.609, 826.750 219.750 M 654.250 221.689 C 655.212 221.941, 656.788 221.941, 657.750 221.689 C 658.712 221.438, 657.925 221.232, 656 221.232 C 654.075 221.232, 653.288 221.438, 654.250 221.689 M 665.250 221.739 C 668.413 221.937, 673.587 221.937, 676.750 221.739 C 679.913 221.541, 677.325 221.378, 671 221.378 C 664.675 221.378, 662.087 221.541, 665.250 221.739 M 687.750 221.732 C 690.087 221.943, 693.913 221.943, 696.250 221.732 C 698.587 221.522, 696.675 221.349, 692 221.349 C 687.325 221.349, 685.413 221.522, 687.750 221.732 M 703.750 221.662 C 704.438 221.940, 705.563 221.940, 706.250 221.662 C 706.938 221.385, 706.375 221.158, 705 221.158 C 703.625 221.158, 703.063 221.385, 703.750 221.662 M 709.250 221.689 C 710.212 221.941, 711.788 221.941, 712.750 221.689 C 713.712 221.438, 712.925 221.232, 711 221.232 C 709.075 221.232, 708.288 221.438, 709.250 221.689 M 716.269 221.693 C 717.242 221.947, 718.592 221.930, 719.269 221.656 C 719.946 221.382, 719.150 221.175, 717.500 221.195 C 715.850 221.215, 715.296 221.439, 716.269 221.693 M 722.269 221.693 C 723.242 221.947, 724.592 221.930, 725.269 221.656 C 725.946 221.382, 725.150 221.175, 723.500 221.195 C 721.850 221.215, 721.296 221.439, 722.269 221.693 M 727.813 221.683 C 728.534 221.972, 729.397 221.936, 729.729 221.604 C 730.061 221.272, 729.471 221.036, 728.417 221.079 C 727.252 221.127, 727.015 221.364, 727.813 221.683 M 737.813 221.683 C 738.534 221.972, 739.397 221.936, 739.729 221.604 C 740.061 221.272, 739.471 221.036, 738.417 221.079 C 737.252 221.127, 737.015 221.364, 737.813 221.683 M 768.750 221.740 C 772.188 221.936, 777.813 221.936, 781.250 221.740 C 784.688 221.545, 781.875 221.385, 775 221.385 C 768.125 221.385, 765.313 221.545, 768.750 221.740 M 793.250 221.739 C 796.413 221.937, 801.587 221.937, 804.750 221.739 C 807.913 221.541, 805.325 221.378, 799 221.378 C 792.675 221.378, 790.087 221.541, 793.250 221.739 M 812.750 221.662 C 813.438 221.940, 814.563 221.940, 815.250 221.662 C 815.938 221.385, 815.375 221.158, 814 221.158 C 812.625 221.158, 812.063 221.385, 812.750 221.662 M 821.250 221.735 C 823.862 221.941, 828.138 221.941, 830.750 221.735 C 833.362 221.529, 831.225 221.360, 826 221.360 C 820.775 221.360, 818.638 221.529, 821.250 221.735 M 837.250 221.689 C 838.212 221.941, 839.788 221.941, 840.750 221.689 C 841.712 221.438, 840.925 221.232, 839 221.232 C 837.075 221.232, 836.288 221.438, 837.250 221.689 M 848.287 221.740 C 851.469 221.939, 856.419 221.937, 859.287 221.736 C 862.154 221.535, 859.550 221.372, 853.500 221.374 C 847.450 221.376, 845.104 221.541, 848.287 221.740 M 877.813 221.683 C 878.534 221.972, 879.397 221.936, 879.729 221.604 C 880.061 221.272, 879.471 221.036, 878.417 221.079 C 877.252 221.127, 877.015 221.364, 877.813 221.683 M 895.250 221.742 C 898.962 221.934, 905.038 221.934, 908.750 221.742 C 912.462 221.549, 909.425 221.392, 902 221.392 C 894.575 221.392, 891.538 221.549, 895.250 221.742 M 921.789 221.741 C 925.248 221.937, 930.648 221.936, 933.789 221.738 C 936.930 221.540, 934.100 221.380, 927.500 221.382 C 920.900 221.384, 918.330 221.546, 921.789 221.741 M 945.789 221.741 C 949.248 221.937, 954.648 221.936, 957.789 221.738 C 960.930 221.540, 958.100 221.380, 951.500 221.382 C 944.900 221.384, 942.330 221.546, 945.789 221.741 M 965.250 221.689 C 966.212 221.941, 967.788 221.941, 968.750 221.689 C 969.712 221.438, 968.925 221.232, 967 221.232 C 965.075 221.232, 964.288 221.438, 965.250 221.689 M 973.813 221.683 C 974.534 221.972, 975.397 221.936, 975.729 221.604 C 976.061 221.272, 975.471 221.036, 974.417 221.079 C 973.252 221.127, 973.015 221.364, 973.813 221.683 M 978.750 221.662 C 979.438 221.940, 980.563 221.940, 981.250 221.662 C 981.938 221.385, 981.375 221.158, 980 221.158 C 978.625 221.158, 978.063 221.385, 978.750 221.662 M 985.264 221.718 C 986.784 221.947, 989.034 221.941, 990.264 221.704 C 991.494 221.467, 990.250 221.279, 987.500 221.286 C 984.750 221.294, 983.744 221.488, 985.264 221.718 M 993.813 221.683 C 994.534 221.972, 995.397 221.936, 995.729 221.604 C 996.061 221.272, 995.471 221.036, 994.417 221.079 C 993.252 221.127, 993.015 221.364, 993.813 221.683 M 1005.813 221.683 C 1006.534 221.972, 1007.397 221.936, 1007.729 221.604 C 1008.061 221.272, 1007.471 221.036, 1006.417 221.079 C 1005.252 221.127, 1005.015 221.364, 1005.813 221.683 M 1022.206 221.741 C 1025.895 221.932, 1032.195 221.934, 1036.206 221.743 C 1040.218 221.553, 1037.200 221.396, 1029.500 221.395 C 1021.800 221.393, 1018.518 221.549, 1022.206 221.741 M 1049.250 221.739 C 1052.412 221.937, 1057.588 221.937, 1060.750 221.739 C 1063.912 221.541, 1061.325 221.378, 1055 221.378 C 1048.675 221.378, 1046.088 221.541, 1049.250 221.739 M 1068.269 221.693 C 1069.242 221.947, 1070.592 221.930, 1071.269 221.656 C 1071.946 221.382, 1071.150 221.175, 1069.500 221.195 C 1067.850 221.215, 1067.296 221.439, 1068.269 221.693 M 1075.269 221.693 C 1076.242 221.947, 1077.592 221.930, 1078.269 221.656 C 1078.946 221.382, 1078.150 221.175, 1076.500 221.195 C 1074.850 221.215, 1074.296 221.439, 1075.269 221.693 M 1088.813 221.683 C 1089.534 221.972, 1090.397 221.936, 1090.729 221.604 C 1091.061 221.272, 1090.471 221.036, 1089.417 221.079 C 1088.252 221.127, 1088.015 221.364, 1088.813 221.683 M 1101.813 221.683 C 1102.534 221.972, 1103.397 221.936, 1103.729 221.604 C 1104.061 221.272, 1103.471 221.036, 1102.417 221.079 C 1101.252 221.127, 1101.015 221.364, 1101.813 221.683 M 1106.269 221.693 C 1107.242 221.947, 1108.592 221.930, 1109.269 221.656 C 1109.946 221.382, 1109.150 221.175, 1107.500 221.195 C 1105.850 221.215, 1105.296 221.439, 1106.269 221.693 M 1115.269 221.693 C 1116.242 221.947, 1117.592 221.930, 1118.269 221.656 C 1118.946 221.382, 1118.150 221.175, 1116.500 221.195 C 1114.850 221.215, 1114.296 221.439, 1115.269 221.693 M 1158.807 221.747 C 1165.576 221.921, 1176.376 221.920, 1182.807 221.746 C 1189.238 221.572, 1183.700 221.431, 1170.500 221.431 C 1157.300 221.432, 1152.038 221.574, 1158.807 221.747 M 1203.269 221.693 C 1204.242 221.947, 1205.592 221.930, 1206.269 221.656 C 1206.946 221.382, 1206.150 221.175, 1204.500 221.195 C 1202.850 221.215, 1202.296 221.439, 1203.269 221.693 M 1208.750 221.662 C 1209.438 221.940, 1210.563 221.940, 1211.250 221.662 C 1211.938 221.385, 1211.375 221.158, 1210 221.158 C 1208.625 221.158, 1208.063 221.385, 1208.750 221.662 M 1216.813 221.683 C 1217.534 221.972, 1218.397 221.936, 1218.729 221.604 C 1219.061 221.272, 1218.471 221.036, 1217.417 221.079 C 1216.252 221.127, 1216.015 221.364, 1216.813 221.683 M 1221.250 221.689 C 1222.213 221.941, 1223.787 221.941, 1224.750 221.689 C 1225.713 221.438, 1224.925 221.232, 1223 221.232 C 1221.075 221.232, 1220.287 221.438, 1221.250 221.689 M 1229.768 221.725 C 1231.565 221.947, 1234.265 221.943, 1235.768 221.715 C 1237.271 221.486, 1235.800 221.304, 1232.500 221.310 C 1229.200 221.315, 1227.971 221.502, 1229.768 221.725 M 1275.750 221.662 C 1276.438 221.940, 1277.563 221.940, 1278.250 221.662 C 1278.938 221.385, 1278.375 221.158, 1277 221.158 C 1275.625 221.158, 1275.063 221.385, 1275.750 221.662 M 1284.784 221.738 C 1287.689 221.941, 1292.189 221.939, 1294.784 221.734 C 1297.378 221.528, 1295 221.363, 1289.500 221.365 C 1284 221.368, 1281.878 221.536, 1284.784 221.738 M 1304.750 221.737 C 1307.638 221.939, 1312.362 221.939, 1315.250 221.737 C 1318.138 221.535, 1315.775 221.370, 1310 221.370 C 1304.225 221.370, 1301.862 221.535, 1304.750 221.737 M 1328.750 221.706 C 1329.987 221.944, 1332.013 221.944, 1333.250 221.706 C 1334.487 221.467, 1333.475 221.272, 1331 221.272 C 1328.525 221.272, 1327.513 221.467, 1328.750 221.706 M 1337.250 221.689 C 1338.213 221.941, 1339.787 221.941, 1340.750 221.689 C 1341.713 221.438, 1340.925 221.232, 1339 221.232 C 1337.075 221.232, 1336.287 221.438, 1337.250 221.689 M 1343.750 221.662 C 1344.438 221.940, 1345.563 221.940, 1346.250 221.662 C 1346.938 221.385, 1346.375 221.158, 1345 221.158 C 1343.625 221.158, 1343.063 221.385, 1343.750 221.662" stroke="none" fill="black" fill-rule="evenodd"/>
	<path fill-opacity="0.228" d="M 603.516 134.868 C 605.724 135.872, 609.275 138.337, 611.406 140.346 L 615.280 144 1003.890 143.972 L 1392.500 143.944 1395.500 140.840 C 1397.150 139.133, 1400.750 136.675, 1403.500 135.378 L 1408.500 133.020 1004 133.032 C 611.682 133.044, 599.621 133.099, 603.516 134.868 M 810.669 160.750 C 916.361 160.890, 1089.611 160.890, 1195.669 160.750 C 1301.726 160.610, 1215.250 160.495, 1003.500 160.495 C 791.750 160.495, 704.976 160.610, 810.669 160.750 M 812.169 163.750 C 917.036 163.890, 1088.936 163.890, 1194.169 163.750 C 1299.401 163.610, 1213.600 163.495, 1003.500 163.495 C 793.400 163.495, 707.301 163.610, 812.169 163.750 M 627.427 166.883 C 628.131 168.021, 1379.892 167.984, 1380.595 166.846 C 1380.883 166.381, 1211.415 166, 1004 166 C 786.304 166, 627.113 166.373, 627.427 166.883 M 634 189.038 C 634 189.333, 636.138 191.673, 638.750 194.236 L 643.500 198.898 1003.526 198.960 L 1363.552 199.023 1368.489 194.012 L 1373.425 189 1251.462 188.998 C 1184.383 188.997, 1018.012 188.884, 881.750 188.748 C 745.487 188.612, 634 188.742, 634 189.038 M 654.750 216.723 C 656.538 216.945, 659.462 216.945, 661.250 216.723 C 663.038 216.502, 661.575 216.320, 658 216.320 C 654.425 216.320, 652.962 216.502, 654.750 216.723 M 666.813 216.683 C 667.534 216.972, 668.397 216.936, 668.729 216.604 C 669.061 216.272, 668.471 216.036, 667.417 216.079 C 666.252 216.127, 666.015 216.364, 666.813 216.683 M 673.269 216.693 C 674.242 216.947, 675.592 216.930, 676.269 216.656 C 676.946 216.382, 676.150 216.175, 674.500 216.195 C 672.850 216.215, 672.296 216.439, 673.269 216.693 M 683.750 216.662 C 684.438 216.940, 685.563 216.940, 686.250 216.662 C 686.938 216.385, 686.375 216.158, 685 216.158 C 683.625 216.158, 683.063 216.385, 683.750 216.662 M 688.750 216.662 C 689.438 216.940, 690.563 216.940, 691.250 216.662 C 691.938 216.385, 691.375 216.158, 690 216.158 C 688.625 216.158, 688.063 216.385, 688.750 216.662 M 697.750 216.662 C 698.438 216.940, 699.563 216.940, 700.250 216.662 C 700.938 216.385, 700.375 216.158, 699 216.158 C 697.625 216.158, 697.063 216.385, 697.750 216.662 M 715.813 216.683 C 716.534 216.972, 717.397 216.936, 717.729 216.604 C 718.061 216.272, 717.471 216.036, 716.417 216.079 C 715.252 216.127, 715.015 216.364, 715.813 216.683 M 720.750 216.706 C 721.987 216.944, 724.013 216.944, 725.250 216.706 C 726.487 216.467, 725.475 216.272, 723 216.272 C 720.525 216.272, 719.513 216.467, 720.750 216.706 M 729.250 216.689 C 730.212 216.941, 731.788 216.941, 732.750 216.689 C 733.712 216.438, 732.925 216.232, 731 216.232 C 729.075 216.232, 728.288 216.438, 729.250 216.689 M 747.813 216.683 C 748.534 216.972, 749.397 216.936, 749.729 216.604 C 750.061 216.272, 749.471 216.036, 748.417 216.079 C 747.252 216.127, 747.015 216.364, 747.813 216.683 M 755.250 216.716 C 756.763 216.945, 759.237 216.945, 760.750 216.716 C 762.263 216.487, 761.025 216.300, 758 216.300 C 754.975 216.300, 753.737 216.487, 755.250 216.716 M 765.762 216.707 C 767.006 216.946, 768.806 216.937, 769.762 216.687 C 770.718 216.437, 769.700 216.241, 767.500 216.252 C 765.300 216.263, 764.518 216.468, 765.762 216.707 M 781.250 216.689 C 782.212 216.941, 783.788 216.941, 784.750 216.689 C 785.712 216.438, 784.925 216.232, 783 216.232 C 781.075 216.232, 780.288 216.438, 781.250 216.689 M 788.750 216.662 C 789.438 216.940, 790.563 216.940, 791.250 216.662 C 791.938 216.385, 791.375 216.158, 790 216.158 C 788.625 216.158, 788.063 216.385, 788.750 216.662 M 794.813 216.683 C 795.534 216.972, 796.397 216.936, 796.729 216.604 C 797.061 216.272, 796.471 216.036, 795.417 216.079 C 794.252 216.127, 794.015 216.364, 794.813 216.683 M 801.750 216.662 C 802.438 216.940, 803.563 216.940, 804.250 216.662 C 804.938 216.385, 804.375 216.158, 803 216.158 C 801.625 216.158, 801.063 216.385, 801.750 216.662 M 817.813 216.683 C 818.534 216.972, 819.397 216.936, 819.729 216.604 C 820.061 216.272, 819.471 216.036, 818.417 216.079 C 817.252 216.127, 817.015 216.364, 817.813 216.683 M 825.750 216.662 C 826.438 216.940, 827.563 216.940, 828.250 216.662 C 828.938 216.385, 828.375 216.158, 827 216.158 C 825.625 216.158, 825.063 216.385, 825.750 216.662 M 848.762 216.707 C 850.006 216.946, 851.806 216.937, 852.762 216.687 C 853.718 216.437, 852.700 216.241, 850.500 216.252 C 848.300 216.263, 847.518 216.468, 848.762 216.707 M 856.813 216.683 C 857.534 216.972, 858.397 216.936, 858.729 216.604 C 859.061 216.272, 858.471 216.036, 857.417 216.079 C 856.252 216.127, 856.015 216.364, 856.813 216.683 M 883.250 216.716 C 884.763 216.945, 887.237 216.945, 888.750 216.716 C 890.263 216.487, 889.025 216.300, 886 216.300 C 882.975 216.300, 881.737 216.487, 883.250 216.716 M 895.813 216.683 C 896.534 216.972, 897.397 216.936, 897.729 216.604 C 898.061 216.272, 897.471 216.036, 896.417 216.079 C 895.252 216.127, 895.015 216.364, 895.813 216.683 M 900.762 216.707 C 902.006 216.946, 903.806 216.937, 904.762 216.687 C 905.718 216.437, 904.700 216.241, 902.500 216.252 C 900.300 216.263, 899.518 216.468, 900.762 216.707 M 908.750 216.706 C 909.987 216.944, 912.013 216.944, 913.250 216.706 C 914.487 216.467, 913.475 216.272, 911 216.272 C 908.525 216.272, 907.513 216.467, 908.750 216.706 M 916.750 216.662 C 917.438 216.940, 918.563 216.940, 919.250 216.662 C 919.938 216.385, 919.375 216.158, 918 216.158 C 916.625 216.158, 916.063 216.385, 916.750 216.662 M 922.813 216.683 C 923.534 216.972, 924.397 216.936, 924.729 216.604 C 925.061 216.272, 924.471 216.036, 923.417 216.079 C 922.252 216.127, 922.015 216.364, 922.813 216.683 M 929.269 216.693 C 930.242 216.947, 931.592 216.930, 932.269 216.656 C 932.946 216.382, 932.150 216.175, 930.500 216.195 C 928.850 216.215, 928.296 216.439, 929.269 216.693 M 945.813 216.683 C 946.534 216.972, 947.397 216.936, 947.729 216.604 C 948.061 216.272, 947.471 216.036, 946.417 216.079 C 945.252 216.127, 945.015 216.364, 945.813 216.683 M 953.750 216.662 C 954.438 216.940, 955.563 216.940, 956.250 216.662 C 956.938 216.385, 956.375 216.158, 955 216.158 C 953.625 216.158, 953.063 216.385, 953.750 216.662 M 971.813 216.683 C 972.534 216.972, 973.397 216.936, 973.729 216.604 C 974.061 216.272, 973.471 216.036, 972.417 216.079 C 971.252 216.127, 971.015 216.364, 971.813 216.683 M 976.762 216.707 C 978.006 216.946, 979.806 216.937, 980.762 216.687 C 981.718 216.437, 980.700 216.241, 978.500 216.252 C 976.300 216.263, 975.518 216.468, 976.762 216.707 M 984.762 216.707 C 986.006 216.946, 987.806 216.937, 988.762 216.687 C 989.718 216.437, 988.700 216.241, 986.500 216.252 C 984.300 216.263, 983.518 216.468, 984.762 216.707 M 1003.813 216.683 C 1004.534 216.972, 1005.397 216.936, 1005.729 216.604 C 1006.061 216.272, 1005.471 216.036, 1004.417 216.079 C 1003.252 216.127, 1003.015 216.364, 1003.813 216.683 M 1011.250 216.716 C 1012.763 216.945, 1015.237 216.945, 1016.750 216.716 C 1018.263 216.487, 1017.025 216.300, 1014 216.300 C 1010.975 216.300, 1009.737 216.487, 1011.250 216.716 M 1024.269 216.693 C 1025.242 216.947, 1026.592 216.930, 1027.269 216.656 C 1027.946 216.382, 1027.150 216.175, 1025.500 216.195 C 1023.850 216.215, 1023.296 216.439, 1024.269 216.693 M 1037.762 216.707 C 1039.006 216.946, 1040.806 216.937, 1041.762 216.687 C 1042.718 216.437, 1041.700 216.241, 1039.500 216.252 C 1037.300 216.263, 1036.518 216.468, 1037.762 216.707 M 1044.750 216.662 C 1045.438 216.940, 1046.563 216.940, 1047.250 216.662 C 1047.938 216.385, 1047.375 216.158, 1046 216.158 C 1044.625 216.158, 1044.063 216.385, 1044.750 216.662 M 1050.813 216.683 C 1051.534 216.972, 1052.397 216.936, 1052.729 216.604 C 1053.061 216.272, 1052.471 216.036, 1051.417 216.079 C 1050.252 216.127, 1050.015 216.364, 1050.813 216.683 M 1057.269 216.693 C 1058.242 216.947, 1059.592 216.930, 1060.269 216.656 C 1060.946 216.382, 1060.150 216.175, 1058.500 216.195 C 1056.850 216.215, 1056.296 216.439, 1057.269 216.693 M 1073.813 216.683 C 1074.534 216.972, 1075.397 216.936, 1075.729 216.604 C 1076.061 216.272, 1075.471 216.036, 1074.417 216.079 C 1073.252 216.127, 1073.015 216.364, 1073.813 216.683 M 1082.813 216.683 C 1083.534 216.972, 1084.397 216.936, 1084.729 216.604 C 1085.061 216.272, 1084.471 216.036, 1083.417 216.079 C 1082.252 216.127, 1082.015 216.364, 1082.813 216.683 M 1092.813 216.683 C 1093.534 216.972, 1094.397 216.936, 1094.729 216.604 C 1095.061 216.272, 1094.471 216.036, 1093.417 216.079 C 1092.252 216.127, 1092.015 216.364, 1092.813 216.683 M 1099.813 216.683 C 1100.534 216.972, 1101.397 216.936, 1101.729 216.604 C 1102.061 216.272, 1101.471 216.036, 1100.417 216.079 C 1099.252 216.127, 1099.015 216.364, 1099.813 216.683 M 1104.762 216.707 C 1106.006 216.946, 1107.806 216.937, 1108.762 216.687 C 1109.718 216.437, 1108.700 216.241, 1106.500 216.252 C 1104.300 216.263, 1103.518 216.468, 1104.762 216.707 M 1113.250 216.689 C 1114.213 216.941, 1115.787 216.941, 1116.750 216.689 C 1117.713 216.438, 1116.925 216.232, 1115 216.232 C 1113.075 216.232, 1112.287 216.438, 1113.250 216.689 M 1139.269 216.693 C 1140.242 216.947, 1141.592 216.930, 1142.269 216.656 C 1142.946 216.382, 1142.150 216.175, 1140.500 216.195 C 1138.850 216.215, 1138.296 216.439, 1139.269 216.693 M 1144.813 216.683 C 1145.534 216.972, 1146.397 216.936, 1146.729 216.604 C 1147.061 216.272, 1146.471 216.036, 1145.417 216.079 C 1144.252 216.127, 1144.015 216.364, 1144.813 216.683 M 1151.813 216.683 C 1152.534 216.972, 1153.397 216.936, 1153.729 216.604 C 1154.061 216.272, 1153.471 216.036, 1152.417 216.079 C 1151.252 216.127, 1151.015 216.364, 1151.813 216.683 M 1165.250 216.689 C 1166.213 216.941, 1167.787 216.941, 1168.750 216.689 C 1169.713 216.438, 1168.925 216.232, 1167 216.232 C 1165.075 216.232, 1164.287 216.438, 1165.250 216.689 M 1172.750 216.662 C 1173.438 216.940, 1174.563 216.940, 1175.250 216.662 C 1175.938 216.385, 1175.375 216.158, 1174 216.158 C 1172.625 216.158, 1172.063 216.385, 1172.750 216.662 M 1178.813 216.683 C 1179.534 216.972, 1180.397 216.936, 1180.729 216.604 C 1181.061 216.272, 1180.471 216.036, 1179.417 216.079 C 1178.252 216.127, 1178.015 216.364, 1178.813 216.683 M 1184.813 216.683 C 1185.534 216.972, 1186.397 216.936, 1186.729 216.604 C 1187.061 216.272, 1186.471 216.036, 1185.417 216.079 C 1184.252 216.127, 1184.015 216.364, 1184.813 216.683 M 1201.813 216.683 C 1202.534 216.972, 1203.397 216.936, 1203.729 216.604 C 1204.061 216.272, 1203.471 216.036, 1202.417 216.079 C 1201.252 216.127, 1201.015 216.364, 1201.813 216.683 M 1209.750 216.662 C 1210.438 216.940, 1211.563 216.940, 1212.250 216.662 C 1212.938 216.385, 1212.375 216.158, 1211 216.158 C 1209.625 216.158, 1209.063 216.385, 1209.750 216.662 M 1234.813 216.683 C 1235.534 216.972, 1236.397 216.936, 1236.729 216.604 C 1237.061 216.272, 1236.471 216.036, 1235.417 216.079 C 1234.252 216.127, 1234.015 216.364, 1234.813 216.683 M 1267.250 216.716 C 1268.763 216.945, 1271.237 216.945, 1272.750 216.716 C 1274.263 216.487, 1273.025 216.300, 1270 216.300 C 1266.975 216.300, 1265.737 216.487, 1267.250 216.716 M 1286.813 216.683 C 1287.534 216.972, 1288.397 216.936, 1288.729 216.604 C 1289.061 216.272, 1288.471 216.036, 1287.417 216.079 C 1286.252 216.127, 1286.015 216.364, 1286.813 216.683 M 1294.250 216.689 C 1295.213 216.941, 1296.787 216.941, 1297.750 216.689 C 1298.713 216.438, 1297.925 216.232, 1296 216.232 C 1294.075 216.232, 1293.287 216.438, 1294.250 216.689 M 1300.750 216.662 C 1301.438 216.940, 1302.563 216.940, 1303.250 216.662 C 1303.938 216.385, 1303.375 216.158, 1302 216.158 C 1300.625 216.158, 1300.063 216.385, 1300.750 216.662 M 1306.813 216.683 C 1307.534 216.972, 1308.397 216.936, 1308.729 216.604 C 1309.061 216.272, 1308.471 216.036, 1307.417 216.079 C 1306.252 216.127, 1306.015 216.364, 1306.813 216.683 M 1313.813 216.683 C 1314.534 216.972, 1315.397 216.936, 1315.729 216.604 C 1316.061 216.272, 1315.471 216.036, 1314.417 216.079 C 1313.252 216.127, 1313.015 216.364, 1313.813 216.683 M 1329.813 216.683 C 1330.534 216.972, 1331.397 216.936, 1331.729 216.604 C 1332.061 216.272, 1331.471 216.036, 1330.417 216.079 C 1329.252 216.127, 1329.015 216.364, 1329.813 216.683 M 1338.813 216.683 C 1339.534 216.972, 1340.397 216.936, 1340.729 216.604 C 1341.061 216.272, 1340.471 216.036, 1339.417 216.079 C 1338.252 216.127, 1338.015 216.364, 1338.813 216.683" stroke="none" fill="black" fill-rule="evenodd"/>
	<path fill-opacity="0.194" d="M 604.470 135.100 C 606.654 136.167, 608.881 137.481, 609.420 138.020 C 610.057 138.657, 748.114 139, 1003.258 139 L 1396.115 139 1400.808 136.395 C 1403.388 134.962, 1405.661 133.638, 1405.857 133.454 C 1406.054 133.270, 1224.929 133.128, 1003.357 133.139 C 603.876 133.158, 600.533 133.175, 604.470 135.100" stroke="none" fill="black" fill-rule="evenodd"/>
</svg>