<svg xmlns="http://www.w3.org/2000/svg" width="2000" height="2000" viewBox="0 0 2000 2000" version="1.1">
	<path fill-opacity="0.271" d="M 307.195 212.650 C 307.495 217.224, 307.574 217.322, 312 218.617 C 321.046 221.264, 326.948 228.705, 328.555 239.491 C 329.311 244.559, 333.337 251, 335.750 251 C 336.438 251, 337.008 251.338, 337.017 251.750 C 337.083 254.597, 340.157 266.403, 341.517 269.033 C 342.429 270.796, 345.784 275.043, 348.973 278.471 C 356.125 286.159, 356.793 287.390, 357.617 294.395 C 357.979 297.478, 358.712 300, 359.245 300 C 359.778 300, 359.960 300.662, 359.649 301.471 C 359.339 302.280, 359.773 303.630, 360.614 304.471 C 361.455 305.312, 361.661 306, 361.071 306 C 360.482 306, 360 307.125, 360 308.500 L 360 311 980.113 311 L 1600.227 311 1599.780 307.956 C 1599.535 306.282, 1599.708 304.680, 1600.167 304.397 C 1600.625 304.114, 1601 303.009, 1601 301.941 C 1601 300.873, 1601.450 300, 1602 300 C 1602.550 300, 1603.010 298.087, 1603.022 295.750 C 1603.054 289.627, 1606.149 283.670, 1612.653 277.218 C 1617.071 272.835, 1618.857 270.115, 1620.650 265.037 C 1621.919 261.442, 1622.967 256.813, 1622.979 254.750 C 1622.995 251.854, 1623.399 250.999, 1624.750 250.997 C 1625.713 250.996, 1627.400 249.647, 1628.500 248 C 1629.600 246.353, 1630.838 245.004, 1631.250 245.003 C 1631.662 245.001, 1632.003 243.537, 1632.006 241.750 C 1632.024 230.792, 1640.248 220.118, 1650.236 218.090 C 1653.306 217.467, 1653.518 217.148, 1653.805 212.714 L 1654.110 208 980.500 208 L 306.890 208 307.195 212.650" stroke="none" fill="black" fill-rule="evenodd"/>
	<path fill-opacity="0.042" d="M 312.212 218.194 C 316.784 219.409, 324.191 225.776, 326.366 230.359 C 327.608 232.975, 328.742 233.882, 331.230 234.247 C 333.015 234.509, 381.759 234.707, 439.550 234.687 C 497.341 234.667, 545.229 235.023, 545.967 235.480 C 546.733 235.953, 547.069 235.921, 546.750 235.405 C 546.418 234.868, 574.105 234.584, 614.846 234.706 C 652.605 234.819, 687.775 234.886, 693 234.855 C 747.328 234.535, 800.955 234.854, 802.006 235.504 C 802.738 235.956, 803.064 235.913, 802.750 235.405 C 802.418 234.868, 830.107 234.581, 870.846 234.698 C 908.606 234.808, 943.775 234.878, 949 234.854 C 954.225 234.830, 983.025 234.834, 1013 234.863 C 1042.975 234.892, 1071.775 234.895, 1077 234.870 C 1161.381 234.468, 1440.993 234.877, 1441.846 235.405 C 1442.481 235.797, 1443 235.754, 1443 235.309 C 1443 234.864, 1485.580 234.535, 1537.623 234.577 L 1632.246 234.654 1633.620 231.368 C 1635.517 226.826, 1642.533 220.340, 1647.426 218.604 C 1650.987 217.340, 1566.900 217.161, 980 217.182 C 536.365 217.198, 309.760 217.542, 312.212 218.194 M 330.629 245.208 C 332.433 248.127, 335.372 250.888, 336.158 250.403 C 336.629 250.111, 337.284 250.577, 337.614 251.437 C 338.157 252.852, 398.895 253, 980.138 253 C 1549.815 253, 1622.128 252.831, 1622.638 251.500 C 1622.955 250.675, 1623.873 250, 1624.678 250 C 1626.596 250, 1629.289 247.277, 1628.552 246.083 C 1628.235 245.571, 1628.769 244.945, 1629.738 244.692 C 1630.707 244.439, 1338.636 244.180, 980.691 244.116 C 472.223 244.025, 330.045 244.264, 330.629 245.208 M 354.813 245.683 C 355.534 245.972, 356.397 245.936, 356.729 245.604 C 357.061 245.272, 356.471 245.036, 355.417 245.079 C 354.252 245.127, 354.015 245.364, 354.813 245.683 M 383.813 245.683 C 384.534 245.972, 385.397 245.936, 385.729 245.604 C 386.061 245.272, 385.471 245.036, 384.417 245.079 C 383.252 245.127, 383.015 245.364, 383.813 245.683 M 431.813 245.683 C 432.534 245.972, 433.397 245.936, 433.729 245.604 C 434.061 245.272, 433.471 245.036, 432.417 245.079 C 431.252 245.127, 431.015 245.364, 431.813 245.683 M 511.813 245.683 C 512.534 245.972, 513.397 245.936, 513.729 245.604 C 514.061 245.272, 513.471 245.036, 512.417 245.079 C 511.252 245.127, 511.015 245.364, 511.813 245.683 M 559.813 245.683 C 560.534 245.972, 561.397 245.936, 561.729 245.604 C 562.061 245.272, 561.471 245.036, 560.417 245.079 C 559.252 245.127, 559.015 245.364, 559.813 245.683 M 610.813 245.683 C 611.534 245.972, 612.397 245.936, 612.729 245.604 C 613.061 245.272, 612.471 245.036, 611.417 245.079 C 610.252 245.127, 610.015 245.364, 610.813 245.683 M 639.813 245.683 C 640.534 245.972, 641.397 245.936, 641.729 245.604 C 642.061 245.272, 641.471 245.036, 640.417 245.079 C 639.252 245.127, 639.015 245.364, 639.813 245.683 M 687.813 245.683 C 688.534 245.972, 689.397 245.936, 689.729 245.604 C 690.061 245.272, 689.471 245.036, 688.417 245.079 C 687.252 245.127, 687.015 245.364, 687.813 245.683 M 738.813 245.683 C 739.534 245.972, 740.397 245.936, 740.729 245.604 C 741.061 245.272, 740.471 245.036, 739.417 245.079 C 738.252 245.127, 738.015 245.364, 738.813 245.683 M 767.813 245.683 C 768.534 245.972, 769.397 245.936, 769.729 245.604 C 770.061 245.272, 769.471 245.036, 768.417 245.079 C 767.252 245.127, 767.015 245.364, 767.813 245.683 M 815.813 245.683 C 816.534 245.972, 817.397 245.936, 817.729 245.604 C 818.061 245.272, 817.471 245.036, 816.417 245.079 C 815.252 245.127, 815.015 245.364, 815.813 245.683 M 866.813 245.683 C 867.534 245.972, 868.397 245.936, 868.729 245.604 C 869.061 245.272, 868.471 245.036, 867.417 245.079 C 866.252 245.127, 866.015 245.364, 866.813 245.683 M 895.813 245.683 C 896.534 245.972, 897.397 245.936, 897.729 245.604 C 898.061 245.272, 897.471 245.036, 896.417 245.079 C 895.252 245.127, 895.015 245.364, 895.813 245.683 M 943.813 245.683 C 944.534 245.972, 945.397 245.936, 945.729 245.604 C 946.061 245.272, 945.471 245.036, 944.417 245.079 C 943.252 245.127, 943.015 245.364, 943.813 245.683 M 994.813 245.683 C 995.534 245.972, 996.397 245.936, 996.729 245.604 C 997.061 245.272, 996.471 245.036, 995.417 245.079 C 994.252 245.127, 994.015 245.364, 994.813 245.683 M 1023.813 245.683 C 1024.534 245.972, 1025.397 245.936, 1025.729 245.604 C 1026.061 245.272, 1025.471 245.036, 1024.417 245.079 C 1023.252 245.127, 1023.015 245.364, 1023.813 245.683 M 1071.813 245.683 C 1072.534 245.972, 1073.397 245.936, 1073.729 245.604 C 1074.061 245.272, 1073.471 245.036, 1072.417 245.079 C 1071.252 245.127, 1071.015 245.364, 1071.813 245.683 M 1122.813 245.683 C 1123.534 245.972, 1124.397 245.936, 1124.729 245.604 C 1125.061 245.272, 1124.471 245.036, 1123.417 245.079 C 1122.252 245.127, 1122.015 245.364, 1122.813 245.683 M 1151.813 245.683 C 1152.534 245.972, 1153.397 245.936, 1153.729 245.604 C 1154.061 245.272, 1153.471 245.036, 1152.417 245.079 C 1151.252 245.127, 1151.015 245.364, 1151.813 245.683 M 1167.813 245.683 C 1168.534 245.972, 1169.397 245.936, 1169.729 245.604 C 1170.061 245.272, 1169.471 245.036, 1168.417 245.079 C 1167.252 245.127, 1167.015 245.364, 1167.813 245.683 M 1199.813 245.683 C 1200.534 245.972, 1201.397 245.936, 1201.729 245.604 C 1202.061 245.272, 1201.471 245.036, 1200.417 245.079 C 1199.252 245.127, 1199.015 245.364, 1199.813 245.683 M 1250.813 245.683 C 1251.534 245.972, 1252.397 245.936, 1252.729 245.604 C 1253.061 245.272, 1252.471 245.036, 1251.417 245.079 C 1250.252 245.127, 1250.015 245.364, 1250.813 245.683 M 1279.813 245.683 C 1280.534 245.972, 1281.397 245.936, 1281.729 245.604 C 1282.061 245.272, 1281.471 245.036, 1280.417 245.079 C 1279.252 245.127, 1279.015 245.364, 1279.813 245.683 M 1327.813 245.683 C 1328.534 245.972, 1329.397 245.936, 1329.729 245.604 C 1330.061 245.272, 1329.471 245.036, 1328.417 245.079 C 1327.252 245.127, 1327.015 245.364, 1327.813 245.683 M 1378.813 245.683 C 1379.534 245.972, 1380.397 245.936, 1380.729 245.604 C 1381.061 245.272, 1380.471 245.036, 1379.417 245.079 C 1378.252 245.127, 1378.015 245.364, 1378.813 245.683 M 1382.813 245.683 C 1383.534 245.972, 1384.397 245.936, 1384.729 245.604 C 1385.061 245.272, 1384.471 245.036, 1383.417 245.079 C 1382.252 245.127, 1382.015 245.364, 1382.813 245.683 M 1407.813 245.683 C 1408.534 245.972, 1409.397 245.936, 1409.729 245.604 C 1410.061 245.272, 1409.471 245.036, 1408.417 245.079 C 1407.252 245.127, 1407.015 245.364, 1407.813 245.683 M 1455.813 245.683 C 1456.534 245.972, 1457.397 245.936, 1457.729 245.604 C 1458.061 245.272, 1457.471 245.036, 1456.417 245.079 C 1455.252 245.127, 1455.015 245.364, 1455.813 245.683 M 1506.813 245.683 C 1507.534 245.972, 1508.397 245.936, 1508.729 245.604 C 1509.061 245.272, 1508.471 245.036, 1507.417 245.079 C 1506.252 245.127, 1506.015 245.364, 1506.813 245.683 M 1535.813 245.683 C 1536.534 245.972, 1537.397 245.936, 1537.729 245.604 C 1538.061 245.272, 1537.471 245.036, 1536.417 245.079 C 1535.252 245.127, 1535.015 245.364, 1535.813 245.683 M 1551.813 245.683 C 1552.534 245.972, 1553.397 245.936, 1553.729 245.604 C 1554.061 245.272, 1553.471 245.036, 1552.417 245.079 C 1551.252 245.127, 1551.015 245.364, 1551.813 245.683 M 1583.813 245.683 C 1584.534 245.972, 1585.397 245.936, 1585.729 245.604 C 1586.061 245.272, 1585.471 245.036, 1584.417 245.079 C 1583.252 245.127, 1583.015 245.364, 1583.813 245.683 M 344.250 267.773 C 343.012 267.974, 342 268.597, 342 269.156 C 342 269.715, 344.625 272.947, 347.834 276.337 C 351.042 279.726, 354.423 283.621, 355.347 284.991 L 357.027 287.483 980.513 287.491 C 1323.431 287.496, 1604 287.164, 1604 286.753 C 1604 286.342, 1607.150 282.690, 1611 278.637 C 1614.850 274.584, 1618 270.568, 1618 269.713 C 1618 268.326, 1612.158 268.164, 1563.607 268.205 C 1533.692 268.230, 1508.717 267.943, 1508.107 267.566 C 1507.498 267.190, 1507 267.353, 1507 267.929 C 1507 269.221, 1502.775 268.875, 1501.765 267.500 C 1501.317 266.889, 1501.025 267.010, 1501.015 267.809 C 1501.007 268.529, 1500.504 268.811, 1499.897 268.436 C 1499.290 268.061, 1494.002 267.846, 1488.147 267.958 C 1482.291 268.071, 1461.525 268.117, 1442 268.062 C 1422.475 268.007, 1405.600 267.988, 1404.500 268.019 C 1397.311 268.224, 1380.462 267.786, 1379.800 267.376 C 1379.360 267.104, 1379 267.353, 1379 267.929 C 1379 269.221, 1374.775 268.875, 1373.765 267.500 C 1373.317 266.889, 1373.025 267.010, 1373.015 267.809 C 1373.007 268.529, 1372.504 268.811, 1371.897 268.436 C 1371.290 268.061, 1366.002 267.850, 1360.147 267.967 C 1334.891 268.471, 1253.055 268.152, 1252.075 267.546 C 1251.484 267.181, 1251 267.353, 1251 267.929 C 1251 269.221, 1246.775 268.875, 1245.765 267.500 C 1245.317 266.889, 1245.025 267.010, 1245.015 267.809 C 1245.007 268.529, 1244.504 268.811, 1243.897 268.436 C 1243.290 268.061, 1238.002 267.850, 1232.147 267.966 C 1207.135 268.464, 1125.035 268.139, 1124.063 267.539 C 1123.478 267.177, 1123 267.311, 1123 267.835 C 1123 268.359, 1121.875 268.724, 1120.501 268.644 C 1119.126 268.565, 1117.994 268.050, 1117.985 267.500 C 1117.977 266.950, 1117.583 267.111, 1117.110 267.857 C 1116.501 268.818, 1116.048 268.886, 1115.556 268.090 C 1115.174 267.473, 1114.455 267.219, 1113.957 267.526 C 1112.628 268.348, 997.456 268.400, 996.128 267.579 C 995.508 267.196, 995 267.353, 995 267.929 C 995 269.221, 990.775 268.875, 989.765 267.500 C 989.317 266.889, 989.025 267.010, 989.015 267.809 C 989.007 268.529, 988.504 268.811, 987.897 268.436 C 987.290 268.061, 982.002 267.850, 976.147 267.967 C 950.891 268.471, 869.055 268.152, 868.075 267.546 C 867.484 267.181, 867 267.353, 867 267.929 C 867 269.221, 862.775 268.875, 861.765 267.500 C 861.317 266.889, 861.025 267.010, 861.015 267.809 C 861.007 268.529, 860.504 268.811, 859.897 268.436 C 859.290 268.061, 854.002 267.850, 848.147 267.966 C 823.135 268.464, 741.035 268.139, 740.063 267.539 C 739.478 267.177, 739 267.353, 739 267.929 C 739 269.221, 734.775 268.875, 733.765 267.500 C 733.317 266.889, 733.025 267.010, 733.015 267.809 C 733.007 268.529, 732.504 268.811, 731.897 268.436 C 731.290 268.061, 726.002 267.850, 720.147 267.967 C 694.891 268.471, 613.055 268.152, 612.075 267.546 C 611.484 267.181, 611 267.353, 611 267.929 C 611 269.221, 606.775 268.875, 605.765 267.500 C 605.317 266.889, 605.025 267.010, 605.015 267.809 C 605.007 268.529, 604.504 268.811, 603.897 268.436 C 603.290 268.061, 598.002 267.850, 592.147 267.966 C 567.135 268.464, 485.035 268.139, 484.063 267.539 C 483.478 267.177, 483 267.353, 483 267.929 C 483 269.221, 478.775 268.875, 477.765 267.500 C 477.317 266.889, 477.025 267.010, 477.015 267.809 C 477.007 268.529, 476.504 268.811, 475.897 268.436 C 475.290 268.061, 470.002 267.850, 464.147 267.967 C 438.891 268.471, 357.055 268.152, 356.075 267.546 C 355.484 267.181, 355 267.353, 355 267.929 C 355 269.221, 350.775 268.875, 349.765 267.500 C 349.323 266.898, 349.025 267.046, 349.015 267.872 C 349.005 268.793, 348.589 268.942, 347.750 268.326 C 347.063 267.820, 345.488 267.572, 344.250 267.773 M 945 300.001 C 622.975 300.277, 362.425 300.618, 366 300.760 C 378.328 301.248, 1599.301 301.033, 1599.791 300.543 C 1600.761 299.572, 1522.050 299.507, 945 300.001 M 669.750 303.750 C 840.387 303.889, 1119.612 303.889, 1290.250 303.750 C 1460.887 303.611, 1321.275 303.497, 980 303.497 C 638.725 303.497, 499.112 303.611, 669.750 303.750 M 670.750 305.750 C 840.837 305.889, 1119.162 305.889, 1289.250 305.750 C 1459.337 305.611, 1320.175 305.497, 980 305.497 C 639.825 305.497, 500.662 305.611, 670.750 305.750" stroke="none" fill="black" fill-rule="evenodd"/>
	<path fill-opacity="0.191" d="M 313.495 218.603 C 315.693 219.407, 319.310 221.851, 321.533 224.033 L 325.576 228 979.858 228 L 1634.141 228 1638.821 224.056 C 1641.394 221.886, 1645.075 219.429, 1647 218.595 C 1650.133 217.237, 1580.126 217.082, 980 217.110 C 390.537 217.137, 309.983 217.318, 313.495 218.603 M 655.332 244.750 C 834.540 244.889, 1127.490 244.889, 1306.332 244.750 C 1485.174 244.611, 1338.550 244.497, 980.500 244.497 C 622.450 244.497, 476.124 244.611, 655.332 244.750 M 656.750 247.750 C 835.088 247.889, 1126.913 247.889, 1305.250 247.750 C 1483.588 247.611, 1337.675 247.497, 981 247.497 C 624.325 247.497, 478.413 247.611, 656.750 247.750 M 338 251 C 338 251.666, 552.833 252, 980.500 252 C 1408.167 252, 1623 251.666, 1623 251 C 1623 250.334, 1408.167 250, 980.500 250 C 552.833 250, 338 250.334, 338 251 M 346.396 273.937 C 346.156 274.177, 347.635 276.090, 349.683 278.187 L 353.406 282 980.107 282 L 1606.807 282 1610.404 278.816 C 1612.382 277.065, 1614 275.152, 1614 274.566 C 1614 273.812, 1428.291 273.500, 980.417 273.500 C 631.946 273.500, 346.637 273.697, 346.396 273.937 M 511.169 300.750 C 594.037 300.891, 729.937 300.891, 813.169 300.750 C 896.401 300.609, 828.600 300.493, 662.500 300.493 C 496.400 300.493, 428.301 300.609, 511.169 300.750 M 1020.250 300.750 C 1050.912 300.897, 1101.088 300.897, 1131.750 300.750 C 1162.412 300.603, 1137.325 300.483, 1076 300.483 C 1014.675 300.483, 989.587 300.603, 1020.250 300.750 M 1219.822 300.750 C 1237.600 300.903, 1266.400 300.903, 1283.822 300.749 C 1301.245 300.596, 1286.700 300.471, 1251.500 300.471 C 1216.300 300.471, 1202.045 300.597, 1219.822 300.750 M 1355.750 300.750 C 1377.888 300.900, 1414.113 300.900, 1436.250 300.750 C 1458.388 300.600, 1440.275 300.477, 1396 300.477 C 1351.725 300.477, 1333.612 300.600, 1355.750 300.750 M 1507.822 300.750 C 1525.049 300.903, 1552.949 300.903, 1569.822 300.749 C 1586.695 300.596, 1572.600 300.470, 1538.500 300.470 C 1504.400 300.470, 1490.595 300.596, 1507.822 300.750" stroke="none" fill="black" fill-rule="evenodd"/>
	<path fill-opacity="0.243" d="M 312 217.661 C 312 217.749, 313.979 218.780, 316.398 219.950 L 320.795 222.079 981.045 222.061 C 1570.678 222.045, 1641.475 221.880, 1642.976 220.522 C 1643.901 219.685, 1645.185 219, 1645.829 219 C 1646.473 219, 1647 218.662, 1647 218.250 C 1647 217.838, 1346.625 217.500, 979.500 217.500 C 612.375 217.500, 312 217.572, 312 217.661" stroke="none" fill="black" fill-rule="evenodd"/>
</svg>