<svg xmlns="http://www.w3.org/2000/svg" width="2000" height="2000" viewBox="0 0 2000 2000" version="1.1">
	<path fill-opacity="0.235" d="M 703.763 393.795 L 697.026 394.091 697.023 1115.545 L 697.019 1837 972.009 1837 L 1247 1837 1247.011 1832.250 C 1247.295 1714.911, 1246.897 394.564, 1246.578 394.244 C 1246.076 393.743, 714.990 393.303, 703.763 393.795" stroke="none" fill="black" fill-rule="evenodd"/>
	<path fill-opacity="0.011" d="M 1170 1114.788 L 1170 1735.976 1166.750 1735.600 C 1164.963 1735.393, 1163.162 1735.173, 1162.750 1735.112 C 1162.337 1735.050, 1162.820 1734.180, 1163.822 1733.178 C 1165.582 1731.418, 1165.642 1710.094, 1165.572 1116.761 C 1165.533 778.734, 1165.173 501.840, 1164.774 501.441 C 1164.375 501.042, 1163.362 501.284, 1162.524 501.980 C 1161.162 503.111, 1161 568.113, 1161 1114.872 L 1161 1726.500 972.241 1726.245 L 783.483 1725.990 783.475 1114.629 C 783.468 586.172, 783.273 503.034, 782.038 501.546 C 780.704 499.939, 780.554 499.974, 779.778 502.072 C 778.796 504.726, 778.564 1729.699, 779.544 1732.255 C 779.913 1733.215, 780.916 1734, 781.774 1734 C 784.696 1734, 781.967 1735.378, 778.477 1735.665 L 775 1735.950 774.997 1673.725 C 774.996 1639.501, 774.993 1360.287, 774.992 1053.250 C 774.991 724.673, 774.621 495, 774.093 495 C 773.600 495, 772.958 497.587, 772.667 500.750 C 772.225 505.554, 772.410 1736.188, 772.853 1738.152 C 772.934 1738.511, 774.238 1739.200, 775.750 1739.684 C 777.276 1740.172, 834.458 1740.538, 904.250 1740.505 C 973.413 1740.473, 1030 1740.823, 1030 1741.283 C 1030 1741.742, 1030.563 1741.762, 1031.250 1741.326 C 1031.938 1740.891, 1063.221 1740.502, 1100.769 1740.462 C 1159.721 1740.400, 1169.241 1740.187, 1170.523 1738.906 C 1171.831 1737.597, 1172.006 1664.079, 1172.002 1116.510 C 1171.998 704.564, 1171.661 495.261, 1170.998 494.598 C 1170.334 493.934, 1170 701.320, 1170 1114.788 M 786.752 1113.500 C 786.908 1492.130, 787.358 1722, 787.943 1722 C 788.459 1722, 789.175 1721.527, 789.532 1720.948 C 789.890 1720.369, 790.201 1449.582, 790.223 1119.198 C 790.246 788.814, 790.479 516.813, 790.741 514.750 C 791.184 511.277, 791.451 511.010, 794.359 511.136 C 796.716 511.238, 796.938 511.381, 795.248 511.706 L 792.997 512.140 793.002 1114.537 C 793.006 1625.398, 793.216 1716.854, 794.382 1716.407 C 795.139 1716.116, 796.033 1714.219, 796.370 1712.189 C 796.706 1710.160, 796.986 1442.494, 796.991 1117.376 C 796.996 792.257, 797.280 524.852, 797.622 523.142 C 797.964 521.432, 798.639 520.277, 799.122 520.575 C 799.605 520.874, 800 520.654, 800 520.087 C 800 519.422, 805.776 519.044, 816.250 519.024 C 917.516 518.825, 1138.382 519.132, 1141.377 519.476 C 1145.691 519.971, 1146.224 520.298, 1146.770 522.779 C 1146.978 523.726, 1147.262 791.800, 1147.402 1118.500 C 1147.541 1445.200, 1148.010 1713.299, 1148.444 1714.276 C 1149.058 1715.657, 1149.541 1715.796, 1150.617 1714.903 C 1151.792 1713.928, 1152 1623.224, 1152 1112.878 C 1152 712.959, 1152.334 512, 1153 512 C 1153.665 512, 1154.021 709.625, 1154.062 1102.750 C 1154.097 1427.662, 1154.290 1698, 1154.492 1703.500 C 1154.694 1709, 1154.891 1715.364, 1154.929 1717.643 C 1154.976 1720.349, 1155.519 1721.985, 1156.497 1722.360 C 1157.825 1722.870, 1157.994 1654.273, 1157.998 1113.967 L 1158.003 505 972.252 505 L 786.500 505 786.752 1113.500 M 1132.694 531.750 C 1132.461 532.163, 1132.257 535.280, 1132.240 538.678 C 1132.219 543.164, 1132.548 544.727, 1133.440 544.385 C 1134.297 544.056, 1134.471 542.603, 1134.014 539.589 C 1133.653 537.212, 1133.713 534.306, 1134.146 533.133 C 1134.874 531.165, 1133.672 530.020, 1132.694 531.750 M 811.151 537.251 C 811.343 540.415, 811.225 543.002, 810.889 543.001 C 809.977 542.999, 810.532 552.877, 811.492 553.749 C 811.948 554.162, 811.997 553.938, 811.601 553.250 C 811.206 552.563, 811.367 552, 811.960 552 C 812.611 552, 812.789 551.009, 812.411 549.500 C 812.024 547.960, 812.209 547, 812.892 547 C 813.501 547, 814.040 548.013, 814.090 549.250 C 814.166 551.165, 814.126 618.486, 814.038 635 C 814.022 638.025, 814.120 647.884, 814.255 656.909 C 814.478 671.816, 814.340 673.360, 812.750 673.776 C 811.788 674.027, 811 674.617, 811 675.085 C 811 675.554, 811.618 675.700, 812.372 675.411 C 813.242 675.077, 813.883 675.729, 814.122 677.192 C 814.420 679.013, 814.391 730.770, 814.075 762 C 814.044 765.025, 814.050 773.575, 814.088 781 C 814.194 801.820, 814.180 802, 812.500 802 C 811.675 802, 811 802.436, 811 802.969 C 811 803.501, 811.675 803.678, 812.500 803.362 C 814.345 802.654, 814.146 798.223, 814.346 844.500 C 814.522 885.250, 814.368 890, 812.871 890 C 812.370 890, 812.164 888.882, 812.411 887.516 C 812.659 886.150, 812.330 884.728, 811.681 884.356 C 811.031 883.984, 810.796 884.010, 811.159 884.415 C 811.521 884.820, 811.449 886.433, 811 888 C 810.551 889.567, 810.466 891.132, 810.812 891.478 C 811.158 891.824, 811.303 893.709, 811.134 895.666 C 810.938 897.943, 811.202 898.993, 811.869 898.581 C 812.442 898.227, 812.788 896.376, 812.637 894.469 C 812.487 892.561, 812.732 891, 813.182 891 C 813.632 891, 814.023 892.237, 814.050 893.750 C 814.616 924.598, 814.418 929.488, 812.590 929.840 C 811.336 930.082, 811.005 929.800, 811.536 928.942 C 812.025 928.150, 811.901 927.943, 811.198 928.378 C 809.629 929.348, 810.867 931.988, 812.583 931.330 C 813.546 930.960, 814.032 931.542, 814.100 933.143 C 814.206 935.646, 814.170 1055.975, 814.063 1057.250 C 814.028 1057.662, 813.298 1058, 812.441 1058 C 811.460 1058, 811.164 1057.543, 811.644 1056.767 C 812.475 1055.422, 812.400 1046.067, 811.551 1045.218 C 811.263 1044.929, 811.087 1047.125, 811.160 1050.097 C 811.234 1053.068, 811.175 1055.950, 811.029 1056.500 C 810.464 1058.626, 811.059 1059.915, 812.372 1059.411 C 813.242 1059.077, 813.884 1059.729, 814.124 1061.192 C 814.333 1062.461, 814.413 1104.450, 814.301 1154.500 C 814.190 1204.550, 814.104 1249.775, 814.110 1255 C 814.170 1310.930, 814.155 1439.782, 814.087 1440.750 C 814.039 1441.438, 813.325 1442, 812.500 1442 C 811.675 1442, 811 1442.436, 811 1442.969 C 811 1443.501, 811.618 1443.700, 812.372 1443.411 C 814.440 1442.617, 814.555 1444.682, 814.359 1479 C 814.144 1516.510, 814.336 1513.066, 812.500 1512.362 C 811.579 1512.008, 811 1512.363, 811 1513.282 C 811 1514.105, 811.731 1514.715, 812.624 1514.639 C 814.235 1514.501, 814.443 1519.538, 814.049 1549.156 C 814.006 1552.399, 813.746 1552.764, 811.750 1552.380 L 809.500 1551.948 811.750 1553.127 C 813.498 1554.043, 814.019 1555.220, 814.085 1558.403 C 814.132 1560.656, 814.245 1589.143, 814.335 1621.706 L 814.500 1680.912 812 1680.433 C 809.574 1679.968, 809.567 1679.983, 811.750 1680.945 C 812.987 1681.490, 814.016 1682.288, 814.037 1682.718 C 814.057 1683.148, 814.240 1686.492, 814.445 1690.150 C 814.781 1696.170, 814.588 1696.998, 812.408 1698.893 C 811.084 1700.045, 810 1701.429, 810 1701.969 C 810 1703.255, 892.906 1703.644, 1029.500 1703 L 1135.500 1702.500 1133.250 1700.250 L 1131 1698 1131 1473.583 C 1131 1294.986, 1130.745 1249.064, 1129.750 1248.662 C 1128.750 1248.259, 1128.750 1248.142, 1129.750 1248.079 C 1130.736 1248.017, 1130.975 1235.808, 1130.882 1190.250 C 1130.817 1158.487, 1130.420 1133.850, 1130 1135.500 C 1129.455 1137.641, 1129.246 1136.354, 1129.269 1131 C 1129.296 1124.461, 1129.390 1124.077, 1130 1128 C 1130.385 1130.475, 1130.767 1103.786, 1130.850 1068.691 C 1130.949 1026.368, 1130.663 1005.090, 1130 1005.500 C 1129.450 1005.840, 1129 1005.641, 1129 1005.059 C 1129 1004.477, 1129.450 1004, 1130 1004 C 1130.663 1004, 1131 934.980, 1131 798.941 C 1131 662.490, 1130.665 594.089, 1130 594.500 C 1129.450 594.840, 1129 594.641, 1129 594.059 C 1129 593.477, 1129.450 593, 1130 593 C 1130.647 593, 1130.965 582.316, 1130.900 562.750 C 1130.845 546.030, 1130.443 533.618, 1130 535 C 1129.560 536.375, 1129.155 536.882, 1129.100 536.128 C 1129.019 535.022, 1128.709 534.997, 1127.500 536 C 1126.170 537.104, 1126 602.729, 1126 1115.626 L 1126 1694.006 972.250 1693.753 L 818.500 1693.500 818.189 1267.500 C 818.017 1033.200, 817.874 841.050, 817.870 840.500 C 817.866 839.950, 817.927 771.775, 818.005 689 C 818.083 606.225, 817.834 537.693, 817.451 536.708 C 816.168 533.409, 814.500 535.592, 814.500 540.569 C 814.500 544.557, 814.153 545.535, 812.632 545.830 C 811.286 546.091, 810.993 545.820, 811.587 544.860 C 812.508 543.369, 812.368 533.026, 811.414 532.097 C 811.077 531.768, 810.959 534.088, 811.151 537.251 M 820.994 575.250 C 821.108 690.413, 821.079 868.295, 820.943 879.500 C 820.857 886.650, 820.802 893.175, 820.822 894 C 820.841 894.825, 820.853 923.625, 820.849 958 C 820.844 992.375, 820.844 1021.175, 820.848 1022 C 820.852 1022.825, 820.858 1050.275, 820.861 1083 C 820.864 1115.725, 820.871 1144.525, 820.876 1147 C 820.882 1149.475, 820.871 1179.625, 820.853 1214 C 820.834 1248.375, 820.833 1277.175, 820.850 1278 C 820.868 1278.825, 820.870 1306.725, 820.856 1340 C 820.842 1373.275, 820.848 1402.075, 820.868 1404 C 820.889 1405.925, 820.875 1435.175, 820.837 1469 C 820.799 1502.825, 820.778 1531.400, 820.791 1532.500 C 820.803 1533.600, 820.825 1562.625, 820.839 1597 C 820.854 1631.375, 820.889 1660.400, 820.917 1661.500 C 820.945 1662.600, 820.950 1667.048, 820.929 1671.384 C 820.907 1675.720, 821.204 1681.785, 821.588 1684.861 C 822.168 1689.501, 822.433 1690.061, 823.142 1688.145 C 823.612 1686.873, 824.003 1429.844, 824.010 1116.968 C 824.019 743.347, 824.363 547.894, 825.012 547.493 C 825.649 547.099, 826.012 553.735, 826.033 566.191 C 826.051 576.811, 826.076 831.711, 826.089 1132.636 C 826.102 1434.045, 826.497 1681.059, 826.970 1682.636 C 827.602 1684.745, 827.881 1682.863, 828.027 1675.500 C 828.136 1670, 828.288 1414.496, 828.363 1107.714 C 828.483 620.721, 828.685 549.813, 829.955 549.028 C 830.800 548.506, 890.869 548.149, 973.118 548.177 L 1114.826 548.227 1115.396 550.363 C 1115.710 551.538, 1115.975 745.100, 1115.986 980.500 C 1116.017 1635.312, 1116.085 1682.352, 1117.004 1684.500 C 1117.480 1685.612, 1117.958 1433.516, 1118.082 1116.500 C 1118.204 803, 1118.354 545.969, 1118.415 545.321 C 1118.709 542.177, 1120.016 543.138, 1120.134 546.583 C 1120.207 548.738, 1120.384 804.750, 1120.527 1115.500 C 1120.670 1426.250, 1120.835 1682.439, 1120.894 1684.809 C 1120.952 1687.179, 1121.416 1688.861, 1121.924 1688.547 C 1122.433 1688.233, 1123.055 1688.769, 1123.308 1689.738 C 1123.561 1690.707, 1123.820 1431.963, 1123.884 1114.750 L 1124 538 972.478 538 L 820.957 538 820.994 575.250 M 842.813 543.683 C 843.534 543.972, 844.397 543.936, 844.729 543.604 C 845.061 543.272, 844.471 543.036, 843.417 543.079 C 842.252 543.127, 842.015 543.364, 842.813 543.683 M 1019.813 543.683 C 1020.534 543.972, 1021.397 543.936, 1021.729 543.604 C 1022.061 543.272, 1021.471 543.036, 1020.417 543.079 C 1019.252 543.127, 1019.015 543.364, 1019.813 543.683 M 1132.104 558 C 1132.196 564.600, 1132.587 570, 1132.973 570 C 1133.358 570, 1133.638 564.600, 1133.595 558 C 1133.552 551.400, 1133.161 546, 1132.726 546 C 1132.292 546, 1132.012 551.400, 1132.104 558 M 811.079 556.583 C 811.127 557.748, 811.364 557.985, 811.683 557.188 C 811.972 556.466, 811.936 555.603, 811.604 555.271 C 811.272 554.939, 811.036 555.529, 811.079 556.583 M 1129.300 565 C 1129.300 568.025, 1129.487 569.263, 1129.716 567.750 C 1129.945 566.237, 1129.945 563.763, 1129.716 562.250 C 1129.487 560.737, 1129.300 561.975, 1129.300 565 M 811.270 568.069 C 811.097 570.366, 811.568 570.568, 812.349 568.532 C 812.659 567.725, 812.576 566.856, 812.164 566.601 C 811.752 566.347, 811.350 567.007, 811.270 568.069 M 1132.506 571.990 C 1131.696 573.301, 1132.104 588, 1132.950 588 C 1133.313 588, 1133.616 584.175, 1133.624 579.500 C 1133.632 574.825, 1133.522 571, 1133.379 571 C 1133.235 571, 1132.843 571.445, 1132.506 571.990 M 811.079 574.583 C 811.127 575.748, 811.364 575.985, 811.683 575.188 C 811.972 574.466, 811.936 573.603, 811.604 573.271 C 811.272 572.939, 811.036 573.529, 811.079 574.583 M 810.871 577.250 C 810.339 578.282, 810.557 583, 811.137 583 C 811.538 583, 811.828 581.650, 811.781 580 C 811.708 577.427, 811.345 576.331, 810.871 577.250 M 811.257 589.763 C 811.350 590.993, 811.780 592, 812.213 592 C 813.256 592, 813.185 590.841, 812.029 589.013 C 811.290 587.844, 811.125 588.004, 811.257 589.763 M 1132 592.941 C 1132 593.459, 1132.450 594.160, 1133 594.500 C 1133.550 594.840, 1134 594.416, 1134 593.559 C 1134 592.702, 1133.550 592, 1133 592 C 1132.450 592, 1132 592.423, 1132 592.941 M 810.393 594.582 C 810.727 595.452, 811 596.577, 811 597.082 C 811 597.587, 811.388 598, 811.861 598 C 812.335 598, 812.508 596.875, 812.245 595.500 C 811.982 594.125, 811.321 593, 810.776 593 C 810.232 593, 810.059 593.712, 810.393 594.582 M 1132.667 596.667 C 1132.300 597.033, 1132 598.008, 1132 598.833 C 1132 600.646, 1133.303 599.542, 1133.607 597.471 C 1133.846 595.841, 1133.656 595.678, 1132.667 596.667 M 1127.079 606.583 C 1127.127 607.748, 1127.364 607.985, 1127.683 607.188 C 1127.972 606.466, 1127.936 605.603, 1127.604 605.271 C 1127.272 604.939, 1127.036 605.529, 1127.079 606.583 M 810.756 607.664 C 811.447 607.943, 811.715 608.652, 811.352 609.240 C 810.958 609.877, 811.164 610.017, 811.862 609.585 C 813.239 608.735, 812.412 606.965, 810.691 607.079 C 809.839 607.135, 809.857 607.302, 810.756 607.664 M 1129.349 618 C 1129.349 622.675, 1129.522 624.587, 1129.732 622.250 C 1129.943 619.913, 1129.943 616.087, 1129.732 613.750 C 1129.522 611.413, 1129.349 613.325, 1129.349 618 M 810 612 C 810 612.550, 810.450 613, 811 613 C 811.550 613, 812 612.550, 812 612 C 812 611.450, 811.550 611, 811 611 C 810.450 611, 810 611.450, 810 612 M 1132.575 613.765 C 1131.778 616.275, 1132.216 628.268, 1133.055 626.911 C 1133.821 625.671, 1134.307 612, 1133.585 612 C 1133.337 612, 1132.883 612.794, 1132.575 613.765 M 811.531 616.293 C 811.103 617.279, 811.034 618.367, 811.376 618.710 C 812.392 619.725, 813.211 618.299, 812.743 616.328 C 812.329 614.581, 812.275 614.580, 811.531 616.293 M 811 621.059 C 811 621.641, 811.450 621.840, 812 621.500 C 812.550 621.160, 813 620.684, 813 620.441 C 813 620.198, 812.550 620, 812 620 C 811.450 620, 811 620.477, 811 621.059 M 811.272 630.043 C 811.191 631.119, 811.507 632, 811.974 632 C 812.441 632, 812.726 631.338, 812.607 630.529 C 812.265 628.198, 811.433 627.896, 811.272 630.043 M 1132.088 638.790 C 1132.185 643.305, 1132.638 647, 1133.096 647 C 1134.078 647, 1133.622 632.289, 1132.608 631.275 C 1132.226 630.893, 1131.992 634.274, 1132.088 638.790 M 811 634.500 C 811 635.325, 811.177 636, 811.393 636 C 811.609 636, 812.045 635.325, 812.362 634.500 C 812.678 633.675, 812.501 633, 811.969 633 C 811.436 633, 811 633.675, 811 634.500 M 811 640.059 C 811 641.741, 811.394 642.875, 811.875 642.577 C 812.356 642.280, 812.750 640.903, 812.750 639.518 C 812.750 638.133, 812.356 637, 811.875 637 C 811.394 637, 811 638.377, 811 640.059 M 811.135 648 C 811.135 651.951, 811.268 652.226, 812.220 650.250 C 813.001 648.632, 813.001 647.368, 812.220 645.750 C 811.268 643.774, 811.135 644.049, 811.135 648 M 1132.015 650.250 C 1132.028 652.069, 1132.216 652.213, 1133 651 C 1134.253 649.061, 1134.253 648, 1133 648 C 1132.450 648, 1132.007 649.013, 1132.015 650.250 M 811 654 C 811 654.550, 811.450 655, 812 655 C 812.550 655, 813 654.550, 813 654 C 813 653.450, 812.550 653, 812 653 C 811.450 653, 811 653.450, 811 654 M 1132.638 655.500 C 1132.322 656.325, 1132.499 657, 1133.031 657 C 1133.564 657, 1134 656.325, 1134 655.500 C 1134 654.675, 1133.823 654, 1133.607 654 C 1133.391 654, 1132.955 654.675, 1132.638 655.500 M 1127.079 658.583 C 1127.127 659.748, 1127.364 659.985, 1127.683 659.188 C 1127.972 658.466, 1127.936 657.603, 1127.604 657.271 C 1127.272 656.939, 1127.036 657.529, 1127.079 658.583 M 1132.333 661.500 C 1132.333 662.325, 1132.708 663, 1133.167 663 C 1133.625 663, 1134 662.325, 1134 661.500 C 1134 660.675, 1133.625 660, 1133.167 660 C 1132.708 660, 1132.333 660.675, 1132.333 661.500 M 811.225 666.891 C 811.301 670.267, 811.647 672.570, 811.994 672.009 C 812.647 670.952, 812.236 661.903, 811.502 661.169 C 811.273 660.940, 811.149 663.515, 811.225 666.891 M 1132.190 675.071 C 1132.190 679.511, 1132.485 682.848, 1132.845 682.488 C 1133.716 681.617, 1133.737 667, 1132.868 667 C 1132.495 667, 1132.190 670.632, 1132.190 675.071 M 810.609 677.824 C 810.256 678.395, 810.455 679.163, 811.050 679.531 C 812.536 680.449, 813.062 679.719, 812.071 678.114 C 811.539 677.255, 811.024 677.152, 810.609 677.824 M 1132 686.667 C 1132 689.674, 1132.852 689.367, 1133.474 686.135 C 1133.700 684.961, 1133.461 684, 1132.943 684 C 1132.424 684, 1132 685.200, 1132 686.667 M 810.638 688.500 C 810.322 689.325, 810.499 690, 811.031 690 C 811.564 690, 812 689.325, 812 688.500 C 812 687.675, 811.823 687, 811.607 687 C 811.391 687, 810.955 687.675, 810.638 688.500 M 1129.195 695.500 C 1129.215 697.150, 1129.439 697.704, 1129.693 696.731 C 1129.947 695.758, 1129.930 694.408, 1129.656 693.731 C 1129.382 693.054, 1129.175 693.850, 1129.195 695.500 M 1132 696 C 1132 697.100, 1132.354 698, 1132.787 698 C 1133.220 698, 1133.642 697.100, 1133.725 696 C 1133.808 694.900, 1133.454 694, 1132.938 694 C 1132.422 694, 1132 694.900, 1132 696 M 1132.705 699.750 C 1131.997 701.037, 1132.113 717.221, 1132.825 716.508 C 1133.448 715.886, 1133.989 699, 1133.386 699 C 1133.239 699, 1132.932 699.337, 1132.705 699.750 M 810 709.941 C 810 710.459, 810.450 711.160, 811 711.500 C 811.550 711.840, 812 711.416, 812 710.559 C 812 709.702, 811.550 709, 811 709 C 810.450 709, 810 709.423, 810 709.941 M 1132.250 720.518 C 1132.250 721.883, 1132.644 723, 1133.125 723 C 1133.606 723, 1134 722.127, 1134 721.059 C 1134 719.991, 1133.606 718.875, 1133.125 718.577 C 1132.644 718.280, 1132.250 719.153, 1132.250 720.518 M 811 724 C 811 725.100, 811.408 726, 811.906 726 C 812.405 726, 812.577 725.100, 812.290 724 C 812.002 722.900, 811.594 722, 811.383 722 C 811.173 722, 811 722.900, 811 724 M 1132.667 724.667 C 1132.300 725.033, 1132.014 726.046, 1132.030 726.917 C 1132.055 728.217, 1132.251 728.174, 1133.122 726.675 C 1134.199 724.823, 1133.887 723.447, 1132.667 724.667 M 1132.263 731.839 C 1132.369 733.247, 1132.761 733.639, 1133.412 732.988 C 1134.063 732.337, 1134.008 731.608, 1133.251 730.851 C 1132.385 729.985, 1132.142 730.229, 1132.263 731.839 M 811.667 734.667 C 811.300 735.033, 811.014 736.046, 811.030 736.917 C 811.055 738.217, 811.251 738.174, 812.122 736.675 C 813.199 734.823, 812.887 733.447, 811.667 734.667 M 810.638 740.500 C 810.955 741.325, 811.391 742, 811.607 742 C 811.823 742, 812 741.325, 812 740.500 C 812 739.675, 811.564 739, 811.031 739 C 810.499 739, 810.322 739.675, 810.638 740.500 M 1129.320 745 C 1129.320 748.575, 1129.502 750.038, 1129.723 748.250 C 1129.945 746.462, 1129.945 743.538, 1129.723 741.750 C 1129.502 739.962, 1129.320 741.425, 1129.320 745 M 1132.658 741.750 C 1131.888 744.579, 1131.871 755.462, 1132.639 754.695 C 1133.025 754.309, 1133.507 750.844, 1133.711 746.996 C 1134.069 740.235, 1133.645 738.125, 1132.658 741.750 M 811 745 C 811 746.100, 811.450 747, 812 747 C 812.550 747, 813 746.100, 813 745 C 813 743.900, 812.550 743, 812 743 C 811.450 743, 811 743.900, 811 745 M 811.079 753.583 C 811.127 754.748, 811.364 754.985, 811.683 754.188 C 811.972 753.466, 811.936 752.603, 811.604 752.271 C 811.272 751.939, 811.036 752.529, 811.079 753.583 M 811.166 763.229 C 811.299 767.430, 811.706 770.682, 812.071 770.456 C 812.945 769.916, 812.555 757.221, 811.636 756.303 C 811.245 755.912, 811.034 759.028, 811.166 763.229 M 1132.121 765.472 C 1132.185 769.768, 1132.544 771.752, 1133.097 770.879 C 1133.967 769.509, 1133.516 760.182, 1132.533 759.199 C 1132.250 758.917, 1132.065 761.739, 1132.121 765.472 M 1129.158 762 C 1129.158 763.375, 1129.385 763.938, 1129.662 763.250 C 1129.940 762.563, 1129.940 761.438, 1129.662 760.750 C 1129.385 760.063, 1129.158 760.625, 1129.158 762 M 811.248 776.748 C 811.419 779.578, 811.880 782.214, 812.272 782.605 C 812.664 782.997, 812.838 780.996, 812.659 778.159 C 812.480 775.321, 812.019 772.685, 811.635 772.301 C 811.251 771.917, 811.077 773.918, 811.248 776.748 M 1132.158 778 C 1132.158 779.375, 1132.385 779.938, 1132.662 779.250 C 1132.940 778.563, 1132.940 777.438, 1132.662 776.750 C 1132.385 776.063, 1132.158 776.625, 1132.158 778 M 1127.079 786.583 C 1127.127 787.748, 1127.364 787.985, 1127.683 787.188 C 1127.972 786.466, 1127.936 785.603, 1127.604 785.271 C 1127.272 784.939, 1127.036 785.529, 1127.079 786.583 M 811 793.274 C 811 795.809, 811.364 798.107, 811.808 798.382 C 812.633 798.891, 812.295 789.962, 811.459 789.126 C 811.207 788.873, 811 790.740, 811 793.274 M 1132.260 800 C 1132.193 802.750, 1132.464 805, 1132.862 805 C 1133.260 805, 1133.625 802.750, 1133.672 800 C 1133.720 797.250, 1133.450 795, 1133.071 795 C 1132.692 795, 1132.327 797.250, 1132.260 800 M 1122.079 802.583 C 1122.127 803.748, 1122.364 803.985, 1122.683 803.188 C 1122.972 802.466, 1122.936 801.603, 1122.604 801.271 C 1122.272 800.939, 1122.036 801.529, 1122.079 802.583 M 811 806.441 C 811 807.298, 811.450 808, 812 808 C 812.550 808, 813 807.577, 813 807.059 C 813 806.541, 812.550 805.840, 812 805.500 C 811.450 805.160, 811 805.584, 811 806.441 M 1132 807 C 1132 807.550, 1132.477 808, 1133.059 808 C 1133.641 808, 1133.840 807.550, 1133.500 807 C 1133.160 806.450, 1132.684 806, 1132.441 806 C 1132.198 806, 1132 806.450, 1132 807 M 1129.355 822.500 C 1129.352 827.450, 1129.521 829.601, 1129.731 827.280 C 1129.940 824.959, 1129.943 820.909, 1129.736 818.280 C 1129.530 815.651, 1129.358 817.550, 1129.355 822.500 M 1132 819.500 C 1132 820.325, 1132.375 821, 1132.833 821 C 1133.292 821, 1133.667 820.325, 1133.667 819.500 C 1133.667 818.675, 1133.292 818, 1132.833 818 C 1132.375 818, 1132 818.675, 1132 819.500 M 1132.185 828.464 C 1132.124 832.019, 1132.403 835.131, 1132.805 835.380 C 1133.207 835.628, 1133.625 832.719, 1133.735 828.916 C 1133.844 825.112, 1133.565 822, 1133.114 822 C 1132.664 822, 1132.246 824.909, 1132.185 828.464 M 810.469 834.050 C 809.551 835.536, 810.281 836.062, 811.886 835.071 C 812.745 834.539, 812.848 834.024, 812.176 833.609 C 811.605 833.256, 810.837 833.455, 810.469 834.050 M 1132 838.059 C 1132 838.641, 1132.450 838.840, 1133 838.500 C 1133.550 838.160, 1134 837.684, 1134 837.441 C 1134 837.198, 1133.550 837, 1133 837 C 1132.450 837, 1132 837.477, 1132 838.059 M 810.500 839 C 810.840 839.550, 811.316 840, 811.559 840 C 811.802 840, 812 839.550, 812 839 C 812 838.450, 811.523 838, 810.941 838 C 810.359 838, 810.160 838.450, 810.500 839 M 1132.333 842.500 C 1132.333 843.325, 1132.708 844, 1133.167 844 C 1133.625 844, 1134 843.325, 1134 842.500 C 1134 841.675, 1133.625 841, 1133.167 841 C 1132.708 841, 1132.333 841.675, 1132.333 842.500 M 811 848.500 C 811 849.325, 811.177 850, 811.393 850 C 811.609 850, 812.045 849.325, 812.362 848.500 C 812.678 847.675, 812.501 847, 811.969 847 C 811.436 847, 811 847.675, 811 848.500 M 1132 849.500 C 1132 850.325, 1132.450 851, 1133 851 C 1133.550 851, 1134 850.325, 1134 849.500 C 1134 848.675, 1133.550 848, 1133 848 C 1132.450 848, 1132 848.675, 1132 849.500 M 810.914 851.191 C 810.362 853.177, 810.466 858.942, 811.082 860.500 C 811.937 862.660, 812.033 862.322, 812.445 855.710 C 812.575 853.626, 812.303 851.687, 811.840 851.401 C 811.378 851.116, 810.961 851.021, 810.914 851.191 M 1132 854 C 1132 855.100, 1132.450 856, 1133 856 C 1133.550 856, 1134 855.100, 1134 854 C 1134 852.900, 1133.550 852, 1133 852 C 1132.450 852, 1132 852.900, 1132 854 M 1132.429 860.227 C 1132.535 862.277, 1132.975 864.302, 1133.408 864.727 C 1133.841 865.152, 1134.050 864.600, 1133.873 863.500 C 1133.695 862.400, 1133.946 860.868, 1134.429 860.095 C 1135.011 859.167, 1134.943 858.917, 1134.230 859.358 C 1133.637 859.724, 1132.946 859.231, 1132.694 858.262 C 1132.443 857.293, 1132.324 858.177, 1132.429 860.227 M 810.700 864.661 C 810.980 865.391, 811.612 865.740, 812.105 865.435 C 813.474 864.589, 813.170 863.333, 811.595 863.333 C 810.823 863.333, 810.420 863.931, 810.700 864.661 M 810.429 868.927 C 810.429 869.986, 810.782 870.635, 811.214 870.368 C 811.646 870.100, 812 869.234, 812 868.441 C 812 867.648, 811.646 867, 811.214 867 C 810.782 867, 810.429 867.867, 810.429 868.927 M 1129.232 870 C 1129.232 871.925, 1129.438 872.712, 1129.689 871.750 C 1129.941 870.788, 1129.941 869.212, 1129.689 868.250 C 1129.438 867.288, 1129.232 868.075, 1129.232 870 M 1132 876.167 C 1132 885.625, 1133.048 886.027, 1133.646 876.797 C 1133.871 873.334, 1134.253 869.938, 1134.496 869.250 C 1134.739 868.563, 1134.276 868, 1133.469 868 C 1132.297 868, 1132 869.652, 1132 876.167 M 811 873.500 C 811 874.325, 811.450 875, 812 875 C 812.550 875, 813 874.325, 813 873.500 C 813 872.675, 812.550 872, 812 872 C 811.450 872, 811 872.675, 811 873.500 M 811 881.059 C 811 882.191, 811.430 882.852, 811.956 882.527 C 812.482 882.202, 812.659 881.275, 812.349 880.468 C 811.556 878.401, 811 878.644, 811 881.059 M 1132.015 894.583 C 1132.025 900.096, 1132.366 902.971, 1132.909 902.113 C 1133.846 900.633, 1133.575 887.242, 1132.588 886.255 C 1132.265 885.931, 1132.007 889.679, 1132.015 894.583 M 810.932 900.250 C 810.812 901.163, 810.802 907.427, 810.917 909.500 C 810.962 910.325, 811.377 911, 811.838 911 C 813.029 911, 813.161 902.799, 811.999 901 C 811.466 900.175, 810.986 899.837, 810.932 900.250 M 1132 906 C 1132 907.100, 1132.173 908, 1132.383 908 C 1132.594 908, 1133.002 907.100, 1133.290 906 C 1133.577 904.900, 1133.405 904, 1132.906 904 C 1132.408 904, 1132 904.900, 1132 906 M 1129.079 906.583 C 1129.127 907.748, 1129.364 907.985, 1129.683 907.188 C 1129.972 906.466, 1129.936 905.603, 1129.604 905.271 C 1129.272 904.939, 1129.036 905.529, 1129.079 906.583 M 1133.079 911.583 C 1133.127 912.748, 1133.364 912.985, 1133.683 912.188 C 1133.972 911.466, 1133.936 910.603, 1133.604 910.271 C 1133.272 909.939, 1133.036 910.529, 1133.079 911.583 M 1127.079 914.583 C 1127.127 915.748, 1127.364 915.985, 1127.683 915.188 C 1127.972 914.466, 1127.936 913.603, 1127.604 913.271 C 1127.272 912.939, 1127.036 913.529, 1127.079 914.583 M 811.195 919.500 C 811.215 921.150, 811.439 921.704, 811.693 920.731 C 811.947 919.758, 811.930 918.408, 811.656 917.731 C 811.382 917.054, 811.175 917.850, 811.195 919.500 M 811 924.941 C 811 925.459, 811.445 926.157, 811.989 926.493 C 812.555 926.843, 812.723 926.442, 812.382 925.552 C 811.717 923.820, 811 923.503, 811 924.941 M 1132.459 926.067 C 1132.096 926.653, 1132.014 927.348, 1132.276 927.610 C 1132.538 927.872, 1133.019 927.392, 1133.345 926.543 C 1134.021 924.781, 1133.445 924.471, 1132.459 926.067 M 1132 931.500 C 1132 932.325, 1132.436 933, 1132.969 933 C 1133.501 933, 1133.678 932.325, 1133.362 931.500 C 1133.045 930.675, 1132.609 930, 1132.393 930 C 1132.177 930, 1132 930.675, 1132 931.500 M 1132 938.059 C 1132 938.641, 1132.450 938.840, 1133 938.500 C 1133.550 938.160, 1134 937.684, 1134 937.441 C 1134 937.198, 1133.550 937, 1133 937 C 1132.450 937, 1132 937.477, 1132 938.059 M 1132.079 943.691 C 1132.036 945.996, 1132.356 948.102, 1132.791 948.371 C 1133.226 948.640, 1133.418 947.204, 1133.219 945.180 C 1132.672 939.646, 1132.168 938.987, 1132.079 943.691 M 811.079 944.583 C 811.127 945.748, 811.364 945.985, 811.683 945.188 C 811.972 944.466, 811.936 943.603, 811.604 943.271 C 811.272 942.939, 811.036 943.529, 811.079 944.583 M 1129.328 950.500 C 1129.333 954.350, 1129.513 955.802, 1129.730 953.728 C 1129.946 951.653, 1129.943 948.503, 1129.722 946.728 C 1129.501 944.952, 1129.324 946.650, 1129.328 950.500 M 1132 952 C 1132 953.100, 1132.354 954, 1132.787 954 C 1133.220 954, 1133.642 953.100, 1133.725 952 C 1133.808 950.900, 1133.454 950, 1132.938 950 C 1132.422 950, 1132 950.900, 1132 952 M 1132.663 955.750 C 1131.897 957.013, 1132.026 979, 1132.799 979 C 1133.197 979, 1133.543 973.600, 1133.568 967 C 1133.593 960.400, 1133.501 955, 1133.365 955 C 1133.229 955, 1132.913 955.337, 1132.663 955.750 M 810.356 964.499 C 810.435 965.874, 810.890 966.999, 811.367 966.999 C 811.843 967, 812.004 966.122, 811.723 965.048 C 811.442 963.974, 811.727 962.885, 812.356 962.627 C 812.985 962.369, 812.760 962.122, 811.856 962.079 C 810.712 962.024, 810.255 962.761, 810.356 964.499 M 811.500 975 C 811.160 975.550, 811.359 976, 811.941 976 C 812.523 976, 813 975.550, 813 975 C 813 974.450, 812.802 974, 812.559 974 C 812.316 974, 811.840 974.450, 811.500 975 M 810.500 979.500 C 810.500 980.875, 810.987 982, 811.583 982 C 812.883 982, 812.737 977.746, 811.421 977.307 C 810.915 977.138, 810.500 978.125, 810.500 979.500 M 1132.667 980.667 C 1131.672 981.662, 1131.862 984, 1132.938 984 C 1133.454 984, 1133.808 983.100, 1133.725 982 C 1133.555 979.740, 1133.572 979.761, 1132.667 980.667 M 810.507 984.989 C 810.157 985.555, 810.558 985.723, 811.448 985.382 C 813.180 984.717, 813.497 984, 812.059 984 C 811.541 984, 810.843 984.445, 810.507 984.989 M 1132 988.392 C 1132 990.441, 1132.410 991.865, 1132.911 991.555 C 1133.889 990.951, 1133.684 986.351, 1132.634 985.301 C 1132.285 984.952, 1132 986.343, 1132 988.392 M 1129.252 997.500 C 1129.263 999.700, 1129.468 1000.482, 1129.707 999.238 C 1129.946 997.994, 1129.937 996.194, 1129.687 995.238 C 1129.437 994.282, 1129.241 995.300, 1129.252 997.500 M 810.500 996 C 810.840 996.550, 811.316 997, 811.559 997 C 811.802 997, 812 996.550, 812 996 C 812 995.450, 811.523 995, 810.941 995 C 810.359 995, 810.160 995.450, 810.500 996 M 1132.364 999 C 1132.364 1000.650, 1132.732 1002, 1133.182 1002 C 1133.632 1002, 1134 1000.650, 1134 999 C 1134 997.350, 1133.632 996, 1133.182 996 C 1132.732 996, 1132.364 997.350, 1132.364 999 M 810.522 999.819 C 810.701 1000.744, 810.881 1001.837, 810.923 1002.250 C 810.966 1002.663, 811.450 1003, 812 1003 C 813.533 1003, 813.188 999.286, 811.599 998.676 C 810.681 998.324, 810.309 998.719, 810.522 999.819 M 1132.163 1017 C 1132.241 1024.700, 1132.596 1031, 1132.952 1031 C 1133.309 1031, 1133.624 1024.700, 1133.653 1017 C 1133.682 1009.300, 1133.327 1003, 1132.863 1003 C 1132.400 1003, 1132.085 1009.300, 1132.163 1017 M 811 1005.500 C 811 1006.325, 811.177 1007, 811.393 1007 C 811.609 1007, 812.045 1006.325, 812.362 1005.500 C 812.678 1004.675, 812.501 1004, 811.969 1004 C 811.436 1004, 811 1004.675, 811 1005.500 M 1129.079 1008.583 C 1129.127 1009.748, 1129.364 1009.985, 1129.683 1009.188 C 1129.972 1008.466, 1129.936 1007.603, 1129.604 1007.271 C 1129.272 1006.939, 1129.036 1007.529, 1129.079 1008.583 M 811 1015 C 811 1015.550, 811.477 1016, 812.059 1016 C 812.641 1016, 812.840 1015.550, 812.500 1015 C 812.160 1014.450, 811.684 1014, 811.441 1014 C 811.198 1014, 811 1014.450, 811 1015 M 1129.195 1016.500 C 1129.215 1018.150, 1129.439 1018.704, 1129.693 1017.731 C 1129.947 1016.758, 1129.930 1015.408, 1129.656 1014.731 C 1129.382 1014.054, 1129.175 1014.850, 1129.195 1016.500 M 810.543 1017.931 C 810.226 1018.443, 810.425 1019.144, 810.984 1019.490 C 811.543 1019.835, 812 1019.416, 812 1018.559 C 812 1016.802, 811.400 1016.544, 810.543 1017.931 M 811.437 1022.102 C 810.366 1023.834, 810.560 1036.960, 811.673 1038.073 C 812.339 1038.739, 812.646 1036.057, 812.593 1030.036 C 812.550 1025.066, 812.425 1021, 812.316 1021 C 812.207 1021, 811.811 1021.496, 811.437 1022.102 M 1132 1034 C 1132 1035.100, 1132.173 1036, 1132.383 1036 C 1132.594 1036, 1133.002 1035.100, 1133.290 1034 C 1133.577 1032.900, 1133.405 1032, 1132.906 1032 C 1132.408 1032, 1132 1032.900, 1132 1034 M 1129.158 1039 C 1129.158 1040.375, 1129.385 1040.938, 1129.662 1040.250 C 1129.940 1039.563, 1129.940 1038.438, 1129.662 1037.750 C 1129.385 1037.063, 1129.158 1037.625, 1129.158 1039 M 810.564 1041.293 C 810.940 1042.279, 811.499 1042.834, 811.807 1042.526 C 812.115 1042.219, 811.808 1041.412, 811.124 1040.733 C 810.136 1039.753, 810.022 1039.868, 810.564 1041.293 M 1127.079 1042.583 C 1127.127 1043.748, 1127.364 1043.985, 1127.683 1043.188 C 1127.972 1042.466, 1127.936 1041.603, 1127.604 1041.271 C 1127.272 1040.939, 1127.036 1041.529, 1127.079 1042.583 M 1132.167 1052.097 C 1132.081 1054.305, 1132.389 1055.878, 1132.852 1055.592 C 1133.922 1054.930, 1134.120 1049.192, 1133.095 1048.559 C 1132.671 1048.297, 1132.254 1049.889, 1132.167 1052.097 M 1122.079 1058.583 C 1122.127 1059.748, 1122.364 1059.985, 1122.683 1059.188 C 1122.972 1058.466, 1122.936 1057.603, 1122.604 1057.271 C 1122.272 1056.939, 1122.036 1057.529, 1122.079 1058.583 M 1132 1058.833 C 1132 1060.025, 1132.410 1061, 1132.912 1061 C 1133.928 1061, 1133.776 1058.443, 1132.696 1057.362 C 1132.313 1056.980, 1132 1057.642, 1132 1058.833 M 810.754 1061.734 C 810.543 1062.155, 810.456 1063.063, 810.560 1063.750 C 810.665 1064.438, 810.838 1066.013, 810.945 1067.250 C 811.132 1069.396, 811.177 1069.408, 811.936 1067.500 C 812.374 1066.400, 812.323 1065.344, 811.824 1065.153 C 811.324 1064.961, 811.406 1064.216, 812.007 1063.492 C 812.703 1062.653, 812.743 1061.959, 812.118 1061.573 C 811.579 1061.240, 810.965 1061.312, 810.754 1061.734 M 1132.273 1065.022 C 1132.190 1066.134, 1132.544 1066.782, 1133.061 1066.463 C 1134.197 1065.760, 1134.319 1063, 1133.213 1063 C 1132.780 1063, 1132.357 1063.910, 1132.273 1065.022 M 1132.176 1074.381 C 1132.278 1078.079, 1132.690 1081.308, 1133.092 1081.557 C 1133.965 1082.096, 1133.490 1069.156, 1132.604 1068.271 C 1132.266 1067.933, 1132.074 1070.683, 1132.176 1074.381 M 810.638 1072.500 C 810.322 1073.325, 810.499 1074, 811.031 1074 C 811.564 1074, 812 1073.325, 812 1072.500 C 812 1071.675, 811.823 1071, 811.607 1071 C 811.391 1071, 810.955 1071.675, 810.638 1072.500 M 1129.328 1078.500 C 1129.333 1082.350, 1129.513 1083.802, 1129.730 1081.728 C 1129.946 1079.653, 1129.943 1076.503, 1129.722 1074.728 C 1129.501 1072.952, 1129.324 1074.650, 1129.328 1078.500 M 1132.711 1083.750 C 1132.487 1084.162, 1132.254 1088.775, 1132.194 1094 C 1132.119 1100.533, 1132.367 1102.814, 1132.990 1101.304 C 1133.755 1099.450, 1134.088 1083, 1133.361 1083 C 1133.228 1083, 1132.935 1083.338, 1132.711 1083.750 M 1132.583 1104.866 C 1132.152 1105.563, 1132.070 1106.403, 1132.400 1106.733 C 1133.295 1107.628, 1134.271 1106.312, 1133.787 1104.862 C 1133.449 1103.846, 1133.213 1103.846, 1132.583 1104.866 M 1132.345 1109.543 C 1132.019 1110.392, 1131.976 1111.310, 1132.249 1111.583 C 1132.523 1111.856, 1132.986 1111.161, 1133.279 1110.040 C 1133.903 1107.657, 1133.210 1107.289, 1132.345 1109.543 M 1132.389 1116.250 C 1132.450 1118.312, 1132.886 1119.999, 1133.357 1120 C 1133.828 1120, 1133.976 1119.380, 1133.685 1118.622 C 1133.394 1117.864, 1133.684 1116.673, 1134.328 1115.975 C 1135.224 1115.005, 1135.224 1114.862, 1134.326 1115.366 C 1133.661 1115.738, 1132.962 1115.259, 1132.714 1114.262 C 1132.474 1113.293, 1132.327 1114.187, 1132.389 1116.250 M 810 1124 C 810 1124.550, 810.477 1125, 811.059 1125 C 811.641 1125, 811.840 1124.550, 811.500 1124 C 811.160 1123.450, 810.684 1123, 810.441 1123 C 810.198 1123, 810 1123.450, 810 1124 M 1132.771 1125.250 C 1132.021 1127.368, 1132.041 1159, 1132.793 1159 C 1133.182 1159, 1133.562 1151.125, 1133.639 1141.500 C 1133.715 1131.875, 1133.651 1124, 1133.496 1124 C 1133.341 1124, 1133.015 1124.563, 1132.771 1125.250 M 811.729 1127.604 C 811.328 1128.005, 811 1129.023, 811 1129.867 C 811 1130.992, 811.296 1131.104, 812.112 1130.287 C 812.724 1129.676, 813.053 1128.658, 812.842 1128.025 C 812.631 1127.392, 812.130 1127.203, 811.729 1127.604 M 811.079 1137.583 C 811.127 1138.748, 811.364 1138.985, 811.683 1138.188 C 811.972 1137.466, 811.936 1136.603, 811.604 1136.271 C 811.272 1135.939, 811.036 1136.529, 811.079 1137.583 M 811.138 1144.280 C 811.003 1146.568, 811.195 1148.138, 811.565 1147.769 C 812.502 1146.831, 812.907 1141.060, 812.071 1140.544 C 811.693 1140.310, 811.274 1141.992, 811.138 1144.280 M 1129.079 1145.583 C 1129.127 1146.748, 1129.364 1146.985, 1129.683 1146.188 C 1129.972 1145.466, 1129.936 1144.603, 1129.604 1144.271 C 1129.272 1143.939, 1129.036 1144.529, 1129.079 1145.583 M 811.284 1151.750 C 811.152 1154.123, 811.250 1154.226, 811.995 1152.500 C 813.121 1149.895, 813.178 1149, 812.218 1149 C 811.788 1149, 811.368 1150.237, 811.284 1151.750 M 811 1158.059 C 811 1159.191, 811.430 1159.852, 811.956 1159.527 C 812.482 1159.202, 812.659 1158.275, 812.349 1157.468 C 811.556 1155.401, 811 1155.644, 811 1158.059 M 1132.158 1162 C 1132.158 1163.375, 1132.385 1163.938, 1132.662 1163.250 C 1132.940 1162.563, 1132.940 1161.438, 1132.662 1160.750 C 1132.385 1160.063, 1132.158 1160.625, 1132.158 1162 M 810.500 1163 C 810.160 1163.550, 810.359 1164, 810.941 1164 C 811.523 1164, 812 1163.550, 812 1163 C 812 1162.450, 811.802 1162, 811.559 1162 C 811.316 1162, 810.840 1162.450, 810.500 1163 M 1127.079 1170.583 C 1127.127 1171.748, 1127.364 1171.985, 1127.683 1171.188 C 1127.972 1170.466, 1127.936 1169.603, 1127.604 1169.271 C 1127.272 1168.939, 1127.036 1169.529, 1127.079 1170.583 M 1132.229 1174.498 C 1132.120 1175.820, 1132.382 1177.118, 1132.811 1177.383 C 1133.674 1177.917, 1133.818 1173.483, 1132.964 1172.630 C 1132.669 1172.336, 1132.339 1173.176, 1132.229 1174.498 M 811.181 1178.048 C 811.212 1180.275, 811.423 1181.910, 811.650 1181.683 C 812.429 1180.904, 812.636 1174, 811.881 1174 C 811.465 1174, 811.151 1175.822, 811.181 1178.048 M 1132.112 1188.521 C 1132.210 1192.108, 1132.563 1194.769, 1132.896 1194.436 C 1133.794 1193.535, 1133.628 1182, 1132.716 1182 C 1132.285 1182, 1132.013 1184.934, 1132.112 1188.521 M 810.823 1188.614 C 811.041 1190.476, 811.555 1192, 811.966 1192 C 813.109 1192, 812.643 1186.083, 811.464 1185.627 C 810.831 1185.382, 810.582 1186.543, 810.823 1188.614 M 1122.079 1186.583 C 1122.127 1187.748, 1122.364 1187.985, 1122.683 1187.188 C 1122.972 1186.466, 1122.936 1185.603, 1122.604 1185.271 C 1122.272 1184.939, 1122.036 1185.529, 1122.079 1186.583 M 811.158 1195 C 811.158 1196.375, 811.385 1196.938, 811.662 1196.250 C 811.940 1195.563, 811.940 1194.438, 811.662 1193.750 C 811.385 1193.063, 811.158 1193.625, 811.158 1195 M 1132 1199.941 C 1132 1202.109, 1132.346 1204.096, 1132.768 1204.357 C 1133.191 1204.618, 1133.529 1202.845, 1133.518 1200.416 C 1133.508 1197.987, 1133.162 1196, 1132.750 1196 C 1132.338 1196, 1132 1197.773, 1132 1199.941 M 810.638 1200.500 C 810.322 1201.325, 810.499 1202, 811.031 1202 C 811.564 1202, 812 1201.325, 812 1200.500 C 812 1199.675, 811.823 1199, 811.607 1199 C 811.391 1199, 810.955 1199.675, 810.638 1200.500 M 1129.252 1203.500 C 1129.263 1205.700, 1129.468 1206.482, 1129.707 1205.238 C 1129.946 1203.994, 1129.937 1202.194, 1129.687 1201.238 C 1129.437 1200.282, 1129.241 1201.300, 1129.252 1203.500 M 1132 1208 C 1132 1209.100, 1132.450 1210, 1133 1210 C 1133.550 1210, 1134 1209.100, 1134 1208 C 1134 1206.900, 1133.550 1206, 1133 1206 C 1132.450 1206, 1132 1206.900, 1132 1208 M 1129.158 1213 C 1129.158 1214.375, 1129.385 1214.938, 1129.662 1214.250 C 1129.940 1213.563, 1129.940 1212.438, 1129.662 1211.750 C 1129.385 1211.063, 1129.158 1211.625, 1129.158 1213 M 1132.074 1223 C 1132.088 1229.600, 1132.458 1235, 1132.896 1235 C 1133.335 1235, 1133.715 1229.600, 1133.741 1223 C 1133.767 1216.400, 1133.397 1211, 1132.918 1211 C 1132.440 1211, 1132.060 1216.400, 1132.074 1223 M 810 1219.059 C 810 1219.641, 810.450 1219.840, 811 1219.500 C 811.550 1219.160, 812 1218.684, 812 1218.441 C 812 1218.198, 811.550 1218, 811 1218 C 810.450 1218, 810 1218.477, 810 1219.059 M 1132.667 1236.667 C 1131.672 1237.662, 1131.862 1240, 1132.938 1240 C 1133.454 1240, 1133.808 1239.100, 1133.725 1238 C 1133.555 1235.740, 1133.572 1235.761, 1132.667 1236.667 M 811.079 1248.583 C 811.127 1249.748, 811.364 1249.985, 811.683 1249.188 C 811.972 1248.466, 811.936 1247.603, 811.604 1247.271 C 811.272 1246.939, 811.036 1247.529, 811.079 1248.583 M 1129.272 1254 C 1129.272 1256.475, 1129.467 1257.487, 1129.706 1256.250 C 1129.944 1255.013, 1129.944 1252.987, 1129.706 1251.750 C 1129.467 1250.513, 1129.272 1251.525, 1129.272 1254 M 810.429 1252.927 C 810.429 1253.986, 810.782 1254.635, 811.214 1254.368 C 811.646 1254.100, 812 1253.234, 812 1252.441 C 812 1251.648, 811.646 1251, 811.214 1251 C 810.782 1251, 810.429 1251.867, 810.429 1252.927 M 1132.165 1260.194 C 1132.044 1264.701, 1132.224 1268.110, 1132.564 1267.769 C 1133.570 1266.763, 1134.226 1252, 1133.265 1252 C 1132.781 1252, 1132.286 1255.687, 1132.165 1260.194 M 811 1257.500 C 811 1258.325, 811.375 1259, 811.833 1259 C 812.292 1259, 812.667 1258.325, 812.667 1257.500 C 812.667 1256.675, 812.292 1256, 811.833 1256 C 811.375 1256, 811 1256.675, 811 1257.500 M 1129.232 1263 C 1129.232 1264.925, 1129.438 1265.713, 1129.689 1264.750 C 1129.941 1263.787, 1129.941 1262.213, 1129.689 1261.250 C 1129.438 1260.287, 1129.232 1261.075, 1129.232 1263 M 1129.272 1273 C 1129.272 1275.475, 1129.467 1276.487, 1129.706 1275.250 C 1129.944 1274.013, 1129.944 1271.987, 1129.706 1270.750 C 1129.467 1269.513, 1129.272 1270.525, 1129.272 1273 M 811 1271 C 811 1271.550, 811.477 1272, 812.059 1272 C 812.641 1272, 812.840 1271.550, 812.500 1271 C 812.160 1270.450, 811.684 1270, 811.441 1270 C 811.198 1270, 811 1270.450, 811 1271 M 1132.105 1278.877 C 1132.115 1283.345, 1132.496 1287, 1132.952 1287 C 1133.863 1287, 1133.592 1272.259, 1132.664 1271.331 C 1132.347 1271.013, 1132.095 1274.409, 1132.105 1278.877 M 811.265 1277.996 C 811.229 1280.745, 811.594 1282.751, 812.076 1282.453 C 812.911 1281.937, 812.637 1274.304, 811.752 1273.419 C 811.520 1273.187, 811.301 1275.246, 811.265 1277.996 M 1132.079 1289.583 C 1132.127 1290.748, 1132.364 1290.985, 1132.683 1290.188 C 1132.972 1289.466, 1132.936 1288.603, 1132.604 1288.271 C 1132.272 1287.939, 1132.036 1288.529, 1132.079 1289.583 M 811 1291.059 C 811 1291.641, 811.450 1291.840, 812 1291.500 C 812.550 1291.160, 813 1290.684, 813 1290.441 C 813 1290.198, 812.550 1290, 812 1290 C 811.450 1290, 811 1290.477, 811 1291.059 M 811.500 1294 C 811.840 1294.550, 812.316 1295, 812.559 1295 C 812.802 1295, 813 1294.550, 813 1294 C 813 1293.450, 812.523 1293, 811.941 1293 C 811.359 1293, 811.160 1293.450, 811.500 1294 M 1127.079 1298.583 C 1127.127 1299.748, 1127.364 1299.985, 1127.683 1299.188 C 1127.972 1298.466, 1127.936 1297.603, 1127.604 1297.271 C 1127.272 1296.939, 1127.036 1297.529, 1127.079 1298.583 M 1132.564 1301.707 C 1132.022 1303.132, 1132.136 1303.247, 1133.124 1302.267 C 1133.808 1301.588, 1134.115 1300.781, 1133.807 1300.474 C 1133.499 1300.166, 1132.940 1300.721, 1132.564 1301.707 M 811 1302 C 811 1302.550, 811.477 1303, 812.059 1303 C 812.641 1303, 812.840 1302.550, 812.500 1302 C 812.160 1301.450, 811.684 1301, 811.441 1301 C 811.198 1301, 811 1301.450, 811 1302 M 811 1304.941 C 811 1305.459, 811.445 1306.157, 811.989 1306.493 C 812.555 1306.843, 812.723 1306.442, 812.382 1305.552 C 811.717 1303.820, 811 1303.503, 811 1304.941 M 1132.193 1319.930 C 1132.197 1326.571, 1132.546 1332.219, 1132.970 1332.481 C 1133.875 1333.040, 1133.711 1309.377, 1132.803 1308.470 C 1132.465 1308.131, 1132.190 1313.288, 1132.193 1319.930 M 810.803 1317.561 C 810.574 1319.519, 810.820 1321.389, 811.348 1321.715 C 811.877 1322.042, 811.988 1321.789, 811.595 1321.155 C 811.203 1320.520, 811.246 1320, 811.691 1320 C 812.136 1320, 812.500 1318.650, 812.500 1317 C 812.500 1312.839, 811.308 1313.233, 810.803 1317.561 M 811 1328.441 C 811 1329.234, 811.408 1330.134, 811.907 1330.442 C 812.405 1330.751, 812.578 1330.102, 812.290 1329.001 C 811.679 1326.666, 811 1326.371, 811 1328.441 M 1132 1335 C 1132 1335.550, 1132.450 1336, 1133 1336 C 1133.550 1336, 1134 1335.550, 1134 1335 C 1134 1334.450, 1133.550 1334, 1133 1334 C 1132.450 1334, 1132 1334.450, 1132 1335 M 1132.595 1339.846 C 1132.307 1340.312, 1132.110 1343.349, 1132.156 1346.596 C 1132.218 1350.989, 1132.457 1351.925, 1133.087 1350.252 C 1133.793 1348.378, 1133.992 1339, 1133.326 1339 C 1133.211 1339, 1132.883 1339.381, 1132.595 1339.846 M 810.436 1348.623 C 811.139 1352.494, 812.100 1352.894, 811.818 1349.198 C 811.684 1347.439, 811.212 1346, 810.768 1346 C 810.324 1346, 810.175 1347.180, 810.436 1348.623 M 1132.129 1358 C 1132.004 1360.750, 1132.287 1363, 1132.758 1363 C 1133.230 1363, 1133.615 1360.750, 1133.615 1358 C 1133.615 1355.250, 1133.332 1353, 1132.986 1353 C 1132.640 1353, 1132.255 1355.250, 1132.129 1358 M 1132 1368.167 C 1132 1370.458, 1132.209 1372.124, 1132.466 1371.868 C 1133.413 1370.920, 1133.817 1364, 1132.925 1364 C 1132.416 1364, 1132 1365.875, 1132 1368.167 M 1132.333 1374.544 C 1132.333 1375.345, 1132.708 1376, 1133.167 1376 C 1133.625 1376, 1134 1375.577, 1134 1375.059 C 1134 1374.541, 1133.625 1373.886, 1133.167 1373.603 C 1132.708 1373.320, 1132.333 1373.743, 1132.333 1374.544 M 811.731 1375.920 C 811.296 1377.583, 811.426 1377.974, 812.168 1377.232 C 812.750 1376.650, 813.028 1375.585, 812.788 1374.863 C 812.538 1374.114, 812.085 1374.568, 811.731 1375.920 M 1129.158 1380 C 1129.158 1381.375, 1129.385 1381.938, 1129.662 1381.250 C 1129.940 1380.563, 1129.940 1379.438, 1129.662 1378.750 C 1129.385 1378.063, 1129.158 1378.625, 1129.158 1380 M 810 1380 C 810 1380.550, 810.450 1381, 811 1381 C 811.550 1381, 812 1380.550, 812 1380 C 812 1379.450, 811.550 1379, 811 1379 C 810.450 1379, 810 1379.450, 810 1380 M 1132.728 1380.750 C 1131.877 1382.384, 1132.016 1396.457, 1132.870 1395.142 C 1133.355 1394.395, 1133.815 1390.683, 1133.893 1386.892 C 1134.024 1380.513, 1133.711 1378.861, 1132.728 1380.750 M 810.672 1383.063 C 811.316 1383.712, 811.606 1384.864, 811.315 1385.622 C 811.024 1386.380, 811.284 1387, 811.893 1387 C 813.693 1387, 813.155 1383.273, 811.250 1382.548 C 809.908 1382.037, 809.773 1382.157, 810.672 1383.063 M 1129.310 1388.500 C 1129.315 1391.800, 1129.502 1393.029, 1129.725 1391.232 C 1129.947 1389.435, 1129.943 1386.735, 1129.715 1385.232 C 1129.486 1383.729, 1129.304 1385.200, 1129.310 1388.500 M 810.638 1393.500 C 810.955 1394.325, 811.391 1395, 811.607 1395 C 811.823 1395, 812 1394.325, 812 1393.500 C 812 1392.675, 811.564 1392, 811.031 1392 C 810.499 1392, 810.322 1392.675, 810.638 1393.500 M 811 1398.833 C 811 1400.575, 811.381 1402, 811.846 1402 C 812.850 1402, 812.743 1397.409, 811.715 1396.381 C 811.322 1395.988, 811 1397.092, 811 1398.833 M 1129.158 1400 C 1129.158 1401.375, 1129.385 1401.938, 1129.662 1401.250 C 1129.940 1400.563, 1129.940 1399.438, 1129.662 1398.750 C 1129.385 1398.063, 1129.158 1398.625, 1129.158 1400 M 1132.207 1409.330 C 1132.189 1415.286, 1132.462 1419.871, 1132.815 1419.519 C 1133.792 1418.541, 1133.977 1404.532, 1133.055 1401.327 C 1132.509 1399.430, 1132.230 1402.063, 1132.207 1409.330 M 811.317 1403.703 C 811.661 1404.260, 811.528 1406.159, 811.022 1407.924 C 810.346 1410.281, 810.415 1411.028, 811.281 1410.740 C 812.842 1410.219, 813.284 1404.294, 811.829 1403.395 C 811.187 1402.998, 810.964 1403.132, 811.317 1403.703 M 811.109 1416 C 811.154 1420.154, 811.234 1420.291, 812.150 1417.788 C 812.818 1415.961, 812.802 1414.491, 812.101 1413.288 C 811.273 1411.865, 811.071 1412.418, 811.109 1416 M 1129.252 1420.500 C 1129.263 1422.700, 1129.468 1423.482, 1129.707 1422.238 C 1129.946 1420.994, 1129.937 1419.194, 1129.687 1418.238 C 1129.437 1417.282, 1129.241 1418.300, 1129.252 1420.500 M 811.500 1422 C 811.840 1422.550, 812.316 1423, 812.559 1423 C 812.802 1423, 813 1422.550, 813 1422 C 813 1421.450, 812.523 1421, 811.941 1421 C 811.359 1421, 811.160 1421.450, 811.500 1422 M 810.656 1425.545 C 810.960 1426.339, 811.612 1426.740, 812.105 1426.435 C 813.345 1425.669, 813.231 1425.303, 811.551 1424.658 C 810.584 1424.287, 810.286 1424.582, 810.656 1425.545 M 1127.079 1426.583 C 1127.127 1427.748, 1127.364 1427.985, 1127.683 1427.188 C 1127.972 1426.466, 1127.936 1425.603, 1127.604 1425.271 C 1127.272 1424.939, 1127.036 1425.529, 1127.079 1426.583 M 1129.158 1428 C 1129.158 1429.375, 1129.385 1429.938, 1129.662 1429.250 C 1129.940 1428.563, 1129.940 1427.438, 1129.662 1426.750 C 1129.385 1426.063, 1129.158 1426.625, 1129.158 1428 M 811 1430.774 C 811 1432.484, 811.361 1434.105, 811.803 1434.378 C 812.710 1434.939, 812.514 1429.181, 811.595 1428.261 C 811.268 1427.934, 811 1429.065, 811 1430.774 M 811 1436.941 C 811 1437.459, 811.445 1438.157, 811.989 1438.493 C 812.555 1438.843, 812.723 1438.442, 812.382 1437.552 C 811.717 1435.820, 811 1435.503, 811 1436.941 M 1132.667 1437.667 C 1132.300 1438.033, 1132 1438.798, 1132 1439.367 C 1132 1439.993, 1132.466 1439.934, 1133.183 1439.217 C 1133.834 1438.566, 1134.134 1437.801, 1133.850 1437.517 C 1133.566 1437.233, 1133.033 1437.300, 1132.667 1437.667 M 1122.079 1442.583 C 1122.127 1443.748, 1122.364 1443.985, 1122.683 1443.188 C 1122.972 1442.466, 1122.936 1441.603, 1122.604 1441.271 C 1122.272 1440.939, 1122.036 1441.529, 1122.079 1442.583 M 1132 1443.500 C 1132 1444.325, 1132.375 1445, 1132.833 1445 C 1133.292 1445, 1133.667 1444.325, 1133.667 1443.500 C 1133.667 1442.675, 1133.292 1442, 1132.833 1442 C 1132.375 1442, 1132 1442.675, 1132 1443.500 M 811 1446.059 C 811 1446.641, 811.450 1446.840, 812 1446.500 C 812.550 1446.160, 813 1445.684, 813 1445.441 C 813 1445.198, 812.550 1445, 812 1445 C 811.450 1445, 811 1445.477, 811 1446.059 M 1132.163 1450.207 C 1132.074 1452.476, 1132.292 1454.042, 1132.647 1453.687 C 1133.581 1452.752, 1133.900 1447.056, 1133.047 1446.529 C 1132.650 1446.284, 1132.252 1447.939, 1132.163 1450.207 M 1132.070 1457.191 C 1132.032 1458.671, 1132.450 1460.160, 1133 1460.500 C 1134.194 1461.238, 1134.194 1459.278, 1133 1456.500 C 1132.233 1454.714, 1132.133 1454.788, 1132.070 1457.191 M 1129.300 1461 C 1129.300 1464.025, 1129.487 1465.263, 1129.716 1463.750 C 1129.945 1462.237, 1129.945 1459.763, 1129.716 1458.250 C 1129.487 1456.737, 1129.300 1457.975, 1129.300 1461 M 1132.113 1469 C 1132.055 1472.850, 1132.391 1476, 1132.861 1476 C 1133.331 1476, 1133.750 1472.850, 1133.792 1469 C 1133.834 1465.150, 1133.497 1462, 1133.044 1462 C 1132.591 1462, 1132.172 1465.150, 1132.113 1469 M 811.079 1470.583 C 811.127 1471.748, 811.364 1471.985, 811.683 1471.188 C 811.972 1470.466, 811.936 1469.603, 811.604 1469.271 C 811.272 1468.939, 811.036 1469.529, 811.079 1470.583 M 810.070 1474.750 C 810.109 1475.162, 810.529 1476.400, 811.005 1477.500 C 811.750 1479.226, 811.848 1479.123, 811.716 1476.750 C 811.632 1475.237, 811.212 1474, 810.782 1474 C 810.352 1474, 810.032 1474.338, 810.070 1474.750 M 1129.079 1476.583 C 1129.127 1477.748, 1129.364 1477.985, 1129.683 1477.188 C 1129.972 1476.466, 1129.936 1475.603, 1129.604 1475.271 C 1129.272 1474.939, 1129.036 1475.529, 1129.079 1476.583 M 1132.125 1483.385 C 1132.097 1486.984, 1132.435 1490.151, 1132.874 1490.422 C 1133.829 1491.012, 1133.793 1478.460, 1132.838 1477.504 C 1132.473 1477.140, 1132.153 1479.786, 1132.125 1483.385 M 811.500 1487 C 811.160 1487.550, 811.359 1488, 811.941 1488 C 812.523 1488, 813 1487.550, 813 1487 C 813 1486.450, 812.802 1486, 812.559 1486 C 812.316 1486, 811.840 1486.450, 811.500 1487 M 810.755 1491.500 C 811.376 1494.746, 812.831 1494.746, 812.644 1491.501 C 812.565 1490.126, 812 1489.001, 811.389 1489.001 C 810.742 1489, 810.477 1490.046, 810.755 1491.500 M 1132 1494.500 C 1132 1495.325, 1132.450 1496, 1133 1496 C 1133.550 1496, 1134 1495.325, 1134 1494.500 C 1134 1493.675, 1133.550 1493, 1133 1493 C 1132.450 1493, 1132 1493.675, 1132 1494.500 M 1132 1498.500 C 1132 1499.325, 1132.436 1500, 1132.969 1500 C 1133.501 1500, 1133.678 1499.325, 1133.362 1498.500 C 1133.045 1497.675, 1132.609 1497, 1132.393 1497 C 1132.177 1497, 1132 1497.675, 1132 1498.500 M 1127.079 1502.583 C 1127.127 1503.748, 1127.364 1503.985, 1127.683 1503.188 C 1127.972 1502.466, 1127.936 1501.603, 1127.604 1501.271 C 1127.272 1500.939, 1127.036 1501.529, 1127.079 1502.583 M 1132 1502.441 C 1132 1503.298, 1132.450 1504, 1133 1504 C 1133.550 1504, 1134 1503.577, 1134 1503.059 C 1134 1502.541, 1133.550 1501.840, 1133 1501.500 C 1132.450 1501.160, 1132 1501.584, 1132 1502.441 M 811.564 1504.707 C 811.022 1506.132, 811.136 1506.247, 812.124 1505.267 C 812.808 1504.588, 813.115 1503.781, 812.807 1503.474 C 812.499 1503.166, 811.940 1503.721, 811.564 1504.707 M 1132.149 1515.686 C 1132.046 1521.013, 1132.210 1525.123, 1132.513 1524.820 C 1133.512 1523.822, 1134.215 1506, 1133.257 1506 C 1132.750 1506, 1132.251 1510.358, 1132.149 1515.686 M 810.500 1508 C 810.840 1508.550, 811.316 1509, 811.559 1509 C 811.802 1509, 812 1508.550, 812 1508 C 812 1507.450, 811.523 1507, 810.941 1507 C 810.359 1507, 810.160 1507.450, 810.500 1508 M 1129.079 1511.583 C 1129.127 1512.748, 1129.364 1512.985, 1129.683 1512.188 C 1129.972 1511.466, 1129.936 1510.603, 1129.604 1510.271 C 1129.272 1509.939, 1129.036 1510.529, 1129.079 1511.583 M 1129.158 1516 C 1129.158 1517.375, 1129.385 1517.938, 1129.662 1517.250 C 1129.940 1516.563, 1129.940 1515.438, 1129.662 1514.750 C 1129.385 1514.063, 1129.158 1514.625, 1129.158 1516 M 811 1517 C 811 1517.550, 811.450 1518, 812 1518 C 812.550 1518, 813 1517.550, 813 1517 C 813 1516.450, 812.550 1516, 812 1516 C 811.450 1516, 811 1516.450, 811 1517 M 1129.079 1520.583 C 1129.127 1521.748, 1129.364 1521.985, 1129.683 1521.188 C 1129.972 1520.466, 1129.936 1519.603, 1129.604 1519.271 C 1129.272 1518.939, 1129.036 1519.529, 1129.079 1520.583 M 810.638 1521.500 C 810.955 1522.325, 811.391 1523, 811.607 1523 C 811.823 1523, 812 1522.325, 812 1521.500 C 812 1520.675, 811.564 1520, 811.031 1520 C 810.499 1520, 810.322 1520.675, 810.638 1521.500 M 811.272 1526.043 C 811.191 1527.119, 811.507 1528, 811.974 1528 C 812.441 1528, 812.726 1527.338, 812.607 1526.529 C 812.265 1524.198, 811.433 1523.896, 811.272 1526.043 M 1132.104 1534.039 C 1132.136 1538.935, 1132.503 1541.804, 1132.995 1541.008 C 1133.872 1539.590, 1133.535 1527.202, 1132.594 1526.261 C 1132.295 1525.962, 1132.075 1529.462, 1132.104 1534.039 M 811.079 1530.583 C 811.127 1531.748, 811.364 1531.985, 811.683 1531.188 C 811.972 1530.466, 811.936 1529.603, 811.604 1529.271 C 811.272 1528.939, 811.036 1529.529, 811.079 1530.583 M 811.493 1535.021 C 811.140 1536.133, 810.975 1539.044, 811.125 1541.489 C 811.275 1543.934, 811.133 1546.201, 810.808 1546.525 C 810.074 1547.259, 810.988 1551, 811.901 1551 C 812.269 1551, 812.563 1546.950, 812.556 1542 C 812.548 1537.050, 812.451 1533, 812.338 1533 C 812.226 1533, 811.846 1533.910, 811.493 1535.021 M 1129.300 1545 C 1129.300 1548.025, 1129.487 1549.263, 1129.716 1547.750 C 1129.945 1546.237, 1129.945 1543.763, 1129.716 1542.250 C 1129.487 1540.737, 1129.300 1541.975, 1129.300 1545 M 1132 1545.500 C 1132 1546.325, 1132.177 1547, 1132.393 1547 C 1132.609 1547, 1133.045 1546.325, 1133.362 1545.500 C 1133.678 1544.675, 1133.501 1544, 1132.969 1544 C 1132.436 1544, 1132 1544.675, 1132 1545.500 M 1133.079 1550.668 C 1133.036 1551.311, 1132.741 1552.661, 1132.424 1553.668 C 1131.877 1555.409, 1131.906 1555.412, 1132.995 1553.712 C 1133.626 1552.729, 1133.920 1551.379, 1133.650 1550.712 C 1133.295 1549.837, 1133.136 1549.825, 1133.079 1550.668 M 811 1558.941 C 811 1560.559, 811.356 1562.102, 811.791 1562.371 C 812.226 1562.640, 812.402 1561.316, 812.182 1559.430 C 811.691 1555.227, 811 1554.941, 811 1558.941 M 1133.079 1557.583 C 1133.127 1558.748, 1133.364 1558.985, 1133.683 1558.188 C 1133.972 1557.466, 1133.936 1556.603, 1133.604 1556.271 C 1133.272 1555.939, 1133.036 1556.529, 1133.079 1557.583 M 1129.079 1558.583 C 1129.127 1559.748, 1129.364 1559.985, 1129.683 1559.188 C 1129.972 1558.466, 1129.936 1557.603, 1129.604 1557.271 C 1129.272 1556.939, 1129.036 1557.529, 1129.079 1558.583 M 1132 1561 C 1132 1561.550, 1132.477 1562, 1133.059 1562 C 1133.641 1562, 1133.840 1561.550, 1133.500 1561 C 1133.160 1560.450, 1132.684 1560, 1132.441 1560 C 1132.198 1560, 1132 1560.450, 1132 1561 M 811 1564.941 C 811 1565.459, 811.445 1566.157, 811.989 1566.493 C 812.555 1566.843, 812.723 1566.442, 812.382 1565.552 C 811.717 1563.820, 811 1563.503, 811 1564.941 M 1132.527 1565.956 C 1131.784 1567.158, 1132.101 1579.232, 1132.856 1578.477 C 1133.401 1577.933, 1133.908 1565, 1133.385 1565 C 1133.238 1565, 1132.852 1565.430, 1132.527 1565.956 M 810.656 1570.545 C 810.960 1571.339, 811.612 1571.740, 812.105 1571.435 C 813.345 1570.669, 813.231 1570.303, 811.551 1569.658 C 810.584 1569.287, 810.286 1569.582, 810.656 1570.545 M 1122.079 1570.583 C 1122.127 1571.748, 1122.364 1571.985, 1122.683 1571.188 C 1122.972 1570.466, 1122.936 1569.603, 1122.604 1569.271 C 1122.272 1568.939, 1122.036 1569.529, 1122.079 1570.583 M 811 1574.441 C 811 1575.298, 811.450 1576, 812 1576 C 812.550 1576, 813 1575.577, 813 1575.059 C 813 1574.541, 812.550 1573.840, 812 1573.500 C 811.450 1573.160, 811 1573.584, 811 1574.441 M 811.079 1580.583 C 811.127 1581.748, 811.364 1581.985, 811.683 1581.188 C 811.972 1580.466, 811.936 1579.603, 811.604 1579.271 C 811.272 1578.939, 811.036 1579.529, 811.079 1580.583 M 1132 1582.500 C 1132 1583.875, 1132.173 1585, 1132.383 1585 C 1132.594 1585, 1132.982 1583.875, 1133.245 1582.500 C 1133.508 1581.125, 1133.335 1580, 1132.861 1580 C 1132.388 1580, 1132 1581.125, 1132 1582.500 M 1129.079 1585.583 C 1129.127 1586.748, 1129.364 1586.985, 1129.683 1586.188 C 1129.972 1585.466, 1129.936 1584.603, 1129.604 1584.271 C 1129.272 1583.939, 1129.036 1584.529, 1129.079 1585.583 M 1132 1586.941 C 1132 1587.459, 1132.375 1588.114, 1132.833 1588.397 C 1133.292 1588.680, 1133.667 1588.257, 1133.667 1587.456 C 1133.667 1586.655, 1133.292 1586, 1132.833 1586 C 1132.375 1586, 1132 1586.423, 1132 1586.941 M 1129.328 1594.500 C 1129.333 1598.350, 1129.513 1599.802, 1129.730 1597.728 C 1129.946 1595.653, 1129.943 1592.503, 1129.722 1590.728 C 1129.501 1588.952, 1129.324 1590.650, 1129.328 1594.500 M 1132 1591.274 C 1132 1592.159, 1132.410 1593.136, 1132.912 1593.446 C 1133.414 1593.756, 1133.727 1593.345, 1133.608 1592.534 C 1133.294 1590.392, 1132 1589.379, 1132 1591.274 M 1132.714 1595.750 C 1131.992 1597.090, 1132.069 1608.264, 1132.795 1607.538 C 1133.451 1606.883, 1134.024 1595, 1133.400 1595 C 1133.245 1595, 1132.936 1595.338, 1132.714 1595.750 M 811.079 1598.583 C 811.127 1599.748, 811.364 1599.985, 811.683 1599.188 C 811.972 1598.466, 811.936 1597.603, 811.604 1597.271 C 811.272 1596.939, 811.036 1597.529, 811.079 1598.583 M 810.469 1602.050 C 809.551 1603.536, 810.281 1604.062, 811.886 1603.071 C 812.745 1602.539, 812.848 1602.024, 812.176 1601.609 C 811.605 1601.256, 810.837 1601.455, 810.469 1602.050 M 1129.158 1605 C 1129.158 1606.375, 1129.385 1606.938, 1129.662 1606.250 C 1129.940 1605.563, 1129.940 1604.438, 1129.662 1603.750 C 1129.385 1603.063, 1129.158 1603.625, 1129.158 1605 M 1132 1610 C 1132 1610.550, 1132.450 1611, 1133 1611 C 1133.550 1611, 1134 1610.550, 1134 1610 C 1134 1609.450, 1133.550 1609, 1133 1609 C 1132.450 1609, 1132 1609.450, 1132 1610 M 1132.223 1615.250 C 1132.210 1617.313, 1132.605 1619, 1133.100 1619 C 1134.185 1619, 1134.161 1616.249, 1133.053 1613.500 C 1132.429 1611.953, 1132.241 1612.350, 1132.223 1615.250 M 811 1619.941 C 811 1620.459, 811.445 1621.157, 811.989 1621.493 C 812.555 1621.843, 812.723 1621.442, 812.382 1620.552 C 811.717 1618.820, 811 1618.503, 811 1619.941 M 1132.531 1621.293 C 1132.103 1622.279, 1132.034 1623.367, 1132.376 1623.710 C 1133.392 1624.725, 1134.211 1623.299, 1133.743 1621.328 C 1133.329 1619.581, 1133.275 1619.580, 1132.531 1621.293 M 1132 1627.031 C 1132 1627.564, 1132.675 1628, 1133.500 1628 C 1134.325 1628, 1135 1627.823, 1135 1627.607 C 1135 1627.391, 1134.325 1626.955, 1133.500 1626.638 C 1132.675 1626.322, 1132 1626.499, 1132 1627.031 M 1129.158 1631 C 1129.158 1632.375, 1129.385 1632.938, 1129.662 1632.250 C 1129.940 1631.563, 1129.940 1630.438, 1129.662 1629.750 C 1129.385 1629.063, 1129.158 1629.625, 1129.158 1631 M 810 1636 C 810 1636.550, 810.450 1637, 811 1637 C 811.550 1637, 812 1636.550, 812 1636 C 812 1635.450, 811.550 1635, 811 1635 C 810.450 1635, 810 1635.450, 810 1636 M 1132.945 1637.500 C 1132.640 1638.050, 1132.328 1641.425, 1132.251 1645 C 1132.112 1651.492, 1132.113 1651.495, 1133.074 1647 C 1134.051 1642.431, 1133.959 1635.672, 1132.945 1637.500 M 810.390 1639.454 C 810.517 1640.316, 811.156 1641.556, 811.810 1642.210 C 812.730 1643.130, 813 1643.042, 813 1641.822 C 813 1640.955, 812.361 1639.715, 811.580 1639.067 C 810.452 1638.130, 810.208 1638.210, 810.390 1639.454 M 1129.272 1646 C 1129.272 1648.475, 1129.467 1649.487, 1129.706 1648.250 C 1129.944 1647.013, 1129.944 1644.987, 1129.706 1643.750 C 1129.467 1642.513, 1129.272 1643.525, 1129.272 1646 M 810.510 1645.016 C 810.856 1645.575, 811.557 1645.774, 812.069 1645.457 C 813.456 1644.600, 813.198 1644, 811.441 1644 C 810.584 1644, 810.165 1644.457, 810.510 1645.016 M 811.272 1654.043 C 811.191 1655.119, 811.507 1656, 811.974 1656 C 812.441 1656, 812.726 1655.338, 812.607 1654.529 C 812.265 1652.198, 811.433 1651.896, 811.272 1654.043 M 1129.158 1656 C 1129.158 1657.375, 1129.385 1657.938, 1129.662 1657.250 C 1129.940 1656.563, 1129.940 1655.438, 1129.662 1654.750 C 1129.385 1654.063, 1129.158 1654.625, 1129.158 1656 M 811.478 1659.618 C 811.793 1660.783, 811.586 1662.959, 811.018 1664.454 C 810.227 1666.534, 810.276 1667.075, 811.227 1666.758 C 812.790 1666.237, 813.237 1661.176, 811.906 1659.078 C 811.102 1657.812, 811.018 1657.918, 811.478 1659.618 M 1132.214 1664.380 C 1132.280 1668.021, 1132.681 1671, 1133.106 1671 C 1134.005 1671, 1133.648 1659.314, 1132.720 1658.387 C 1132.376 1658.042, 1132.148 1660.740, 1132.214 1664.380 M 810.840 1671.880 C 810.624 1674.146, 810.797 1676, 811.224 1676 C 811.651 1676, 812.034 1675.438, 812.077 1674.750 C 812.119 1674.063, 812.295 1672.773, 812.468 1671.884 C 812.642 1670.995, 812.435 1669.704, 812.008 1669.014 C 811.540 1668.256, 811.077 1669.391, 810.840 1671.880 M 1132.070 1674.750 C 1132.133 1677.187, 1132.238 1677.272, 1133 1675.500 C 1134.174 1672.769, 1134.174 1672, 1133 1672 C 1132.450 1672, 1132.032 1673.237, 1132.070 1674.750 M 811.500 1678 C 811.840 1678.550, 812.316 1679, 812.559 1679 C 812.802 1679, 813 1678.550, 813 1678 C 813 1677.450, 812.523 1677, 811.941 1677 C 811.359 1677, 811.160 1677.450, 811.500 1678 M 1129.079 1678.583 C 1129.127 1679.748, 1129.364 1679.985, 1129.683 1679.188 C 1129.972 1678.466, 1129.936 1677.603, 1129.604 1677.271 C 1129.272 1676.939, 1129.036 1677.529, 1129.079 1678.583 M 1127.079 1682.583 C 1127.127 1683.748, 1127.364 1683.985, 1127.683 1683.188 C 1127.972 1682.466, 1127.936 1681.603, 1127.604 1681.271 C 1127.272 1680.939, 1127.036 1681.529, 1127.079 1682.583 M 1129.300 1686 C 1129.300 1689.025, 1129.487 1690.263, 1129.716 1688.750 C 1129.945 1687.237, 1129.945 1684.763, 1129.716 1683.250 C 1129.487 1681.737, 1129.300 1682.975, 1129.300 1686" stroke="none" fill="black" fill-rule="evenodd"/>
	<path fill-opacity="0.046" d="M 780 1116.465 C 780 1710.635, 780.060 1730.962, 781.828 1731.908 C 784.773 1733.484, 1160.188 1733.317, 1162.332 1731.738 C 1164.123 1730.420, 1164.068 1764.435, 1164.011 698.750 C 1164.005 590.537, 1163.646 502, 1163.213 502 C 1162.780 502, 1162.443 777.623, 1162.463 1114.495 L 1162.500 1726.990 972.250 1727.245 L 782 1727.500 782 1114.750 C 782 706.917, 781.666 502, 781 502 C 780.334 502, 780 707.488, 780 1116.465 M 787.673 507.856 C 788.084 509.429, 789.327 509.753, 795.829 509.979 C 800.048 510.125, 882.339 510.265, 978.698 510.288 C 1157.914 510.333, 1157 510.350, 1157 506.878 C 1157 506.377, 1077.498 506, 972.094 506 C 792.458 506, 787.201 506.053, 787.673 507.856 M 1170.272 514 C 1170.272 516.475, 1170.467 517.487, 1170.706 516.250 C 1170.944 515.013, 1170.944 512.987, 1170.706 511.750 C 1170.467 510.512, 1170.272 511.525, 1170.272 514 M 793.643 513.750 C 794.115 514.713, 794.613 743.751, 794.751 1023 C 794.889 1302.125, 795.116 1572.125, 795.256 1623 C 795.396 1673.875, 795.621 1446.343, 795.755 1117.372 C 795.961 614.153, 796.216 519.066, 797.362 518.115 C 798.363 517.284, 844.908 516.987, 973.030 516.994 C 1068.899 517, 1147.599 517.266, 1147.919 517.585 C 1148.238 517.905, 1148.602 741.667, 1148.726 1014.833 C 1148.850 1288, 1149.109 1513.300, 1149.301 1515.500 C 1149.493 1517.700, 1149.729 1293.514, 1149.825 1017.309 C 1149.941 683.782, 1150.336 514.910, 1151 514.500 C 1151.550 514.160, 1152 513.459, 1152 512.941 C 1152 512.356, 1083.955 512, 972.393 512 C 801.679 512, 792.828 512.087, 793.643 513.750 M 1170.158 524 C 1170.158 525.375, 1170.385 525.938, 1170.662 525.250 C 1170.940 524.563, 1170.940 523.438, 1170.662 522.750 C 1170.385 522.063, 1170.158 522.625, 1170.158 524 M 1170.336 534 C 1170.336 538.125, 1170.513 539.813, 1170.728 537.750 C 1170.944 535.688, 1170.944 532.313, 1170.728 530.250 C 1170.513 528.188, 1170.336 529.875, 1170.336 534 M 854.250 538.764 L 822 539.028 822 542.085 C 822 544.870, 822.141 545.002, 823.578 543.565 C 825.003 542.140, 839.499 542.012, 973.527 542.243 C 1114.115 542.487, 1121.922 542.408, 1122.355 540.750 C 1122.786 539.102, 1120.120 538.999, 1076.656 538.990 C 1051.270 538.984, 998.100 538.872, 958.500 538.740 C 918.900 538.608, 871.987 538.619, 854.250 538.764 M 827.015 546.840 C 827.025 548.561, 827.313 549.054, 827.832 548.238 C 829.005 546.390, 1116.002 546.401, 1117.175 548.249 C 1117.681 549.046, 1117.975 548.516, 1117.985 546.790 L 1118 544.079 972.500 544.130 L 827 544.181 827.015 546.840 M 1117.079 552.583 C 1117.127 553.748, 1117.364 553.985, 1117.683 553.188 C 1117.972 552.466, 1117.936 551.603, 1117.604 551.271 C 1117.272 550.939, 1117.036 551.529, 1117.079 552.583 M 1170.079 561.583 C 1170.127 562.748, 1170.364 562.985, 1170.683 562.188 C 1170.972 561.466, 1170.936 560.603, 1170.604 560.271 C 1170.272 559.939, 1170.036 560.529, 1170.079 561.583 M 1170.232 572 C 1170.232 573.925, 1170.438 574.712, 1170.689 573.750 C 1170.941 572.788, 1170.941 571.212, 1170.689 570.250 C 1170.438 569.288, 1170.232 570.075, 1170.232 572 M 1170.195 579.500 C 1170.215 581.150, 1170.439 581.704, 1170.693 580.731 C 1170.947 579.758, 1170.930 578.408, 1170.656 577.731 C 1170.382 577.054, 1170.175 577.850, 1170.195 579.500 M 1170.300 603 C 1170.300 606.025, 1170.487 607.263, 1170.716 605.750 C 1170.945 604.237, 1170.945 601.763, 1170.716 600.250 C 1170.487 598.737, 1170.300 599.975, 1170.300 603 M 1170.158 618 C 1170.158 619.375, 1170.385 619.938, 1170.662 619.250 C 1170.940 618.563, 1170.940 617.438, 1170.662 616.750 C 1170.385 616.063, 1170.158 616.625, 1170.158 618 M 1170.272 626 C 1170.272 628.475, 1170.467 629.487, 1170.706 628.250 C 1170.944 627.013, 1170.944 624.987, 1170.706 623.750 C 1170.467 622.513, 1170.272 623.525, 1170.272 626 M 1170.343 638.500 C 1170.346 642.900, 1170.522 644.576, 1170.733 642.224 C 1170.945 639.872, 1170.942 636.272, 1170.727 634.224 C 1170.512 632.176, 1170.339 634.100, 1170.343 638.500 M 1170.158 652 C 1170.158 653.375, 1170.385 653.938, 1170.662 653.250 C 1170.940 652.563, 1170.940 651.438, 1170.662 650.750 C 1170.385 650.063, 1170.158 650.625, 1170.158 652 M 1170.232 658 C 1170.232 659.925, 1170.438 660.712, 1170.689 659.750 C 1170.941 658.788, 1170.941 657.212, 1170.689 656.250 C 1170.438 655.288, 1170.232 656.075, 1170.232 658 M 1170.079 663.583 C 1170.127 664.748, 1170.364 664.985, 1170.683 664.188 C 1170.972 663.466, 1170.936 662.603, 1170.604 662.271 C 1170.272 661.939, 1170.036 662.529, 1170.079 663.583 M 1170.158 668 C 1170.158 669.375, 1170.385 669.938, 1170.662 669.250 C 1170.940 668.563, 1170.940 667.438, 1170.662 666.750 C 1170.385 666.063, 1170.158 666.625, 1170.158 668 M 1170.079 682.583 C 1170.127 683.748, 1170.364 683.985, 1170.683 683.188 C 1170.972 682.466, 1170.936 681.603, 1170.604 681.271 C 1170.272 680.939, 1170.036 681.529, 1170.079 682.583 M 1170.158 689 C 1170.158 690.375, 1170.385 690.938, 1170.662 690.250 C 1170.940 689.563, 1170.940 688.438, 1170.662 687.750 C 1170.385 687.063, 1170.158 687.625, 1170.158 689 M 1170.158 698 C 1170.158 699.375, 1170.385 699.938, 1170.662 699.250 C 1170.940 698.563, 1170.940 697.438, 1170.662 696.750 C 1170.385 696.063, 1170.158 696.625, 1170.158 698 M 1170.300 706 C 1170.300 709.025, 1170.487 710.263, 1170.716 708.750 C 1170.945 707.237, 1170.945 704.763, 1170.716 703.250 C 1170.487 701.737, 1170.300 702.975, 1170.300 706 M 1170.232 733 C 1170.232 734.925, 1170.438 735.712, 1170.689 734.750 C 1170.941 733.788, 1170.941 732.212, 1170.689 731.250 C 1170.438 730.288, 1170.232 731.075, 1170.232 733 M 1170.349 747 C 1170.349 751.675, 1170.522 753.587, 1170.732 751.250 C 1170.943 748.913, 1170.943 745.087, 1170.732 742.750 C 1170.522 740.413, 1170.349 742.325, 1170.349 747 M 1170.079 770.583 C 1170.127 771.748, 1170.364 771.985, 1170.683 771.188 C 1170.972 770.466, 1170.936 769.603, 1170.604 769.271 C 1170.272 768.939, 1170.036 769.529, 1170.079 770.583 M 1170.158 775 C 1170.158 776.375, 1170.385 776.938, 1170.662 776.250 C 1170.940 775.563, 1170.940 774.438, 1170.662 773.750 C 1170.385 773.063, 1170.158 773.625, 1170.158 775 M 1170.370 788 C 1170.370 793.775, 1170.535 796.138, 1170.737 793.250 C 1170.939 790.362, 1170.939 785.638, 1170.737 782.750 C 1170.535 779.862, 1170.370 782.225, 1170.370 788 M 1170.195 817.500 C 1170.215 819.150, 1170.439 819.704, 1170.693 818.731 C 1170.947 817.758, 1170.930 816.408, 1170.656 815.731 C 1170.382 815.054, 1170.175 815.850, 1170.195 817.500 M 1170.343 831.500 C 1170.346 835.900, 1170.522 837.576, 1170.733 835.224 C 1170.945 832.872, 1170.942 829.272, 1170.727 827.224 C 1170.512 825.176, 1170.339 827.100, 1170.343 831.500 M 1170.079 849.583 C 1170.127 850.748, 1170.364 850.985, 1170.683 850.188 C 1170.972 849.466, 1170.936 848.603, 1170.604 848.271 C 1170.272 847.939, 1170.036 848.529, 1170.079 849.583 M 1117.232 852 C 1117.232 853.925, 1117.438 854.712, 1117.689 853.750 C 1117.941 852.788, 1117.941 851.212, 1117.689 850.250 C 1117.438 849.288, 1117.232 850.075, 1117.232 852 M 1170.252 855.500 C 1170.263 857.700, 1170.468 858.482, 1170.707 857.238 C 1170.946 855.994, 1170.937 854.194, 1170.687 853.238 C 1170.437 852.282, 1170.241 853.300, 1170.252 855.500 M 1117.079 857.583 C 1117.127 858.748, 1117.364 858.985, 1117.683 858.188 C 1117.972 857.466, 1117.936 856.603, 1117.604 856.271 C 1117.272 855.939, 1117.036 856.529, 1117.079 857.583 M 1170.158 862 C 1170.158 863.375, 1170.385 863.938, 1170.662 863.250 C 1170.940 862.563, 1170.940 861.438, 1170.662 860.750 C 1170.385 860.063, 1170.158 860.625, 1170.158 862 M 1170.079 870.583 C 1170.127 871.748, 1170.364 871.985, 1170.683 871.188 C 1170.972 870.466, 1170.936 869.603, 1170.604 869.271 C 1170.272 868.939, 1170.036 869.529, 1170.079 870.583 M 1170.320 884 C 1170.320 887.575, 1170.502 889.038, 1170.723 887.250 C 1170.945 885.462, 1170.945 882.538, 1170.723 880.750 C 1170.502 878.962, 1170.320 880.425, 1170.320 884 M 1170.310 899.500 C 1170.315 902.800, 1170.502 904.029, 1170.725 902.232 C 1170.947 900.435, 1170.943 897.735, 1170.715 896.232 C 1170.486 894.729, 1170.304 896.200, 1170.310 899.500 M 1170.310 911.500 C 1170.315 914.800, 1170.502 916.029, 1170.725 914.232 C 1170.947 912.435, 1170.943 909.735, 1170.715 908.232 C 1170.486 906.729, 1170.304 908.200, 1170.310 911.500 M 1170.252 921.500 C 1170.263 923.700, 1170.468 924.482, 1170.707 923.238 C 1170.946 921.994, 1170.937 920.194, 1170.687 919.238 C 1170.437 918.282, 1170.241 919.300, 1170.252 921.500 M 1170.195 931.500 C 1170.215 933.150, 1170.439 933.704, 1170.693 932.731 C 1170.947 931.758, 1170.930 930.408, 1170.656 929.731 C 1170.382 929.054, 1170.175 929.850, 1170.195 931.500 M 1170.158 945 C 1170.158 946.375, 1170.385 946.938, 1170.662 946.250 C 1170.940 945.563, 1170.940 944.438, 1170.662 943.750 C 1170.385 943.063, 1170.158 943.625, 1170.158 945 M 1170.310 954.500 C 1170.315 957.800, 1170.502 959.029, 1170.725 957.232 C 1170.947 955.435, 1170.943 952.735, 1170.715 951.232 C 1170.486 949.729, 1170.304 951.200, 1170.310 954.500 M 1170.079 965.583 C 1170.127 966.748, 1170.364 966.985, 1170.683 966.188 C 1170.972 965.466, 1170.936 964.603, 1170.604 964.271 C 1170.272 963.939, 1170.036 964.529, 1170.079 965.583 M 1170.252 989.500 C 1170.263 991.700, 1170.468 992.482, 1170.707 991.238 C 1170.946 989.994, 1170.937 988.194, 1170.687 987.238 C 1170.437 986.282, 1170.241 987.300, 1170.252 989.500 M 1170.300 1006 C 1170.300 1009.025, 1170.487 1010.263, 1170.716 1008.750 C 1170.945 1007.237, 1170.945 1004.763, 1170.716 1003.250 C 1170.487 1001.737, 1170.300 1002.975, 1170.300 1006 M 1170.195 1027.500 C 1170.215 1029.150, 1170.439 1029.704, 1170.693 1028.731 C 1170.947 1027.758, 1170.930 1026.408, 1170.656 1025.731 C 1170.382 1025.054, 1170.175 1025.850, 1170.195 1027.500 M 1170.158 1036 C 1170.158 1037.375, 1170.385 1037.938, 1170.662 1037.250 C 1170.940 1036.563, 1170.940 1035.438, 1170.662 1034.750 C 1170.385 1034.063, 1170.158 1034.625, 1170.158 1036 M 1170.195 1044.500 C 1170.215 1046.150, 1170.439 1046.704, 1170.693 1045.731 C 1170.947 1044.758, 1170.930 1043.408, 1170.656 1042.731 C 1170.382 1042.054, 1170.175 1042.850, 1170.195 1044.500 M 1170.195 1050.500 C 1170.215 1052.150, 1170.439 1052.704, 1170.693 1051.731 C 1170.947 1050.758, 1170.930 1049.408, 1170.656 1048.731 C 1170.382 1048.054, 1170.175 1048.850, 1170.195 1050.500 M 1170.079 1059.583 C 1170.127 1060.748, 1170.364 1060.985, 1170.683 1060.188 C 1170.972 1059.466, 1170.936 1058.603, 1170.604 1058.271 C 1170.272 1057.939, 1170.036 1058.529, 1170.079 1059.583 M 1170.079 1073.583 C 1170.127 1074.748, 1170.364 1074.985, 1170.683 1074.188 C 1170.972 1073.466, 1170.936 1072.603, 1170.604 1072.271 C 1170.272 1071.939, 1170.036 1072.529, 1170.079 1073.583 M 1170.158 1118 C 1170.158 1119.375, 1170.385 1119.938, 1170.662 1119.250 C 1170.940 1118.563, 1170.940 1117.438, 1170.662 1116.750 C 1170.385 1116.063, 1170.158 1116.625, 1170.158 1118 M 1170.300 1134 C 1170.300 1137.025, 1170.487 1138.263, 1170.716 1136.750 C 1170.945 1135.237, 1170.945 1132.763, 1170.716 1131.250 C 1170.487 1129.737, 1170.300 1130.975, 1170.300 1134 M 1170.079 1144.583 C 1170.127 1145.748, 1170.364 1145.985, 1170.683 1145.188 C 1170.972 1144.466, 1170.936 1143.603, 1170.604 1143.271 C 1170.272 1142.939, 1170.036 1143.529, 1170.079 1144.583 M 1170.272 1153 C 1170.272 1155.475, 1170.467 1156.487, 1170.706 1155.250 C 1170.944 1154.013, 1170.944 1151.987, 1170.706 1150.750 C 1170.467 1149.513, 1170.272 1150.525, 1170.272 1153 M 1170.310 1167.500 C 1170.315 1170.800, 1170.502 1172.029, 1170.725 1170.232 C 1170.947 1168.435, 1170.943 1165.735, 1170.715 1164.232 C 1170.486 1162.729, 1170.304 1164.200, 1170.310 1167.500 M 1170.158 1179 C 1170.158 1180.375, 1170.385 1180.938, 1170.662 1180.250 C 1170.940 1179.563, 1170.940 1178.438, 1170.662 1177.750 C 1170.385 1177.063, 1170.158 1177.625, 1170.158 1179 M 1170.286 1187.500 C 1170.294 1190.250, 1170.488 1191.256, 1170.718 1189.736 C 1170.947 1188.216, 1170.941 1185.966, 1170.704 1184.736 C 1170.467 1183.506, 1170.279 1184.750, 1170.286 1187.500 M 1170.079 1194.583 C 1170.127 1195.748, 1170.364 1195.985, 1170.683 1195.188 C 1170.972 1194.466, 1170.936 1193.603, 1170.604 1193.271 C 1170.272 1192.939, 1170.036 1193.529, 1170.079 1194.583 M 1170.195 1200.500 C 1170.215 1202.150, 1170.439 1202.704, 1170.693 1201.731 C 1170.947 1200.758, 1170.930 1199.408, 1170.656 1198.731 C 1170.382 1198.054, 1170.175 1198.850, 1170.195 1200.500 M 1170.343 1215.500 C 1170.346 1219.900, 1170.522 1221.576, 1170.733 1219.224 C 1170.945 1216.872, 1170.942 1213.272, 1170.727 1211.224 C 1170.512 1209.176, 1170.339 1211.100, 1170.343 1215.500 M 1170.079 1225.583 C 1170.127 1226.748, 1170.364 1226.985, 1170.683 1226.188 C 1170.972 1225.466, 1170.936 1224.603, 1170.604 1224.271 C 1170.272 1223.939, 1170.036 1224.529, 1170.079 1225.583 M 1170.158 1241 C 1170.158 1242.375, 1170.385 1242.938, 1170.662 1242.250 C 1170.940 1241.563, 1170.940 1240.438, 1170.662 1239.750 C 1170.385 1239.063, 1170.158 1239.625, 1170.158 1241 M 1170.349 1252 C 1170.349 1256.675, 1170.522 1258.588, 1170.732 1256.250 C 1170.943 1253.912, 1170.943 1250.088, 1170.732 1247.750 C 1170.522 1245.412, 1170.349 1247.325, 1170.349 1252 M 1170.195 1270.500 C 1170.215 1272.150, 1170.439 1272.704, 1170.693 1271.731 C 1170.947 1270.758, 1170.930 1269.408, 1170.656 1268.731 C 1170.382 1268.054, 1170.175 1268.850, 1170.195 1270.500 M 1170.195 1300.500 C 1170.215 1302.150, 1170.439 1302.704, 1170.693 1301.731 C 1170.947 1300.758, 1170.930 1299.408, 1170.656 1298.731 C 1170.382 1298.054, 1170.175 1298.850, 1170.195 1300.500 M 1170.232 1307 C 1170.232 1308.925, 1170.438 1309.713, 1170.689 1308.750 C 1170.941 1307.787, 1170.941 1306.213, 1170.689 1305.250 C 1170.438 1304.287, 1170.232 1305.075, 1170.232 1307 M 1170.079 1314.583 C 1170.127 1315.748, 1170.364 1315.985, 1170.683 1315.188 C 1170.972 1314.466, 1170.936 1313.603, 1170.604 1313.271 C 1170.272 1312.939, 1170.036 1313.529, 1170.079 1314.583 M 1170.079 1329.583 C 1170.127 1330.748, 1170.364 1330.985, 1170.683 1330.188 C 1170.972 1329.466, 1170.936 1328.603, 1170.604 1328.271 C 1170.272 1327.939, 1170.036 1328.529, 1170.079 1329.583 M 1170.343 1343.500 C 1170.346 1347.900, 1170.522 1349.576, 1170.733 1347.224 C 1170.945 1344.872, 1170.942 1341.272, 1170.727 1339.224 C 1170.512 1337.176, 1170.339 1339.100, 1170.343 1343.500 M 1117.079 1371.583 C 1117.127 1372.748, 1117.364 1372.985, 1117.683 1372.188 C 1117.972 1371.466, 1117.936 1370.603, 1117.604 1370.271 C 1117.272 1369.939, 1117.036 1370.529, 1117.079 1371.583 M 1170.079 1384.583 C 1170.127 1385.748, 1170.364 1385.985, 1170.683 1385.188 C 1170.972 1384.466, 1170.936 1383.603, 1170.604 1383.271 C 1170.272 1382.939, 1170.036 1383.529, 1170.079 1384.583 M 1170.286 1393.500 C 1170.294 1396.250, 1170.488 1397.256, 1170.718 1395.736 C 1170.947 1394.216, 1170.941 1391.966, 1170.704 1390.736 C 1170.467 1389.506, 1170.279 1390.750, 1170.286 1393.500 M 1170.079 1400.583 C 1170.127 1401.748, 1170.364 1401.985, 1170.683 1401.188 C 1170.972 1400.466, 1170.936 1399.603, 1170.604 1399.271 C 1170.272 1398.939, 1170.036 1399.529, 1170.079 1400.583 M 1170.079 1406.583 C 1170.127 1407.748, 1170.364 1407.985, 1170.683 1407.188 C 1170.972 1406.466, 1170.936 1405.603, 1170.604 1405.271 C 1170.272 1404.939, 1170.036 1405.529, 1170.079 1406.583 M 1170.079 1410.583 C 1170.127 1411.748, 1170.364 1411.985, 1170.683 1411.188 C 1170.972 1410.466, 1170.936 1409.603, 1170.604 1409.271 C 1170.272 1408.939, 1170.036 1409.529, 1170.079 1410.583 M 1170.365 1427.500 C 1170.368 1433, 1170.536 1435.122, 1170.738 1432.216 C 1170.941 1429.311, 1170.939 1424.811, 1170.734 1422.216 C 1170.528 1419.622, 1170.363 1422, 1170.365 1427.500 M 1170.079 1449.583 C 1170.127 1450.748, 1170.364 1450.985, 1170.683 1450.188 C 1170.972 1449.466, 1170.936 1448.603, 1170.604 1448.271 C 1170.272 1447.939, 1170.036 1448.529, 1170.079 1449.583 M 1170.232 1457 C 1170.232 1458.925, 1170.438 1459.713, 1170.689 1458.750 C 1170.941 1457.787, 1170.941 1456.213, 1170.689 1455.250 C 1170.438 1454.287, 1170.232 1455.075, 1170.232 1457 M 1170.286 1465.500 C 1170.294 1468.250, 1170.488 1469.256, 1170.718 1467.736 C 1170.947 1466.216, 1170.941 1463.966, 1170.704 1462.736 C 1170.467 1461.506, 1170.279 1462.750, 1170.286 1465.500 M 1170.158 1476 C 1170.158 1477.375, 1170.385 1477.938, 1170.662 1477.250 C 1170.940 1476.563, 1170.940 1475.438, 1170.662 1474.750 C 1170.385 1474.063, 1170.158 1474.625, 1170.158 1476 M 1170.158 1502 C 1170.158 1503.375, 1170.385 1503.938, 1170.662 1503.250 C 1170.940 1502.563, 1170.940 1501.438, 1170.662 1500.750 C 1170.385 1500.063, 1170.158 1500.625, 1170.158 1502 M 1170.378 1522 C 1170.378 1528.325, 1170.541 1530.912, 1170.739 1527.750 C 1170.937 1524.588, 1170.937 1519.412, 1170.739 1516.250 C 1170.541 1513.088, 1170.378 1515.675, 1170.378 1522 M 1149.461 1565.500 C 1149.461 1590.800, 1149.591 1601.007, 1149.749 1588.181 C 1149.908 1575.356, 1149.907 1554.656, 1149.749 1542.181 C 1149.590 1529.707, 1149.461 1540.200, 1149.461 1565.500 M 1170.232 1539 C 1170.232 1540.925, 1170.438 1541.713, 1170.689 1540.750 C 1170.941 1539.787, 1170.941 1538.213, 1170.689 1537.250 C 1170.438 1536.287, 1170.232 1537.075, 1170.232 1539 M 1170.378 1557 C 1170.378 1563.325, 1170.541 1565.912, 1170.739 1562.750 C 1170.937 1559.588, 1170.937 1554.412, 1170.739 1551.250 C 1170.541 1548.088, 1170.378 1550.675, 1170.378 1557 M 1170.252 1572.500 C 1170.263 1574.700, 1170.468 1575.482, 1170.707 1574.238 C 1170.946 1572.994, 1170.937 1571.194, 1170.687 1570.238 C 1170.437 1569.282, 1170.241 1570.300, 1170.252 1572.500 M 1170.232 1585 C 1170.232 1586.925, 1170.438 1587.713, 1170.689 1586.750 C 1170.941 1585.787, 1170.941 1584.213, 1170.689 1583.250 C 1170.438 1582.287, 1170.232 1583.075, 1170.232 1585 M 1170.232 1595 C 1170.232 1596.925, 1170.438 1597.713, 1170.689 1596.750 C 1170.941 1595.787, 1170.941 1594.213, 1170.689 1593.250 C 1170.438 1592.287, 1170.232 1593.075, 1170.232 1595 M 1170.232 1603 C 1170.232 1604.925, 1170.438 1605.713, 1170.689 1604.750 C 1170.941 1603.787, 1170.941 1602.213, 1170.689 1601.250 C 1170.438 1600.287, 1170.232 1601.075, 1170.232 1603 M 1149.462 1659 C 1149.462 1685.125, 1149.591 1695.813, 1149.749 1682.750 C 1149.907 1669.688, 1149.907 1648.313, 1149.749 1635.250 C 1149.591 1622.188, 1149.462 1632.875, 1149.462 1659 M 1170.286 1627.500 C 1170.294 1630.250, 1170.488 1631.256, 1170.718 1629.736 C 1170.947 1628.216, 1170.941 1625.966, 1170.704 1624.736 C 1170.467 1623.506, 1170.279 1624.750, 1170.286 1627.500 M 1117.079 1627.583 C 1117.127 1628.748, 1117.364 1628.985, 1117.683 1628.188 C 1117.972 1627.466, 1117.936 1626.603, 1117.604 1626.271 C 1117.272 1625.939, 1117.036 1626.529, 1117.079 1627.583 M 1170.374 1643.500 C 1170.376 1649.550, 1170.541 1651.896, 1170.740 1648.713 C 1170.939 1645.531, 1170.937 1640.581, 1170.736 1637.713 C 1170.535 1634.846, 1170.372 1637.450, 1170.374 1643.500 M 1170.079 1656.583 C 1170.127 1657.748, 1170.364 1657.985, 1170.683 1657.188 C 1170.972 1656.466, 1170.936 1655.603, 1170.604 1655.271 C 1170.272 1654.939, 1170.036 1655.529, 1170.079 1656.583 M 1170.195 1661.500 C 1170.215 1663.150, 1170.439 1663.704, 1170.693 1662.731 C 1170.947 1661.758, 1170.930 1660.408, 1170.656 1659.731 C 1170.382 1659.054, 1170.175 1659.850, 1170.195 1661.500 M 1170.195 1667.500 C 1170.215 1669.150, 1170.439 1669.704, 1170.693 1668.731 C 1170.947 1667.758, 1170.930 1666.408, 1170.656 1665.731 C 1170.382 1665.054, 1170.175 1665.850, 1170.195 1667.500 M 1170.272 1681 C 1170.272 1683.475, 1170.467 1684.487, 1170.706 1683.250 C 1170.944 1682.013, 1170.944 1679.987, 1170.706 1678.750 C 1170.467 1677.513, 1170.272 1678.525, 1170.272 1681 M 1170.232 1691 C 1170.232 1692.925, 1170.438 1693.713, 1170.689 1692.750 C 1170.941 1691.787, 1170.941 1690.213, 1170.689 1689.250 C 1170.438 1688.287, 1170.232 1689.075, 1170.232 1691 M 817.667 1694.667 C 816.129 1696.204, 817.237 1697, 820.917 1697 C 823.114 1697, 825.055 1697.549, 825.338 1698.250 C 825.741 1699.250, 825.858 1699.250, 825.921 1698.250 C 826.017 1696.739, 829 1696.554, 829 1698.059 C 829 1698.656, 829.546 1698.777, 830.250 1698.338 C 832.220 1697.108, 835 1696.914, 835 1698.006 C 835 1698.553, 836.152 1699, 837.559 1699 C 839.340 1699, 839.890 1698.620, 839.367 1697.750 C 838.783 1696.778, 838.966 1696.783, 840.186 1697.771 C 841.310 1698.681, 842.484 1698.766, 844.312 1698.072 C 846.144 1697.375, 847.005 1697.440, 847.354 1698.300 C 847.728 1699.220, 847.861 1699.216, 847.921 1698.281 C 847.964 1697.611, 848.563 1697.248, 849.250 1697.475 C 849.938 1697.702, 853.087 1698.114, 856.250 1698.392 C 860.329 1698.751, 862.004 1698.549, 862.015 1697.699 C 862.027 1696.799, 862.226 1696.808, 862.816 1697.737 C 863.382 1698.628, 864.498 1698.718, 866.801 1698.057 C 868.572 1697.549, 870 1697.527, 870 1698.008 C 870 1698.485, 870.900 1698.808, 872 1698.725 C 873.100 1698.642, 874.007 1698.108, 874.015 1697.537 C 874.025 1696.855, 874.282 1696.842, 874.765 1697.500 C 875.722 1698.802, 879 1699.057, 879 1697.830 C 879 1697.309, 879.480 1697.179, 880.067 1697.541 C 881.817 1698.623, 888.941 1698.904, 889.552 1697.916 C 889.863 1697.412, 890.568 1697, 891.118 1697 C 891.668 1697, 891.812 1697.495, 891.438 1698.100 C 890.951 1698.888, 891.348 1698.884, 892.840 1698.085 C 894.761 1697.058, 898.066 1697.151, 903.750 1698.393 C 905.097 1698.688, 906.006 1698.406, 906.015 1697.693 C 906.025 1696.943, 906.304 1696.872, 906.765 1697.500 C 907.860 1698.990, 912.398 1699.452, 911.489 1697.982 C 910.932 1697.082, 911.264 1697.071, 912.879 1697.935 C 914.046 1698.560, 915 1698.655, 915 1698.146 C 915 1696.938, 918.283 1697.211, 919.250 1698.500 C 919.736 1699.148, 920.272 1699.080, 920.773 1698.309 C 921.539 1697.128, 930.151 1696.930, 929.428 1698.110 C 929.223 1698.446, 932.230 1698.801, 936.110 1698.898 C 940.773 1699.016, 942.948 1698.724, 942.524 1698.038 C 942.144 1697.424, 942.927 1697, 944.441 1697 C 945.848 1697, 947.007 1697.563, 947.015 1698.250 C 947.027 1699.165, 947.262 1699.135, 947.894 1698.137 C 948.623 1696.986, 948.842 1696.986, 949.300 1698.137 C 949.755 1699.282, 949.855 1699.280, 949.921 1698.128 C 949.988 1696.964, 950.253 1696.964, 951.663 1698.128 C 952.959 1699.198, 953.418 1699.225, 953.746 1698.250 C 954.269 1696.696, 957 1696.589, 957 1698.122 C 957 1698.854, 957.589 1698.767, 958.692 1697.872 C 959.842 1696.940, 960.143 1696.901, 959.633 1697.750 C 959.220 1698.438, 959.321 1699, 959.858 1699 C 960.394 1699, 961.096 1698.438, 961.417 1697.750 C 961.883 1696.750, 962.117 1696.750, 962.583 1697.750 C 962.904 1698.438, 964.281 1699, 965.642 1699 C 967.357 1699, 967.887 1698.616, 967.367 1697.750 C 966.873 1696.928, 967.205 1696.978, 968.338 1697.897 C 969.682 1698.988, 970.600 1699.048, 972.530 1698.168 C 973.888 1697.549, 975.001 1697.371, 975.002 1697.771 C 975.005 1698.892, 989.401 1698.635, 990.235 1697.500 C 990.722 1696.837, 990.975 1696.841, 990.985 1697.514 C 991.005 1698.827, 1001.269 1698.814, 1002.235 1697.500 C 1002.708 1696.856, 1002.975 1696.893, 1002.985 1697.605 C 1003.004 1699.008, 1013.991 1698.903, 1014.014 1697.500 C 1014.023 1696.950, 1014.439 1697.146, 1014.939 1697.936 C 1015.619 1699.010, 1016.185 1699.092, 1017.185 1698.261 C 1017.993 1697.591, 1020.895 1697.337, 1024.512 1697.622 C 1036.582 1698.572, 1042.550 1698.650, 1044.683 1697.884 C 1046.097 1697.376, 1047.040 1697.523, 1047.357 1698.300 C 1047.724 1699.198, 1048.083 1699.165, 1048.784 1698.168 C 1049.430 1697.249, 1050.770 1697.048, 1053.110 1697.519 C 1059.791 1698.867, 1071.273 1699.250, 1070.563 1698.102 C 1070.135 1697.409, 1070.819 1697.090, 1072.445 1697.225 C 1073.850 1697.341, 1075 1697.713, 1075 1698.051 C 1075 1698.390, 1075.675 1698.667, 1076.500 1698.667 C 1077.325 1698.667, 1078 1698.276, 1078 1697.798 C 1078 1697.320, 1078.900 1697.411, 1080 1698 C 1081.276 1698.683, 1082 1698.710, 1082 1698.075 C 1082 1697.528, 1083.306 1697.175, 1084.903 1697.290 C 1086.524 1697.407, 1087.543 1697.941, 1087.211 1698.500 C 1086.884 1699.050, 1087.412 1698.854, 1088.384 1698.064 C 1089.921 1696.817, 1090.271 1696.817, 1091.061 1698.064 C 1091.840 1699.296, 1091.974 1699.287, 1092 1698 C 1092.027 1696.667, 1092.140 1696.667, 1093.015 1698 C 1093.832 1699.244, 1094.149 1699.268, 1094.875 1698.143 C 1095.476 1697.212, 1095.962 1697.129, 1096.425 1697.878 C 1097.263 1699.235, 1101.994 1698.942, 1102.015 1697.532 C 1102.024 1696.964, 1102.467 1697.175, 1103 1698 C 1103.533 1698.825, 1103.976 1699.018, 1103.985 1698.429 C 1103.995 1697.721, 1105.753 1697.583, 1109.174 1698.022 C 1114.863 1698.752, 1125.452 1698.457, 1126.957 1697.526 C 1127.483 1697.202, 1127.659 1696.275, 1127.349 1695.468 C 1126.857 1694.186, 1107.232 1694, 972.560 1694 C 887.735 1694, 818.033 1694.300, 817.667 1694.667 M 935.813 1697.683 C 936.534 1697.972, 937.397 1697.936, 937.729 1697.604 C 938.061 1697.272, 937.471 1697.036, 936.417 1697.079 C 935.252 1697.127, 935.015 1697.364, 935.813 1697.683 M 1170.079 1698.583 C 1170.127 1699.748, 1170.364 1699.985, 1170.683 1699.188 C 1170.972 1698.466, 1170.936 1697.603, 1170.604 1697.271 C 1170.272 1696.939, 1170.036 1697.529, 1170.079 1698.583 M 811.667 1700.667 C 811.300 1701.033, 811 1701.596, 811 1701.917 C 811 1702.237, 869.163 1702.394, 940.250 1702.264 C 1011.338 1702.135, 1083.787 1702.022, 1101.250 1702.014 C 1121.741 1702.005, 1133 1701.645, 1133 1701 C 1133 1699.871, 812.795 1699.538, 811.667 1700.667 M 1170.079 1706.583 C 1170.127 1707.748, 1170.364 1707.985, 1170.683 1707.188 C 1170.972 1706.466, 1170.936 1705.603, 1170.604 1705.271 C 1170.272 1704.939, 1170.036 1705.529, 1170.079 1706.583 M 1170.232 1713 C 1170.232 1714.925, 1170.438 1715.713, 1170.689 1714.750 C 1170.941 1713.787, 1170.941 1712.213, 1170.689 1711.250 C 1170.438 1710.287, 1170.232 1711.075, 1170.232 1713 M 1170.232 1723 C 1170.232 1724.925, 1170.438 1725.713, 1170.689 1724.750 C 1170.941 1723.787, 1170.941 1722.213, 1170.689 1721.250 C 1170.438 1720.287, 1170.232 1721.075, 1170.232 1723 M 1170.232 1732 C 1170.232 1733.925, 1170.438 1734.713, 1170.689 1733.750 C 1170.941 1732.787, 1170.941 1731.213, 1170.689 1730.250 C 1170.438 1729.287, 1170.232 1730.075, 1170.232 1732 M 775.166 1736.873 C 774.102 1737.550, 774.169 1737.851, 775.498 1738.361 C 776.414 1738.712, 865.504 1739, 973.475 1739 C 1146.477 1739, 1169.854 1738.823, 1170.358 1737.510 C 1170.863 1736.193, 1148.030 1736.020, 973.715 1736.022 C 865.247 1736.024, 775.900 1736.407, 775.166 1736.873" stroke="none" fill="black" fill-rule="evenodd"/>
	<path fill-opacity="0.190" d="M 789 508 C 789 508.663, 850.667 509, 972 509 C 1093.333 509, 1155 508.663, 1155 508 C 1155 507.337, 1093.333 507, 972 507 C 850.667 507, 789 507.337, 789 508 M 796.358 512.805 C 794.790 513.029, 794.352 513.629, 794.722 515.044 C 795 516.107, 795.588 516.755, 796.029 516.482 C 796.470 516.210, 876.052 515.990, 972.879 515.994 C 1140.043 516.002, 1148.976 515.913, 1149.872 514.238 C 1150.772 512.557, 1142.637 512.475, 974.658 512.487 C 877.771 512.494, 797.536 512.637, 796.358 512.805 M 822.655 540.750 C 822.400 541.163, 889.648 541.500, 972.095 541.500 C 1054.543 541.500, 1122 541.163, 1122 540.750 C 1122 540.337, 1054.752 540, 972.559 540 C 890.366 540, 822.909 540.337, 822.655 540.750 M 899.828 545.750 C 940.159 545.895, 1005.859 545.895, 1045.828 545.750 C 1085.798 545.605, 1052.800 545.487, 972.500 545.487 C 892.200 545.487, 859.498 545.605, 899.828 545.750 M 833.768 1696.725 C 835.565 1696.947, 838.265 1696.943, 839.768 1696.715 C 841.271 1696.486, 839.800 1696.304, 836.500 1696.310 C 833.200 1696.315, 831.971 1696.502, 833.768 1696.725 M 848.813 1696.683 C 849.534 1696.972, 850.397 1696.936, 850.729 1696.604 C 851.061 1696.272, 850.471 1696.036, 849.417 1696.079 C 848.252 1696.127, 848.015 1696.364, 848.813 1696.683 M 857.750 1696.662 C 858.438 1696.940, 859.563 1696.940, 860.250 1696.662 C 860.938 1696.385, 860.375 1696.158, 859 1696.158 C 857.625 1696.158, 857.063 1696.385, 857.750 1696.662 M 867.750 1696.662 C 868.438 1696.940, 869.563 1696.940, 870.250 1696.662 C 870.938 1696.385, 870.375 1696.158, 869 1696.158 C 867.625 1696.158, 867.063 1696.385, 867.750 1696.662 M 874.250 1696.716 C 875.763 1696.945, 878.237 1696.945, 879.750 1696.716 C 881.263 1696.487, 880.025 1696.300, 877 1696.300 C 873.975 1696.300, 872.737 1696.487, 874.250 1696.716 M 898.250 1696.689 C 899.212 1696.941, 900.788 1696.941, 901.750 1696.689 C 902.712 1696.438, 901.925 1696.232, 900 1696.232 C 898.075 1696.232, 897.288 1696.438, 898.250 1696.689 M 905.762 1696.707 C 907.006 1696.946, 908.806 1696.937, 909.762 1696.687 C 910.718 1696.437, 909.700 1696.241, 907.500 1696.252 C 905.300 1696.263, 904.518 1696.468, 905.762 1696.707 M 918.750 1696.723 C 920.538 1696.945, 923.462 1696.945, 925.250 1696.723 C 927.038 1696.502, 925.575 1696.320, 922 1696.320 C 918.425 1696.320, 916.962 1696.502, 918.750 1696.723 M 931.269 1696.693 C 932.242 1696.947, 933.592 1696.930, 934.269 1696.656 C 934.946 1696.382, 934.150 1696.175, 932.500 1696.195 C 930.850 1696.215, 930.296 1696.439, 931.269 1696.693 M 937.750 1696.706 C 938.987 1696.944, 941.013 1696.944, 942.250 1696.706 C 943.487 1696.467, 942.475 1696.272, 940 1696.272 C 937.525 1696.272, 936.513 1696.467, 937.750 1696.706 M 963.776 1696.733 C 966.128 1696.945, 969.728 1696.942, 971.776 1696.727 C 973.824 1696.512, 971.900 1696.339, 967.500 1696.343 C 963.100 1696.346, 961.424 1696.522, 963.776 1696.733 M 976.813 1696.683 C 977.534 1696.972, 978.397 1696.936, 978.729 1696.604 C 979.061 1696.272, 978.471 1696.036, 977.417 1696.079 C 976.252 1696.127, 976.015 1696.364, 976.813 1696.683 M 980.813 1696.683 C 981.534 1696.972, 982.397 1696.936, 982.729 1696.604 C 983.061 1696.272, 982.471 1696.036, 981.417 1696.079 C 980.252 1696.127, 980.015 1696.364, 980.813 1696.683 M 985.269 1696.693 C 986.242 1696.947, 987.592 1696.930, 988.269 1696.656 C 988.946 1696.382, 988.150 1696.175, 986.500 1696.195 C 984.850 1696.215, 984.296 1696.439, 985.269 1696.693 M 993.762 1696.707 C 995.006 1696.946, 996.806 1696.937, 997.762 1696.687 C 998.718 1696.437, 997.700 1696.241, 995.500 1696.252 C 993.300 1696.263, 992.518 1696.468, 993.762 1696.707 M 1002.264 1696.718 C 1003.784 1696.947, 1006.034 1696.941, 1007.264 1696.704 C 1008.494 1696.467, 1007.250 1696.279, 1004.500 1696.286 C 1001.750 1696.294, 1000.744 1696.488, 1002.264 1696.718 M 1020.269 1696.693 C 1021.242 1696.947, 1022.592 1696.930, 1023.269 1696.656 C 1023.946 1696.382, 1023.150 1696.175, 1021.500 1696.195 C 1019.850 1696.215, 1019.296 1696.439, 1020.269 1696.693 M 1029.280 1696.736 C 1031.909 1696.943, 1035.959 1696.940, 1038.280 1696.731 C 1040.601 1696.521, 1038.450 1696.352, 1033.500 1696.355 C 1028.550 1696.358, 1026.651 1696.530, 1029.280 1696.736 M 1046.750 1696.723 C 1048.537 1696.945, 1051.463 1696.945, 1053.250 1696.723 C 1055.037 1696.502, 1053.575 1696.320, 1050 1696.320 C 1046.425 1696.320, 1044.963 1696.502, 1046.750 1696.723 M 1059.269 1696.693 C 1060.242 1696.947, 1061.592 1696.930, 1062.269 1696.656 C 1062.946 1696.382, 1062.150 1696.175, 1060.500 1696.195 C 1058.850 1696.215, 1058.296 1696.439, 1059.269 1696.693 M 1066.768 1696.725 C 1068.565 1696.947, 1071.265 1696.943, 1072.768 1696.715 C 1074.271 1696.486, 1072.800 1696.304, 1069.500 1696.310 C 1066.200 1696.315, 1064.971 1696.502, 1066.768 1696.725 M 1090.250 1696.716 C 1091.763 1696.945, 1094.237 1696.945, 1095.750 1696.716 C 1097.263 1696.487, 1096.025 1696.300, 1093 1696.300 C 1089.975 1696.300, 1088.737 1696.487, 1090.250 1696.716 M 1104.813 1696.683 C 1105.534 1696.972, 1106.397 1696.936, 1106.729 1696.604 C 1107.061 1696.272, 1106.471 1696.036, 1105.417 1696.079 C 1104.252 1696.127, 1104.015 1696.364, 1104.813 1696.683 M 1108.813 1696.683 C 1109.534 1696.972, 1110.397 1696.936, 1110.729 1696.604 C 1111.061 1696.272, 1110.471 1696.036, 1109.417 1696.079 C 1108.252 1696.127, 1108.015 1696.364, 1108.813 1696.683 M 1113.269 1696.693 C 1114.242 1696.947, 1115.592 1696.930, 1116.269 1696.656 C 1116.946 1696.382, 1116.150 1696.175, 1114.500 1696.195 C 1112.850 1696.215, 1112.296 1696.439, 1113.269 1696.693 M 1121.250 1696.689 C 1122.213 1696.941, 1123.787 1696.941, 1124.750 1696.689 C 1125.713 1696.438, 1124.925 1696.232, 1123 1696.232 C 1121.075 1696.232, 1120.287 1696.438, 1121.250 1696.689 M 781.441 1729.468 C 779.732 1730.761, 802.507 1730.940, 971.872 1730.968 C 1142.759 1730.996, 1164.106 1730.832, 1163 1729.500 C 1161.901 1728.176, 1139.514 1728, 972.569 1728 C 807.772 1728, 783.132 1728.189, 781.441 1729.468 M 823 1737.015 C 796.875 1737.298, 864.150 1737.574, 972.500 1737.629 C 1080.850 1737.683, 1168.600 1737.554, 1167.500 1737.342 C 1164.292 1736.725, 875.154 1736.450, 823 1737.015" stroke="none" fill="black" fill-rule="evenodd"/>
</svg>