<svg xmlns="http://www.w3.org/2000/svg" width="2000" height="2000" viewBox="0 0 2000 2000" version="1.1">
	<path fill-opacity="0.231" d="M 717.750 460.805 L 713 461.110 713 1172.941 L 713 1884.773 715.750 1885.137 C 717.263 1885.336, 833.925 1885.462, 975 1885.416 L 1231.500 1885.333 1231.751 1173.166 L 1232.001 461 1219.251 460.968 C 1115.781 460.707, 721.268 460.579, 717.750 460.805 M 823 670.844 L 823 771.688 893.500 771.721 L 964 771.754 964 670.877 L 964 570 893.500 570 L 823 570 823 670.844 M 981 670.939 L 981 771.879 1051.500 771.754 L 1122 771.629 1122 670.815 L 1122 570 1051.500 570 L 981 570 981 670.939 M 823 885.711 L 823 982.923 893.250 982.711 L 963.500 982.500 963.755 885.750 C 963.895 832.538, 963.670 788.948, 963.255 788.884 C 962.840 788.820, 931.112 788.707, 892.750 788.634 L 823 788.500 823 885.711 M 981 885.696 L 981 982.891 1051.500 982.892 L 1122 982.894 1122 885.697 L 1122 788.500 1051.500 788.500 L 981 788.500 981 885.696 M 823 1097 L 823 1194 893.500 1194 L 964 1194 964 1097 L 964 1000 893.500 1000 L 823 1000 823 1097 M 981 1097.007 L 981 1194.014 1051.250 1193.757 L 1121.500 1193.500 1121.755 1096.750 L 1122.010 1000 1051.505 1000 L 981 1000 981 1097.007 M 823 1312 L 823 1413 893.500 1413 L 964 1413 964 1312 L 964 1211 893.500 1211 L 823 1211 823 1312 M 981 1312 L 981 1413 1051.500 1413 L 1122 1413 1122 1312 L 1122 1211 1051.500 1211 L 981 1211 981 1312" stroke="none" fill="black" fill-rule="evenodd"/>
	<path fill-opacity="0.051" d="M 777.710 528.437 C 777.275 529.502, 776.916 739.167, 776.911 994.360 C 776.902 1456.386, 776.911 1458.355, 778.894 1460.339 C 780.869 1462.313, 782.538 1462.331, 972.193 1462.415 L 1163.500 1462.500 1165.749 1460 L 1167.998 1457.500 1168.008 1261 C 1168.041 597.137, 1167.947 528.547, 1166.995 527.595 C 1166.335 526.935, 1166 682.990, 1166 991.300 L 1166 1456 972.501 1456 L 779.002 1456 778.751 991.250 C 778.613 735.637, 778.144 527.371, 777.710 528.437 M 789.118 991.250 C 789.183 1241.638, 789.580 1445.150, 790 1443.500 C 790.420 1441.850, 790.817 1441.278, 790.882 1442.229 C 790.993 1443.860, 801.118 1443.959, 970.434 1443.989 C 1095.687 1444.011, 1150.067 1443.701, 1150.523 1442.962 C 1150.976 1442.230, 1151.614 1442.264, 1152.589 1443.074 C 1153.753 1444.040, 1154.023 1443.656, 1154.132 1440.872 L 1154.263 1437.500 1155 1441 C 1155.405 1442.925, 1155.796 1240.088, 1155.868 990.250 L 1156 536 972.500 536 L 789 536 789.118 991.250 M 884.500 541.755 L 795.500 542.011 795.752 989.755 L 796.004 1437.500 971.197 1437.290 C 1095.572 1437.140, 1146.768 1437.393, 1147.693 1438.160 C 1148.763 1439.048, 1149.041 1359.052, 1149.248 990.621 L 1149.500 542 1063.500 541.917 C 1016.200 541.871, 976.600 541.758, 975.500 541.667 C 974.400 541.575, 933.450 541.615, 884.500 541.755 M 802.056 554.250 C 802.573 559.389, 802.975 897.456, 802.996 1345.950 C 802.999 1405.331, 803.319 1431.081, 804.044 1430.356 C 805.835 1428.565, 806.072 1373.853, 806.073 963.045 C 806.074 679.755, 806.386 565.353, 807.166 562.254 L 808.259 557.916 812.879 558.586 C 818.239 559.363, 819.494 560, 815.667 560 L 813 560 813 991.059 C 813 1258.719, 813.355 1421.899, 813.937 1421.539 C 814.452 1421.221, 886.227 1420.963, 973.437 1420.966 L 1132 1420.972 1132 990.486 C 1132 646.812, 1131.748 559.982, 1130.750 559.910 C 1130.063 559.860, 1131.024 559.381, 1132.886 558.846 C 1135.244 558.168, 1136.611 558.211, 1137.386 558.986 C 1138.197 559.796, 1138.566 622.371, 1138.741 788.800 C 1139.393 1406.200, 1139.461 1428.437, 1140.720 1430.500 C 1141.685 1432.083, 1141.945 1412.566, 1141.968 1337 C 1141.983 1284.475, 1142.109 1085.462, 1142.248 894.750 L 1142.500 548 971.963 548 L 801.426 548 802.056 554.250 M 821.750 559.662 C 822.438 559.940, 823.563 559.940, 824.250 559.662 C 824.938 559.385, 824.375 559.158, 823 559.158 C 821.625 559.158, 821.063 559.385, 821.750 559.662 M 847.762 559.707 C 849.006 559.946, 850.806 559.937, 851.762 559.687 C 852.718 559.437, 851.700 559.241, 849.500 559.252 C 847.300 559.263, 846.518 559.468, 847.762 559.707 M 913.250 559.689 C 914.212 559.941, 915.788 559.941, 916.750 559.689 C 917.712 559.438, 916.925 559.232, 915 559.232 C 913.075 559.232, 912.288 559.438, 913.250 559.689 M 975.762 559.707 C 977.006 559.946, 978.806 559.937, 979.762 559.687 C 980.718 559.437, 979.700 559.241, 977.500 559.252 C 975.300 559.263, 974.518 559.468, 975.762 559.707 M 1041.269 559.693 C 1042.242 559.947, 1043.592 559.930, 1044.269 559.656 C 1044.946 559.382, 1044.150 559.175, 1042.500 559.195 C 1040.850 559.215, 1040.296 559.439, 1041.269 559.693 M 1057.813 559.683 C 1058.534 559.972, 1059.397 559.936, 1059.729 559.604 C 1060.061 559.272, 1059.471 559.036, 1058.417 559.079 C 1057.252 559.127, 1057.015 559.364, 1057.813 559.683 M 1077.750 559.662 C 1078.438 559.940, 1079.563 559.940, 1080.250 559.662 C 1080.938 559.385, 1080.375 559.158, 1079 559.158 C 1077.625 559.158, 1077.063 559.385, 1077.750 559.662 M 1104.768 559.725 C 1106.565 559.947, 1109.265 559.943, 1110.768 559.715 C 1112.271 559.486, 1110.800 559.304, 1107.500 559.310 C 1104.200 559.315, 1102.971 559.502, 1104.768 559.725 M 819.680 564.823 C 818.110 565.125, 818 593.034, 818 991.073 L 818 1417 972.500 1417 L 1127 1417 1127 991 L 1127 565 1118.250 564.875 C 1097.548 564.578, 821.202 564.530, 819.680 564.823 M 821.333 569.250 C 821.333 570.241, 836.104 570.445, 892.555 570.237 L 963.777 569.974 964.272 572.237 C 964.544 573.482, 964.805 577.552, 964.852 581.282 C 964.899 585.013, 965.393 588.838, 965.951 589.782 C 966.722 591.087, 966.820 590.718, 966.358 588.250 C 965.985 586.256, 966.157 585, 966.803 585 C 967.382 585, 968.174 582.413, 968.562 579.250 C 969.577 570.980, 970.466 569.048, 972.956 569.699 C 975.502 570.365, 976.225 573.654, 976.934 587.809 C 976.971 588.537, 977.512 588.802, 978.155 588.405 C 978.867 587.964, 979.038 588.130, 978.600 588.838 C 978.211 589.468, 978.352 590.775, 978.915 591.742 C 980.044 593.679, 980.020 593.841, 980.500 581 C 980.633 577.425, 980.801 573.482, 980.871 572.237 L 981 569.974 1052.241 570.013 C 1100.095 570.040, 1123.595 569.716, 1123.825 569.026 C 1124.057 568.328, 1075.831 568, 972.750 568 C 852.283 568, 821.333 568.256, 821.333 569.250 M 822.158 774 C 822.158 775.375, 822.385 775.938, 822.662 775.250 C 822.940 774.563, 822.940 773.438, 822.662 772.750 C 822.385 772.063, 822.158 772.625, 822.158 774 M 1122.158 774 C 1122.158 775.375, 1122.385 775.938, 1122.662 775.250 C 1122.940 774.563, 1122.940 773.438, 1122.662 772.750 C 1122.385 772.063, 1122.158 772.625, 1122.158 774 M 822 784.750 L 822 788.500 892.541 788.237 C 942.896 788.049, 963.677 788.292, 965.162 789.086 C 966.305 789.699, 966.982 789.780, 966.665 789.267 C 966.348 788.754, 967.210 786.684, 968.580 784.667 L 971.072 781 896.536 781 L 822 781 822 784.750 M 974.627 782.250 C 975.037 782.938, 976.189 784.625, 977.189 786 L 979.006 788.500 1051.003 788.237 L 1123 787.974 1123 784.487 L 1123 781 1048.441 781 C 989.063 781, 974.034 781.255, 974.627 782.250 M 979 791 C 979 791.550, 979.477 792, 980.059 792 C 980.641 792, 980.840 791.550, 980.500 791 C 980.160 790.450, 979.684 790, 979.441 790 C 979.198 790, 979 790.450, 979 791 M 822.158 985 C 822.158 986.375, 822.385 986.938, 822.662 986.250 C 822.940 985.563, 822.940 984.438, 822.662 983.750 C 822.385 983.063, 822.158 983.625, 822.158 985 M 1122.158 985 C 1122.158 986.375, 1122.385 986.938, 1122.662 986.250 C 1122.940 985.563, 1122.940 984.438, 1122.662 983.750 C 1122.385 983.063, 1122.158 983.625, 1122.158 985 M 822 995.750 L 822 999.500 893.250 999.426 C 942.984 999.374, 964.722 999.676, 965.235 1000.426 C 965.682 1001.079, 965.975 1000.834, 965.985 999.800 C 965.993 998.865, 966.609 997.740, 967.354 997.300 C 968.099 996.860, 969.240 995.487, 969.889 994.250 L 971.070 992 896.535 992 L 822 992 822 995.750 M 976.465 995.734 L 979.018 999.491 1051.009 999.496 L 1123 999.500 1123 995.774 L 1123 992.049 1048.456 992.013 L 973.912 991.977 976.465 995.734 M 964.500 1004 C 964.160 1004.550, 964.359 1005, 964.941 1005 C 965.523 1005, 966 1004.550, 966 1004 C 966 1003.450, 965.802 1003, 965.559 1003 C 965.316 1003, 964.840 1003.450, 964.500 1004 M 822.158 1196 C 822.158 1197.375, 822.385 1197.938, 822.662 1197.250 C 822.940 1196.563, 822.940 1195.438, 822.662 1194.750 C 822.385 1194.063, 822.158 1194.625, 822.158 1196 M 1122.158 1196 C 1122.158 1197.375, 1122.385 1197.938, 1122.662 1197.250 C 1122.940 1196.563, 1122.940 1195.438, 1122.662 1194.750 C 1122.385 1194.063, 1122.158 1194.625, 1122.158 1196 M 822 1206.937 L 822 1210.578 893.072 1210.597 C 949.845 1210.612, 964.305 1210.875, 964.939 1211.900 C 965.484 1212.782, 966.401 1211.804, 967.866 1208.777 C 969.040 1206.352, 970 1204.109, 970 1203.793 C 970 1203.476, 936.700 1203.235, 896 1203.256 L 822 1203.295 822 1206.937 M 976.750 1203.769 C 974.520 1204.250, 974.540 1204.430, 977.298 1208.487 C 978.650 1210.478, 980.064 1211.578, 980.735 1211.164 C 981.362 1210.776, 1013.628 1210.506, 1052.438 1210.564 L 1123 1210.670 1123 1206.994 L 1123 1203.317 1050.750 1203.354 C 1011.013 1203.375, 977.712 1203.561, 976.750 1203.769 M 788.250 1525.728 C 790.313 1525.944, 793.688 1525.944, 795.750 1525.728 C 797.813 1525.513, 796.125 1525.336, 792 1525.336 C 787.875 1525.336, 786.188 1525.513, 788.250 1525.728 M 824.318 1525.749 C 836.317 1525.909, 855.667 1525.909, 867.318 1525.749 C 878.968 1525.589, 869.150 1525.458, 845.500 1525.458 C 821.850 1525.459, 812.318 1525.590, 824.318 1525.749 M 898.250 1525.746 C 903.612 1525.925, 912.388 1525.925, 917.750 1525.746 C 923.112 1525.566, 918.725 1525.419, 908 1525.419 C 897.275 1525.419, 892.888 1525.566, 898.250 1525.746 M 952.318 1525.749 C 964.317 1525.909, 983.667 1525.909, 995.318 1525.749 C 1006.968 1525.589, 997.150 1525.458, 973.500 1525.458 C 949.850 1525.459, 940.318 1525.590, 952.318 1525.749 M 1026.250 1525.746 C 1031.612 1525.925, 1040.388 1525.925, 1045.750 1525.746 C 1051.112 1525.566, 1046.725 1525.419, 1036 1525.419 C 1025.275 1525.419, 1020.888 1525.566, 1026.250 1525.746 M 1080.318 1525.749 C 1092.317 1525.909, 1111.667 1525.909, 1123.318 1525.749 C 1134.968 1525.589, 1125.150 1525.458, 1101.500 1525.458 C 1077.850 1525.459, 1068.318 1525.590, 1080.318 1525.749 M 1149.280 1525.736 C 1151.909 1525.943, 1155.959 1525.940, 1158.280 1525.731 C 1160.601 1525.521, 1158.450 1525.352, 1153.500 1525.355 C 1148.550 1525.358, 1146.651 1525.530, 1149.280 1525.736 M 777.698 1526.739 C 777.256 1527.421, 776.891 1581.606, 776.885 1647.152 L 776.875 1766.325 779.687 1768.581 C 781.234 1769.822, 782.612 1770.536, 782.750 1770.169 C 782.887 1769.801, 868.672 1769.615, 973.383 1769.755 C 1153.654 1769.997, 1163.880 1769.917, 1165.917 1768.255 L 1168.069 1766.500 1168.027 1647.647 C 1168 1573.441, 1167.623 1528.176, 1167.023 1527.147 C 1166.403 1526.086, 1166.050 1567.910, 1166.030 1644.750 L 1166 1764 972.504 1764 L 779.008 1764 778.754 1644.750 C 778.614 1579.162, 778.139 1526.058, 777.698 1526.739 M 789.558 1535.775 C 789.251 1536.082, 789.053 1585.196, 789.118 1644.917 C 789.183 1704.638, 789.580 1752.150, 790 1750.500 C 790.420 1748.850, 790.817 1748.237, 790.882 1749.139 C 790.955 1750.159, 792.226 1751.002, 794.250 1751.372 C 798.424 1752.136, 1146.427 1752.117, 1150.750 1751.352 C 1152.783 1750.993, 1154.044 1750.164, 1154.118 1749.139 C 1154.183 1748.237, 1154.580 1748.850, 1155 1750.500 C 1155.420 1752.150, 1155.817 1704.401, 1155.882 1644.392 L 1156 1535.283 973.058 1535.250 C 872.440 1535.232, 789.865 1535.468, 789.558 1535.775 M 798 1541.774 L 795.500 1542.084 795.759 1643.792 L 796.019 1745.500 972.509 1745.500 L 1149 1745.500 1149 1643.391 L 1149 1541.281 974.750 1541.373 C 878.912 1541.423, 799.375 1541.604, 798 1541.774 M 831.637 1547.765 L 801.775 1548.030 802.374 1550.265 C 802.703 1551.494, 802.993 1594.575, 803.017 1646 C 803.051 1717.781, 803.332 1739.035, 804.229 1737.500 C 805.086 1736.032, 805.481 1713.704, 805.714 1653.500 C 806.022 1574.299, 806.321 1560.698, 807.806 1558.330 C 808.263 1557.603, 809.869 1557.489, 812.500 1557.997 C 814.700 1558.422, 815.712 1558.822, 814.750 1558.885 C 813.098 1558.994, 813 1563.746, 813 1643.750 L 813 1728.500 972.500 1728.500 L 1132 1728.500 1132 1643.785 L 1132 1559.070 1134.107 1557.943 C 1139.016 1555.316, 1138.752 1550.113, 1139.374 1662 C 1139.598 1702.425, 1140.168 1736.400, 1140.641 1737.500 C 1141.283 1738.994, 1143.029 1549.818, 1142.388 1548.222 C 1142.235 1547.839, 868.626 1547.437, 831.637 1547.765 M 834.750 1558.662 C 835.438 1558.940, 836.563 1558.940, 837.250 1558.662 C 837.938 1558.385, 837.375 1558.158, 836 1558.158 C 834.625 1558.158, 834.063 1558.385, 834.750 1558.662 M 865.750 1558.662 C 866.438 1558.940, 867.563 1558.940, 868.250 1558.662 C 868.938 1558.385, 868.375 1558.158, 867 1558.158 C 865.625 1558.158, 865.063 1558.385, 865.750 1558.662 M 925.750 1558.662 C 926.438 1558.940, 927.563 1558.940, 928.250 1558.662 C 928.938 1558.385, 928.375 1558.158, 927 1558.158 C 925.625 1558.158, 925.063 1558.385, 925.750 1558.662 M 963.813 1558.683 C 964.534 1558.972, 965.397 1558.936, 965.729 1558.604 C 966.061 1558.272, 965.471 1558.036, 964.417 1558.079 C 963.252 1558.127, 963.015 1558.364, 963.813 1558.683 M 993.269 1558.693 C 994.242 1558.947, 995.592 1558.930, 996.269 1558.656 C 996.946 1558.382, 996.150 1558.175, 994.500 1558.195 C 992.850 1558.215, 992.296 1558.439, 993.269 1558.693 M 1046.813 1558.683 C 1047.534 1558.972, 1048.397 1558.936, 1048.729 1558.604 C 1049.061 1558.272, 1048.471 1558.036, 1047.417 1558.079 C 1046.252 1558.127, 1046.015 1558.364, 1046.813 1558.683 M 1053.750 1558.662 C 1054.438 1558.940, 1055.563 1558.940, 1056.250 1558.662 C 1056.938 1558.385, 1056.375 1558.158, 1055 1558.158 C 1053.625 1558.158, 1053.063 1558.385, 1053.750 1558.662 M 1059.813 1558.683 C 1060.534 1558.972, 1061.397 1558.936, 1061.729 1558.604 C 1062.061 1558.272, 1061.471 1558.036, 1060.417 1558.079 C 1059.252 1558.127, 1059.015 1558.364, 1059.813 1558.683 M 1063.813 1558.683 C 1064.534 1558.972, 1065.397 1558.936, 1065.729 1558.604 C 1066.061 1558.272, 1065.471 1558.036, 1064.417 1558.079 C 1063.252 1558.127, 1063.015 1558.364, 1063.813 1558.683 M 1091.813 1558.683 C 1092.534 1558.972, 1093.397 1558.936, 1093.729 1558.604 C 1094.061 1558.272, 1093.471 1558.036, 1092.417 1558.079 C 1091.252 1558.127, 1091.015 1558.364, 1091.813 1558.683 M 1095.813 1558.683 C 1096.534 1558.972, 1097.397 1558.936, 1097.729 1558.604 C 1098.061 1558.272, 1097.471 1558.036, 1096.417 1558.079 C 1095.252 1558.127, 1095.015 1558.364, 1095.813 1558.683 M 1122.813 1558.683 C 1123.534 1558.972, 1124.397 1558.936, 1124.729 1558.604 C 1125.061 1558.272, 1124.471 1558.036, 1123.417 1558.079 C 1122.252 1558.127, 1122.015 1558.364, 1122.813 1558.683 M 828.750 1563.784 L 818 1564.068 818 1644.284 L 818 1724.500 972.500 1724.244 L 1127 1723.987 1127 1643.994 L 1127 1564 1119.250 1563.989 C 1114.987 1563.983, 1050.300 1563.871, 975.500 1563.739 C 900.700 1563.608, 834.663 1563.628, 828.750 1563.784 M 822 1643.441 C 822 1694.638, 822.335 1719.089, 823.041 1719.525 C 823.759 1719.969, 824.020 1697.417, 823.883 1646.745 C 823.774 1606.361, 824.007 1572.798, 824.401 1572.160 C 824.940 1571.288, 861.897 1571, 973.059 1571 L 1121 1571 1121.114 1577.250 C 1121.177 1580.688, 1121.210 1614.213, 1121.187 1651.750 C 1121.162 1693.641, 1121.509 1720, 1122.085 1720 C 1122.662 1720, 1123.010 1690.717, 1122.988 1644 L 1122.951 1568 972.476 1568 L 822 1568 822 1643.441 M 847.343 1603.500 C 847.346 1607.900, 847.522 1609.576, 847.733 1607.224 C 847.945 1604.872, 847.942 1601.272, 847.727 1599.224 C 847.512 1597.176, 847.339 1599.100, 847.343 1603.500 M 1097.079 1604.583 C 1097.127 1605.748, 1097.364 1605.985, 1097.683 1605.188 C 1097.972 1604.466, 1097.936 1603.603, 1097.604 1603.271 C 1097.272 1602.939, 1097.036 1603.529, 1097.079 1604.583 M 1097.158 1609 C 1097.158 1610.375, 1097.385 1610.938, 1097.662 1610.250 C 1097.940 1609.563, 1097.940 1608.438, 1097.662 1607.750 C 1097.385 1607.063, 1097.158 1607.625, 1097.158 1609 M 847.252 1616.500 C 847.263 1618.700, 847.468 1619.482, 847.707 1618.238 C 847.946 1616.994, 847.937 1615.194, 847.687 1614.238 C 847.437 1613.282, 847.241 1614.300, 847.252 1616.500 M 843.300 1621 C 843.300 1624.025, 843.487 1625.263, 843.716 1623.750 C 843.945 1622.237, 843.945 1619.763, 843.716 1618.250 C 843.487 1616.737, 843.300 1617.975, 843.300 1621 M 1097.320 1623 C 1097.320 1626.575, 1097.502 1628.037, 1097.723 1626.250 C 1097.945 1624.463, 1097.945 1621.537, 1097.723 1619.750 C 1097.502 1617.963, 1097.320 1619.425, 1097.320 1623 M 847.286 1630.500 C 847.294 1633.250, 847.488 1634.256, 847.718 1632.736 C 847.947 1631.216, 847.941 1628.966, 847.704 1627.736 C 847.467 1626.506, 847.279 1627.750, 847.286 1630.500 M 1097.079 1640.583 C 1097.127 1641.748, 1097.364 1641.985, 1097.683 1641.188 C 1097.972 1640.466, 1097.936 1639.603, 1097.604 1639.271 C 1097.272 1638.939, 1097.036 1639.529, 1097.079 1640.583 M 847.232 1644 C 847.232 1645.925, 847.438 1646.713, 847.689 1645.750 C 847.941 1644.787, 847.941 1643.213, 847.689 1642.250 C 847.438 1641.287, 847.232 1642.075, 847.232 1644 M 1097.232 1650 C 1097.232 1651.925, 1097.438 1652.713, 1097.689 1651.750 C 1097.941 1650.787, 1097.941 1649.213, 1097.689 1648.250 C 1097.438 1647.287, 1097.232 1648.075, 1097.232 1650 M 1097.079 1655.583 C 1097.127 1656.748, 1097.364 1656.985, 1097.683 1656.188 C 1097.972 1655.466, 1097.936 1654.603, 1097.604 1654.271 C 1097.272 1653.939, 1097.036 1654.529, 1097.079 1655.583 M 1097.079 1659.583 C 1097.127 1660.748, 1097.364 1660.985, 1097.683 1660.188 C 1097.972 1659.466, 1097.936 1658.603, 1097.604 1658.271 C 1097.272 1657.939, 1097.036 1658.529, 1097.079 1659.583 M 847.382 1670.500 C 847.384 1677.100, 847.546 1679.670, 847.741 1676.211 C 847.937 1672.752, 847.936 1667.352, 847.738 1664.211 C 847.540 1661.070, 847.380 1663.900, 847.382 1670.500 M 1097.252 1665.500 C 1097.263 1667.700, 1097.468 1668.482, 1097.707 1667.238 C 1097.946 1665.994, 1097.937 1664.194, 1097.687 1663.238 C 1097.437 1662.282, 1097.241 1663.300, 1097.252 1665.500 M 1101.079 1664.583 C 1101.127 1665.748, 1101.364 1665.985, 1101.683 1665.188 C 1101.972 1664.466, 1101.936 1663.603, 1101.604 1663.271 C 1101.272 1662.939, 1101.036 1663.529, 1101.079 1664.583 M 1097.079 1671.583 C 1097.127 1672.748, 1097.364 1672.985, 1097.683 1672.188 C 1097.972 1671.466, 1097.936 1670.603, 1097.604 1670.271 C 1097.272 1669.939, 1097.036 1670.529, 1097.079 1671.583 M 847.232 1686 C 847.232 1687.925, 847.438 1688.713, 847.689 1687.750 C 847.941 1686.787, 847.941 1685.213, 847.689 1684.250 C 847.438 1683.287, 847.232 1684.075, 847.232 1686 M 847.150 1693.231 C 846.968 1697.767, 847.313 1697.885, 862 1698.312 C 867.901 1698.484, 866.039 1698.592, 857.749 1698.559 C 846.970 1698.516, 842.997 1698.821, 842.999 1699.691 C 842.999 1700.346, 843.544 1701.218, 844.209 1701.629 C 845.645 1702.516, 1099.574 1702.381, 1101.012 1701.493 C 1101.555 1701.157, 1102.001 1700.346, 1102.002 1699.691 C 1102.004 1698.837, 1098.959 1698.528, 1091.252 1698.598 L 1080.500 1698.697 1089 1698.098 C 1097.161 1697.524, 1097.509 1697.400, 1097.724 1695 C 1097.847 1693.625, 1097.697 1693.063, 1097.390 1693.750 C 1096.949 1694.740, 1071 1695, 972.483 1695 L 848.133 1695 847.716 1692.250 C 847.379 1690.026, 847.271 1690.214, 847.150 1693.231 M 888.250 1698.746 C 894.163 1698.923, 903.837 1698.923, 909.750 1698.746 C 915.663 1698.569, 910.825 1698.425, 899 1698.425 C 887.175 1698.425, 882.337 1698.569, 888.250 1698.746 M 922.269 1698.693 C 923.242 1698.947, 924.592 1698.930, 925.269 1698.656 C 925.946 1698.382, 925.150 1698.175, 923.500 1698.195 C 921.850 1698.215, 921.296 1698.439, 922.269 1698.693 M 930.264 1698.718 C 931.784 1698.947, 934.034 1698.941, 935.264 1698.704 C 936.494 1698.467, 935.250 1698.279, 932.500 1698.286 C 929.750 1698.294, 928.744 1698.488, 930.264 1698.718 M 940.768 1698.725 C 942.565 1698.947, 945.265 1698.943, 946.768 1698.715 C 948.271 1698.486, 946.800 1698.304, 943.500 1698.310 C 940.200 1698.315, 938.971 1698.502, 940.768 1698.725 M 955.728 1698.722 C 957.503 1698.943, 960.653 1698.946, 962.728 1698.730 C 964.802 1698.513, 963.350 1698.333, 959.500 1698.328 C 955.650 1698.324, 953.952 1698.501, 955.728 1698.722 M 970.250 1698.728 C 972.313 1698.944, 975.688 1698.944, 977.750 1698.728 C 979.813 1698.513, 978.125 1698.336, 974 1698.336 C 969.875 1698.336, 968.188 1698.513, 970.250 1698.728 M 987.250 1698.739 C 990.413 1698.937, 995.587 1698.937, 998.750 1698.739 C 1001.913 1698.541, 999.325 1698.378, 993 1698.378 C 986.675 1698.378, 984.087 1698.541, 987.250 1698.739 M 1014.750 1698.745 C 1019.837 1698.927, 1028.162 1698.927, 1033.250 1698.745 C 1038.338 1698.564, 1034.175 1698.415, 1024 1698.415 C 1013.825 1698.415, 1009.663 1698.564, 1014.750 1698.745 M 1043.813 1698.683 C 1044.534 1698.972, 1045.397 1698.936, 1045.729 1698.604 C 1046.061 1698.272, 1045.471 1698.036, 1044.417 1698.079 C 1043.252 1698.127, 1043.015 1698.364, 1043.813 1698.683 M 1060.250 1698.689 C 1061.213 1698.941, 1062.787 1698.941, 1063.750 1698.689 C 1064.713 1698.438, 1063.925 1698.232, 1062 1698.232 C 1060.075 1698.232, 1059.287 1698.438, 1060.250 1698.689 M 1068.768 1698.725 C 1070.565 1698.947, 1073.265 1698.943, 1074.768 1698.715 C 1076.271 1698.486, 1074.800 1698.304, 1071.500 1698.310 C 1068.200 1698.315, 1066.971 1698.502, 1068.768 1698.725 M 928.750 1720.662 C 929.438 1720.940, 930.563 1720.940, 931.250 1720.662 C 931.938 1720.385, 931.375 1720.158, 930 1720.158 C 928.625 1720.158, 928.063 1720.385, 928.750 1720.662 M 852.813 1884.683 C 853.534 1884.972, 854.397 1884.936, 854.729 1884.604 C 855.061 1884.272, 854.471 1884.036, 853.417 1884.079 C 852.252 1884.127, 852.015 1884.364, 852.813 1884.683 M 856.813 1884.683 C 857.534 1884.972, 858.397 1884.936, 858.729 1884.604 C 859.061 1884.272, 858.471 1884.036, 857.417 1884.079 C 856.252 1884.127, 856.015 1884.364, 856.813 1884.683 M 902.813 1884.683 C 903.534 1884.972, 904.397 1884.936, 904.729 1884.604 C 905.061 1884.272, 904.471 1884.036, 903.417 1884.079 C 902.252 1884.127, 902.015 1884.364, 902.813 1884.683 M 980.813 1884.683 C 981.534 1884.972, 982.397 1884.936, 982.729 1884.604 C 983.061 1884.272, 982.471 1884.036, 981.417 1884.079 C 980.252 1884.127, 980.015 1884.364, 980.813 1884.683 M 984.813 1884.683 C 985.534 1884.972, 986.397 1884.936, 986.729 1884.604 C 987.061 1884.272, 986.471 1884.036, 985.417 1884.079 C 984.252 1884.127, 984.015 1884.364, 984.813 1884.683 M 1030.813 1884.683 C 1031.534 1884.972, 1032.397 1884.936, 1032.729 1884.604 C 1033.061 1884.272, 1032.471 1884.036, 1031.417 1884.079 C 1030.252 1884.127, 1030.015 1884.364, 1030.813 1884.683 M 1112.813 1884.683 C 1113.534 1884.972, 1114.397 1884.936, 1114.729 1884.604 C 1115.061 1884.272, 1114.471 1884.036, 1113.417 1884.079 C 1112.252 1884.127, 1112.015 1884.364, 1112.813 1884.683 M 1158.813 1884.683 C 1159.534 1884.972, 1160.397 1884.936, 1160.729 1884.604 C 1161.061 1884.272, 1160.471 1884.036, 1159.417 1884.079 C 1158.252 1884.127, 1158.015 1884.364, 1158.813 1884.683" stroke="none" fill="black" fill-rule="evenodd"/>
	<path fill-opacity="0.097" d="M 789 537.071 C 789 540.507, 788.644 540.500, 972.750 540.500 C 1072.438 540.500, 1154 540.136, 1154 539.691 C 1154 539.246, 1154.450 539.160, 1155 539.500 C 1155.550 539.840, 1156 539.191, 1156 538.059 L 1156 536 972.500 536 C 842.678 536, 789 536.313, 789 537.071 M 793.750 754.750 C 793.888 871.762, 794.115 1021.500, 794.254 1087.500 C 794.394 1153.500, 794.619 1057.763, 794.754 874.750 C 794.889 691.737, 794.663 542, 794.250 542 C 793.837 542, 793.613 637.737, 793.750 754.750 M 1150.487 693 C 1150.487 776.325, 1150.605 810.413, 1150.750 768.750 C 1150.894 727.088, 1150.894 658.913, 1150.750 617.250 C 1150.605 575.588, 1150.487 609.675, 1150.487 693 M 803.015 550.250 C 803.036 551.967, 804.113 553.285, 806.648 554.695 C 808.289 555.608, 846.418 555.884, 968.148 555.864 C 1106.931 555.842, 1139.013 555.467, 1140.441 553.851 C 1140.612 553.658, 1141.063 552.487, 1141.443 551.250 L 1142.135 549 972.567 549 C 837.572 549, 803.003 549.255, 803.015 550.250 M 813.116 564.250 C 813.180 566.587, 813.448 567.600, 813.713 566.500 C 813.978 565.400, 814.532 564.141, 814.945 563.702 C 816.101 562.474, 1128.152 562.752, 1129.383 563.983 C 1131.069 565.669, 1132 565.141, 1132 562.500 L 1132 560 972.500 560 L 813 560 813.116 564.250 M 835.750 569.748 C 843.587 569.917, 856.413 569.917, 864.250 569.748 C 872.087 569.579, 865.675 569.441, 850 569.441 C 834.325 569.441, 827.913 569.579, 835.750 569.748 M 889.750 569.747 C 895.938 569.922, 906.063 569.922, 912.250 569.747 C 918.438 569.571, 913.375 569.428, 901 569.428 C 888.625 569.428, 883.563 569.571, 889.750 569.747 M 943.500 569.739 C 959.424 569.965, 963.717 570.314, 964.567 571.452 C 965.476 572.671, 966.064 572.597, 968.567 570.947 L 971.500 569.013 947.500 569.234 L 923.500 569.455 943.500 569.739 M 976.811 570.774 C 979.274 571.999, 980.308 572.119, 980.850 571.243 C 981.327 570.470, 985.867 569.956, 994.039 569.749 C 1005.391 569.461, 1005.032 569.419, 990 569.280 C 974.058 569.133, 973.612 569.184, 976.811 570.774 M 1017.750 569.747 C 1023.938 569.922, 1034.063 569.922, 1040.250 569.747 C 1046.438 569.571, 1041.375 569.428, 1029 569.428 C 1016.625 569.428, 1011.563 569.571, 1017.750 569.747 M 1069.815 569.749 C 1079.888 569.912, 1096.088 569.912, 1105.815 569.748 C 1115.542 569.585, 1107.300 569.451, 1087.500 569.451 C 1067.700 569.452, 1059.742 569.586, 1069.815 569.749 M 822 785.507 L 822 788.013 893.628 787.757 L 965.256 787.500 966.750 785.250 L 968.244 783 895.122 783 L 822 783 822 785.507 M 978 785.500 L 980.349 788 1051.674 788 C 1094.323 788, 1123 787.631, 1123 787.082 C 1123 782.832, 1126.061 783, 1048.719 783 L 975.651 783 978 785.500 M 1150.491 1065.500 C 1150.491 1187.050, 1150.608 1236.924, 1150.750 1176.330 C 1150.892 1115.737, 1150.892 1016.287, 1150.750 955.330 C 1150.608 894.374, 1150.491 943.950, 1150.491 1065.500 M 822.184 996.538 L 822.500 999.075 893.442 999.073 L 964.385 999.070 966.920 996.535 L 969.455 994 895.661 994 L 821.867 994 822.184 996.538 M 977 994.845 C 977 995.310, 977.826 996.438, 978.836 997.351 C 980.742 999.077, 988.602 999.188, 1097.750 999.035 L 1123 999 1123 996.500 L 1123 994 1050 994 C 1009.850 994, 977 994.380, 977 994.845 M 822.374 1206.467 C 822.065 1207.274, 821.974 1208.423, 822.173 1209.020 C 822.429 1209.787, 843.341 1210.121, 893.392 1210.156 L 964.249 1210.205 966.852 1207.603 L 969.455 1205 896.196 1205 C 832.732 1205, 822.862 1205.196, 822.374 1206.467 M 977 1205.845 C 977 1206.310, 977.817 1207.430, 978.816 1208.334 C 980.457 1209.818, 986.475 1209.985, 1041.066 1210.058 C 1074.305 1210.102, 1106.338 1210.107, 1112.250 1210.069 L 1123 1210 1123 1207.500 L 1123 1205 1050 1205 C 1009.850 1205, 977 1205.380, 977 1205.845 M 794.471 1270.500 C 794.471 1305.150, 794.596 1319.180, 794.750 1301.678 C 794.903 1284.175, 794.903 1255.825, 794.749 1238.678 C 794.596 1221.530, 794.471 1235.850, 794.471 1270.500 M 1150.475 1362.500 C 1150.475 1404.300, 1150.599 1421.254, 1150.750 1400.176 C 1150.901 1379.098, 1150.900 1344.898, 1150.750 1324.176 C 1150.599 1303.454, 1150.475 1320.700, 1150.475 1362.500 M 794.465 1386 C 794.465 1414.875, 794.593 1426.688, 794.749 1412.250 C 794.905 1397.812, 794.905 1374.187, 794.749 1359.750 C 794.593 1345.313, 794.465 1357.125, 794.465 1386 M 846.200 1417.765 C 827.290 1417.936, 817.117 1418.380, 817.509 1419.015 C 818.357 1420.386, 1128 1420.371, 1128 1419 C 1128 1418.363, 1119.747 1417.998, 1105.250 1417.995 C 1092.737 1417.993, 1035.925 1417.880, 979 1417.745 C 922.075 1417.610, 862.315 1417.619, 846.200 1417.765 M 794.191 1440.756 C 794.510 1442.407, 804.012 1442.500, 972.500 1442.500 C 1140.988 1442.500, 1150.491 1442.407, 1150.809 1440.756 C 1151.127 1439.101, 1141.884 1439.011, 972.500 1439.011 C 803.116 1439.011, 793.873 1439.101, 794.191 1440.756 M 781 1456.978 C 777.659 1457.528, 777.598 1457.609, 779.668 1458.768 C 783.069 1460.673, 1161.911 1460.517, 1164.520 1458.609 C 1166.239 1457.352, 1166.071 1457.196, 1162.445 1456.675 C 1157.273 1455.933, 785.559 1456.228, 781 1456.978 M 789 1537.042 C 789 1539.544, 791.428 1540.587, 795.924 1540.016 C 802.464 1539.186, 1151.711 1539.378, 1152.545 1540.212 C 1153.360 1541.027, 1156 1538.627, 1156 1537.071 C 1156 1536.313, 1102.322 1536, 972.500 1536 C 845.879 1536, 789 1536.323, 789 1537.042 M 794.243 1645.250 L 794 1750 800.750 1750.014 C 808.499 1750.031, 1145.338 1750.028, 1148.750 1750.011 L 1151 1750 1150.760 1699.250 L 1150.519 1648.500 1150.250 1697.500 L 1149.981 1746.500 973.395 1746.500 C 856.774 1746.500, 796.587 1746.840, 796.155 1747.500 C 795.795 1748.050, 795.272 1701.700, 794.993 1644.500 L 794.486 1540.500 794.243 1645.250 M 1150 1594.500 C 1150 1624.108, 1150.217 1648.116, 1150.483 1647.850 C 1151.148 1647.185, 1151.199 1541.866, 1150.535 1541.201 C 1150.241 1540.907, 1150 1564.892, 1150 1594.500 M 803.393 1550.582 C 803.727 1551.452, 804 1552.363, 804 1552.607 C 804 1552.850, 805.168 1553.493, 806.595 1554.036 C 810.316 1555.451, 1135.386 1555.399, 1138.031 1553.983 C 1139.114 1553.404, 1140.007 1553.283, 1140.015 1553.715 C 1140.040 1555.001, 1141.968 1551.610, 1141.985 1550.250 C 1141.997 1549.255, 1107.420 1549, 972.393 1549 C 818.144 1549, 802.841 1549.143, 803.393 1550.582 M 813 1561.948 C 813 1563.643, 813.360 1563.770, 815.776 1562.928 C 819.267 1561.711, 1127.748 1562.132, 1130.250 1563.357 C 1131.634 1564.035, 1132 1563.773, 1132 1562.107 L 1132 1560 972.500 1560 C 815.086 1560, 813 1560.025, 813 1561.948 M 822.417 1568.917 C 822.188 1569.146, 822.014 1570.271, 822.030 1571.417 C 822.058 1573.312, 822.153 1573.342, 823.080 1571.750 C 824.044 1570.096, 832.225 1570, 972.582 1570 L 1121.064 1570 1121.969 1572.250 C 1122.796 1574.309, 1122.877 1574.330, 1122.921 1572.500 C 1122.948 1571.400, 1122.639 1570.050, 1122.235 1569.500 C 1121.525 1568.535, 823.379 1567.955, 822.417 1568.917 M 1122.286 1579.500 C 1122.294 1582.250, 1122.488 1583.256, 1122.718 1581.736 C 1122.947 1580.216, 1122.941 1577.966, 1122.704 1576.736 C 1122.467 1575.506, 1122.279 1576.750, 1122.286 1579.500 M 1122.158 1587 C 1122.158 1588.375, 1122.385 1588.938, 1122.662 1588.250 C 1122.940 1587.563, 1122.940 1586.438, 1122.662 1585.750 C 1122.385 1585.063, 1122.158 1585.625, 1122.158 1587 M 1122.272 1609 C 1122.272 1611.475, 1122.467 1612.487, 1122.706 1611.250 C 1122.944 1610.013, 1122.944 1607.987, 1122.706 1606.750 C 1122.467 1605.513, 1122.272 1606.525, 1122.272 1609 M 822.158 1615 C 822.158 1616.375, 822.385 1616.938, 822.662 1616.250 C 822.940 1615.563, 822.940 1614.438, 822.662 1613.750 C 822.385 1613.063, 822.158 1613.625, 822.158 1615 M 1122.158 1633 C 1122.158 1634.375, 1122.385 1634.938, 1122.662 1634.250 C 1122.940 1633.563, 1122.940 1632.438, 1122.662 1631.750 C 1122.385 1631.063, 1122.158 1631.625, 1122.158 1633 M 1122.079 1665.583 C 1122.127 1666.748, 1122.364 1666.985, 1122.683 1666.188 C 1122.972 1665.466, 1122.936 1664.603, 1122.604 1664.271 C 1122.272 1663.939, 1122.036 1664.529, 1122.079 1665.583 M 1122.195 1671.500 C 1122.215 1673.150, 1122.439 1673.704, 1122.693 1672.731 C 1122.947 1671.758, 1122.930 1670.408, 1122.656 1669.731 C 1122.382 1669.054, 1122.175 1669.850, 1122.195 1671.500 M 1122.079 1694.583 C 1122.127 1695.748, 1122.364 1695.985, 1122.683 1695.188 C 1122.972 1694.466, 1122.936 1693.603, 1122.604 1693.271 C 1122.272 1692.939, 1122.036 1693.529, 1122.079 1694.583 M 847.500 1696 C 847.907 1696.658, 890.657 1697, 972.500 1697 C 1054.343 1697, 1097.093 1696.658, 1097.500 1696 C 1097.911 1695.335, 1055.991 1695, 972.500 1695 C 889.009 1695, 847.089 1695.335, 847.500 1696 M 843.500 1700 C 843.907 1700.658, 887.991 1701, 972.500 1701 C 1057.009 1701, 1101.093 1700.658, 1101.500 1700 C 1101.911 1699.335, 1058.657 1699, 972.500 1699 C 886.343 1699, 843.089 1699.335, 843.500 1700 M 1122.079 1710.583 C 1122.127 1711.748, 1122.364 1711.985, 1122.683 1711.188 C 1122.972 1710.466, 1122.936 1709.603, 1122.604 1709.271 C 1122.272 1708.939, 1122.036 1709.529, 1122.079 1710.583 M 817.500 1726 C 817.089 1726.665, 868.990 1727, 972.441 1727 C 1075.480 1727, 1128 1726.662, 1128 1726 C 1128 1725.338, 1075.686 1725, 973.059 1725 C 870.844 1725, 817.908 1725.340, 817.500 1726 M 779.224 1765.653 C 780.749 1767.177, 795.693 1767.313, 972.136 1767.403 C 1151.497 1767.494, 1163.524 1767.393, 1165.448 1765.783 C 1167.389 1764.160, 1156.909 1764.065, 972.536 1764.033 C 791.235 1764.002, 777.687 1764.116, 779.224 1765.653" stroke="none" fill="black" fill-rule="evenodd"/>
	<path fill-opacity="0.214" d="M 789.547 536.924 C 789.224 537.446, 790.939 537.772, 793.488 537.674 C 795.970 537.578, 798 537.163, 798 536.750 C 798 535.665, 790.226 535.825, 789.547 536.924 M 799 536.933 C 799 537.481, 802.036 537.825, 806 537.727 C 809.850 537.632, 813 537.261, 813 536.903 C 813 536.546, 809.850 536.188, 806 536.109 C 802.057 536.028, 799 536.388, 799 536.933 M 815 537 C 815 537.550, 815.423 538, 815.941 538 C 816.459 538, 817.160 537.550, 817.500 537 C 817.840 536.450, 817.416 536, 816.559 536 C 815.702 536, 815 536.450, 815 537 M 823 537.059 C 823 537.641, 823.450 537.840, 824 537.500 C 824.550 537.160, 825 536.684, 825 536.441 C 825 536.198, 824.550 536, 824 536 C 823.450 536, 823 536.477, 823 537.059 M 827.762 536.707 C 829.006 536.946, 830.806 536.937, 831.762 536.687 C 832.718 536.437, 831.700 536.241, 829.500 536.252 C 827.300 536.263, 826.518 536.468, 827.762 536.707 M 834.294 536.628 C 835.199 537.532, 886.095 537.655, 886.652 536.754 C 886.908 536.339, 875.091 536, 860.392 536 C 845.693 536, 833.949 536.282, 834.294 536.628 M 889 537 C 889 537.550, 889.450 538, 890 538 C 890.550 538, 891 537.550, 891 537 C 891 536.450, 890.550 536, 890 536 C 889.450 536, 889 536.450, 889 537 M 893.289 536.622 C 894.281 537.615, 914 538.084, 914 537.116 C 914 536.712, 909.167 536.263, 903.261 536.118 C 897.354 535.973, 892.867 536.200, 893.289 536.622 M 933.484 536.974 C 934.028 537.854, 944.822 538.097, 945.351 537.242 C 945.614 536.816, 942.975 536.457, 939.486 536.445 C 935.997 536.432, 933.296 536.671, 933.484 536.974 M 950.500 537 C 949.769 538.183, 950.748 538.183, 953.500 537 C 955.428 536.171, 955.421 536.138, 953.309 536.070 C 952.104 536.032, 950.840 536.450, 950.500 537 M 957.269 536.693 C 958.242 536.947, 959.592 536.930, 960.269 536.656 C 960.946 536.382, 960.150 536.175, 958.500 536.195 C 956.850 536.215, 956.296 536.439, 957.269 536.693 M 967.001 536.736 C 967.001 537.692, 1013.575 537.757, 1014.531 536.802 C 1014.915 536.418, 1004.378 536.074, 991.115 536.038 C 977.852 536.002, 967 536.316, 967.001 536.736 M 1017 537.059 C 1017 537.641, 1017.450 537.840, 1018 537.500 C 1018.550 537.160, 1019 536.684, 1019 536.441 C 1019 536.198, 1018.550 536, 1018 536 C 1017.450 536, 1017 536.477, 1017 537.059 M 1021.295 536.628 C 1022.279 537.612, 1042 538.143, 1042 537.186 C 1042 536.796, 1037.166 536.336, 1031.258 536.163 C 1025.350 535.991, 1020.867 536.200, 1021.295 536.628 M 1055.603 536.833 C 1055.320 537.292, 1055.723 537.667, 1056.500 537.667 C 1057.277 537.667, 1057.680 537.292, 1057.397 536.833 C 1057.114 536.375, 1056.710 536, 1056.500 536 C 1056.290 536, 1055.886 536.375, 1055.603 536.833 M 1065.362 537.231 C 1064.840 538.067, 1087.966 537.367, 1088.812 536.522 C 1089.117 536.217, 1084.068 536.087, 1077.592 536.234 C 1071.117 536.380, 1065.613 536.829, 1065.362 537.231 M 1095 536.937 C 1095 537.456, 1096.673 537.616, 1098.750 537.296 C 1103.943 536.494, 1104.102 536, 1099.167 536 C 1096.875 536, 1095 536.422, 1095 536.937 M 1105.329 537.124 C 1107.019 538.107, 1116.733 537.600, 1117.863 536.470 C 1118.122 536.212, 1114.996 536.014, 1110.917 536.030 C 1105.188 536.054, 1103.916 536.303, 1105.329 537.124 M 1119.261 536.595 C 1120.344 537.677, 1156 538.070, 1156 536.999 C 1156 536.369, 1149.105 536, 1137.333 536 C 1127.067 536, 1118.934 536.268, 1119.261 536.595 M 819.813 537.683 C 820.534 537.972, 821.397 537.936, 821.729 537.604 C 822.061 537.272, 821.471 537.036, 820.417 537.079 C 819.252 537.127, 819.015 537.364, 819.813 537.683 M 915.813 537.683 C 916.534 537.972, 917.397 537.936, 917.729 537.604 C 918.061 537.272, 917.471 537.036, 916.417 537.079 C 915.252 537.127, 915.015 537.364, 915.813 537.683 M 804 551.500 C 804 553.195, 784.632 553.050, 1006.352 553.014 C 1079.420 553.002, 1139.607 552.743, 1140.102 552.437 C 1140.596 552.132, 1141 551.459, 1141 550.941 C 1141 550.357, 1077.121 550, 972.500 550 C 823.389 550, 804 550.173, 804 551.500 M 821.500 561.061 C 816.550 561.370, 884.463 561.707, 972.417 561.811 C 1060.371 561.915, 1132.080 561.747, 1131.771 561.438 C 1131.030 560.697, 833.149 560.335, 821.500 561.061 M 935.250 569.689 C 936.212 569.941, 937.788 569.941, 938.750 569.689 C 939.712 569.438, 938.925 569.232, 937 569.232 C 935.075 569.232, 934.288 569.438, 935.250 569.689 M 964 570 C 964 571.264, 966.043 571.264, 968 570 C 969.169 569.245, 968.893 569.027, 966.750 569.015 C 965.237 569.007, 964 569.450, 964 570 M 976.500 570 C 976.840 570.550, 977.740 571, 978.500 571 C 979.260 571, 980.160 570.550, 980.500 570 C 980.852 569.431, 979.991 569, 978.500 569 C 977.009 569, 976.148 569.431, 976.500 570 M 1064.813 569.683 C 1065.534 569.972, 1066.397 569.936, 1066.729 569.604 C 1067.061 569.272, 1066.471 569.036, 1065.417 569.079 C 1064.252 569.127, 1064.015 569.364, 1064.813 569.683 M 894.250 1418.750 C 937.013 1418.894, 1006.987 1418.894, 1049.750 1418.750 C 1092.513 1418.606, 1057.525 1418.488, 972 1418.488 C 886.475 1418.488, 851.487 1418.606, 894.250 1418.750 M 795 1441 C 795 1441.663, 854.853 1442, 972.559 1442 C 1090.677 1442, 1149.911 1441.665, 1149.500 1441 C 1149.092 1440.339, 1088.823 1440, 971.941 1440 C 854.647 1440, 795 1440.337, 795 1441 M 780.500 1457.980 C 783.393 1459.195, 1163.767 1459.186, 1164.518 1457.971 C 1164.905 1457.344, 1096.589 1457.025, 971.809 1457.070 C 865.489 1457.109, 779.400 1457.518, 780.500 1457.980 M 789.177 1536.511 C 789.835 1537.168, 1155.181 1537.152, 1155.839 1536.495 C 1156.111 1536.223, 1073.608 1536, 972.500 1536 C 871.392 1536, 788.896 1536.230, 789.177 1536.511 M 795.250 1538.728 C 797.313 1538.944, 800.688 1538.944, 802.750 1538.728 C 804.813 1538.513, 803.125 1538.336, 799 1538.336 C 794.875 1538.336, 793.188 1538.513, 795.250 1538.728 M 819.750 1538.740 C 823.188 1538.936, 828.813 1538.936, 832.250 1538.740 C 835.688 1538.545, 832.875 1538.385, 826 1538.385 C 819.125 1538.385, 816.313 1538.545, 819.750 1538.740 M 840.250 1538.689 C 841.212 1538.941, 842.788 1538.941, 843.750 1538.689 C 844.712 1538.438, 843.925 1538.232, 842 1538.232 C 840.075 1538.232, 839.288 1538.438, 840.250 1538.689 M 846.813 1538.683 C 847.534 1538.972, 848.397 1538.936, 848.729 1538.604 C 849.061 1538.272, 848.471 1538.036, 847.417 1538.079 C 846.252 1538.127, 846.015 1538.364, 846.813 1538.683 M 862.250 1538.747 C 869.263 1538.919, 880.737 1538.919, 887.750 1538.747 C 894.763 1538.575, 889.025 1538.435, 875 1538.435 C 860.975 1538.435, 855.237 1538.575, 862.250 1538.747 M 910.199 1538.744 C 914.984 1538.927, 923.084 1538.928, 928.199 1538.746 C 933.315 1538.564, 929.400 1538.414, 919.500 1538.413 C 909.600 1538.412, 905.415 1538.561, 910.199 1538.744 M 949.750 1538.745 C 954.837 1538.927, 963.163 1538.927, 968.250 1538.745 C 973.337 1538.564, 969.175 1538.415, 959 1538.415 C 948.825 1538.415, 944.663 1538.564, 949.750 1538.745 M 990.250 1538.747 C 997.263 1538.919, 1008.737 1538.919, 1015.750 1538.747 C 1022.763 1538.575, 1017.025 1538.435, 1003 1538.435 C 988.975 1538.435, 983.237 1538.575, 990.250 1538.747 M 1032.728 1538.722 C 1034.503 1538.943, 1037.653 1538.946, 1039.728 1538.730 C 1041.802 1538.513, 1040.350 1538.333, 1036.500 1538.328 C 1032.650 1538.324, 1030.952 1538.501, 1032.728 1538.722 M 1047.250 1538.728 C 1049.313 1538.944, 1052.688 1538.944, 1054.750 1538.728 C 1056.813 1538.513, 1055.125 1538.336, 1051 1538.336 C 1046.875 1538.336, 1045.188 1538.513, 1047.250 1538.728 M 1059.813 1538.683 C 1060.534 1538.972, 1061.397 1538.936, 1061.729 1538.604 C 1062.061 1538.272, 1061.471 1538.036, 1060.417 1538.079 C 1059.252 1538.127, 1059.015 1538.364, 1059.813 1538.683 M 1074.287 1538.740 C 1077.469 1538.939, 1082.419 1538.937, 1085.287 1538.736 C 1088.154 1538.535, 1085.550 1538.372, 1079.500 1538.374 C 1073.450 1538.376, 1071.104 1538.541, 1074.287 1538.740 M 1096.250 1538.689 C 1097.213 1538.941, 1098.787 1538.941, 1099.750 1538.689 C 1100.713 1538.438, 1099.925 1538.232, 1098 1538.232 C 1096.075 1538.232, 1095.287 1538.438, 1096.250 1538.689 M 1103.762 1538.707 C 1105.006 1538.946, 1106.806 1538.937, 1107.762 1538.687 C 1108.718 1538.437, 1107.700 1538.241, 1105.500 1538.252 C 1103.300 1538.263, 1102.518 1538.468, 1103.762 1538.707 M 1120.750 1538.747 C 1126.938 1538.922, 1137.063 1538.922, 1143.250 1538.747 C 1149.438 1538.571, 1144.375 1538.428, 1132 1538.428 C 1119.625 1538.428, 1114.563 1538.571, 1120.750 1538.747 M 804 1550.883 C 804 1551.369, 805.051 1551.968, 806.336 1552.213 C 809.605 1552.838, 1136.668 1552.900, 1139.054 1552.276 C 1140.124 1551.996, 1141 1551.369, 1141 1550.883 C 1141 1550.376, 1069.335 1550, 972.500 1550 C 875.657 1550, 804 1550.376, 804 1550.883 M 813.254 1560.587 C 814.129 1561.462, 1132 1561.624, 1132 1560.750 C 1132 1560.338, 1060.150 1560, 972.333 1560 C 884.517 1560, 812.931 1560.264, 813.254 1560.587 M 897.172 1569.750 C 938.241 1569.894, 1005.741 1569.894, 1047.172 1569.750 C 1088.602 1569.605, 1055 1569.487, 972.500 1569.487 C 890 1569.487, 856.102 1569.605, 897.172 1569.750 M 849.250 1695.689 C 850.212 1695.941, 851.788 1695.941, 852.750 1695.689 C 853.712 1695.438, 852.925 1695.232, 851 1695.232 C 849.075 1695.232, 848.288 1695.438, 849.250 1695.689 M 858.750 1695.662 C 859.438 1695.940, 860.563 1695.940, 861.250 1695.662 C 861.938 1695.385, 861.375 1695.158, 860 1695.158 C 858.625 1695.158, 858.063 1695.385, 858.750 1695.662 M 866.813 1695.683 C 867.534 1695.972, 868.397 1695.936, 868.729 1695.604 C 869.061 1695.272, 868.471 1695.036, 867.417 1695.079 C 866.252 1695.127, 866.015 1695.364, 866.813 1695.683 M 870.813 1695.683 C 871.534 1695.972, 872.397 1695.936, 872.729 1695.604 C 873.061 1695.272, 872.471 1695.036, 871.417 1695.079 C 870.252 1695.127, 870.015 1695.364, 870.813 1695.683 M 882.250 1695.745 C 887.063 1695.928, 894.938 1695.928, 899.750 1695.745 C 904.563 1695.561, 900.625 1695.411, 891 1695.411 C 881.375 1695.411, 877.438 1695.561, 882.250 1695.745 M 927.812 1695.748 C 936.233 1695.916, 949.733 1695.915, 957.812 1695.748 C 965.890 1695.580, 959 1695.443, 942.500 1695.443 C 926 1695.444, 919.390 1695.581, 927.812 1695.748 M 979.813 1695.683 C 980.534 1695.972, 981.397 1695.936, 981.729 1695.604 C 982.061 1695.272, 981.471 1695.036, 980.417 1695.079 C 979.252 1695.127, 979.015 1695.364, 979.813 1695.683 M 986.750 1695.662 C 987.438 1695.940, 988.563 1695.940, 989.250 1695.662 C 989.938 1695.385, 989.375 1695.158, 988 1695.158 C 986.625 1695.158, 986.063 1695.385, 986.750 1695.662 M 992.250 1695.689 C 993.212 1695.941, 994.788 1695.941, 995.750 1695.689 C 996.712 1695.438, 995.925 1695.232, 994 1695.232 C 992.075 1695.232, 991.288 1695.438, 992.250 1695.689 M 998.813 1695.683 C 999.534 1695.972, 1000.397 1695.936, 1000.729 1695.604 C 1001.061 1695.272, 1000.471 1695.036, 999.417 1695.079 C 998.252 1695.127, 998.015 1695.364, 998.813 1695.683 M 1010.199 1695.744 C 1014.984 1695.927, 1023.084 1695.928, 1028.199 1695.746 C 1033.315 1695.564, 1029.400 1695.414, 1019.500 1695.413 C 1009.600 1695.412, 1005.415 1695.561, 1010.199 1695.744 M 1048.797 1695.745 C 1053.361 1695.930, 1060.561 1695.929, 1064.797 1695.742 C 1069.034 1695.555, 1065.300 1695.404, 1056.500 1695.405 C 1047.700 1695.406, 1044.234 1695.559, 1048.797 1695.745 M 1074.762 1695.707 C 1076.006 1695.946, 1077.806 1695.937, 1078.762 1695.687 C 1079.718 1695.437, 1078.700 1695.241, 1076.500 1695.252 C 1074.300 1695.263, 1073.518 1695.468, 1074.762 1695.707 M 1086.728 1695.722 C 1088.503 1695.943, 1091.653 1695.946, 1093.728 1695.730 C 1095.802 1695.513, 1094.350 1695.333, 1090.500 1695.328 C 1086.650 1695.324, 1084.952 1695.501, 1086.728 1695.722 M 823.762 1726.707 C 825.006 1726.946, 826.806 1726.937, 827.762 1726.687 C 828.718 1726.437, 827.700 1726.241, 825.500 1726.252 C 823.300 1726.263, 822.518 1726.468, 823.762 1726.707 M 831.762 1726.707 C 833.006 1726.946, 834.806 1726.937, 835.762 1726.687 C 836.718 1726.437, 835.700 1726.241, 833.500 1726.252 C 831.300 1726.263, 830.518 1726.468, 831.762 1726.707 M 842.280 1726.736 C 844.909 1726.943, 848.959 1726.940, 851.280 1726.731 C 853.601 1726.521, 851.450 1726.352, 846.500 1726.355 C 841.550 1726.358, 839.651 1726.530, 842.280 1726.736 M 862.750 1726.737 C 865.638 1726.939, 870.362 1726.939, 873.250 1726.737 C 876.138 1726.535, 873.775 1726.370, 868 1726.370 C 862.225 1726.370, 859.862 1726.535, 862.750 1726.737 M 883.750 1726.737 C 886.638 1726.939, 891.362 1726.939, 894.250 1726.737 C 897.138 1726.535, 894.775 1726.370, 889 1726.370 C 883.225 1726.370, 880.862 1726.535, 883.750 1726.737 M 912.750 1726.740 C 916.188 1726.936, 921.813 1726.936, 925.250 1726.740 C 928.688 1726.545, 925.875 1726.385, 919 1726.385 C 912.125 1726.385, 909.313 1726.545, 912.750 1726.740 M 933.762 1726.707 C 935.006 1726.946, 936.806 1726.937, 937.762 1726.687 C 938.718 1726.437, 937.700 1726.241, 935.500 1726.252 C 933.300 1726.263, 932.518 1726.468, 933.762 1726.707 M 941.250 1726.689 C 942.212 1726.941, 943.788 1726.941, 944.750 1726.689 C 945.712 1726.438, 944.925 1726.232, 943 1726.232 C 941.075 1726.232, 940.288 1726.438, 941.250 1726.689 M 968.816 1726.749 C 979.440 1726.911, 996.540 1726.911, 1006.816 1726.748 C 1017.092 1726.586, 1008.400 1726.453, 987.500 1726.454 C 966.600 1726.454, 958.192 1726.587, 968.816 1726.749 M 1033.269 1726.693 C 1034.242 1726.947, 1035.592 1726.930, 1036.269 1726.656 C 1036.946 1726.382, 1036.150 1726.175, 1034.500 1726.195 C 1032.850 1726.215, 1032.296 1726.439, 1033.269 1726.693 M 1043.287 1726.740 C 1046.469 1726.939, 1051.419 1726.937, 1054.287 1726.736 C 1057.154 1726.535, 1054.550 1726.372, 1048.500 1726.374 C 1042.450 1726.376, 1040.104 1726.541, 1043.287 1726.740 M 1063.250 1726.728 C 1065.313 1726.944, 1068.688 1726.944, 1070.750 1726.728 C 1072.813 1726.513, 1071.125 1726.336, 1067 1726.336 C 1062.875 1726.336, 1061.188 1726.513, 1063.250 1726.728 M 1084.250 1726.742 C 1087.963 1726.934, 1094.037 1726.934, 1097.750 1726.742 C 1101.463 1726.549, 1098.425 1726.392, 1091 1726.392 C 1083.575 1726.392, 1080.537 1726.549, 1084.250 1726.742 M 1116.250 1726.728 C 1118.313 1726.944, 1121.688 1726.944, 1123.750 1726.728 C 1125.813 1726.513, 1124.125 1726.336, 1120 1726.336 C 1115.875 1726.336, 1114.188 1726.513, 1116.250 1726.728 M 795.375 1748.708 C 796.364 1749.698, 1149.009 1749.794, 1149.621 1748.805 C 1149.894 1748.362, 1070.141 1748, 972.392 1748 C 874.643 1748, 794.985 1748.319, 795.375 1748.708 M 779.629 1765.029 C 781.064 1766.464, 1163.937 1766.463, 1165.372 1765.028 C 1166.076 1764.324, 1105.264 1764, 972.500 1764 C 839.609 1764, 778.924 1764.324, 779.629 1765.029" stroke="none" fill="black" fill-rule="evenodd"/>
</svg>